G04 EAGLE Gerber RS-274X export*
G75*
%MOMM*%
%FSLAX34Y34*%
%LPD*%
%INSilkscreen Top*%
%IPPOS*%
%AMOC8*
5,1,8,0,0,1.08239X$1,22.5*%
G01*
%ADD10C,0.127000*%
%ADD11C,0.152400*%
%ADD12R,0.508000X2.540000*%
%ADD13R,1.905000X0.762000*%
%ADD14C,0.508000*%
%ADD15R,1.905000X1.270000*%
%ADD16R,1.778000X0.762000*%
%ADD17R,0.762000X1.270000*%
%ADD18C,0.200000*%
%ADD19C,0.400000*%
%ADD20R,0.609600X0.863600*%
%ADD21C,0.101600*%
%ADD22C,0.203200*%
%ADD23C,0.025400*%


D10*
X231080Y38985D02*
X232985Y38985D01*
X232985Y32635D01*
X229175Y32635D01*
X229075Y32637D01*
X228976Y32643D01*
X228876Y32653D01*
X228778Y32666D01*
X228679Y32684D01*
X228582Y32705D01*
X228486Y32730D01*
X228390Y32759D01*
X228296Y32792D01*
X228203Y32828D01*
X228112Y32868D01*
X228022Y32912D01*
X227934Y32959D01*
X227848Y33009D01*
X227764Y33063D01*
X227682Y33120D01*
X227603Y33180D01*
X227525Y33244D01*
X227451Y33310D01*
X227379Y33379D01*
X227310Y33451D01*
X227244Y33525D01*
X227180Y33603D01*
X227120Y33682D01*
X227063Y33764D01*
X227009Y33848D01*
X226959Y33934D01*
X226912Y34022D01*
X226868Y34112D01*
X226828Y34203D01*
X226792Y34296D01*
X226759Y34390D01*
X226730Y34486D01*
X226705Y34582D01*
X226684Y34679D01*
X226666Y34778D01*
X226653Y34876D01*
X226643Y34976D01*
X226637Y35075D01*
X226635Y35175D01*
X226635Y41525D01*
X226637Y41625D01*
X226643Y41724D01*
X226653Y41824D01*
X226666Y41922D01*
X226684Y42021D01*
X226705Y42118D01*
X226730Y42214D01*
X226759Y42310D01*
X226792Y42404D01*
X226828Y42497D01*
X226868Y42588D01*
X226912Y42678D01*
X226959Y42766D01*
X227009Y42852D01*
X227063Y42936D01*
X227120Y43018D01*
X227180Y43097D01*
X227244Y43175D01*
X227310Y43249D01*
X227379Y43321D01*
X227451Y43390D01*
X227525Y43456D01*
X227603Y43520D01*
X227682Y43580D01*
X227764Y43637D01*
X227848Y43691D01*
X227934Y43741D01*
X228022Y43788D01*
X228112Y43832D01*
X228203Y43872D01*
X228296Y43908D01*
X228390Y43941D01*
X228486Y43970D01*
X228582Y43995D01*
X228679Y44016D01*
X228778Y44034D01*
X228876Y44047D01*
X228976Y44057D01*
X229075Y44063D01*
X229175Y44065D01*
X232985Y44065D01*
X238827Y44065D02*
X238827Y32635D01*
X245177Y32635D02*
X238827Y44065D01*
X245177Y44065D02*
X245177Y32635D01*
X251019Y32635D02*
X251019Y44065D01*
X254194Y44065D01*
X254305Y44063D01*
X254415Y44057D01*
X254526Y44048D01*
X254636Y44034D01*
X254745Y44017D01*
X254854Y43996D01*
X254962Y43971D01*
X255069Y43942D01*
X255175Y43910D01*
X255280Y43874D01*
X255383Y43834D01*
X255485Y43791D01*
X255586Y43744D01*
X255685Y43693D01*
X255782Y43640D01*
X255876Y43583D01*
X255969Y43522D01*
X256060Y43459D01*
X256149Y43392D01*
X256235Y43322D01*
X256318Y43249D01*
X256400Y43174D01*
X256478Y43096D01*
X256553Y43014D01*
X256626Y42931D01*
X256696Y42845D01*
X256763Y42756D01*
X256826Y42665D01*
X256887Y42572D01*
X256944Y42478D01*
X256997Y42381D01*
X257048Y42282D01*
X257095Y42181D01*
X257138Y42079D01*
X257178Y41976D01*
X257214Y41871D01*
X257246Y41765D01*
X257275Y41658D01*
X257300Y41550D01*
X257321Y41441D01*
X257338Y41332D01*
X257352Y41222D01*
X257361Y41111D01*
X257367Y41001D01*
X257369Y40890D01*
X257369Y35810D01*
X257367Y35699D01*
X257361Y35589D01*
X257352Y35478D01*
X257338Y35368D01*
X257321Y35259D01*
X257300Y35150D01*
X257275Y35042D01*
X257246Y34935D01*
X257214Y34829D01*
X257178Y34724D01*
X257138Y34621D01*
X257095Y34519D01*
X257048Y34418D01*
X256997Y34319D01*
X256944Y34222D01*
X256887Y34128D01*
X256826Y34035D01*
X256763Y33944D01*
X256696Y33855D01*
X256626Y33769D01*
X256553Y33686D01*
X256478Y33604D01*
X256400Y33526D01*
X256318Y33451D01*
X256235Y33378D01*
X256149Y33308D01*
X256060Y33241D01*
X255969Y33178D01*
X255876Y33117D01*
X255781Y33060D01*
X255685Y33007D01*
X255586Y32956D01*
X255485Y32909D01*
X255383Y32866D01*
X255280Y32826D01*
X255175Y32790D01*
X255069Y32758D01*
X254962Y32729D01*
X254854Y32704D01*
X254745Y32683D01*
X254636Y32666D01*
X254526Y32652D01*
X254415Y32643D01*
X254305Y32637D01*
X254194Y32635D01*
X251019Y32635D01*
X308080Y94985D02*
X309985Y94985D01*
X309985Y88635D01*
X306175Y88635D01*
X306075Y88637D01*
X305976Y88643D01*
X305876Y88653D01*
X305778Y88666D01*
X305679Y88684D01*
X305582Y88705D01*
X305486Y88730D01*
X305390Y88759D01*
X305296Y88792D01*
X305203Y88828D01*
X305112Y88868D01*
X305022Y88912D01*
X304934Y88959D01*
X304848Y89009D01*
X304764Y89063D01*
X304682Y89120D01*
X304603Y89180D01*
X304525Y89244D01*
X304451Y89310D01*
X304379Y89379D01*
X304310Y89451D01*
X304244Y89525D01*
X304180Y89603D01*
X304120Y89682D01*
X304063Y89764D01*
X304009Y89848D01*
X303959Y89934D01*
X303912Y90022D01*
X303868Y90112D01*
X303828Y90203D01*
X303792Y90296D01*
X303759Y90390D01*
X303730Y90486D01*
X303705Y90582D01*
X303684Y90679D01*
X303666Y90778D01*
X303653Y90876D01*
X303643Y90976D01*
X303637Y91075D01*
X303635Y91175D01*
X303635Y97525D01*
X303637Y97625D01*
X303643Y97724D01*
X303653Y97824D01*
X303666Y97922D01*
X303684Y98021D01*
X303705Y98118D01*
X303730Y98214D01*
X303759Y98310D01*
X303792Y98404D01*
X303828Y98497D01*
X303868Y98588D01*
X303912Y98678D01*
X303959Y98766D01*
X304009Y98852D01*
X304063Y98936D01*
X304120Y99018D01*
X304180Y99097D01*
X304244Y99175D01*
X304310Y99249D01*
X304379Y99321D01*
X304451Y99390D01*
X304525Y99456D01*
X304603Y99520D01*
X304682Y99580D01*
X304764Y99637D01*
X304848Y99691D01*
X304934Y99741D01*
X305022Y99788D01*
X305112Y99832D01*
X305203Y99872D01*
X305296Y99908D01*
X305390Y99941D01*
X305486Y99970D01*
X305582Y99995D01*
X305679Y100016D01*
X305778Y100034D01*
X305876Y100047D01*
X305976Y100057D01*
X306075Y100063D01*
X306175Y100065D01*
X309985Y100065D01*
X315827Y100065D02*
X315827Y88635D01*
X322177Y88635D02*
X315827Y100065D01*
X322177Y100065D02*
X322177Y88635D01*
X328019Y88635D02*
X328019Y100065D01*
X331194Y100065D01*
X331305Y100063D01*
X331415Y100057D01*
X331526Y100048D01*
X331636Y100034D01*
X331745Y100017D01*
X331854Y99996D01*
X331962Y99971D01*
X332069Y99942D01*
X332175Y99910D01*
X332280Y99874D01*
X332383Y99834D01*
X332485Y99791D01*
X332586Y99744D01*
X332685Y99693D01*
X332782Y99640D01*
X332876Y99583D01*
X332969Y99522D01*
X333060Y99459D01*
X333149Y99392D01*
X333235Y99322D01*
X333318Y99249D01*
X333400Y99174D01*
X333478Y99096D01*
X333553Y99014D01*
X333626Y98931D01*
X333696Y98845D01*
X333763Y98756D01*
X333826Y98665D01*
X333887Y98572D01*
X333944Y98478D01*
X333997Y98381D01*
X334048Y98282D01*
X334095Y98181D01*
X334138Y98079D01*
X334178Y97976D01*
X334214Y97871D01*
X334246Y97765D01*
X334275Y97658D01*
X334300Y97550D01*
X334321Y97441D01*
X334338Y97332D01*
X334352Y97222D01*
X334361Y97111D01*
X334367Y97001D01*
X334369Y96890D01*
X334369Y91810D01*
X334367Y91699D01*
X334361Y91589D01*
X334352Y91478D01*
X334338Y91368D01*
X334321Y91259D01*
X334300Y91150D01*
X334275Y91042D01*
X334246Y90935D01*
X334214Y90829D01*
X334178Y90724D01*
X334138Y90621D01*
X334095Y90519D01*
X334048Y90418D01*
X333997Y90319D01*
X333944Y90222D01*
X333887Y90128D01*
X333826Y90035D01*
X333763Y89944D01*
X333696Y89855D01*
X333626Y89769D01*
X333553Y89686D01*
X333478Y89604D01*
X333400Y89526D01*
X333318Y89451D01*
X333235Y89378D01*
X333149Y89308D01*
X333060Y89241D01*
X332969Y89178D01*
X332876Y89117D01*
X332782Y89060D01*
X332685Y89007D01*
X332586Y88956D01*
X332485Y88909D01*
X332383Y88866D01*
X332280Y88826D01*
X332175Y88790D01*
X332069Y88758D01*
X331962Y88729D01*
X331854Y88704D01*
X331745Y88683D01*
X331636Y88666D01*
X331526Y88652D01*
X331415Y88643D01*
X331305Y88637D01*
X331194Y88635D01*
X328019Y88635D01*
X320635Y156810D02*
X320635Y161890D01*
X320637Y162001D01*
X320643Y162111D01*
X320652Y162222D01*
X320666Y162332D01*
X320683Y162441D01*
X320704Y162550D01*
X320729Y162658D01*
X320758Y162765D01*
X320790Y162871D01*
X320826Y162976D01*
X320866Y163079D01*
X320909Y163181D01*
X320956Y163282D01*
X321007Y163381D01*
X321060Y163478D01*
X321117Y163572D01*
X321178Y163665D01*
X321241Y163756D01*
X321308Y163845D01*
X321378Y163931D01*
X321451Y164014D01*
X321526Y164096D01*
X321604Y164174D01*
X321686Y164249D01*
X321769Y164322D01*
X321855Y164392D01*
X321944Y164459D01*
X322035Y164522D01*
X322128Y164583D01*
X322223Y164640D01*
X322319Y164693D01*
X322418Y164744D01*
X322519Y164791D01*
X322621Y164834D01*
X322724Y164874D01*
X322829Y164910D01*
X322935Y164942D01*
X323042Y164971D01*
X323150Y164996D01*
X323259Y165017D01*
X323368Y165034D01*
X323478Y165048D01*
X323589Y165057D01*
X323699Y165063D01*
X323810Y165065D01*
X323921Y165063D01*
X324031Y165057D01*
X324142Y165048D01*
X324252Y165034D01*
X324361Y165017D01*
X324470Y164996D01*
X324578Y164971D01*
X324685Y164942D01*
X324791Y164910D01*
X324896Y164874D01*
X324999Y164834D01*
X325101Y164791D01*
X325202Y164744D01*
X325301Y164693D01*
X325398Y164640D01*
X325492Y164583D01*
X325585Y164522D01*
X325676Y164459D01*
X325765Y164392D01*
X325851Y164322D01*
X325934Y164249D01*
X326016Y164174D01*
X326094Y164096D01*
X326169Y164014D01*
X326242Y163931D01*
X326312Y163845D01*
X326379Y163756D01*
X326442Y163665D01*
X326503Y163572D01*
X326560Y163478D01*
X326613Y163381D01*
X326664Y163282D01*
X326711Y163181D01*
X326754Y163079D01*
X326794Y162976D01*
X326830Y162871D01*
X326862Y162765D01*
X326891Y162658D01*
X326916Y162550D01*
X326937Y162441D01*
X326954Y162332D01*
X326968Y162222D01*
X326977Y162111D01*
X326983Y162001D01*
X326985Y161890D01*
X326985Y156810D01*
X326983Y156699D01*
X326977Y156589D01*
X326968Y156478D01*
X326954Y156368D01*
X326937Y156259D01*
X326916Y156150D01*
X326891Y156042D01*
X326862Y155935D01*
X326830Y155829D01*
X326794Y155724D01*
X326754Y155621D01*
X326711Y155519D01*
X326664Y155418D01*
X326613Y155319D01*
X326560Y155222D01*
X326503Y155128D01*
X326442Y155035D01*
X326379Y154944D01*
X326312Y154855D01*
X326242Y154769D01*
X326169Y154686D01*
X326094Y154604D01*
X326016Y154526D01*
X325934Y154451D01*
X325851Y154378D01*
X325765Y154308D01*
X325676Y154241D01*
X325585Y154178D01*
X325492Y154117D01*
X325397Y154060D01*
X325301Y154007D01*
X325202Y153956D01*
X325101Y153909D01*
X324999Y153866D01*
X324896Y153826D01*
X324791Y153790D01*
X324685Y153758D01*
X324578Y153729D01*
X324470Y153704D01*
X324361Y153683D01*
X324252Y153666D01*
X324142Y153652D01*
X324031Y153643D01*
X323921Y153637D01*
X323810Y153635D01*
X323699Y153637D01*
X323589Y153643D01*
X323478Y153652D01*
X323368Y153666D01*
X323259Y153683D01*
X323150Y153704D01*
X323042Y153729D01*
X322935Y153758D01*
X322829Y153790D01*
X322724Y153826D01*
X322621Y153866D01*
X322519Y153909D01*
X322418Y153956D01*
X322319Y154007D01*
X322223Y154060D01*
X322128Y154117D01*
X322035Y154178D01*
X321944Y154241D01*
X321855Y154308D01*
X321769Y154378D01*
X321686Y154451D01*
X321604Y154526D01*
X321526Y154604D01*
X321451Y154686D01*
X321378Y154769D01*
X321308Y154855D01*
X321241Y154944D01*
X321178Y155035D01*
X321117Y155128D01*
X321060Y155223D01*
X321007Y155319D01*
X320956Y155418D01*
X320909Y155519D01*
X320866Y155621D01*
X320826Y155724D01*
X320790Y155829D01*
X320758Y155935D01*
X320729Y156042D01*
X320704Y156150D01*
X320683Y156259D01*
X320666Y156368D01*
X320652Y156478D01*
X320643Y156589D01*
X320637Y156699D01*
X320635Y156810D01*
X332446Y153635D02*
X332446Y165065D01*
X338796Y153635D01*
X338796Y165065D01*
X256635Y247795D02*
X256635Y249065D01*
X262985Y249065D01*
X259810Y237635D01*
X268192Y242080D02*
X275812Y242080D01*
X281019Y246525D02*
X284194Y249065D01*
X284194Y237635D01*
X281019Y237635D02*
X287369Y237635D01*
X298800Y246208D02*
X298798Y246312D01*
X298792Y246417D01*
X298783Y246521D01*
X298770Y246624D01*
X298752Y246727D01*
X298732Y246829D01*
X298707Y246931D01*
X298679Y247031D01*
X298647Y247131D01*
X298611Y247229D01*
X298572Y247326D01*
X298530Y247421D01*
X298484Y247515D01*
X298434Y247607D01*
X298382Y247697D01*
X298326Y247785D01*
X298266Y247871D01*
X298204Y247955D01*
X298139Y248036D01*
X298071Y248115D01*
X297999Y248192D01*
X297926Y248265D01*
X297849Y248337D01*
X297770Y248405D01*
X297689Y248470D01*
X297605Y248532D01*
X297519Y248592D01*
X297431Y248648D01*
X297341Y248700D01*
X297249Y248750D01*
X297155Y248796D01*
X297060Y248838D01*
X296963Y248877D01*
X296865Y248913D01*
X296765Y248945D01*
X296665Y248973D01*
X296563Y248998D01*
X296461Y249018D01*
X296358Y249036D01*
X296255Y249049D01*
X296151Y249058D01*
X296046Y249064D01*
X295942Y249066D01*
X295942Y249065D02*
X295824Y249063D01*
X295705Y249057D01*
X295587Y249048D01*
X295470Y249035D01*
X295353Y249017D01*
X295236Y248997D01*
X295120Y248972D01*
X295005Y248944D01*
X294892Y248911D01*
X294779Y248876D01*
X294667Y248836D01*
X294557Y248794D01*
X294448Y248747D01*
X294340Y248697D01*
X294235Y248644D01*
X294131Y248587D01*
X294029Y248527D01*
X293929Y248464D01*
X293831Y248397D01*
X293735Y248328D01*
X293642Y248255D01*
X293551Y248179D01*
X293462Y248101D01*
X293376Y248019D01*
X293293Y247935D01*
X293212Y247849D01*
X293135Y247759D01*
X293060Y247668D01*
X292988Y247574D01*
X292919Y247477D01*
X292854Y247379D01*
X292791Y247278D01*
X292732Y247175D01*
X292676Y247071D01*
X292624Y246965D01*
X292575Y246857D01*
X292530Y246748D01*
X292488Y246637D01*
X292450Y246525D01*
X297847Y243986D02*
X297923Y244061D01*
X297998Y244140D01*
X298069Y244221D01*
X298138Y244305D01*
X298203Y244391D01*
X298265Y244479D01*
X298325Y244569D01*
X298381Y244661D01*
X298434Y244756D01*
X298483Y244852D01*
X298529Y244950D01*
X298572Y245049D01*
X298611Y245150D01*
X298646Y245252D01*
X298678Y245355D01*
X298706Y245459D01*
X298731Y245564D01*
X298752Y245671D01*
X298769Y245777D01*
X298782Y245884D01*
X298791Y245992D01*
X298797Y246100D01*
X298799Y246208D01*
X297847Y243985D02*
X292449Y237635D01*
X298799Y237635D01*
X307054Y237635D02*
X303244Y249065D01*
X310864Y249065D02*
X307054Y237635D01*
X7810Y255635D02*
X4635Y255635D01*
X7810Y255635D02*
X7921Y255637D01*
X8031Y255643D01*
X8142Y255652D01*
X8252Y255666D01*
X8361Y255683D01*
X8470Y255704D01*
X8578Y255729D01*
X8685Y255758D01*
X8791Y255790D01*
X8896Y255826D01*
X8999Y255866D01*
X9101Y255909D01*
X9202Y255956D01*
X9301Y256007D01*
X9397Y256060D01*
X9492Y256117D01*
X9585Y256178D01*
X9676Y256241D01*
X9765Y256308D01*
X9851Y256378D01*
X9934Y256451D01*
X10016Y256526D01*
X10094Y256604D01*
X10169Y256686D01*
X10242Y256769D01*
X10312Y256855D01*
X10379Y256944D01*
X10442Y257035D01*
X10503Y257128D01*
X10560Y257222D01*
X10613Y257319D01*
X10664Y257418D01*
X10711Y257519D01*
X10754Y257621D01*
X10794Y257724D01*
X10830Y257829D01*
X10862Y257935D01*
X10891Y258042D01*
X10916Y258150D01*
X10937Y258259D01*
X10954Y258368D01*
X10968Y258478D01*
X10977Y258589D01*
X10983Y258699D01*
X10985Y258810D01*
X10983Y258921D01*
X10977Y259031D01*
X10968Y259142D01*
X10954Y259252D01*
X10937Y259361D01*
X10916Y259470D01*
X10891Y259578D01*
X10862Y259685D01*
X10830Y259791D01*
X10794Y259896D01*
X10754Y259999D01*
X10711Y260101D01*
X10664Y260202D01*
X10613Y260301D01*
X10560Y260397D01*
X10503Y260492D01*
X10442Y260585D01*
X10379Y260676D01*
X10312Y260765D01*
X10242Y260851D01*
X10169Y260934D01*
X10094Y261016D01*
X10016Y261094D01*
X9934Y261169D01*
X9851Y261242D01*
X9765Y261312D01*
X9676Y261379D01*
X9585Y261442D01*
X9492Y261503D01*
X9398Y261560D01*
X9301Y261613D01*
X9202Y261664D01*
X9101Y261711D01*
X8999Y261754D01*
X8896Y261794D01*
X8791Y261830D01*
X8685Y261862D01*
X8578Y261891D01*
X8470Y261916D01*
X8361Y261937D01*
X8252Y261954D01*
X8142Y261968D01*
X8031Y261977D01*
X7921Y261983D01*
X7810Y261985D01*
X8445Y267065D02*
X4635Y267065D01*
X8445Y267065D02*
X8545Y267063D01*
X8644Y267057D01*
X8744Y267047D01*
X8842Y267034D01*
X8941Y267016D01*
X9038Y266995D01*
X9134Y266970D01*
X9230Y266941D01*
X9324Y266908D01*
X9417Y266872D01*
X9508Y266832D01*
X9598Y266788D01*
X9686Y266741D01*
X9772Y266691D01*
X9856Y266637D01*
X9938Y266580D01*
X10017Y266520D01*
X10095Y266456D01*
X10169Y266390D01*
X10241Y266321D01*
X10310Y266249D01*
X10376Y266175D01*
X10440Y266097D01*
X10500Y266018D01*
X10557Y265936D01*
X10611Y265852D01*
X10661Y265766D01*
X10708Y265678D01*
X10752Y265588D01*
X10792Y265497D01*
X10828Y265404D01*
X10861Y265310D01*
X10890Y265214D01*
X10915Y265118D01*
X10936Y265021D01*
X10954Y264922D01*
X10967Y264824D01*
X10977Y264724D01*
X10983Y264625D01*
X10985Y264525D01*
X10983Y264425D01*
X10977Y264326D01*
X10967Y264226D01*
X10954Y264128D01*
X10936Y264029D01*
X10915Y263932D01*
X10890Y263836D01*
X10861Y263740D01*
X10828Y263646D01*
X10792Y263553D01*
X10752Y263462D01*
X10708Y263372D01*
X10661Y263284D01*
X10611Y263198D01*
X10557Y263114D01*
X10500Y263032D01*
X10440Y262953D01*
X10376Y262875D01*
X10310Y262801D01*
X10241Y262729D01*
X10169Y262660D01*
X10095Y262594D01*
X10017Y262530D01*
X9938Y262470D01*
X9856Y262413D01*
X9772Y262359D01*
X9686Y262309D01*
X9598Y262262D01*
X9508Y262218D01*
X9417Y262178D01*
X9324Y262142D01*
X9230Y262109D01*
X9134Y262080D01*
X9038Y262055D01*
X8941Y262034D01*
X8842Y262016D01*
X8744Y262003D01*
X8644Y261993D01*
X8545Y261987D01*
X8445Y261985D01*
X5905Y261985D01*
X15494Y256270D02*
X15494Y255635D01*
X15494Y256270D02*
X16129Y256270D01*
X16129Y255635D01*
X15494Y255635D01*
X20637Y255635D02*
X23812Y255635D01*
X23923Y255637D01*
X24033Y255643D01*
X24144Y255652D01*
X24254Y255666D01*
X24363Y255683D01*
X24472Y255704D01*
X24580Y255729D01*
X24687Y255758D01*
X24793Y255790D01*
X24898Y255826D01*
X25001Y255866D01*
X25103Y255909D01*
X25204Y255956D01*
X25303Y256007D01*
X25399Y256060D01*
X25494Y256117D01*
X25587Y256178D01*
X25678Y256241D01*
X25767Y256308D01*
X25853Y256378D01*
X25936Y256451D01*
X26018Y256526D01*
X26096Y256604D01*
X26171Y256686D01*
X26244Y256769D01*
X26314Y256855D01*
X26381Y256944D01*
X26444Y257035D01*
X26505Y257128D01*
X26562Y257222D01*
X26615Y257319D01*
X26666Y257418D01*
X26713Y257519D01*
X26756Y257621D01*
X26796Y257724D01*
X26832Y257829D01*
X26864Y257935D01*
X26893Y258042D01*
X26918Y258150D01*
X26939Y258259D01*
X26956Y258368D01*
X26970Y258478D01*
X26979Y258589D01*
X26985Y258699D01*
X26987Y258810D01*
X26985Y258921D01*
X26979Y259031D01*
X26970Y259142D01*
X26956Y259252D01*
X26939Y259361D01*
X26918Y259470D01*
X26893Y259578D01*
X26864Y259685D01*
X26832Y259791D01*
X26796Y259896D01*
X26756Y259999D01*
X26713Y260101D01*
X26666Y260202D01*
X26615Y260301D01*
X26562Y260397D01*
X26505Y260492D01*
X26444Y260585D01*
X26381Y260676D01*
X26314Y260765D01*
X26244Y260851D01*
X26171Y260934D01*
X26096Y261016D01*
X26018Y261094D01*
X25936Y261169D01*
X25853Y261242D01*
X25767Y261312D01*
X25678Y261379D01*
X25587Y261442D01*
X25494Y261503D01*
X25400Y261560D01*
X25303Y261613D01*
X25204Y261664D01*
X25103Y261711D01*
X25001Y261754D01*
X24898Y261794D01*
X24793Y261830D01*
X24687Y261862D01*
X24580Y261891D01*
X24472Y261916D01*
X24363Y261937D01*
X24254Y261954D01*
X24144Y261968D01*
X24033Y261977D01*
X23923Y261983D01*
X23812Y261985D01*
X24447Y267065D02*
X20637Y267065D01*
X24447Y267065D02*
X24547Y267063D01*
X24646Y267057D01*
X24746Y267047D01*
X24844Y267034D01*
X24943Y267016D01*
X25040Y266995D01*
X25136Y266970D01*
X25232Y266941D01*
X25326Y266908D01*
X25419Y266872D01*
X25510Y266832D01*
X25600Y266788D01*
X25688Y266741D01*
X25774Y266691D01*
X25858Y266637D01*
X25940Y266580D01*
X26019Y266520D01*
X26097Y266456D01*
X26171Y266390D01*
X26243Y266321D01*
X26312Y266249D01*
X26378Y266175D01*
X26442Y266097D01*
X26502Y266018D01*
X26559Y265936D01*
X26613Y265852D01*
X26663Y265766D01*
X26710Y265678D01*
X26754Y265588D01*
X26794Y265497D01*
X26830Y265404D01*
X26863Y265310D01*
X26892Y265214D01*
X26917Y265118D01*
X26938Y265021D01*
X26956Y264922D01*
X26969Y264824D01*
X26979Y264724D01*
X26985Y264625D01*
X26987Y264525D01*
X26985Y264425D01*
X26979Y264326D01*
X26969Y264226D01*
X26956Y264128D01*
X26938Y264029D01*
X26917Y263932D01*
X26892Y263836D01*
X26863Y263740D01*
X26830Y263646D01*
X26794Y263553D01*
X26754Y263462D01*
X26710Y263372D01*
X26663Y263284D01*
X26613Y263198D01*
X26559Y263114D01*
X26502Y263032D01*
X26442Y262953D01*
X26378Y262875D01*
X26312Y262801D01*
X26243Y262729D01*
X26171Y262660D01*
X26097Y262594D01*
X26019Y262530D01*
X25940Y262470D01*
X25858Y262413D01*
X25774Y262359D01*
X25688Y262309D01*
X25600Y262262D01*
X25510Y262218D01*
X25419Y262178D01*
X25326Y262142D01*
X25232Y262109D01*
X25136Y262080D01*
X25040Y262055D01*
X24943Y262034D01*
X24844Y262016D01*
X24746Y262003D01*
X24646Y261993D01*
X24547Y261987D01*
X24447Y261985D01*
X21907Y261985D01*
X31432Y267065D02*
X35242Y255635D01*
X39052Y267065D01*
X9445Y155635D02*
X5635Y155635D01*
X9445Y155635D02*
X9545Y155637D01*
X9644Y155643D01*
X9744Y155653D01*
X9842Y155666D01*
X9941Y155684D01*
X10038Y155705D01*
X10134Y155730D01*
X10230Y155759D01*
X10324Y155792D01*
X10417Y155828D01*
X10508Y155868D01*
X10598Y155912D01*
X10686Y155959D01*
X10772Y156009D01*
X10856Y156063D01*
X10938Y156120D01*
X11017Y156180D01*
X11095Y156244D01*
X11169Y156310D01*
X11241Y156379D01*
X11310Y156451D01*
X11376Y156525D01*
X11440Y156603D01*
X11500Y156682D01*
X11557Y156764D01*
X11611Y156848D01*
X11661Y156934D01*
X11708Y157022D01*
X11752Y157112D01*
X11792Y157203D01*
X11828Y157296D01*
X11861Y157390D01*
X11890Y157486D01*
X11915Y157582D01*
X11936Y157679D01*
X11954Y157778D01*
X11967Y157876D01*
X11977Y157976D01*
X11983Y158075D01*
X11985Y158175D01*
X11985Y159445D01*
X11983Y159545D01*
X11977Y159644D01*
X11967Y159744D01*
X11954Y159842D01*
X11936Y159941D01*
X11915Y160038D01*
X11890Y160134D01*
X11861Y160230D01*
X11828Y160324D01*
X11792Y160417D01*
X11752Y160508D01*
X11708Y160598D01*
X11661Y160686D01*
X11611Y160772D01*
X11557Y160856D01*
X11500Y160938D01*
X11440Y161017D01*
X11376Y161095D01*
X11310Y161169D01*
X11241Y161241D01*
X11169Y161310D01*
X11095Y161376D01*
X11017Y161440D01*
X10938Y161500D01*
X10856Y161557D01*
X10772Y161611D01*
X10686Y161661D01*
X10598Y161708D01*
X10508Y161752D01*
X10417Y161792D01*
X10324Y161828D01*
X10230Y161861D01*
X10134Y161890D01*
X10038Y161915D01*
X9941Y161936D01*
X9842Y161954D01*
X9744Y161967D01*
X9644Y161977D01*
X9545Y161983D01*
X9445Y161985D01*
X5635Y161985D01*
X5635Y167065D01*
X11985Y167065D01*
X16430Y167065D02*
X20240Y155635D01*
X24050Y167065D01*
X201635Y44065D02*
X205445Y32635D01*
X209255Y44065D01*
X213827Y37080D02*
X221447Y37080D01*
X217637Y33270D02*
X217637Y40890D01*
X277445Y88635D02*
X273635Y100065D01*
X281255Y100065D02*
X277445Y88635D01*
X285827Y93080D02*
X293447Y93080D01*
X289637Y89270D02*
X289637Y96890D01*
X290635Y222810D02*
X290635Y227890D01*
X290637Y228001D01*
X290643Y228111D01*
X290652Y228222D01*
X290666Y228332D01*
X290683Y228441D01*
X290704Y228550D01*
X290729Y228658D01*
X290758Y228765D01*
X290790Y228871D01*
X290826Y228976D01*
X290866Y229079D01*
X290909Y229181D01*
X290956Y229282D01*
X291007Y229381D01*
X291060Y229478D01*
X291117Y229572D01*
X291178Y229665D01*
X291241Y229756D01*
X291308Y229845D01*
X291378Y229931D01*
X291451Y230014D01*
X291526Y230096D01*
X291604Y230174D01*
X291686Y230249D01*
X291769Y230322D01*
X291855Y230392D01*
X291944Y230459D01*
X292035Y230522D01*
X292128Y230583D01*
X292223Y230640D01*
X292319Y230693D01*
X292418Y230744D01*
X292519Y230791D01*
X292621Y230834D01*
X292724Y230874D01*
X292829Y230910D01*
X292935Y230942D01*
X293042Y230971D01*
X293150Y230996D01*
X293259Y231017D01*
X293368Y231034D01*
X293478Y231048D01*
X293589Y231057D01*
X293699Y231063D01*
X293810Y231065D01*
X293921Y231063D01*
X294031Y231057D01*
X294142Y231048D01*
X294252Y231034D01*
X294361Y231017D01*
X294470Y230996D01*
X294578Y230971D01*
X294685Y230942D01*
X294791Y230910D01*
X294896Y230874D01*
X294999Y230834D01*
X295101Y230791D01*
X295202Y230744D01*
X295301Y230693D01*
X295398Y230640D01*
X295492Y230583D01*
X295585Y230522D01*
X295676Y230459D01*
X295765Y230392D01*
X295851Y230322D01*
X295934Y230249D01*
X296016Y230174D01*
X296094Y230096D01*
X296169Y230014D01*
X296242Y229931D01*
X296312Y229845D01*
X296379Y229756D01*
X296442Y229665D01*
X296503Y229572D01*
X296560Y229478D01*
X296613Y229381D01*
X296664Y229282D01*
X296711Y229181D01*
X296754Y229079D01*
X296794Y228976D01*
X296830Y228871D01*
X296862Y228765D01*
X296891Y228658D01*
X296916Y228550D01*
X296937Y228441D01*
X296954Y228332D01*
X296968Y228222D01*
X296977Y228111D01*
X296983Y228001D01*
X296985Y227890D01*
X296985Y222810D01*
X296983Y222699D01*
X296977Y222589D01*
X296968Y222478D01*
X296954Y222368D01*
X296937Y222259D01*
X296916Y222150D01*
X296891Y222042D01*
X296862Y221935D01*
X296830Y221829D01*
X296794Y221724D01*
X296754Y221621D01*
X296711Y221519D01*
X296664Y221418D01*
X296613Y221319D01*
X296560Y221222D01*
X296503Y221128D01*
X296442Y221035D01*
X296379Y220944D01*
X296312Y220855D01*
X296242Y220769D01*
X296169Y220686D01*
X296094Y220604D01*
X296016Y220526D01*
X295934Y220451D01*
X295851Y220378D01*
X295765Y220308D01*
X295676Y220241D01*
X295585Y220178D01*
X295492Y220117D01*
X295397Y220060D01*
X295301Y220007D01*
X295202Y219956D01*
X295101Y219909D01*
X294999Y219866D01*
X294896Y219826D01*
X294791Y219790D01*
X294685Y219758D01*
X294578Y219729D01*
X294470Y219704D01*
X294361Y219683D01*
X294252Y219666D01*
X294142Y219652D01*
X294031Y219643D01*
X293921Y219637D01*
X293810Y219635D01*
X293699Y219637D01*
X293589Y219643D01*
X293478Y219652D01*
X293368Y219666D01*
X293259Y219683D01*
X293150Y219704D01*
X293042Y219729D01*
X292935Y219758D01*
X292829Y219790D01*
X292724Y219826D01*
X292621Y219866D01*
X292519Y219909D01*
X292418Y219956D01*
X292319Y220007D01*
X292223Y220060D01*
X292128Y220117D01*
X292035Y220178D01*
X291944Y220241D01*
X291855Y220308D01*
X291769Y220378D01*
X291686Y220451D01*
X291604Y220526D01*
X291526Y220604D01*
X291451Y220686D01*
X291378Y220769D01*
X291308Y220855D01*
X291241Y220944D01*
X291178Y221035D01*
X291117Y221128D01*
X291060Y221223D01*
X291007Y221319D01*
X290956Y221418D01*
X290909Y221519D01*
X290866Y221621D01*
X290826Y221724D01*
X290790Y221829D01*
X290758Y221935D01*
X290729Y222042D01*
X290704Y222150D01*
X290683Y222259D01*
X290666Y222368D01*
X290652Y222478D01*
X290643Y222589D01*
X290637Y222699D01*
X290635Y222810D01*
X302471Y219635D02*
X302471Y231065D01*
X307551Y231065D01*
X307551Y225985D02*
X302471Y225985D01*
X312377Y231065D02*
X312377Y219635D01*
X312377Y231065D02*
X317457Y231065D01*
X317457Y225985D02*
X312377Y225985D01*
D11*
X155240Y102620D02*
X155240Y97540D01*
X152700Y100080D02*
X157780Y100080D01*
X155240Y91190D02*
X155240Y86110D01*
X118410Y95000D02*
X118417Y95530D01*
X118436Y96059D01*
X118468Y96588D01*
X118514Y97116D01*
X118572Y97643D01*
X118644Y98168D01*
X118728Y98691D01*
X118825Y99212D01*
X118935Y99730D01*
X119057Y100246D01*
X119192Y100758D01*
X119340Y101267D01*
X119500Y101772D01*
X119672Y102273D01*
X119857Y102770D01*
X120053Y103262D01*
X120262Y103749D01*
X120483Y104231D01*
X120715Y104707D01*
X120959Y105177D01*
X121215Y105642D01*
X121482Y106099D01*
X121760Y106551D01*
X122049Y106995D01*
X122348Y107432D01*
X122659Y107861D01*
X122980Y108283D01*
X123311Y108697D01*
X123652Y109102D01*
X124003Y109499D01*
X124364Y109887D01*
X124734Y110266D01*
X125113Y110636D01*
X125501Y110997D01*
X125898Y111348D01*
X126303Y111689D01*
X126717Y112020D01*
X127139Y112341D01*
X127568Y112652D01*
X128005Y112951D01*
X128449Y113240D01*
X128901Y113518D01*
X129358Y113785D01*
X129823Y114041D01*
X130293Y114285D01*
X130769Y114517D01*
X131251Y114738D01*
X131738Y114947D01*
X132230Y115143D01*
X132727Y115328D01*
X133228Y115500D01*
X133733Y115660D01*
X134242Y115808D01*
X134754Y115943D01*
X135270Y116065D01*
X135788Y116175D01*
X136309Y116272D01*
X136832Y116356D01*
X137357Y116428D01*
X137884Y116486D01*
X138412Y116532D01*
X138941Y116564D01*
X139470Y116583D01*
X140000Y116590D01*
X140530Y116583D01*
X141059Y116564D01*
X141588Y116532D01*
X142116Y116486D01*
X142643Y116428D01*
X143168Y116356D01*
X143691Y116272D01*
X144212Y116175D01*
X144730Y116065D01*
X145246Y115943D01*
X145758Y115808D01*
X146267Y115660D01*
X146772Y115500D01*
X147273Y115328D01*
X147770Y115143D01*
X148262Y114947D01*
X148749Y114738D01*
X149231Y114517D01*
X149707Y114285D01*
X150177Y114041D01*
X150642Y113785D01*
X151099Y113518D01*
X151551Y113240D01*
X151995Y112951D01*
X152432Y112652D01*
X152861Y112341D01*
X153283Y112020D01*
X153697Y111689D01*
X154102Y111348D01*
X154499Y110997D01*
X154887Y110636D01*
X155266Y110266D01*
X155636Y109887D01*
X155997Y109499D01*
X156348Y109102D01*
X156689Y108697D01*
X157020Y108283D01*
X157341Y107861D01*
X157652Y107432D01*
X157951Y106995D01*
X158240Y106551D01*
X158518Y106099D01*
X158785Y105642D01*
X159041Y105177D01*
X159285Y104707D01*
X159517Y104231D01*
X159738Y103749D01*
X159947Y103262D01*
X160143Y102770D01*
X160328Y102273D01*
X160500Y101772D01*
X160660Y101267D01*
X160808Y100758D01*
X160943Y100246D01*
X161065Y99730D01*
X161175Y99212D01*
X161272Y98691D01*
X161356Y98168D01*
X161428Y97643D01*
X161486Y97116D01*
X161532Y96588D01*
X161564Y96059D01*
X161583Y95530D01*
X161590Y95000D01*
X161583Y94470D01*
X161564Y93941D01*
X161532Y93412D01*
X161486Y92884D01*
X161428Y92357D01*
X161356Y91832D01*
X161272Y91309D01*
X161175Y90788D01*
X161065Y90270D01*
X160943Y89754D01*
X160808Y89242D01*
X160660Y88733D01*
X160500Y88228D01*
X160328Y87727D01*
X160143Y87230D01*
X159947Y86738D01*
X159738Y86251D01*
X159517Y85769D01*
X159285Y85293D01*
X159041Y84823D01*
X158785Y84358D01*
X158518Y83901D01*
X158240Y83449D01*
X157951Y83005D01*
X157652Y82568D01*
X157341Y82139D01*
X157020Y81717D01*
X156689Y81303D01*
X156348Y80898D01*
X155997Y80501D01*
X155636Y80113D01*
X155266Y79734D01*
X154887Y79364D01*
X154499Y79003D01*
X154102Y78652D01*
X153697Y78311D01*
X153283Y77980D01*
X152861Y77659D01*
X152432Y77348D01*
X151995Y77049D01*
X151551Y76760D01*
X151099Y76482D01*
X150642Y76215D01*
X150177Y75959D01*
X149707Y75715D01*
X149231Y75483D01*
X148749Y75262D01*
X148262Y75053D01*
X147770Y74857D01*
X147273Y74672D01*
X146772Y74500D01*
X146267Y74340D01*
X145758Y74192D01*
X145246Y74057D01*
X144730Y73935D01*
X144212Y73825D01*
X143691Y73728D01*
X143168Y73644D01*
X142643Y73572D01*
X142116Y73514D01*
X141588Y73468D01*
X141059Y73436D01*
X140530Y73417D01*
X140000Y73410D01*
X139470Y73417D01*
X138941Y73436D01*
X138412Y73468D01*
X137884Y73514D01*
X137357Y73572D01*
X136832Y73644D01*
X136309Y73728D01*
X135788Y73825D01*
X135270Y73935D01*
X134754Y74057D01*
X134242Y74192D01*
X133733Y74340D01*
X133228Y74500D01*
X132727Y74672D01*
X132230Y74857D01*
X131738Y75053D01*
X131251Y75262D01*
X130769Y75483D01*
X130293Y75715D01*
X129823Y75959D01*
X129358Y76215D01*
X128901Y76482D01*
X128449Y76760D01*
X128005Y77049D01*
X127568Y77348D01*
X127139Y77659D01*
X126717Y77980D01*
X126303Y78311D01*
X125898Y78652D01*
X125501Y79003D01*
X125113Y79364D01*
X124734Y79734D01*
X124364Y80113D01*
X124003Y80501D01*
X123652Y80898D01*
X123311Y81303D01*
X122980Y81717D01*
X122659Y82139D01*
X122348Y82568D01*
X122049Y83005D01*
X121760Y83449D01*
X121482Y83901D01*
X121215Y84358D01*
X120959Y84823D01*
X120715Y85293D01*
X120483Y85769D01*
X120262Y86251D01*
X120053Y86738D01*
X119857Y87230D01*
X119672Y87727D01*
X119500Y88228D01*
X119340Y88733D01*
X119192Y89242D01*
X119057Y89754D01*
X118935Y90270D01*
X118825Y90788D01*
X118728Y91309D01*
X118644Y91832D01*
X118572Y92357D01*
X118514Y92884D01*
X118468Y93412D01*
X118436Y93941D01*
X118417Y94470D01*
X118410Y95000D01*
D10*
X103124Y94385D02*
X100584Y94385D01*
X100484Y94387D01*
X100385Y94393D01*
X100285Y94403D01*
X100187Y94416D01*
X100088Y94434D01*
X99991Y94455D01*
X99895Y94480D01*
X99799Y94509D01*
X99705Y94542D01*
X99612Y94578D01*
X99521Y94618D01*
X99431Y94662D01*
X99343Y94709D01*
X99257Y94759D01*
X99173Y94813D01*
X99091Y94870D01*
X99012Y94930D01*
X98934Y94994D01*
X98860Y95060D01*
X98788Y95129D01*
X98719Y95201D01*
X98653Y95275D01*
X98589Y95353D01*
X98529Y95432D01*
X98472Y95514D01*
X98418Y95598D01*
X98368Y95684D01*
X98321Y95772D01*
X98277Y95862D01*
X98237Y95953D01*
X98201Y96046D01*
X98168Y96140D01*
X98139Y96236D01*
X98114Y96332D01*
X98093Y96429D01*
X98075Y96528D01*
X98062Y96626D01*
X98052Y96726D01*
X98046Y96825D01*
X98044Y96925D01*
X98044Y103275D01*
X98046Y103375D01*
X98052Y103474D01*
X98062Y103574D01*
X98075Y103672D01*
X98093Y103771D01*
X98114Y103868D01*
X98139Y103964D01*
X98168Y104060D01*
X98201Y104154D01*
X98237Y104247D01*
X98277Y104338D01*
X98321Y104428D01*
X98368Y104516D01*
X98418Y104602D01*
X98472Y104686D01*
X98529Y104768D01*
X98589Y104847D01*
X98653Y104925D01*
X98719Y104999D01*
X98788Y105071D01*
X98860Y105140D01*
X98934Y105206D01*
X99012Y105270D01*
X99091Y105330D01*
X99173Y105387D01*
X99257Y105441D01*
X99343Y105491D01*
X99431Y105538D01*
X99521Y105582D01*
X99612Y105622D01*
X99705Y105658D01*
X99799Y105691D01*
X99895Y105720D01*
X99991Y105745D01*
X100088Y105766D01*
X100187Y105784D01*
X100285Y105797D01*
X100385Y105807D01*
X100484Y105813D01*
X100584Y105815D01*
X103124Y105815D01*
X111099Y105816D02*
X111203Y105814D01*
X111308Y105808D01*
X111412Y105799D01*
X111515Y105786D01*
X111618Y105768D01*
X111720Y105748D01*
X111822Y105723D01*
X111922Y105695D01*
X112022Y105663D01*
X112120Y105627D01*
X112217Y105588D01*
X112312Y105546D01*
X112406Y105500D01*
X112498Y105450D01*
X112588Y105398D01*
X112676Y105342D01*
X112762Y105282D01*
X112846Y105220D01*
X112927Y105155D01*
X113006Y105087D01*
X113083Y105015D01*
X113156Y104942D01*
X113228Y104865D01*
X113296Y104786D01*
X113361Y104705D01*
X113423Y104621D01*
X113483Y104535D01*
X113539Y104447D01*
X113591Y104357D01*
X113641Y104265D01*
X113687Y104171D01*
X113729Y104076D01*
X113768Y103979D01*
X113804Y103881D01*
X113836Y103781D01*
X113864Y103681D01*
X113889Y103579D01*
X113909Y103477D01*
X113927Y103374D01*
X113940Y103271D01*
X113949Y103167D01*
X113955Y103062D01*
X113957Y102958D01*
X111099Y105815D02*
X110981Y105813D01*
X110862Y105807D01*
X110744Y105798D01*
X110627Y105785D01*
X110510Y105767D01*
X110393Y105747D01*
X110277Y105722D01*
X110162Y105694D01*
X110049Y105661D01*
X109936Y105626D01*
X109824Y105586D01*
X109714Y105544D01*
X109605Y105497D01*
X109497Y105447D01*
X109392Y105394D01*
X109288Y105337D01*
X109186Y105277D01*
X109086Y105214D01*
X108988Y105147D01*
X108892Y105078D01*
X108799Y105005D01*
X108708Y104929D01*
X108619Y104851D01*
X108533Y104769D01*
X108450Y104685D01*
X108369Y104599D01*
X108292Y104509D01*
X108217Y104418D01*
X108145Y104324D01*
X108076Y104227D01*
X108011Y104129D01*
X107948Y104028D01*
X107889Y103925D01*
X107833Y103821D01*
X107781Y103715D01*
X107732Y103607D01*
X107687Y103498D01*
X107645Y103387D01*
X107607Y103275D01*
X113004Y100736D02*
X113080Y100811D01*
X113155Y100890D01*
X113226Y100971D01*
X113295Y101055D01*
X113360Y101141D01*
X113422Y101229D01*
X113482Y101319D01*
X113538Y101411D01*
X113591Y101506D01*
X113640Y101602D01*
X113686Y101700D01*
X113729Y101799D01*
X113768Y101900D01*
X113803Y102002D01*
X113835Y102105D01*
X113863Y102209D01*
X113888Y102314D01*
X113909Y102421D01*
X113926Y102527D01*
X113939Y102634D01*
X113948Y102742D01*
X113954Y102850D01*
X113956Y102958D01*
X113004Y100735D02*
X107606Y94385D01*
X113956Y94385D01*
D11*
X225240Y97540D02*
X225240Y102620D01*
X222700Y100080D02*
X227780Y100080D01*
X225240Y91190D02*
X225240Y86110D01*
X188410Y95000D02*
X188417Y95530D01*
X188436Y96059D01*
X188468Y96588D01*
X188514Y97116D01*
X188572Y97643D01*
X188644Y98168D01*
X188728Y98691D01*
X188825Y99212D01*
X188935Y99730D01*
X189057Y100246D01*
X189192Y100758D01*
X189340Y101267D01*
X189500Y101772D01*
X189672Y102273D01*
X189857Y102770D01*
X190053Y103262D01*
X190262Y103749D01*
X190483Y104231D01*
X190715Y104707D01*
X190959Y105177D01*
X191215Y105642D01*
X191482Y106099D01*
X191760Y106551D01*
X192049Y106995D01*
X192348Y107432D01*
X192659Y107861D01*
X192980Y108283D01*
X193311Y108697D01*
X193652Y109102D01*
X194003Y109499D01*
X194364Y109887D01*
X194734Y110266D01*
X195113Y110636D01*
X195501Y110997D01*
X195898Y111348D01*
X196303Y111689D01*
X196717Y112020D01*
X197139Y112341D01*
X197568Y112652D01*
X198005Y112951D01*
X198449Y113240D01*
X198901Y113518D01*
X199358Y113785D01*
X199823Y114041D01*
X200293Y114285D01*
X200769Y114517D01*
X201251Y114738D01*
X201738Y114947D01*
X202230Y115143D01*
X202727Y115328D01*
X203228Y115500D01*
X203733Y115660D01*
X204242Y115808D01*
X204754Y115943D01*
X205270Y116065D01*
X205788Y116175D01*
X206309Y116272D01*
X206832Y116356D01*
X207357Y116428D01*
X207884Y116486D01*
X208412Y116532D01*
X208941Y116564D01*
X209470Y116583D01*
X210000Y116590D01*
X210530Y116583D01*
X211059Y116564D01*
X211588Y116532D01*
X212116Y116486D01*
X212643Y116428D01*
X213168Y116356D01*
X213691Y116272D01*
X214212Y116175D01*
X214730Y116065D01*
X215246Y115943D01*
X215758Y115808D01*
X216267Y115660D01*
X216772Y115500D01*
X217273Y115328D01*
X217770Y115143D01*
X218262Y114947D01*
X218749Y114738D01*
X219231Y114517D01*
X219707Y114285D01*
X220177Y114041D01*
X220642Y113785D01*
X221099Y113518D01*
X221551Y113240D01*
X221995Y112951D01*
X222432Y112652D01*
X222861Y112341D01*
X223283Y112020D01*
X223697Y111689D01*
X224102Y111348D01*
X224499Y110997D01*
X224887Y110636D01*
X225266Y110266D01*
X225636Y109887D01*
X225997Y109499D01*
X226348Y109102D01*
X226689Y108697D01*
X227020Y108283D01*
X227341Y107861D01*
X227652Y107432D01*
X227951Y106995D01*
X228240Y106551D01*
X228518Y106099D01*
X228785Y105642D01*
X229041Y105177D01*
X229285Y104707D01*
X229517Y104231D01*
X229738Y103749D01*
X229947Y103262D01*
X230143Y102770D01*
X230328Y102273D01*
X230500Y101772D01*
X230660Y101267D01*
X230808Y100758D01*
X230943Y100246D01*
X231065Y99730D01*
X231175Y99212D01*
X231272Y98691D01*
X231356Y98168D01*
X231428Y97643D01*
X231486Y97116D01*
X231532Y96588D01*
X231564Y96059D01*
X231583Y95530D01*
X231590Y95000D01*
X231583Y94470D01*
X231564Y93941D01*
X231532Y93412D01*
X231486Y92884D01*
X231428Y92357D01*
X231356Y91832D01*
X231272Y91309D01*
X231175Y90788D01*
X231065Y90270D01*
X230943Y89754D01*
X230808Y89242D01*
X230660Y88733D01*
X230500Y88228D01*
X230328Y87727D01*
X230143Y87230D01*
X229947Y86738D01*
X229738Y86251D01*
X229517Y85769D01*
X229285Y85293D01*
X229041Y84823D01*
X228785Y84358D01*
X228518Y83901D01*
X228240Y83449D01*
X227951Y83005D01*
X227652Y82568D01*
X227341Y82139D01*
X227020Y81717D01*
X226689Y81303D01*
X226348Y80898D01*
X225997Y80501D01*
X225636Y80113D01*
X225266Y79734D01*
X224887Y79364D01*
X224499Y79003D01*
X224102Y78652D01*
X223697Y78311D01*
X223283Y77980D01*
X222861Y77659D01*
X222432Y77348D01*
X221995Y77049D01*
X221551Y76760D01*
X221099Y76482D01*
X220642Y76215D01*
X220177Y75959D01*
X219707Y75715D01*
X219231Y75483D01*
X218749Y75262D01*
X218262Y75053D01*
X217770Y74857D01*
X217273Y74672D01*
X216772Y74500D01*
X216267Y74340D01*
X215758Y74192D01*
X215246Y74057D01*
X214730Y73935D01*
X214212Y73825D01*
X213691Y73728D01*
X213168Y73644D01*
X212643Y73572D01*
X212116Y73514D01*
X211588Y73468D01*
X211059Y73436D01*
X210530Y73417D01*
X210000Y73410D01*
X209470Y73417D01*
X208941Y73436D01*
X208412Y73468D01*
X207884Y73514D01*
X207357Y73572D01*
X206832Y73644D01*
X206309Y73728D01*
X205788Y73825D01*
X205270Y73935D01*
X204754Y74057D01*
X204242Y74192D01*
X203733Y74340D01*
X203228Y74500D01*
X202727Y74672D01*
X202230Y74857D01*
X201738Y75053D01*
X201251Y75262D01*
X200769Y75483D01*
X200293Y75715D01*
X199823Y75959D01*
X199358Y76215D01*
X198901Y76482D01*
X198449Y76760D01*
X198005Y77049D01*
X197568Y77348D01*
X197139Y77659D01*
X196717Y77980D01*
X196303Y78311D01*
X195898Y78652D01*
X195501Y79003D01*
X195113Y79364D01*
X194734Y79734D01*
X194364Y80113D01*
X194003Y80501D01*
X193652Y80898D01*
X193311Y81303D01*
X192980Y81717D01*
X192659Y82139D01*
X192348Y82568D01*
X192049Y83005D01*
X191760Y83449D01*
X191482Y83901D01*
X191215Y84358D01*
X190959Y84823D01*
X190715Y85293D01*
X190483Y85769D01*
X190262Y86251D01*
X190053Y86738D01*
X189857Y87230D01*
X189672Y87727D01*
X189500Y88228D01*
X189340Y88733D01*
X189192Y89242D01*
X189057Y89754D01*
X188935Y90270D01*
X188825Y90788D01*
X188728Y91309D01*
X188644Y91832D01*
X188572Y92357D01*
X188514Y92884D01*
X188468Y93412D01*
X188436Y93941D01*
X188417Y94470D01*
X188410Y95000D01*
D10*
X238584Y94285D02*
X241124Y94285D01*
X238584Y94285D02*
X238484Y94287D01*
X238385Y94293D01*
X238285Y94303D01*
X238187Y94316D01*
X238088Y94334D01*
X237991Y94355D01*
X237895Y94380D01*
X237799Y94409D01*
X237705Y94442D01*
X237612Y94478D01*
X237521Y94518D01*
X237431Y94562D01*
X237343Y94609D01*
X237257Y94659D01*
X237173Y94713D01*
X237091Y94770D01*
X237012Y94830D01*
X236934Y94894D01*
X236860Y94960D01*
X236788Y95029D01*
X236719Y95101D01*
X236653Y95175D01*
X236589Y95253D01*
X236529Y95332D01*
X236472Y95414D01*
X236418Y95498D01*
X236368Y95584D01*
X236321Y95672D01*
X236277Y95762D01*
X236237Y95853D01*
X236201Y95946D01*
X236168Y96040D01*
X236139Y96136D01*
X236114Y96232D01*
X236093Y96329D01*
X236075Y96428D01*
X236062Y96526D01*
X236052Y96626D01*
X236046Y96725D01*
X236044Y96825D01*
X236044Y103175D01*
X236046Y103275D01*
X236052Y103374D01*
X236062Y103474D01*
X236075Y103572D01*
X236093Y103671D01*
X236114Y103768D01*
X236139Y103864D01*
X236168Y103960D01*
X236201Y104054D01*
X236237Y104147D01*
X236277Y104238D01*
X236321Y104328D01*
X236368Y104416D01*
X236418Y104502D01*
X236472Y104586D01*
X236529Y104668D01*
X236589Y104747D01*
X236653Y104825D01*
X236719Y104899D01*
X236788Y104971D01*
X236860Y105040D01*
X236934Y105106D01*
X237012Y105170D01*
X237091Y105230D01*
X237173Y105287D01*
X237257Y105341D01*
X237343Y105391D01*
X237431Y105438D01*
X237521Y105482D01*
X237612Y105522D01*
X237705Y105558D01*
X237799Y105591D01*
X237895Y105620D01*
X237991Y105645D01*
X238088Y105666D01*
X238187Y105684D01*
X238285Y105697D01*
X238385Y105707D01*
X238484Y105713D01*
X238584Y105715D01*
X241124Y105715D01*
X245606Y103175D02*
X248781Y105715D01*
X248781Y94285D01*
X245606Y94285D02*
X251956Y94285D01*
D11*
X242320Y215300D02*
X201680Y215300D01*
X242320Y215300D02*
X242320Y240700D01*
X201680Y240700D01*
X201680Y215300D01*
X215650Y228000D02*
X222000Y228000D01*
X232160Y234350D02*
X232160Y221650D01*
X222000Y228000D01*
X237240Y228000D01*
X232160Y234350D02*
X222000Y228000D01*
X222000Y234350D01*
X222000Y228000D02*
X222000Y221650D01*
D12*
X208030Y228000D03*
D13*
X251845Y228000D03*
X192155Y228000D03*
D10*
X212920Y243685D02*
X212920Y255115D01*
X216095Y255115D01*
X216206Y255113D01*
X216316Y255107D01*
X216427Y255098D01*
X216537Y255084D01*
X216646Y255067D01*
X216755Y255046D01*
X216863Y255021D01*
X216970Y254992D01*
X217076Y254960D01*
X217181Y254924D01*
X217284Y254884D01*
X217386Y254841D01*
X217487Y254794D01*
X217586Y254743D01*
X217683Y254690D01*
X217777Y254633D01*
X217870Y254572D01*
X217961Y254509D01*
X218050Y254442D01*
X218136Y254372D01*
X218219Y254299D01*
X218301Y254224D01*
X218379Y254146D01*
X218454Y254064D01*
X218527Y253981D01*
X218597Y253895D01*
X218664Y253806D01*
X218727Y253715D01*
X218788Y253622D01*
X218845Y253528D01*
X218898Y253431D01*
X218949Y253332D01*
X218996Y253231D01*
X219039Y253129D01*
X219079Y253026D01*
X219115Y252921D01*
X219147Y252815D01*
X219176Y252708D01*
X219201Y252600D01*
X219222Y252491D01*
X219239Y252382D01*
X219253Y252272D01*
X219262Y252161D01*
X219268Y252051D01*
X219270Y251940D01*
X219270Y246860D01*
X219268Y246749D01*
X219262Y246639D01*
X219253Y246528D01*
X219239Y246418D01*
X219222Y246309D01*
X219201Y246200D01*
X219176Y246092D01*
X219147Y245985D01*
X219115Y245879D01*
X219079Y245774D01*
X219039Y245671D01*
X218996Y245569D01*
X218949Y245468D01*
X218898Y245369D01*
X218845Y245272D01*
X218788Y245178D01*
X218727Y245085D01*
X218664Y244994D01*
X218597Y244905D01*
X218527Y244819D01*
X218454Y244736D01*
X218379Y244654D01*
X218301Y244576D01*
X218219Y244501D01*
X218136Y244428D01*
X218050Y244358D01*
X217961Y244291D01*
X217870Y244228D01*
X217777Y244167D01*
X217682Y244110D01*
X217586Y244057D01*
X217487Y244006D01*
X217386Y243959D01*
X217284Y243916D01*
X217181Y243876D01*
X217076Y243840D01*
X216970Y243808D01*
X216863Y243779D01*
X216755Y243754D01*
X216646Y243733D01*
X216537Y243716D01*
X216427Y243702D01*
X216316Y243693D01*
X216206Y243687D01*
X216095Y243685D01*
X212920Y243685D01*
X224731Y252575D02*
X227906Y255115D01*
X227906Y243685D01*
X224731Y243685D02*
X231081Y243685D01*
D11*
X225800Y183570D02*
X225800Y154360D01*
X223260Y151820D01*
X126740Y151820D01*
X124200Y154360D01*
X124200Y183570D01*
D14*
X128772Y157916D03*
D15*
X131185Y188650D03*
D16*
X149600Y191190D03*
D17*
X162300Y188650D03*
D16*
X175000Y191190D03*
D17*
X187700Y188650D03*
D16*
X200400Y191190D03*
D15*
X218815Y188650D03*
D10*
X165920Y145515D02*
X165920Y137260D01*
X165922Y137149D01*
X165928Y137039D01*
X165937Y136928D01*
X165951Y136818D01*
X165968Y136709D01*
X165989Y136600D01*
X166014Y136492D01*
X166043Y136385D01*
X166075Y136279D01*
X166111Y136174D01*
X166151Y136071D01*
X166194Y135969D01*
X166241Y135868D01*
X166292Y135769D01*
X166345Y135673D01*
X166402Y135578D01*
X166463Y135485D01*
X166526Y135394D01*
X166593Y135305D01*
X166663Y135219D01*
X166736Y135136D01*
X166811Y135054D01*
X166889Y134976D01*
X166971Y134901D01*
X167054Y134828D01*
X167140Y134758D01*
X167229Y134691D01*
X167320Y134628D01*
X167413Y134567D01*
X167508Y134510D01*
X167604Y134457D01*
X167703Y134406D01*
X167804Y134359D01*
X167906Y134316D01*
X168009Y134276D01*
X168114Y134240D01*
X168220Y134208D01*
X168327Y134179D01*
X168435Y134154D01*
X168544Y134133D01*
X168653Y134116D01*
X168763Y134102D01*
X168874Y134093D01*
X168984Y134087D01*
X169095Y134085D01*
X169206Y134087D01*
X169316Y134093D01*
X169427Y134102D01*
X169537Y134116D01*
X169646Y134133D01*
X169755Y134154D01*
X169863Y134179D01*
X169970Y134208D01*
X170076Y134240D01*
X170181Y134276D01*
X170284Y134316D01*
X170386Y134359D01*
X170487Y134406D01*
X170586Y134457D01*
X170682Y134510D01*
X170777Y134567D01*
X170870Y134628D01*
X170961Y134691D01*
X171050Y134758D01*
X171136Y134828D01*
X171219Y134901D01*
X171301Y134976D01*
X171379Y135054D01*
X171454Y135136D01*
X171527Y135219D01*
X171597Y135305D01*
X171664Y135394D01*
X171727Y135485D01*
X171788Y135578D01*
X171845Y135672D01*
X171898Y135769D01*
X171949Y135868D01*
X171996Y135969D01*
X172039Y136071D01*
X172079Y136174D01*
X172115Y136279D01*
X172147Y136385D01*
X172176Y136492D01*
X172201Y136600D01*
X172222Y136709D01*
X172239Y136818D01*
X172253Y136928D01*
X172262Y137039D01*
X172268Y137149D01*
X172270Y137260D01*
X172270Y145515D01*
X177731Y142975D02*
X180906Y145515D01*
X180906Y134085D01*
X177731Y134085D02*
X184081Y134085D01*
D18*
X262400Y83180D02*
X334400Y83180D01*
X334400Y7180D01*
X262400Y7180D01*
X262400Y12980D01*
X258400Y12230D01*
X258400Y20730D01*
X262400Y19980D01*
X262400Y70380D01*
X258400Y69630D01*
X258400Y78130D01*
X262400Y77380D01*
X262400Y83180D01*
D19*
X272400Y60180D02*
X272402Y60243D01*
X272408Y60305D01*
X272418Y60367D01*
X272431Y60429D01*
X272449Y60489D01*
X272470Y60548D01*
X272495Y60606D01*
X272524Y60662D01*
X272556Y60716D01*
X272591Y60768D01*
X272629Y60817D01*
X272671Y60865D01*
X272715Y60909D01*
X272763Y60951D01*
X272812Y60989D01*
X272864Y61024D01*
X272918Y61056D01*
X272974Y61085D01*
X273032Y61110D01*
X273091Y61131D01*
X273151Y61149D01*
X273213Y61162D01*
X273275Y61172D01*
X273337Y61178D01*
X273400Y61180D01*
X273463Y61178D01*
X273525Y61172D01*
X273587Y61162D01*
X273649Y61149D01*
X273709Y61131D01*
X273768Y61110D01*
X273826Y61085D01*
X273882Y61056D01*
X273936Y61024D01*
X273988Y60989D01*
X274037Y60951D01*
X274085Y60909D01*
X274129Y60865D01*
X274171Y60817D01*
X274209Y60768D01*
X274244Y60716D01*
X274276Y60662D01*
X274305Y60606D01*
X274330Y60548D01*
X274351Y60489D01*
X274369Y60429D01*
X274382Y60367D01*
X274392Y60305D01*
X274398Y60243D01*
X274400Y60180D01*
X274398Y60117D01*
X274392Y60055D01*
X274382Y59993D01*
X274369Y59931D01*
X274351Y59871D01*
X274330Y59812D01*
X274305Y59754D01*
X274276Y59698D01*
X274244Y59644D01*
X274209Y59592D01*
X274171Y59543D01*
X274129Y59495D01*
X274085Y59451D01*
X274037Y59409D01*
X273988Y59371D01*
X273936Y59336D01*
X273882Y59304D01*
X273826Y59275D01*
X273768Y59250D01*
X273709Y59229D01*
X273649Y59211D01*
X273587Y59198D01*
X273525Y59188D01*
X273463Y59182D01*
X273400Y59180D01*
X273337Y59182D01*
X273275Y59188D01*
X273213Y59198D01*
X273151Y59211D01*
X273091Y59229D01*
X273032Y59250D01*
X272974Y59275D01*
X272918Y59304D01*
X272864Y59336D01*
X272812Y59371D01*
X272763Y59409D01*
X272715Y59451D01*
X272671Y59495D01*
X272629Y59543D01*
X272591Y59592D01*
X272556Y59644D01*
X272524Y59698D01*
X272495Y59754D01*
X272470Y59812D01*
X272449Y59871D01*
X272431Y59931D01*
X272418Y59993D01*
X272408Y60055D01*
X272402Y60117D01*
X272400Y60180D01*
D10*
X294946Y60925D02*
X294946Y69815D01*
X294946Y60925D02*
X294944Y60825D01*
X294938Y60726D01*
X294928Y60626D01*
X294915Y60528D01*
X294897Y60429D01*
X294876Y60332D01*
X294851Y60236D01*
X294822Y60140D01*
X294789Y60046D01*
X294753Y59953D01*
X294713Y59862D01*
X294669Y59772D01*
X294622Y59684D01*
X294572Y59598D01*
X294518Y59514D01*
X294461Y59432D01*
X294401Y59353D01*
X294337Y59275D01*
X294271Y59201D01*
X294202Y59129D01*
X294130Y59060D01*
X294056Y58994D01*
X293978Y58930D01*
X293899Y58870D01*
X293817Y58813D01*
X293733Y58759D01*
X293647Y58709D01*
X293559Y58662D01*
X293469Y58618D01*
X293378Y58578D01*
X293285Y58542D01*
X293191Y58509D01*
X293095Y58480D01*
X292999Y58455D01*
X292902Y58434D01*
X292803Y58416D01*
X292705Y58403D01*
X292605Y58393D01*
X292506Y58387D01*
X292406Y58385D01*
X291136Y58385D01*
X300354Y58385D02*
X303529Y58385D01*
X303640Y58387D01*
X303750Y58393D01*
X303861Y58402D01*
X303971Y58416D01*
X304080Y58433D01*
X304189Y58454D01*
X304297Y58479D01*
X304404Y58508D01*
X304510Y58540D01*
X304615Y58576D01*
X304718Y58616D01*
X304820Y58659D01*
X304921Y58706D01*
X305020Y58757D01*
X305117Y58810D01*
X305211Y58867D01*
X305304Y58928D01*
X305395Y58991D01*
X305484Y59058D01*
X305570Y59128D01*
X305653Y59201D01*
X305735Y59276D01*
X305813Y59354D01*
X305888Y59436D01*
X305961Y59519D01*
X306031Y59605D01*
X306098Y59694D01*
X306161Y59785D01*
X306222Y59878D01*
X306279Y59972D01*
X306332Y60069D01*
X306383Y60168D01*
X306430Y60269D01*
X306473Y60371D01*
X306513Y60474D01*
X306549Y60579D01*
X306581Y60685D01*
X306610Y60792D01*
X306635Y60900D01*
X306656Y61009D01*
X306673Y61118D01*
X306687Y61228D01*
X306696Y61339D01*
X306702Y61449D01*
X306704Y61560D01*
X306702Y61671D01*
X306696Y61781D01*
X306687Y61892D01*
X306673Y62002D01*
X306656Y62111D01*
X306635Y62220D01*
X306610Y62328D01*
X306581Y62435D01*
X306549Y62541D01*
X306513Y62646D01*
X306473Y62749D01*
X306430Y62851D01*
X306383Y62952D01*
X306332Y63051D01*
X306279Y63147D01*
X306222Y63242D01*
X306161Y63335D01*
X306098Y63426D01*
X306031Y63515D01*
X305961Y63601D01*
X305888Y63684D01*
X305813Y63766D01*
X305735Y63844D01*
X305653Y63919D01*
X305570Y63992D01*
X305484Y64062D01*
X305395Y64129D01*
X305304Y64192D01*
X305211Y64253D01*
X305117Y64310D01*
X305020Y64363D01*
X304921Y64414D01*
X304820Y64461D01*
X304718Y64504D01*
X304615Y64544D01*
X304510Y64580D01*
X304404Y64612D01*
X304297Y64641D01*
X304189Y64666D01*
X304080Y64687D01*
X303971Y64704D01*
X303861Y64718D01*
X303750Y64727D01*
X303640Y64733D01*
X303529Y64735D01*
X304164Y69815D02*
X300354Y69815D01*
X304164Y69815D02*
X304264Y69813D01*
X304363Y69807D01*
X304463Y69797D01*
X304561Y69784D01*
X304660Y69766D01*
X304757Y69745D01*
X304853Y69720D01*
X304949Y69691D01*
X305043Y69658D01*
X305136Y69622D01*
X305227Y69582D01*
X305317Y69538D01*
X305405Y69491D01*
X305491Y69441D01*
X305575Y69387D01*
X305657Y69330D01*
X305736Y69270D01*
X305814Y69206D01*
X305888Y69140D01*
X305960Y69071D01*
X306029Y68999D01*
X306095Y68925D01*
X306159Y68847D01*
X306219Y68768D01*
X306276Y68686D01*
X306330Y68602D01*
X306380Y68516D01*
X306427Y68428D01*
X306471Y68338D01*
X306511Y68247D01*
X306547Y68154D01*
X306580Y68060D01*
X306609Y67964D01*
X306634Y67868D01*
X306655Y67771D01*
X306673Y67672D01*
X306686Y67574D01*
X306696Y67474D01*
X306702Y67375D01*
X306704Y67275D01*
X306702Y67175D01*
X306696Y67076D01*
X306686Y66976D01*
X306673Y66878D01*
X306655Y66779D01*
X306634Y66682D01*
X306609Y66586D01*
X306580Y66490D01*
X306547Y66396D01*
X306511Y66303D01*
X306471Y66212D01*
X306427Y66122D01*
X306380Y66034D01*
X306330Y65948D01*
X306276Y65864D01*
X306219Y65782D01*
X306159Y65703D01*
X306095Y65625D01*
X306029Y65551D01*
X305960Y65479D01*
X305888Y65410D01*
X305814Y65344D01*
X305736Y65280D01*
X305657Y65220D01*
X305575Y65163D01*
X305491Y65109D01*
X305405Y65059D01*
X305317Y65012D01*
X305227Y64968D01*
X305136Y64928D01*
X305043Y64892D01*
X304949Y64859D01*
X304853Y64830D01*
X304757Y64805D01*
X304660Y64784D01*
X304561Y64766D01*
X304463Y64753D01*
X304363Y64743D01*
X304264Y64737D01*
X304164Y64735D01*
X301624Y64735D01*
D11*
X27110Y37250D02*
X27010Y37252D01*
X26911Y37258D01*
X26811Y37268D01*
X26713Y37281D01*
X26614Y37299D01*
X26517Y37320D01*
X26421Y37345D01*
X26325Y37374D01*
X26231Y37407D01*
X26138Y37443D01*
X26047Y37483D01*
X25957Y37527D01*
X25869Y37574D01*
X25783Y37624D01*
X25699Y37678D01*
X25617Y37735D01*
X25538Y37795D01*
X25460Y37859D01*
X25386Y37925D01*
X25314Y37994D01*
X25245Y38066D01*
X25179Y38140D01*
X25115Y38218D01*
X25055Y38297D01*
X24998Y38379D01*
X24944Y38463D01*
X24894Y38549D01*
X24847Y38637D01*
X24803Y38727D01*
X24763Y38818D01*
X24727Y38911D01*
X24694Y39005D01*
X24665Y39101D01*
X24640Y39197D01*
X24619Y39294D01*
X24601Y39393D01*
X24588Y39491D01*
X24578Y39591D01*
X24572Y39690D01*
X24570Y39790D01*
X44890Y37250D02*
X44990Y37252D01*
X45089Y37258D01*
X45189Y37268D01*
X45287Y37281D01*
X45386Y37299D01*
X45483Y37320D01*
X45579Y37345D01*
X45675Y37374D01*
X45769Y37407D01*
X45862Y37443D01*
X45953Y37483D01*
X46043Y37527D01*
X46131Y37574D01*
X46217Y37624D01*
X46301Y37678D01*
X46383Y37735D01*
X46462Y37795D01*
X46540Y37859D01*
X46614Y37925D01*
X46686Y37994D01*
X46755Y38066D01*
X46821Y38140D01*
X46885Y38218D01*
X46945Y38297D01*
X47002Y38379D01*
X47056Y38463D01*
X47106Y38549D01*
X47153Y38637D01*
X47197Y38727D01*
X47237Y38818D01*
X47273Y38911D01*
X47306Y39005D01*
X47335Y39101D01*
X47360Y39197D01*
X47381Y39294D01*
X47399Y39393D01*
X47412Y39491D01*
X47422Y39591D01*
X47428Y39690D01*
X47430Y39790D01*
X47430Y98210D02*
X47428Y98310D01*
X47422Y98409D01*
X47412Y98509D01*
X47399Y98607D01*
X47381Y98706D01*
X47360Y98803D01*
X47335Y98899D01*
X47306Y98995D01*
X47273Y99089D01*
X47237Y99182D01*
X47197Y99273D01*
X47153Y99363D01*
X47106Y99451D01*
X47056Y99537D01*
X47002Y99621D01*
X46945Y99703D01*
X46885Y99782D01*
X46821Y99860D01*
X46755Y99934D01*
X46686Y100006D01*
X46614Y100075D01*
X46540Y100141D01*
X46462Y100205D01*
X46383Y100265D01*
X46301Y100322D01*
X46217Y100376D01*
X46131Y100426D01*
X46043Y100473D01*
X45953Y100517D01*
X45862Y100557D01*
X45769Y100593D01*
X45675Y100626D01*
X45579Y100655D01*
X45483Y100680D01*
X45386Y100701D01*
X45287Y100719D01*
X45189Y100732D01*
X45089Y100742D01*
X44990Y100748D01*
X44890Y100750D01*
X27110Y100750D02*
X27010Y100748D01*
X26911Y100742D01*
X26811Y100732D01*
X26713Y100719D01*
X26614Y100701D01*
X26517Y100680D01*
X26421Y100655D01*
X26325Y100626D01*
X26231Y100593D01*
X26138Y100557D01*
X26047Y100517D01*
X25957Y100473D01*
X25869Y100426D01*
X25783Y100376D01*
X25699Y100322D01*
X25617Y100265D01*
X25538Y100205D01*
X25460Y100141D01*
X25386Y100075D01*
X25314Y100006D01*
X25245Y99934D01*
X25179Y99860D01*
X25115Y99782D01*
X25055Y99703D01*
X24998Y99621D01*
X24944Y99537D01*
X24894Y99451D01*
X24847Y99363D01*
X24803Y99273D01*
X24763Y99182D01*
X24727Y99089D01*
X24694Y98995D01*
X24665Y98899D01*
X24640Y98803D01*
X24619Y98706D01*
X24601Y98607D01*
X24588Y98509D01*
X24578Y98409D01*
X24572Y98310D01*
X24570Y98210D01*
X27110Y37250D02*
X44890Y37250D01*
X24570Y39790D02*
X24570Y43600D01*
X25840Y44870D01*
X47430Y43600D02*
X47430Y39790D01*
X47430Y43600D02*
X46160Y44870D01*
X25840Y93130D02*
X24570Y94400D01*
X25840Y93130D02*
X25840Y44870D01*
X46160Y93130D02*
X47430Y94400D01*
X46160Y93130D02*
X46160Y44870D01*
X24570Y94400D02*
X24570Y98210D01*
X47430Y98210D02*
X47430Y94400D01*
X44890Y100750D02*
X27110Y100750D01*
D20*
X36000Y105068D03*
X36000Y32932D03*
D10*
X41715Y60151D02*
X30285Y60151D01*
X30285Y63326D01*
X30287Y63437D01*
X30293Y63547D01*
X30302Y63658D01*
X30316Y63768D01*
X30333Y63877D01*
X30354Y63986D01*
X30379Y64094D01*
X30408Y64201D01*
X30440Y64307D01*
X30476Y64412D01*
X30516Y64515D01*
X30559Y64617D01*
X30606Y64718D01*
X30657Y64817D01*
X30710Y64913D01*
X30767Y65008D01*
X30828Y65101D01*
X30891Y65192D01*
X30958Y65281D01*
X31028Y65367D01*
X31101Y65450D01*
X31176Y65532D01*
X31254Y65610D01*
X31336Y65685D01*
X31419Y65758D01*
X31505Y65828D01*
X31594Y65895D01*
X31685Y65958D01*
X31778Y66019D01*
X31872Y66076D01*
X31969Y66129D01*
X32068Y66180D01*
X32169Y66227D01*
X32271Y66270D01*
X32374Y66310D01*
X32479Y66346D01*
X32585Y66378D01*
X32692Y66407D01*
X32800Y66432D01*
X32909Y66453D01*
X33018Y66470D01*
X33128Y66484D01*
X33239Y66493D01*
X33349Y66499D01*
X33460Y66501D01*
X33571Y66499D01*
X33681Y66493D01*
X33792Y66484D01*
X33902Y66470D01*
X34011Y66453D01*
X34120Y66432D01*
X34228Y66407D01*
X34335Y66378D01*
X34441Y66346D01*
X34546Y66310D01*
X34649Y66270D01*
X34751Y66227D01*
X34852Y66180D01*
X34951Y66129D01*
X35048Y66076D01*
X35142Y66019D01*
X35235Y65958D01*
X35326Y65895D01*
X35415Y65828D01*
X35501Y65758D01*
X35584Y65685D01*
X35666Y65610D01*
X35744Y65532D01*
X35819Y65450D01*
X35892Y65367D01*
X35962Y65281D01*
X36029Y65192D01*
X36092Y65101D01*
X36153Y65008D01*
X36210Y64914D01*
X36263Y64817D01*
X36314Y64718D01*
X36361Y64617D01*
X36404Y64515D01*
X36444Y64412D01*
X36480Y64307D01*
X36512Y64201D01*
X36541Y64094D01*
X36566Y63986D01*
X36587Y63877D01*
X36604Y63768D01*
X36618Y63658D01*
X36627Y63547D01*
X36633Y63437D01*
X36635Y63326D01*
X36635Y60151D01*
X36635Y63961D02*
X41715Y66501D01*
X32825Y71499D02*
X30285Y74674D01*
X41715Y74674D01*
X41715Y71499D02*
X41715Y77849D01*
D11*
X72890Y100750D02*
X72990Y100748D01*
X73089Y100742D01*
X73189Y100732D01*
X73287Y100719D01*
X73386Y100701D01*
X73483Y100680D01*
X73579Y100655D01*
X73675Y100626D01*
X73769Y100593D01*
X73862Y100557D01*
X73953Y100517D01*
X74043Y100473D01*
X74131Y100426D01*
X74217Y100376D01*
X74301Y100322D01*
X74383Y100265D01*
X74462Y100205D01*
X74540Y100141D01*
X74614Y100075D01*
X74686Y100006D01*
X74755Y99934D01*
X74821Y99860D01*
X74885Y99782D01*
X74945Y99703D01*
X75002Y99621D01*
X75056Y99537D01*
X75106Y99451D01*
X75153Y99363D01*
X75197Y99273D01*
X75237Y99182D01*
X75273Y99089D01*
X75306Y98995D01*
X75335Y98899D01*
X75360Y98803D01*
X75381Y98706D01*
X75399Y98607D01*
X75412Y98509D01*
X75422Y98409D01*
X75428Y98310D01*
X75430Y98210D01*
X55110Y100750D02*
X55010Y100748D01*
X54911Y100742D01*
X54811Y100732D01*
X54713Y100719D01*
X54614Y100701D01*
X54517Y100680D01*
X54421Y100655D01*
X54325Y100626D01*
X54231Y100593D01*
X54138Y100557D01*
X54047Y100517D01*
X53957Y100473D01*
X53869Y100426D01*
X53783Y100376D01*
X53699Y100322D01*
X53617Y100265D01*
X53538Y100205D01*
X53460Y100141D01*
X53386Y100075D01*
X53314Y100006D01*
X53245Y99934D01*
X53179Y99860D01*
X53115Y99782D01*
X53055Y99703D01*
X52998Y99621D01*
X52944Y99537D01*
X52894Y99451D01*
X52847Y99363D01*
X52803Y99273D01*
X52763Y99182D01*
X52727Y99089D01*
X52694Y98995D01*
X52665Y98899D01*
X52640Y98803D01*
X52619Y98706D01*
X52601Y98607D01*
X52588Y98509D01*
X52578Y98409D01*
X52572Y98310D01*
X52570Y98210D01*
X52570Y39790D02*
X52572Y39690D01*
X52578Y39591D01*
X52588Y39491D01*
X52601Y39393D01*
X52619Y39294D01*
X52640Y39197D01*
X52665Y39101D01*
X52694Y39005D01*
X52727Y38911D01*
X52763Y38818D01*
X52803Y38727D01*
X52847Y38637D01*
X52894Y38549D01*
X52944Y38463D01*
X52998Y38379D01*
X53055Y38297D01*
X53115Y38218D01*
X53179Y38140D01*
X53245Y38066D01*
X53314Y37994D01*
X53386Y37925D01*
X53460Y37859D01*
X53538Y37795D01*
X53617Y37735D01*
X53699Y37678D01*
X53783Y37624D01*
X53869Y37574D01*
X53957Y37527D01*
X54047Y37483D01*
X54138Y37443D01*
X54231Y37407D01*
X54325Y37374D01*
X54421Y37345D01*
X54517Y37320D01*
X54614Y37299D01*
X54713Y37281D01*
X54811Y37268D01*
X54911Y37258D01*
X55010Y37252D01*
X55110Y37250D01*
X72890Y37250D02*
X72990Y37252D01*
X73089Y37258D01*
X73189Y37268D01*
X73287Y37281D01*
X73386Y37299D01*
X73483Y37320D01*
X73579Y37345D01*
X73675Y37374D01*
X73769Y37407D01*
X73862Y37443D01*
X73953Y37483D01*
X74043Y37527D01*
X74131Y37574D01*
X74217Y37624D01*
X74301Y37678D01*
X74383Y37735D01*
X74462Y37795D01*
X74540Y37859D01*
X74614Y37925D01*
X74686Y37994D01*
X74755Y38066D01*
X74821Y38140D01*
X74885Y38218D01*
X74945Y38297D01*
X75002Y38379D01*
X75056Y38463D01*
X75106Y38549D01*
X75153Y38637D01*
X75197Y38727D01*
X75237Y38818D01*
X75273Y38911D01*
X75306Y39005D01*
X75335Y39101D01*
X75360Y39197D01*
X75381Y39294D01*
X75399Y39393D01*
X75412Y39491D01*
X75422Y39591D01*
X75428Y39690D01*
X75430Y39790D01*
X72890Y100750D02*
X55110Y100750D01*
X75430Y98210D02*
X75430Y94400D01*
X74160Y93130D01*
X52570Y94400D02*
X52570Y98210D01*
X52570Y94400D02*
X53840Y93130D01*
X74160Y44870D02*
X75430Y43600D01*
X74160Y44870D02*
X74160Y93130D01*
X53840Y44870D02*
X52570Y43600D01*
X53840Y44870D02*
X53840Y93130D01*
X75430Y43600D02*
X75430Y39790D01*
X52570Y39790D02*
X52570Y43600D01*
X55110Y37250D02*
X72890Y37250D01*
D20*
X64000Y32932D03*
X64000Y105068D03*
D10*
X69715Y60151D02*
X58285Y60151D01*
X58285Y63326D01*
X58287Y63437D01*
X58293Y63547D01*
X58302Y63658D01*
X58316Y63768D01*
X58333Y63877D01*
X58354Y63986D01*
X58379Y64094D01*
X58408Y64201D01*
X58440Y64307D01*
X58476Y64412D01*
X58516Y64515D01*
X58559Y64617D01*
X58606Y64718D01*
X58657Y64817D01*
X58710Y64913D01*
X58767Y65008D01*
X58828Y65101D01*
X58891Y65192D01*
X58958Y65281D01*
X59028Y65367D01*
X59101Y65450D01*
X59176Y65532D01*
X59254Y65610D01*
X59336Y65685D01*
X59419Y65758D01*
X59505Y65828D01*
X59594Y65895D01*
X59685Y65958D01*
X59778Y66019D01*
X59872Y66076D01*
X59969Y66129D01*
X60068Y66180D01*
X60169Y66227D01*
X60271Y66270D01*
X60374Y66310D01*
X60479Y66346D01*
X60585Y66378D01*
X60692Y66407D01*
X60800Y66432D01*
X60909Y66453D01*
X61018Y66470D01*
X61128Y66484D01*
X61239Y66493D01*
X61349Y66499D01*
X61460Y66501D01*
X61571Y66499D01*
X61681Y66493D01*
X61792Y66484D01*
X61902Y66470D01*
X62011Y66453D01*
X62120Y66432D01*
X62228Y66407D01*
X62335Y66378D01*
X62441Y66346D01*
X62546Y66310D01*
X62649Y66270D01*
X62751Y66227D01*
X62852Y66180D01*
X62951Y66129D01*
X63048Y66076D01*
X63142Y66019D01*
X63235Y65958D01*
X63326Y65895D01*
X63415Y65828D01*
X63501Y65758D01*
X63584Y65685D01*
X63666Y65610D01*
X63744Y65532D01*
X63819Y65450D01*
X63892Y65367D01*
X63962Y65281D01*
X64029Y65192D01*
X64092Y65101D01*
X64153Y65008D01*
X64210Y64914D01*
X64263Y64817D01*
X64314Y64718D01*
X64361Y64617D01*
X64404Y64515D01*
X64444Y64412D01*
X64480Y64307D01*
X64512Y64201D01*
X64541Y64094D01*
X64566Y63986D01*
X64587Y63877D01*
X64604Y63768D01*
X64618Y63658D01*
X64627Y63547D01*
X64633Y63437D01*
X64635Y63326D01*
X64635Y60151D01*
X64635Y63961D02*
X69715Y66501D01*
X61143Y77849D02*
X61039Y77847D01*
X60934Y77841D01*
X60830Y77832D01*
X60727Y77819D01*
X60624Y77801D01*
X60522Y77781D01*
X60420Y77756D01*
X60320Y77728D01*
X60220Y77696D01*
X60122Y77660D01*
X60025Y77621D01*
X59930Y77579D01*
X59836Y77533D01*
X59744Y77483D01*
X59654Y77431D01*
X59566Y77375D01*
X59480Y77315D01*
X59396Y77253D01*
X59315Y77188D01*
X59236Y77120D01*
X59159Y77048D01*
X59086Y76975D01*
X59014Y76898D01*
X58946Y76819D01*
X58881Y76738D01*
X58819Y76654D01*
X58759Y76568D01*
X58703Y76480D01*
X58651Y76390D01*
X58601Y76298D01*
X58555Y76204D01*
X58513Y76109D01*
X58474Y76012D01*
X58438Y75914D01*
X58406Y75814D01*
X58378Y75714D01*
X58353Y75612D01*
X58333Y75510D01*
X58315Y75407D01*
X58302Y75304D01*
X58293Y75200D01*
X58287Y75095D01*
X58285Y74991D01*
X58287Y74873D01*
X58293Y74754D01*
X58302Y74636D01*
X58315Y74519D01*
X58333Y74402D01*
X58353Y74285D01*
X58378Y74169D01*
X58406Y74054D01*
X58439Y73941D01*
X58474Y73828D01*
X58514Y73716D01*
X58556Y73606D01*
X58603Y73497D01*
X58653Y73389D01*
X58706Y73284D01*
X58763Y73180D01*
X58823Y73078D01*
X58886Y72978D01*
X58953Y72880D01*
X59022Y72784D01*
X59095Y72691D01*
X59171Y72600D01*
X59249Y72511D01*
X59331Y72425D01*
X59415Y72342D01*
X59501Y72261D01*
X59591Y72184D01*
X59682Y72109D01*
X59776Y72037D01*
X59873Y71968D01*
X59971Y71903D01*
X60072Y71840D01*
X60175Y71781D01*
X60279Y71725D01*
X60385Y71673D01*
X60493Y71624D01*
X60602Y71579D01*
X60713Y71537D01*
X60825Y71499D01*
X63365Y76896D02*
X63290Y76972D01*
X63211Y77047D01*
X63130Y77118D01*
X63046Y77187D01*
X62960Y77252D01*
X62872Y77314D01*
X62782Y77374D01*
X62690Y77430D01*
X62595Y77483D01*
X62499Y77532D01*
X62401Y77578D01*
X62302Y77621D01*
X62201Y77660D01*
X62099Y77695D01*
X61996Y77727D01*
X61892Y77755D01*
X61787Y77780D01*
X61680Y77801D01*
X61574Y77818D01*
X61467Y77831D01*
X61359Y77840D01*
X61251Y77846D01*
X61143Y77848D01*
X63365Y76896D02*
X69715Y71499D01*
X69715Y77849D01*
X345000Y398002D02*
X345004Y398088D01*
X345003Y398175D01*
X344999Y398261D01*
X344990Y398347D01*
X344977Y398432D01*
X344961Y398517D01*
X344941Y398601D01*
X344917Y398684D01*
X344889Y398766D01*
X344857Y398847D01*
X344822Y398925D01*
X344783Y399003D01*
X344741Y399078D01*
X344695Y399151D01*
X344646Y399223D01*
X344594Y399291D01*
X344539Y399358D01*
X344480Y399422D01*
X344419Y399483D01*
X344355Y399541D01*
X344289Y399596D01*
X344220Y399648D01*
X344149Y399697D01*
X344075Y399743D01*
X344000Y399785D01*
X343922Y399823D01*
X343843Y399859D01*
X343763Y399890D01*
X343681Y399918D01*
X343598Y399942D01*
X343514Y399962D01*
X343429Y399978D01*
X343344Y399990D01*
X343258Y399999D01*
X343171Y400003D01*
X343085Y400004D01*
X342999Y400000D01*
X256998Y400000D02*
X256912Y400004D01*
X256825Y400003D01*
X256739Y399999D01*
X256653Y399990D01*
X256568Y399977D01*
X256483Y399961D01*
X256399Y399941D01*
X256316Y399917D01*
X256234Y399889D01*
X256154Y399857D01*
X256075Y399822D01*
X255998Y399784D01*
X255923Y399741D01*
X255849Y399696D01*
X255778Y399647D01*
X255709Y399594D01*
X255643Y399539D01*
X255579Y399481D01*
X255518Y399420D01*
X255460Y399356D01*
X255405Y399290D01*
X255352Y399221D01*
X255304Y399150D01*
X255258Y399076D01*
X255216Y399001D01*
X255177Y398924D01*
X255142Y398845D01*
X255110Y398764D01*
X255083Y398682D01*
X255059Y398600D01*
X255039Y398516D01*
X255022Y398431D01*
X255010Y398345D01*
X255001Y398259D01*
X254997Y398173D01*
X254996Y398087D01*
X255000Y398000D01*
D18*
X255001Y398000D02*
X255001Y397998D01*
D10*
X345000Y398000D02*
X345000Y255000D01*
X255000Y255000D02*
X255000Y273000D01*
X322000Y255000D02*
X345000Y255000D01*
X343000Y400000D02*
X257000Y400000D01*
X255000Y398000D02*
X255000Y317000D01*
X255000Y255000D02*
X278000Y255000D01*
D21*
X277192Y292001D02*
X277192Y295246D01*
X277190Y295359D01*
X277184Y295472D01*
X277174Y295585D01*
X277160Y295698D01*
X277143Y295810D01*
X277121Y295921D01*
X277096Y296031D01*
X277066Y296141D01*
X277033Y296249D01*
X276996Y296356D01*
X276956Y296462D01*
X276911Y296566D01*
X276863Y296669D01*
X276812Y296770D01*
X276757Y296869D01*
X276699Y296966D01*
X276637Y297061D01*
X276572Y297154D01*
X276504Y297244D01*
X276433Y297332D01*
X276358Y297418D01*
X276281Y297501D01*
X276201Y297581D01*
X276118Y297658D01*
X276032Y297733D01*
X275944Y297804D01*
X275854Y297872D01*
X275761Y297937D01*
X275666Y297999D01*
X275569Y298057D01*
X275470Y298112D01*
X275369Y298163D01*
X275266Y298211D01*
X275162Y298256D01*
X275056Y298296D01*
X274949Y298333D01*
X274841Y298366D01*
X274731Y298396D01*
X274621Y298421D01*
X274510Y298443D01*
X274398Y298460D01*
X274285Y298474D01*
X274172Y298484D01*
X274059Y298490D01*
X273946Y298492D01*
X273833Y298490D01*
X273720Y298484D01*
X273607Y298474D01*
X273494Y298460D01*
X273382Y298443D01*
X273271Y298421D01*
X273161Y298396D01*
X273051Y298366D01*
X272943Y298333D01*
X272836Y298296D01*
X272730Y298256D01*
X272626Y298211D01*
X272523Y298163D01*
X272422Y298112D01*
X272323Y298057D01*
X272226Y297999D01*
X272131Y297937D01*
X272038Y297872D01*
X271948Y297804D01*
X271860Y297733D01*
X271774Y297658D01*
X271691Y297581D01*
X271611Y297501D01*
X271534Y297418D01*
X271459Y297332D01*
X271388Y297244D01*
X271320Y297154D01*
X271255Y297061D01*
X271193Y296966D01*
X271135Y296869D01*
X271080Y296770D01*
X271029Y296669D01*
X270981Y296566D01*
X270936Y296462D01*
X270896Y296356D01*
X270859Y296249D01*
X270826Y296141D01*
X270796Y296031D01*
X270771Y295921D01*
X270749Y295810D01*
X270732Y295698D01*
X270718Y295585D01*
X270708Y295472D01*
X270702Y295359D01*
X270700Y295246D01*
X265508Y295896D02*
X265508Y292001D01*
X265508Y295896D02*
X265510Y295997D01*
X265516Y296097D01*
X265526Y296197D01*
X265539Y296297D01*
X265557Y296396D01*
X265578Y296495D01*
X265603Y296592D01*
X265632Y296689D01*
X265665Y296784D01*
X265701Y296878D01*
X265741Y296970D01*
X265784Y297061D01*
X265831Y297150D01*
X265881Y297237D01*
X265935Y297323D01*
X265992Y297406D01*
X266052Y297486D01*
X266115Y297565D01*
X266182Y297641D01*
X266251Y297714D01*
X266323Y297784D01*
X266397Y297852D01*
X266474Y297917D01*
X266554Y297978D01*
X266636Y298037D01*
X266720Y298092D01*
X266806Y298144D01*
X266894Y298193D01*
X266984Y298238D01*
X267076Y298280D01*
X267169Y298318D01*
X267264Y298352D01*
X267359Y298383D01*
X267456Y298410D01*
X267554Y298433D01*
X267653Y298453D01*
X267753Y298468D01*
X267853Y298480D01*
X267953Y298488D01*
X268054Y298492D01*
X268154Y298492D01*
X268255Y298488D01*
X268355Y298480D01*
X268455Y298468D01*
X268555Y298453D01*
X268654Y298433D01*
X268752Y298410D01*
X268849Y298383D01*
X268944Y298352D01*
X269039Y298318D01*
X269132Y298280D01*
X269224Y298238D01*
X269314Y298193D01*
X269402Y298144D01*
X269488Y298092D01*
X269572Y298037D01*
X269654Y297978D01*
X269734Y297917D01*
X269811Y297852D01*
X269885Y297784D01*
X269957Y297714D01*
X270026Y297641D01*
X270093Y297565D01*
X270156Y297486D01*
X270216Y297406D01*
X270273Y297323D01*
X270327Y297237D01*
X270377Y297150D01*
X270424Y297061D01*
X270467Y296970D01*
X270507Y296878D01*
X270543Y296784D01*
X270576Y296689D01*
X270605Y296592D01*
X270630Y296495D01*
X270651Y296396D01*
X270669Y296297D01*
X270682Y296197D01*
X270692Y296097D01*
X270698Y295997D01*
X270700Y295896D01*
X270701Y295896D02*
X270701Y293299D01*
X293508Y282246D02*
X296104Y279001D01*
X293508Y282246D02*
X305192Y282246D01*
X305192Y279001D02*
X305192Y285492D01*
X294508Y339571D02*
X294510Y339678D01*
X294516Y339784D01*
X294526Y339890D01*
X294539Y339996D01*
X294557Y340102D01*
X294578Y340206D01*
X294603Y340310D01*
X294632Y340413D01*
X294664Y340514D01*
X294701Y340614D01*
X294741Y340713D01*
X294784Y340811D01*
X294831Y340907D01*
X294882Y341001D01*
X294936Y341093D01*
X294993Y341183D01*
X295053Y341271D01*
X295117Y341356D01*
X295184Y341439D01*
X295254Y341520D01*
X295326Y341598D01*
X295402Y341674D01*
X295480Y341746D01*
X295561Y341816D01*
X295644Y341883D01*
X295729Y341947D01*
X295817Y342007D01*
X295907Y342064D01*
X295999Y342118D01*
X296093Y342169D01*
X296189Y342216D01*
X296287Y342259D01*
X296386Y342299D01*
X296486Y342336D01*
X296587Y342368D01*
X296690Y342397D01*
X296794Y342422D01*
X296898Y342443D01*
X297004Y342461D01*
X297110Y342474D01*
X297216Y342484D01*
X297322Y342490D01*
X297429Y342492D01*
X294508Y339571D02*
X294510Y339450D01*
X294516Y339329D01*
X294526Y339209D01*
X294539Y339088D01*
X294557Y338969D01*
X294578Y338849D01*
X294603Y338731D01*
X294632Y338614D01*
X294665Y338497D01*
X294701Y338382D01*
X294742Y338268D01*
X294785Y338155D01*
X294833Y338043D01*
X294884Y337934D01*
X294939Y337826D01*
X294997Y337719D01*
X295058Y337615D01*
X295123Y337513D01*
X295191Y337413D01*
X295262Y337315D01*
X295336Y337219D01*
X295413Y337126D01*
X295494Y337036D01*
X295577Y336948D01*
X295663Y336863D01*
X295752Y336780D01*
X295843Y336701D01*
X295937Y336624D01*
X296033Y336551D01*
X296131Y336481D01*
X296232Y336414D01*
X296335Y336350D01*
X296440Y336290D01*
X296547Y336232D01*
X296655Y336179D01*
X296765Y336129D01*
X296877Y336083D01*
X296990Y336040D01*
X297105Y336001D01*
X299701Y341518D02*
X299623Y341597D01*
X299543Y341673D01*
X299460Y341746D01*
X299374Y341816D01*
X299287Y341883D01*
X299196Y341947D01*
X299104Y342007D01*
X299010Y342065D01*
X298913Y342119D01*
X298815Y342169D01*
X298715Y342216D01*
X298614Y342260D01*
X298511Y342300D01*
X298406Y342336D01*
X298301Y342368D01*
X298194Y342397D01*
X298087Y342422D01*
X297978Y342444D01*
X297869Y342461D01*
X297760Y342475D01*
X297650Y342484D01*
X297539Y342490D01*
X297429Y342492D01*
X299701Y341518D02*
X306192Y336001D01*
X306192Y342492D01*
D10*
X241545Y272121D02*
X241545Y263231D01*
X241543Y263131D01*
X241537Y263032D01*
X241527Y262932D01*
X241514Y262834D01*
X241496Y262735D01*
X241475Y262638D01*
X241450Y262542D01*
X241421Y262446D01*
X241388Y262352D01*
X241352Y262259D01*
X241312Y262168D01*
X241268Y262078D01*
X241221Y261990D01*
X241171Y261904D01*
X241117Y261820D01*
X241060Y261738D01*
X241000Y261659D01*
X240936Y261581D01*
X240870Y261507D01*
X240801Y261435D01*
X240729Y261366D01*
X240655Y261300D01*
X240577Y261236D01*
X240498Y261176D01*
X240416Y261119D01*
X240332Y261065D01*
X240246Y261015D01*
X240158Y260968D01*
X240068Y260924D01*
X239977Y260884D01*
X239884Y260848D01*
X239790Y260815D01*
X239694Y260786D01*
X239598Y260761D01*
X239501Y260740D01*
X239402Y260722D01*
X239304Y260709D01*
X239204Y260699D01*
X239105Y260693D01*
X239005Y260691D01*
X237735Y260691D01*
X246954Y269581D02*
X250129Y272121D01*
X250129Y260691D01*
X246954Y260691D02*
X253304Y260691D01*
D11*
X113490Y271430D02*
X113350Y271428D01*
X113210Y271422D01*
X113070Y271413D01*
X112931Y271399D01*
X112792Y271382D01*
X112654Y271361D01*
X112516Y271336D01*
X112379Y271307D01*
X112243Y271275D01*
X112108Y271238D01*
X111974Y271198D01*
X111841Y271155D01*
X111709Y271107D01*
X111578Y271057D01*
X111449Y271002D01*
X111322Y270944D01*
X111196Y270883D01*
X111072Y270818D01*
X110950Y270749D01*
X110830Y270678D01*
X110712Y270603D01*
X110595Y270525D01*
X110481Y270443D01*
X110370Y270359D01*
X110261Y270271D01*
X110154Y270181D01*
X110049Y270087D01*
X109948Y269991D01*
X109849Y269892D01*
X109753Y269791D01*
X109659Y269686D01*
X109569Y269579D01*
X109481Y269470D01*
X109397Y269359D01*
X109315Y269245D01*
X109237Y269128D01*
X109162Y269010D01*
X109091Y268890D01*
X109022Y268768D01*
X108957Y268644D01*
X108896Y268518D01*
X108838Y268391D01*
X108783Y268262D01*
X108733Y268131D01*
X108685Y267999D01*
X108642Y267866D01*
X108602Y267732D01*
X108565Y267597D01*
X108533Y267461D01*
X108504Y267324D01*
X108479Y267186D01*
X108458Y267048D01*
X108441Y266909D01*
X108427Y266770D01*
X108418Y266630D01*
X108412Y266490D01*
X108410Y266350D01*
X108410Y253650D02*
X108412Y253510D01*
X108418Y253370D01*
X108427Y253230D01*
X108441Y253091D01*
X108458Y252952D01*
X108479Y252814D01*
X108504Y252676D01*
X108533Y252539D01*
X108565Y252403D01*
X108602Y252268D01*
X108642Y252134D01*
X108685Y252001D01*
X108733Y251869D01*
X108783Y251738D01*
X108838Y251609D01*
X108896Y251482D01*
X108957Y251356D01*
X109022Y251232D01*
X109091Y251110D01*
X109162Y250990D01*
X109237Y250872D01*
X109315Y250755D01*
X109397Y250641D01*
X109481Y250530D01*
X109569Y250421D01*
X109659Y250314D01*
X109753Y250209D01*
X109849Y250108D01*
X109948Y250009D01*
X110049Y249913D01*
X110154Y249819D01*
X110261Y249729D01*
X110370Y249641D01*
X110481Y249557D01*
X110595Y249475D01*
X110712Y249397D01*
X110830Y249322D01*
X110950Y249251D01*
X111072Y249182D01*
X111196Y249117D01*
X111322Y249056D01*
X111449Y248998D01*
X111578Y248943D01*
X111709Y248893D01*
X111841Y248845D01*
X111974Y248802D01*
X112108Y248762D01*
X112243Y248725D01*
X112379Y248693D01*
X112516Y248664D01*
X112654Y248639D01*
X112792Y248618D01*
X112931Y248601D01*
X113070Y248587D01*
X113210Y248578D01*
X113350Y248572D01*
X113490Y248570D01*
X113490Y271430D02*
X146510Y271430D01*
X146510Y248570D02*
X113490Y248570D01*
X146510Y271430D02*
X146650Y271428D01*
X146790Y271422D01*
X146930Y271413D01*
X147069Y271399D01*
X147208Y271382D01*
X147346Y271361D01*
X147484Y271336D01*
X147621Y271307D01*
X147757Y271275D01*
X147892Y271238D01*
X148026Y271198D01*
X148159Y271155D01*
X148291Y271107D01*
X148422Y271057D01*
X148551Y271002D01*
X148678Y270944D01*
X148804Y270883D01*
X148928Y270818D01*
X149050Y270749D01*
X149170Y270678D01*
X149288Y270603D01*
X149405Y270525D01*
X149519Y270443D01*
X149630Y270359D01*
X149739Y270271D01*
X149846Y270181D01*
X149951Y270087D01*
X150052Y269991D01*
X150151Y269892D01*
X150247Y269791D01*
X150341Y269686D01*
X150431Y269579D01*
X150519Y269470D01*
X150603Y269359D01*
X150685Y269245D01*
X150763Y269128D01*
X150838Y269010D01*
X150909Y268890D01*
X150978Y268768D01*
X151043Y268644D01*
X151104Y268518D01*
X151162Y268391D01*
X151217Y268262D01*
X151267Y268131D01*
X151315Y267999D01*
X151358Y267866D01*
X151398Y267732D01*
X151435Y267597D01*
X151467Y267461D01*
X151496Y267324D01*
X151521Y267186D01*
X151542Y267048D01*
X151559Y266909D01*
X151573Y266770D01*
X151582Y266630D01*
X151588Y266490D01*
X151590Y266350D01*
X151590Y253650D02*
X151588Y253510D01*
X151582Y253370D01*
X151573Y253230D01*
X151559Y253091D01*
X151542Y252952D01*
X151521Y252814D01*
X151496Y252676D01*
X151467Y252539D01*
X151435Y252403D01*
X151398Y252268D01*
X151358Y252134D01*
X151315Y252001D01*
X151267Y251869D01*
X151217Y251738D01*
X151162Y251609D01*
X151104Y251482D01*
X151043Y251356D01*
X150978Y251232D01*
X150909Y251110D01*
X150838Y250990D01*
X150763Y250872D01*
X150685Y250755D01*
X150603Y250641D01*
X150519Y250530D01*
X150431Y250421D01*
X150341Y250314D01*
X150247Y250209D01*
X150151Y250108D01*
X150052Y250009D01*
X149951Y249913D01*
X149846Y249819D01*
X149739Y249729D01*
X149630Y249641D01*
X149519Y249557D01*
X149405Y249475D01*
X149288Y249397D01*
X149170Y249322D01*
X149050Y249251D01*
X148928Y249182D01*
X148804Y249117D01*
X148678Y249056D01*
X148551Y248998D01*
X148422Y248943D01*
X148291Y248893D01*
X148159Y248845D01*
X148026Y248802D01*
X147892Y248762D01*
X147757Y248725D01*
X147621Y248693D01*
X147484Y248664D01*
X147346Y248639D01*
X147208Y248618D01*
X147069Y248601D01*
X146930Y248587D01*
X146790Y248578D01*
X146650Y248572D01*
X146510Y248570D01*
D10*
X130000Y260000D02*
X129998Y259860D01*
X129992Y259720D01*
X129982Y259580D01*
X129969Y259440D01*
X129951Y259301D01*
X129929Y259162D01*
X129904Y259025D01*
X129875Y258887D01*
X129842Y258751D01*
X129805Y258616D01*
X129764Y258482D01*
X129719Y258349D01*
X129671Y258217D01*
X129619Y258087D01*
X129564Y257958D01*
X129505Y257831D01*
X129442Y257705D01*
X129376Y257581D01*
X129307Y257460D01*
X129234Y257340D01*
X129157Y257222D01*
X129078Y257107D01*
X128995Y256993D01*
X128909Y256883D01*
X128820Y256774D01*
X128728Y256668D01*
X128633Y256565D01*
X128536Y256464D01*
X128435Y256367D01*
X128332Y256272D01*
X128226Y256180D01*
X128117Y256091D01*
X128007Y256005D01*
X127893Y255922D01*
X127778Y255843D01*
X127660Y255766D01*
X127540Y255693D01*
X127419Y255624D01*
X127295Y255558D01*
X127169Y255495D01*
X127042Y255436D01*
X126913Y255381D01*
X126783Y255329D01*
X126651Y255281D01*
X126518Y255236D01*
X126384Y255195D01*
X126249Y255158D01*
X126113Y255125D01*
X125975Y255096D01*
X125838Y255071D01*
X125699Y255049D01*
X125560Y255031D01*
X125420Y255018D01*
X125280Y255008D01*
X125140Y255002D01*
X125000Y255000D01*
X124860Y255002D01*
X124720Y255008D01*
X124580Y255018D01*
X124440Y255031D01*
X124301Y255049D01*
X124162Y255071D01*
X124025Y255096D01*
X123887Y255125D01*
X123751Y255158D01*
X123616Y255195D01*
X123482Y255236D01*
X123349Y255281D01*
X123217Y255329D01*
X123087Y255381D01*
X122958Y255436D01*
X122831Y255495D01*
X122705Y255558D01*
X122581Y255624D01*
X122460Y255693D01*
X122340Y255766D01*
X122222Y255843D01*
X122107Y255922D01*
X121993Y256005D01*
X121883Y256091D01*
X121774Y256180D01*
X121668Y256272D01*
X121565Y256367D01*
X121464Y256464D01*
X121367Y256565D01*
X121272Y256668D01*
X121180Y256774D01*
X121091Y256883D01*
X121005Y256993D01*
X120922Y257107D01*
X120843Y257222D01*
X120766Y257340D01*
X120693Y257460D01*
X120624Y257581D01*
X120558Y257705D01*
X120495Y257831D01*
X120436Y257958D01*
X120381Y258087D01*
X120329Y258217D01*
X120281Y258349D01*
X120236Y258482D01*
X120195Y258616D01*
X120158Y258751D01*
X120125Y258887D01*
X120096Y259025D01*
X120071Y259162D01*
X120049Y259301D01*
X120031Y259440D01*
X120018Y259580D01*
X120008Y259720D01*
X120002Y259860D01*
X120000Y260000D01*
X130000Y260000D02*
X130002Y260140D01*
X130008Y260280D01*
X130018Y260420D01*
X130031Y260560D01*
X130049Y260699D01*
X130071Y260838D01*
X130096Y260975D01*
X130125Y261113D01*
X130158Y261249D01*
X130195Y261384D01*
X130236Y261518D01*
X130281Y261651D01*
X130329Y261783D01*
X130381Y261913D01*
X130436Y262042D01*
X130495Y262169D01*
X130558Y262295D01*
X130624Y262419D01*
X130693Y262540D01*
X130766Y262660D01*
X130843Y262778D01*
X130922Y262893D01*
X131005Y263007D01*
X131091Y263117D01*
X131180Y263226D01*
X131272Y263332D01*
X131367Y263435D01*
X131464Y263536D01*
X131565Y263633D01*
X131668Y263728D01*
X131774Y263820D01*
X131883Y263909D01*
X131993Y263995D01*
X132107Y264078D01*
X132222Y264157D01*
X132340Y264234D01*
X132460Y264307D01*
X132581Y264376D01*
X132705Y264442D01*
X132831Y264505D01*
X132958Y264564D01*
X133087Y264619D01*
X133217Y264671D01*
X133349Y264719D01*
X133482Y264764D01*
X133616Y264805D01*
X133751Y264842D01*
X133887Y264875D01*
X134025Y264904D01*
X134162Y264929D01*
X134301Y264951D01*
X134440Y264969D01*
X134580Y264982D01*
X134720Y264992D01*
X134860Y264998D01*
X135000Y265000D01*
X135140Y264998D01*
X135280Y264992D01*
X135420Y264982D01*
X135560Y264969D01*
X135699Y264951D01*
X135838Y264929D01*
X135975Y264904D01*
X136113Y264875D01*
X136249Y264842D01*
X136384Y264805D01*
X136518Y264764D01*
X136651Y264719D01*
X136783Y264671D01*
X136913Y264619D01*
X137042Y264564D01*
X137169Y264505D01*
X137295Y264442D01*
X137419Y264376D01*
X137540Y264307D01*
X137660Y264234D01*
X137778Y264157D01*
X137893Y264078D01*
X138007Y263995D01*
X138117Y263909D01*
X138226Y263820D01*
X138332Y263728D01*
X138435Y263633D01*
X138536Y263536D01*
X138633Y263435D01*
X138728Y263332D01*
X138820Y263226D01*
X138909Y263117D01*
X138995Y263007D01*
X139078Y262893D01*
X139157Y262778D01*
X139234Y262660D01*
X139307Y262540D01*
X139376Y262419D01*
X139442Y262295D01*
X139505Y262169D01*
X139564Y262042D01*
X139619Y261913D01*
X139671Y261783D01*
X139719Y261651D01*
X139764Y261518D01*
X139805Y261384D01*
X139842Y261249D01*
X139875Y261113D01*
X139904Y260975D01*
X139929Y260838D01*
X139951Y260699D01*
X139969Y260560D01*
X139982Y260420D01*
X139992Y260280D01*
X139998Y260140D01*
X140000Y260000D01*
X120000Y260000D02*
X115000Y260000D01*
X140000Y260000D02*
X145000Y260000D01*
X99075Y275285D02*
X99075Y286715D01*
X104155Y286715D01*
X104155Y281635D02*
X99075Y281635D01*
X108575Y284175D02*
X111750Y286715D01*
X111750Y275285D01*
X108575Y275285D02*
X114925Y275285D01*
X194600Y342700D02*
X245400Y342700D01*
X245400Y317300D01*
X194600Y317300D01*
X194600Y342700D01*
D18*
X206500Y310000D02*
X206502Y310063D01*
X206508Y310125D01*
X206518Y310187D01*
X206531Y310249D01*
X206549Y310309D01*
X206570Y310368D01*
X206595Y310426D01*
X206624Y310482D01*
X206656Y310536D01*
X206691Y310588D01*
X206729Y310637D01*
X206771Y310685D01*
X206815Y310729D01*
X206863Y310771D01*
X206912Y310809D01*
X206964Y310844D01*
X207018Y310876D01*
X207074Y310905D01*
X207132Y310930D01*
X207191Y310951D01*
X207251Y310969D01*
X207313Y310982D01*
X207375Y310992D01*
X207437Y310998D01*
X207500Y311000D01*
X207563Y310998D01*
X207625Y310992D01*
X207687Y310982D01*
X207749Y310969D01*
X207809Y310951D01*
X207868Y310930D01*
X207926Y310905D01*
X207982Y310876D01*
X208036Y310844D01*
X208088Y310809D01*
X208137Y310771D01*
X208185Y310729D01*
X208229Y310685D01*
X208271Y310637D01*
X208309Y310588D01*
X208344Y310536D01*
X208376Y310482D01*
X208405Y310426D01*
X208430Y310368D01*
X208451Y310309D01*
X208469Y310249D01*
X208482Y310187D01*
X208492Y310125D01*
X208498Y310063D01*
X208500Y310000D01*
X208498Y309937D01*
X208492Y309875D01*
X208482Y309813D01*
X208469Y309751D01*
X208451Y309691D01*
X208430Y309632D01*
X208405Y309574D01*
X208376Y309518D01*
X208344Y309464D01*
X208309Y309412D01*
X208271Y309363D01*
X208229Y309315D01*
X208185Y309271D01*
X208137Y309229D01*
X208088Y309191D01*
X208036Y309156D01*
X207982Y309124D01*
X207926Y309095D01*
X207868Y309070D01*
X207809Y309049D01*
X207749Y309031D01*
X207687Y309018D01*
X207625Y309008D01*
X207563Y309002D01*
X207500Y309000D01*
X207437Y309002D01*
X207375Y309008D01*
X207313Y309018D01*
X207251Y309031D01*
X207191Y309049D01*
X207132Y309070D01*
X207074Y309095D01*
X207018Y309124D01*
X206964Y309156D01*
X206912Y309191D01*
X206863Y309229D01*
X206815Y309271D01*
X206771Y309315D01*
X206729Y309363D01*
X206691Y309412D01*
X206656Y309464D01*
X206624Y309518D01*
X206595Y309574D01*
X206570Y309632D01*
X206549Y309691D01*
X206531Y309751D01*
X206518Y309813D01*
X206508Y309875D01*
X206502Y309937D01*
X206500Y310000D01*
D10*
X180425Y326765D02*
X180425Y335655D01*
X180425Y326765D02*
X180423Y326665D01*
X180417Y326566D01*
X180407Y326466D01*
X180394Y326368D01*
X180376Y326269D01*
X180355Y326172D01*
X180330Y326076D01*
X180301Y325980D01*
X180268Y325886D01*
X180232Y325793D01*
X180192Y325702D01*
X180148Y325612D01*
X180101Y325524D01*
X180051Y325438D01*
X179997Y325354D01*
X179940Y325272D01*
X179880Y325193D01*
X179816Y325115D01*
X179750Y325041D01*
X179681Y324969D01*
X179609Y324900D01*
X179535Y324834D01*
X179457Y324770D01*
X179378Y324710D01*
X179296Y324653D01*
X179212Y324599D01*
X179126Y324549D01*
X179038Y324502D01*
X178948Y324458D01*
X178857Y324418D01*
X178764Y324382D01*
X178670Y324349D01*
X178574Y324320D01*
X178478Y324295D01*
X178381Y324274D01*
X178282Y324256D01*
X178184Y324243D01*
X178084Y324233D01*
X177985Y324227D01*
X177885Y324225D01*
X176615Y324225D01*
X189326Y335656D02*
X189430Y335654D01*
X189535Y335648D01*
X189639Y335639D01*
X189742Y335626D01*
X189845Y335608D01*
X189947Y335588D01*
X190049Y335563D01*
X190149Y335535D01*
X190249Y335503D01*
X190347Y335467D01*
X190444Y335428D01*
X190539Y335386D01*
X190633Y335340D01*
X190725Y335290D01*
X190815Y335238D01*
X190903Y335182D01*
X190989Y335122D01*
X191073Y335060D01*
X191154Y334995D01*
X191233Y334927D01*
X191310Y334855D01*
X191383Y334782D01*
X191455Y334705D01*
X191523Y334626D01*
X191588Y334545D01*
X191650Y334461D01*
X191710Y334375D01*
X191766Y334287D01*
X191818Y334197D01*
X191868Y334105D01*
X191914Y334011D01*
X191956Y333916D01*
X191995Y333819D01*
X192031Y333721D01*
X192063Y333621D01*
X192091Y333521D01*
X192116Y333419D01*
X192136Y333317D01*
X192154Y333214D01*
X192167Y333111D01*
X192176Y333007D01*
X192182Y332902D01*
X192184Y332798D01*
X189326Y335655D02*
X189208Y335653D01*
X189089Y335647D01*
X188971Y335638D01*
X188854Y335625D01*
X188737Y335607D01*
X188620Y335587D01*
X188504Y335562D01*
X188389Y335534D01*
X188276Y335501D01*
X188163Y335466D01*
X188051Y335426D01*
X187941Y335384D01*
X187832Y335337D01*
X187724Y335287D01*
X187619Y335234D01*
X187515Y335177D01*
X187413Y335117D01*
X187313Y335054D01*
X187215Y334987D01*
X187119Y334918D01*
X187026Y334845D01*
X186935Y334769D01*
X186846Y334691D01*
X186760Y334609D01*
X186677Y334525D01*
X186596Y334439D01*
X186519Y334349D01*
X186444Y334258D01*
X186372Y334164D01*
X186303Y334067D01*
X186238Y333969D01*
X186175Y333868D01*
X186116Y333765D01*
X186060Y333661D01*
X186008Y333555D01*
X185959Y333447D01*
X185914Y333338D01*
X185872Y333227D01*
X185834Y333115D01*
X191232Y330576D02*
X191308Y330651D01*
X191383Y330730D01*
X191454Y330811D01*
X191523Y330895D01*
X191588Y330981D01*
X191650Y331069D01*
X191710Y331159D01*
X191766Y331251D01*
X191819Y331346D01*
X191868Y331442D01*
X191914Y331540D01*
X191957Y331639D01*
X191996Y331740D01*
X192031Y331842D01*
X192063Y331945D01*
X192091Y332049D01*
X192116Y332154D01*
X192137Y332261D01*
X192154Y332367D01*
X192167Y332474D01*
X192176Y332582D01*
X192182Y332690D01*
X192184Y332798D01*
X191231Y330575D02*
X185834Y324225D01*
X192184Y324225D01*
X330000Y250000D02*
X330000Y170000D01*
X330000Y250000D02*
X365000Y250000D01*
X365000Y205000D01*
X365000Y185000D01*
X365000Y170000D01*
X330000Y170000D01*
X365000Y185000D02*
X385000Y185000D01*
X385000Y205000D01*
X365000Y205000D01*
X308045Y194275D02*
X308043Y194175D01*
X308037Y194076D01*
X308027Y193976D01*
X308014Y193878D01*
X307996Y193779D01*
X307975Y193682D01*
X307950Y193586D01*
X307921Y193490D01*
X307888Y193396D01*
X307852Y193303D01*
X307812Y193212D01*
X307768Y193122D01*
X307721Y193034D01*
X307671Y192948D01*
X307617Y192864D01*
X307560Y192782D01*
X307500Y192703D01*
X307436Y192625D01*
X307370Y192551D01*
X307301Y192479D01*
X307229Y192410D01*
X307155Y192344D01*
X307077Y192280D01*
X306998Y192220D01*
X306916Y192163D01*
X306832Y192109D01*
X306746Y192059D01*
X306658Y192012D01*
X306568Y191968D01*
X306477Y191928D01*
X306384Y191892D01*
X306290Y191859D01*
X306194Y191830D01*
X306098Y191805D01*
X306001Y191784D01*
X305902Y191766D01*
X305804Y191753D01*
X305704Y191743D01*
X305605Y191737D01*
X305505Y191735D01*
X305364Y191737D01*
X305223Y191742D01*
X305082Y191752D01*
X304941Y191765D01*
X304801Y191781D01*
X304661Y191802D01*
X304522Y191826D01*
X304383Y191854D01*
X304246Y191885D01*
X304109Y191920D01*
X303973Y191958D01*
X303838Y192000D01*
X303705Y192046D01*
X303572Y192095D01*
X303441Y192148D01*
X303312Y192204D01*
X303183Y192263D01*
X303057Y192326D01*
X302932Y192392D01*
X302809Y192461D01*
X302688Y192534D01*
X302569Y192610D01*
X302451Y192689D01*
X302336Y192770D01*
X302224Y192855D01*
X302113Y192943D01*
X302005Y193034D01*
X301899Y193127D01*
X301796Y193224D01*
X301695Y193323D01*
X302013Y200625D02*
X302015Y200725D01*
X302021Y200824D01*
X302031Y200924D01*
X302044Y201022D01*
X302062Y201121D01*
X302083Y201218D01*
X302108Y201314D01*
X302137Y201410D01*
X302170Y201504D01*
X302206Y201597D01*
X302246Y201688D01*
X302290Y201778D01*
X302337Y201866D01*
X302387Y201952D01*
X302441Y202036D01*
X302498Y202118D01*
X302558Y202197D01*
X302622Y202275D01*
X302688Y202349D01*
X302757Y202421D01*
X302829Y202490D01*
X302903Y202556D01*
X302981Y202620D01*
X303060Y202680D01*
X303142Y202737D01*
X303226Y202791D01*
X303312Y202841D01*
X303400Y202888D01*
X303490Y202932D01*
X303581Y202972D01*
X303674Y203008D01*
X303768Y203041D01*
X303864Y203070D01*
X303960Y203095D01*
X304057Y203116D01*
X304156Y203134D01*
X304254Y203147D01*
X304354Y203157D01*
X304453Y203163D01*
X304553Y203165D01*
X304553Y203166D02*
X304686Y203164D01*
X304819Y203159D01*
X304952Y203149D01*
X305085Y203136D01*
X305217Y203119D01*
X305349Y203099D01*
X305480Y203075D01*
X305610Y203047D01*
X305740Y203016D01*
X305868Y202981D01*
X305996Y202942D01*
X306122Y202900D01*
X306247Y202854D01*
X306371Y202805D01*
X306494Y202753D01*
X306615Y202697D01*
X306734Y202637D01*
X306852Y202575D01*
X306967Y202509D01*
X307081Y202440D01*
X307193Y202367D01*
X307303Y202292D01*
X307411Y202213D01*
X303282Y198402D02*
X303198Y198454D01*
X303115Y198509D01*
X303035Y198568D01*
X302957Y198629D01*
X302882Y198693D01*
X302809Y198761D01*
X302738Y198831D01*
X302671Y198903D01*
X302606Y198978D01*
X302544Y199056D01*
X302485Y199136D01*
X302429Y199218D01*
X302377Y199302D01*
X302328Y199388D01*
X302282Y199476D01*
X302239Y199566D01*
X302200Y199657D01*
X302165Y199750D01*
X302133Y199844D01*
X302105Y199939D01*
X302080Y200035D01*
X302060Y200132D01*
X302042Y200230D01*
X302029Y200328D01*
X302020Y200427D01*
X302014Y200526D01*
X302012Y200625D01*
X306775Y196498D02*
X306859Y196446D01*
X306942Y196391D01*
X307022Y196332D01*
X307100Y196271D01*
X307175Y196207D01*
X307248Y196139D01*
X307319Y196069D01*
X307386Y195997D01*
X307451Y195922D01*
X307513Y195844D01*
X307572Y195764D01*
X307628Y195682D01*
X307680Y195598D01*
X307729Y195512D01*
X307775Y195424D01*
X307818Y195334D01*
X307857Y195243D01*
X307892Y195150D01*
X307924Y195056D01*
X307952Y194961D01*
X307977Y194865D01*
X307997Y194768D01*
X308015Y194670D01*
X308028Y194572D01*
X308037Y194473D01*
X308043Y194374D01*
X308045Y194275D01*
X306775Y196498D02*
X303283Y198403D01*
X312744Y200625D02*
X315919Y203165D01*
X315919Y191735D01*
X312744Y191735D02*
X319094Y191735D01*
X20000Y170000D02*
X20000Y250000D01*
X20000Y170000D02*
X-15000Y170000D01*
X-15000Y215000D01*
X-15000Y235000D01*
X-15000Y250000D01*
X20000Y250000D01*
X-15000Y235000D02*
X-35000Y235000D01*
X-35000Y215000D01*
X-15000Y215000D01*
X32716Y191835D02*
X32816Y191837D01*
X32915Y191843D01*
X33015Y191853D01*
X33113Y191866D01*
X33212Y191884D01*
X33309Y191905D01*
X33405Y191930D01*
X33501Y191959D01*
X33595Y191992D01*
X33688Y192028D01*
X33779Y192068D01*
X33869Y192112D01*
X33957Y192159D01*
X34043Y192209D01*
X34127Y192263D01*
X34209Y192320D01*
X34288Y192380D01*
X34366Y192444D01*
X34440Y192510D01*
X34512Y192579D01*
X34581Y192651D01*
X34647Y192725D01*
X34711Y192803D01*
X34771Y192882D01*
X34828Y192964D01*
X34882Y193048D01*
X34932Y193134D01*
X34979Y193222D01*
X35023Y193312D01*
X35063Y193403D01*
X35099Y193496D01*
X35132Y193590D01*
X35161Y193686D01*
X35186Y193782D01*
X35207Y193879D01*
X35225Y193978D01*
X35238Y194076D01*
X35248Y194176D01*
X35254Y194275D01*
X35256Y194375D01*
X32716Y191835D02*
X32575Y191837D01*
X32434Y191842D01*
X32293Y191852D01*
X32152Y191865D01*
X32012Y191881D01*
X31872Y191902D01*
X31733Y191926D01*
X31594Y191954D01*
X31457Y191985D01*
X31320Y192020D01*
X31184Y192058D01*
X31049Y192100D01*
X30916Y192146D01*
X30783Y192195D01*
X30652Y192248D01*
X30523Y192304D01*
X30394Y192363D01*
X30268Y192426D01*
X30143Y192492D01*
X30020Y192561D01*
X29899Y192634D01*
X29780Y192710D01*
X29662Y192789D01*
X29547Y192870D01*
X29435Y192955D01*
X29324Y193043D01*
X29216Y193134D01*
X29110Y193227D01*
X29007Y193324D01*
X28906Y193423D01*
X29224Y200725D02*
X29226Y200825D01*
X29232Y200924D01*
X29242Y201024D01*
X29255Y201122D01*
X29273Y201221D01*
X29294Y201318D01*
X29319Y201414D01*
X29348Y201510D01*
X29381Y201604D01*
X29417Y201697D01*
X29457Y201788D01*
X29501Y201878D01*
X29548Y201966D01*
X29598Y202052D01*
X29652Y202136D01*
X29709Y202218D01*
X29769Y202297D01*
X29833Y202375D01*
X29899Y202449D01*
X29968Y202521D01*
X30040Y202590D01*
X30114Y202656D01*
X30192Y202720D01*
X30271Y202780D01*
X30353Y202837D01*
X30437Y202891D01*
X30523Y202941D01*
X30611Y202988D01*
X30701Y203032D01*
X30792Y203072D01*
X30885Y203108D01*
X30979Y203141D01*
X31075Y203170D01*
X31171Y203195D01*
X31268Y203216D01*
X31367Y203234D01*
X31465Y203247D01*
X31565Y203257D01*
X31664Y203263D01*
X31764Y203265D01*
X31764Y203266D02*
X31897Y203264D01*
X32030Y203259D01*
X32163Y203249D01*
X32296Y203236D01*
X32428Y203219D01*
X32560Y203199D01*
X32691Y203175D01*
X32821Y203147D01*
X32951Y203116D01*
X33079Y203081D01*
X33207Y203042D01*
X33333Y203000D01*
X33458Y202954D01*
X33582Y202905D01*
X33705Y202853D01*
X33826Y202797D01*
X33945Y202737D01*
X34063Y202675D01*
X34178Y202609D01*
X34292Y202540D01*
X34404Y202467D01*
X34514Y202392D01*
X34622Y202313D01*
X30493Y198502D02*
X30409Y198554D01*
X30326Y198609D01*
X30246Y198668D01*
X30168Y198729D01*
X30093Y198793D01*
X30020Y198861D01*
X29949Y198931D01*
X29882Y199003D01*
X29817Y199078D01*
X29755Y199156D01*
X29696Y199236D01*
X29640Y199318D01*
X29588Y199402D01*
X29539Y199488D01*
X29493Y199576D01*
X29450Y199666D01*
X29411Y199757D01*
X29376Y199850D01*
X29344Y199944D01*
X29316Y200039D01*
X29291Y200135D01*
X29271Y200232D01*
X29253Y200330D01*
X29240Y200428D01*
X29231Y200527D01*
X29225Y200626D01*
X29223Y200725D01*
X33986Y196598D02*
X34070Y196546D01*
X34153Y196491D01*
X34233Y196432D01*
X34311Y196371D01*
X34386Y196307D01*
X34459Y196239D01*
X34530Y196169D01*
X34597Y196097D01*
X34662Y196022D01*
X34724Y195944D01*
X34783Y195864D01*
X34839Y195782D01*
X34891Y195698D01*
X34940Y195612D01*
X34986Y195524D01*
X35029Y195434D01*
X35068Y195343D01*
X35103Y195250D01*
X35135Y195156D01*
X35163Y195061D01*
X35188Y194965D01*
X35208Y194868D01*
X35226Y194770D01*
X35239Y194672D01*
X35248Y194573D01*
X35254Y194474D01*
X35256Y194375D01*
X33986Y196598D02*
X30494Y198503D01*
X43448Y203266D02*
X43552Y203264D01*
X43657Y203258D01*
X43761Y203249D01*
X43864Y203236D01*
X43967Y203218D01*
X44069Y203198D01*
X44171Y203173D01*
X44271Y203145D01*
X44371Y203113D01*
X44469Y203077D01*
X44566Y203038D01*
X44661Y202996D01*
X44755Y202950D01*
X44847Y202900D01*
X44937Y202848D01*
X45025Y202792D01*
X45111Y202732D01*
X45195Y202670D01*
X45276Y202605D01*
X45355Y202537D01*
X45432Y202465D01*
X45505Y202392D01*
X45577Y202315D01*
X45645Y202236D01*
X45710Y202155D01*
X45772Y202071D01*
X45832Y201985D01*
X45888Y201897D01*
X45940Y201807D01*
X45990Y201715D01*
X46036Y201621D01*
X46078Y201526D01*
X46117Y201429D01*
X46153Y201331D01*
X46185Y201231D01*
X46213Y201131D01*
X46238Y201029D01*
X46258Y200927D01*
X46276Y200824D01*
X46289Y200721D01*
X46298Y200617D01*
X46304Y200512D01*
X46306Y200408D01*
X43448Y203265D02*
X43330Y203263D01*
X43211Y203257D01*
X43093Y203248D01*
X42976Y203235D01*
X42859Y203217D01*
X42742Y203197D01*
X42626Y203172D01*
X42511Y203144D01*
X42398Y203111D01*
X42285Y203076D01*
X42173Y203036D01*
X42063Y202994D01*
X41954Y202947D01*
X41846Y202897D01*
X41741Y202844D01*
X41637Y202787D01*
X41535Y202727D01*
X41435Y202664D01*
X41337Y202597D01*
X41241Y202528D01*
X41148Y202455D01*
X41057Y202379D01*
X40968Y202301D01*
X40882Y202219D01*
X40799Y202135D01*
X40718Y202049D01*
X40641Y201959D01*
X40566Y201868D01*
X40494Y201774D01*
X40425Y201677D01*
X40360Y201579D01*
X40297Y201478D01*
X40238Y201375D01*
X40182Y201271D01*
X40130Y201165D01*
X40081Y201057D01*
X40036Y200948D01*
X39994Y200837D01*
X39956Y200725D01*
X45353Y198186D02*
X45429Y198261D01*
X45504Y198340D01*
X45575Y198421D01*
X45644Y198505D01*
X45709Y198591D01*
X45771Y198679D01*
X45831Y198769D01*
X45887Y198861D01*
X45940Y198956D01*
X45989Y199052D01*
X46035Y199150D01*
X46078Y199249D01*
X46117Y199350D01*
X46152Y199452D01*
X46184Y199555D01*
X46212Y199659D01*
X46237Y199764D01*
X46258Y199871D01*
X46275Y199977D01*
X46288Y200084D01*
X46297Y200192D01*
X46303Y200300D01*
X46305Y200408D01*
X45353Y198185D02*
X39955Y191835D01*
X46305Y191835D01*
D11*
X61430Y299210D02*
X61428Y299310D01*
X61422Y299409D01*
X61412Y299509D01*
X61399Y299607D01*
X61381Y299706D01*
X61360Y299803D01*
X61335Y299899D01*
X61306Y299995D01*
X61273Y300089D01*
X61237Y300182D01*
X61197Y300273D01*
X61153Y300363D01*
X61106Y300451D01*
X61056Y300537D01*
X61002Y300621D01*
X60945Y300703D01*
X60885Y300782D01*
X60821Y300860D01*
X60755Y300934D01*
X60686Y301006D01*
X60614Y301075D01*
X60540Y301141D01*
X60462Y301205D01*
X60383Y301265D01*
X60301Y301322D01*
X60217Y301376D01*
X60131Y301426D01*
X60043Y301473D01*
X59953Y301517D01*
X59862Y301557D01*
X59769Y301593D01*
X59675Y301626D01*
X59579Y301655D01*
X59483Y301680D01*
X59386Y301701D01*
X59287Y301719D01*
X59189Y301732D01*
X59089Y301742D01*
X58990Y301748D01*
X58890Y301750D01*
X41110Y301750D02*
X41010Y301748D01*
X40911Y301742D01*
X40811Y301732D01*
X40713Y301719D01*
X40614Y301701D01*
X40517Y301680D01*
X40421Y301655D01*
X40325Y301626D01*
X40231Y301593D01*
X40138Y301557D01*
X40047Y301517D01*
X39957Y301473D01*
X39869Y301426D01*
X39783Y301376D01*
X39699Y301322D01*
X39617Y301265D01*
X39538Y301205D01*
X39460Y301141D01*
X39386Y301075D01*
X39314Y301006D01*
X39245Y300934D01*
X39179Y300860D01*
X39115Y300782D01*
X39055Y300703D01*
X38998Y300621D01*
X38944Y300537D01*
X38894Y300451D01*
X38847Y300363D01*
X38803Y300273D01*
X38763Y300182D01*
X38727Y300089D01*
X38694Y299995D01*
X38665Y299899D01*
X38640Y299803D01*
X38619Y299706D01*
X38601Y299607D01*
X38588Y299509D01*
X38578Y299409D01*
X38572Y299310D01*
X38570Y299210D01*
X38570Y240790D02*
X38572Y240690D01*
X38578Y240591D01*
X38588Y240491D01*
X38601Y240393D01*
X38619Y240294D01*
X38640Y240197D01*
X38665Y240101D01*
X38694Y240005D01*
X38727Y239911D01*
X38763Y239818D01*
X38803Y239727D01*
X38847Y239637D01*
X38894Y239549D01*
X38944Y239463D01*
X38998Y239379D01*
X39055Y239297D01*
X39115Y239218D01*
X39179Y239140D01*
X39245Y239066D01*
X39314Y238994D01*
X39386Y238925D01*
X39460Y238859D01*
X39538Y238795D01*
X39617Y238735D01*
X39699Y238678D01*
X39783Y238624D01*
X39869Y238574D01*
X39957Y238527D01*
X40047Y238483D01*
X40138Y238443D01*
X40231Y238407D01*
X40325Y238374D01*
X40421Y238345D01*
X40517Y238320D01*
X40614Y238299D01*
X40713Y238281D01*
X40811Y238268D01*
X40911Y238258D01*
X41010Y238252D01*
X41110Y238250D01*
X58890Y238250D02*
X58990Y238252D01*
X59089Y238258D01*
X59189Y238268D01*
X59287Y238281D01*
X59386Y238299D01*
X59483Y238320D01*
X59579Y238345D01*
X59675Y238374D01*
X59769Y238407D01*
X59862Y238443D01*
X59953Y238483D01*
X60043Y238527D01*
X60131Y238574D01*
X60217Y238624D01*
X60301Y238678D01*
X60383Y238735D01*
X60462Y238795D01*
X60540Y238859D01*
X60614Y238925D01*
X60686Y238994D01*
X60755Y239066D01*
X60821Y239140D01*
X60885Y239218D01*
X60945Y239297D01*
X61002Y239379D01*
X61056Y239463D01*
X61106Y239549D01*
X61153Y239637D01*
X61197Y239727D01*
X61237Y239818D01*
X61273Y239911D01*
X61306Y240005D01*
X61335Y240101D01*
X61360Y240197D01*
X61381Y240294D01*
X61399Y240393D01*
X61412Y240491D01*
X61422Y240591D01*
X61428Y240690D01*
X61430Y240790D01*
X58890Y301750D02*
X41110Y301750D01*
X61430Y299210D02*
X61430Y295400D01*
X60160Y294130D01*
X38570Y295400D02*
X38570Y299210D01*
X38570Y295400D02*
X39840Y294130D01*
X60160Y245870D02*
X61430Y244600D01*
X60160Y245870D02*
X60160Y294130D01*
X39840Y245870D02*
X38570Y244600D01*
X39840Y245870D02*
X39840Y294130D01*
X61430Y244600D02*
X61430Y240790D01*
X38570Y240790D02*
X38570Y244600D01*
X41110Y238250D02*
X58890Y238250D01*
D20*
X50000Y233932D03*
X50000Y306068D03*
D10*
X55715Y261151D02*
X44285Y261151D01*
X44285Y264326D01*
X44287Y264437D01*
X44293Y264547D01*
X44302Y264658D01*
X44316Y264768D01*
X44333Y264877D01*
X44354Y264986D01*
X44379Y265094D01*
X44408Y265201D01*
X44440Y265307D01*
X44476Y265412D01*
X44516Y265515D01*
X44559Y265617D01*
X44606Y265718D01*
X44657Y265817D01*
X44710Y265914D01*
X44767Y266008D01*
X44828Y266101D01*
X44891Y266192D01*
X44958Y266281D01*
X45028Y266367D01*
X45101Y266450D01*
X45176Y266532D01*
X45254Y266610D01*
X45336Y266685D01*
X45419Y266758D01*
X45505Y266828D01*
X45594Y266895D01*
X45685Y266958D01*
X45778Y267019D01*
X45872Y267076D01*
X45969Y267129D01*
X46068Y267180D01*
X46169Y267227D01*
X46271Y267270D01*
X46374Y267310D01*
X46479Y267346D01*
X46585Y267378D01*
X46692Y267407D01*
X46800Y267432D01*
X46909Y267453D01*
X47018Y267470D01*
X47128Y267484D01*
X47239Y267493D01*
X47349Y267499D01*
X47460Y267501D01*
X47571Y267499D01*
X47681Y267493D01*
X47792Y267484D01*
X47902Y267470D01*
X48011Y267453D01*
X48120Y267432D01*
X48228Y267407D01*
X48335Y267378D01*
X48441Y267346D01*
X48546Y267310D01*
X48649Y267270D01*
X48751Y267227D01*
X48852Y267180D01*
X48951Y267129D01*
X49048Y267076D01*
X49142Y267019D01*
X49235Y266958D01*
X49326Y266895D01*
X49415Y266828D01*
X49501Y266758D01*
X49584Y266685D01*
X49666Y266610D01*
X49744Y266532D01*
X49819Y266450D01*
X49892Y266367D01*
X49962Y266281D01*
X50029Y266192D01*
X50092Y266101D01*
X50153Y266008D01*
X50210Y265914D01*
X50263Y265817D01*
X50314Y265718D01*
X50361Y265617D01*
X50404Y265515D01*
X50444Y265412D01*
X50480Y265307D01*
X50512Y265201D01*
X50541Y265094D01*
X50566Y264986D01*
X50587Y264877D01*
X50604Y264768D01*
X50618Y264658D01*
X50627Y264547D01*
X50633Y264437D01*
X50635Y264326D01*
X50635Y261151D01*
X50635Y264961D02*
X55715Y267501D01*
X55715Y272499D02*
X55715Y275674D01*
X55713Y275785D01*
X55707Y275895D01*
X55698Y276006D01*
X55684Y276116D01*
X55667Y276225D01*
X55646Y276334D01*
X55621Y276442D01*
X55592Y276549D01*
X55560Y276655D01*
X55524Y276760D01*
X55484Y276863D01*
X55441Y276965D01*
X55394Y277066D01*
X55343Y277165D01*
X55290Y277262D01*
X55233Y277356D01*
X55172Y277449D01*
X55109Y277540D01*
X55042Y277629D01*
X54972Y277715D01*
X54899Y277798D01*
X54824Y277880D01*
X54746Y277958D01*
X54664Y278033D01*
X54581Y278106D01*
X54495Y278176D01*
X54406Y278243D01*
X54315Y278306D01*
X54222Y278367D01*
X54128Y278424D01*
X54031Y278477D01*
X53932Y278528D01*
X53831Y278575D01*
X53729Y278618D01*
X53626Y278658D01*
X53521Y278694D01*
X53415Y278726D01*
X53308Y278755D01*
X53200Y278780D01*
X53091Y278801D01*
X52982Y278818D01*
X52872Y278832D01*
X52761Y278841D01*
X52651Y278847D01*
X52540Y278849D01*
X52429Y278847D01*
X52319Y278841D01*
X52208Y278832D01*
X52098Y278818D01*
X51989Y278801D01*
X51880Y278780D01*
X51772Y278755D01*
X51665Y278726D01*
X51559Y278694D01*
X51454Y278658D01*
X51351Y278618D01*
X51249Y278575D01*
X51148Y278528D01*
X51049Y278477D01*
X50952Y278424D01*
X50858Y278367D01*
X50765Y278306D01*
X50674Y278243D01*
X50585Y278176D01*
X50499Y278106D01*
X50416Y278033D01*
X50334Y277958D01*
X50256Y277880D01*
X50181Y277798D01*
X50108Y277715D01*
X50038Y277629D01*
X49971Y277540D01*
X49908Y277449D01*
X49847Y277356D01*
X49790Y277262D01*
X49737Y277165D01*
X49686Y277066D01*
X49639Y276965D01*
X49596Y276863D01*
X49556Y276760D01*
X49520Y276655D01*
X49488Y276549D01*
X49459Y276442D01*
X49434Y276334D01*
X49413Y276225D01*
X49396Y276116D01*
X49382Y276006D01*
X49373Y275895D01*
X49367Y275785D01*
X49365Y275674D01*
X44285Y276309D02*
X44285Y272499D01*
X44285Y276309D02*
X44287Y276409D01*
X44293Y276508D01*
X44303Y276608D01*
X44316Y276706D01*
X44334Y276805D01*
X44355Y276902D01*
X44380Y276998D01*
X44409Y277094D01*
X44442Y277188D01*
X44478Y277281D01*
X44518Y277372D01*
X44562Y277462D01*
X44609Y277550D01*
X44659Y277636D01*
X44713Y277720D01*
X44770Y277802D01*
X44830Y277881D01*
X44894Y277959D01*
X44960Y278033D01*
X45029Y278105D01*
X45101Y278174D01*
X45175Y278240D01*
X45253Y278304D01*
X45332Y278364D01*
X45414Y278421D01*
X45498Y278475D01*
X45584Y278525D01*
X45672Y278572D01*
X45762Y278616D01*
X45853Y278656D01*
X45946Y278692D01*
X46040Y278725D01*
X46136Y278754D01*
X46232Y278779D01*
X46329Y278800D01*
X46428Y278818D01*
X46526Y278831D01*
X46626Y278841D01*
X46725Y278847D01*
X46825Y278849D01*
X46925Y278847D01*
X47024Y278841D01*
X47124Y278831D01*
X47222Y278818D01*
X47321Y278800D01*
X47418Y278779D01*
X47514Y278754D01*
X47610Y278725D01*
X47704Y278692D01*
X47797Y278656D01*
X47888Y278616D01*
X47978Y278572D01*
X48066Y278525D01*
X48152Y278475D01*
X48236Y278421D01*
X48318Y278364D01*
X48397Y278304D01*
X48475Y278240D01*
X48549Y278174D01*
X48621Y278105D01*
X48690Y278033D01*
X48756Y277959D01*
X48820Y277881D01*
X48880Y277802D01*
X48937Y277720D01*
X48991Y277636D01*
X49041Y277550D01*
X49088Y277462D01*
X49132Y277372D01*
X49172Y277281D01*
X49208Y277188D01*
X49241Y277094D01*
X49270Y276998D01*
X49295Y276902D01*
X49316Y276805D01*
X49334Y276706D01*
X49347Y276608D01*
X49357Y276508D01*
X49363Y276409D01*
X49365Y276309D01*
X49365Y273769D01*
D11*
X88890Y301750D02*
X88990Y301748D01*
X89089Y301742D01*
X89189Y301732D01*
X89287Y301719D01*
X89386Y301701D01*
X89483Y301680D01*
X89579Y301655D01*
X89675Y301626D01*
X89769Y301593D01*
X89862Y301557D01*
X89953Y301517D01*
X90043Y301473D01*
X90131Y301426D01*
X90217Y301376D01*
X90301Y301322D01*
X90383Y301265D01*
X90462Y301205D01*
X90540Y301141D01*
X90614Y301075D01*
X90686Y301006D01*
X90755Y300934D01*
X90821Y300860D01*
X90885Y300782D01*
X90945Y300703D01*
X91002Y300621D01*
X91056Y300537D01*
X91106Y300451D01*
X91153Y300363D01*
X91197Y300273D01*
X91237Y300182D01*
X91273Y300089D01*
X91306Y299995D01*
X91335Y299899D01*
X91360Y299803D01*
X91381Y299706D01*
X91399Y299607D01*
X91412Y299509D01*
X91422Y299409D01*
X91428Y299310D01*
X91430Y299210D01*
X71110Y301750D02*
X71010Y301748D01*
X70911Y301742D01*
X70811Y301732D01*
X70713Y301719D01*
X70614Y301701D01*
X70517Y301680D01*
X70421Y301655D01*
X70325Y301626D01*
X70231Y301593D01*
X70138Y301557D01*
X70047Y301517D01*
X69957Y301473D01*
X69869Y301426D01*
X69783Y301376D01*
X69699Y301322D01*
X69617Y301265D01*
X69538Y301205D01*
X69460Y301141D01*
X69386Y301075D01*
X69314Y301006D01*
X69245Y300934D01*
X69179Y300860D01*
X69115Y300782D01*
X69055Y300703D01*
X68998Y300621D01*
X68944Y300537D01*
X68894Y300451D01*
X68847Y300363D01*
X68803Y300273D01*
X68763Y300182D01*
X68727Y300089D01*
X68694Y299995D01*
X68665Y299899D01*
X68640Y299803D01*
X68619Y299706D01*
X68601Y299607D01*
X68588Y299509D01*
X68578Y299409D01*
X68572Y299310D01*
X68570Y299210D01*
X68570Y240790D02*
X68572Y240690D01*
X68578Y240591D01*
X68588Y240491D01*
X68601Y240393D01*
X68619Y240294D01*
X68640Y240197D01*
X68665Y240101D01*
X68694Y240005D01*
X68727Y239911D01*
X68763Y239818D01*
X68803Y239727D01*
X68847Y239637D01*
X68894Y239549D01*
X68944Y239463D01*
X68998Y239379D01*
X69055Y239297D01*
X69115Y239218D01*
X69179Y239140D01*
X69245Y239066D01*
X69314Y238994D01*
X69386Y238925D01*
X69460Y238859D01*
X69538Y238795D01*
X69617Y238735D01*
X69699Y238678D01*
X69783Y238624D01*
X69869Y238574D01*
X69957Y238527D01*
X70047Y238483D01*
X70138Y238443D01*
X70231Y238407D01*
X70325Y238374D01*
X70421Y238345D01*
X70517Y238320D01*
X70614Y238299D01*
X70713Y238281D01*
X70811Y238268D01*
X70911Y238258D01*
X71010Y238252D01*
X71110Y238250D01*
X88890Y238250D02*
X88990Y238252D01*
X89089Y238258D01*
X89189Y238268D01*
X89287Y238281D01*
X89386Y238299D01*
X89483Y238320D01*
X89579Y238345D01*
X89675Y238374D01*
X89769Y238407D01*
X89862Y238443D01*
X89953Y238483D01*
X90043Y238527D01*
X90131Y238574D01*
X90217Y238624D01*
X90301Y238678D01*
X90383Y238735D01*
X90462Y238795D01*
X90540Y238859D01*
X90614Y238925D01*
X90686Y238994D01*
X90755Y239066D01*
X90821Y239140D01*
X90885Y239218D01*
X90945Y239297D01*
X91002Y239379D01*
X91056Y239463D01*
X91106Y239549D01*
X91153Y239637D01*
X91197Y239727D01*
X91237Y239818D01*
X91273Y239911D01*
X91306Y240005D01*
X91335Y240101D01*
X91360Y240197D01*
X91381Y240294D01*
X91399Y240393D01*
X91412Y240491D01*
X91422Y240591D01*
X91428Y240690D01*
X91430Y240790D01*
X88890Y301750D02*
X71110Y301750D01*
X91430Y299210D02*
X91430Y295400D01*
X90160Y294130D01*
X68570Y295400D02*
X68570Y299210D01*
X68570Y295400D02*
X69840Y294130D01*
X90160Y245870D02*
X91430Y244600D01*
X90160Y245870D02*
X90160Y294130D01*
X69840Y245870D02*
X68570Y244600D01*
X69840Y245870D02*
X69840Y294130D01*
X91430Y244600D02*
X91430Y240790D01*
X68570Y240790D02*
X68570Y244600D01*
X71110Y238250D02*
X88890Y238250D01*
D20*
X80000Y233932D03*
X80000Y306068D03*
D10*
X85715Y261151D02*
X74285Y261151D01*
X74285Y264326D01*
X74287Y264437D01*
X74293Y264547D01*
X74302Y264658D01*
X74316Y264768D01*
X74333Y264877D01*
X74354Y264986D01*
X74379Y265094D01*
X74408Y265201D01*
X74440Y265307D01*
X74476Y265412D01*
X74516Y265515D01*
X74559Y265617D01*
X74606Y265718D01*
X74657Y265817D01*
X74710Y265914D01*
X74767Y266008D01*
X74828Y266101D01*
X74891Y266192D01*
X74958Y266281D01*
X75028Y266367D01*
X75101Y266450D01*
X75176Y266532D01*
X75254Y266610D01*
X75336Y266685D01*
X75419Y266758D01*
X75505Y266828D01*
X75594Y266895D01*
X75685Y266958D01*
X75778Y267019D01*
X75873Y267076D01*
X75969Y267129D01*
X76068Y267180D01*
X76169Y267227D01*
X76271Y267270D01*
X76374Y267310D01*
X76479Y267346D01*
X76585Y267378D01*
X76692Y267407D01*
X76800Y267432D01*
X76909Y267453D01*
X77018Y267470D01*
X77128Y267484D01*
X77239Y267493D01*
X77349Y267499D01*
X77460Y267501D01*
X77571Y267499D01*
X77681Y267493D01*
X77792Y267484D01*
X77902Y267470D01*
X78011Y267453D01*
X78120Y267432D01*
X78228Y267407D01*
X78335Y267378D01*
X78441Y267346D01*
X78546Y267310D01*
X78649Y267270D01*
X78751Y267227D01*
X78852Y267180D01*
X78951Y267129D01*
X79048Y267076D01*
X79142Y267019D01*
X79235Y266958D01*
X79326Y266895D01*
X79415Y266828D01*
X79501Y266758D01*
X79584Y266685D01*
X79666Y266610D01*
X79744Y266532D01*
X79819Y266450D01*
X79892Y266367D01*
X79962Y266281D01*
X80029Y266192D01*
X80092Y266101D01*
X80153Y266008D01*
X80210Y265914D01*
X80263Y265817D01*
X80314Y265718D01*
X80361Y265617D01*
X80404Y265515D01*
X80444Y265412D01*
X80480Y265307D01*
X80512Y265201D01*
X80541Y265094D01*
X80566Y264986D01*
X80587Y264877D01*
X80604Y264768D01*
X80618Y264658D01*
X80627Y264547D01*
X80633Y264437D01*
X80635Y264326D01*
X80635Y261151D01*
X80635Y264961D02*
X85715Y267501D01*
X83175Y272499D02*
X74285Y275039D01*
X83175Y272499D02*
X83175Y278849D01*
X80635Y276944D02*
X85715Y276944D01*
D22*
X165400Y290950D02*
X165400Y329050D01*
D23*
X166238Y329837D02*
X164409Y328465D01*
X164409Y328466D02*
X163950Y329057D01*
X163477Y329637D01*
X162990Y330205D01*
X162489Y330761D01*
X161975Y331304D01*
X161448Y331835D01*
X160908Y332353D01*
X160355Y332858D01*
X159790Y333348D01*
X159213Y333825D01*
X158625Y334288D01*
X158026Y334736D01*
X157415Y335169D01*
X156795Y335588D01*
X156164Y335990D01*
X155524Y336378D01*
X154875Y336750D01*
X154216Y337105D01*
X153549Y337445D01*
X152874Y337768D01*
X152191Y338074D01*
X151501Y338364D01*
X150805Y338637D01*
X150101Y338892D01*
X149392Y339130D01*
X148677Y339351D01*
X147957Y339555D01*
X147232Y339740D01*
X146503Y339908D01*
X145769Y340058D01*
X145033Y340190D01*
X144293Y340304D01*
X143551Y340400D01*
X142807Y340478D01*
X142061Y340538D01*
X141314Y340579D01*
X140566Y340602D01*
X139817Y340606D01*
X139069Y340593D01*
X138321Y340561D01*
X137575Y340511D01*
X136830Y340442D01*
X136086Y340356D01*
X135345Y340251D01*
X134607Y340128D01*
X133872Y339987D01*
X133141Y339829D01*
X132414Y339652D01*
X131691Y339458D01*
X130973Y339246D01*
X130261Y339016D01*
X129555Y338769D01*
X128854Y338505D01*
X128161Y338224D01*
X127474Y337927D01*
X126795Y337612D01*
X126124Y337281D01*
X125461Y336934D01*
X124807Y336570D01*
X124162Y336191D01*
X123527Y335796D01*
X122901Y335385D01*
X122285Y334960D01*
X121680Y334519D01*
X121086Y334064D01*
X120504Y333594D01*
X119933Y333110D01*
X119374Y332613D01*
X118827Y332102D01*
X118293Y331578D01*
X117772Y331041D01*
X117264Y330491D01*
X116770Y329929D01*
X116290Y329355D01*
X115824Y328770D01*
X115372Y328173D01*
X114935Y327565D01*
X114513Y326947D01*
X114106Y326319D01*
X113715Y325681D01*
X113340Y325034D01*
X112980Y324378D01*
X112637Y323713D01*
X112310Y323040D01*
X111999Y322359D01*
X111705Y321671D01*
X111429Y320975D01*
X111169Y320274D01*
X110926Y319566D01*
X110701Y318852D01*
X110493Y318133D01*
X110303Y317409D01*
X110131Y316681D01*
X109977Y315949D01*
X109840Y315213D01*
X109722Y314474D01*
X109621Y313732D01*
X109539Y312989D01*
X109475Y312243D01*
X109430Y311496D01*
X109402Y310748D01*
X109393Y310000D01*
X109402Y309252D01*
X109430Y308504D01*
X109475Y307757D01*
X109539Y307011D01*
X109621Y306268D01*
X109722Y305526D01*
X109840Y304787D01*
X109977Y304051D01*
X110131Y303319D01*
X110303Y302591D01*
X110493Y301867D01*
X110701Y301148D01*
X110926Y300434D01*
X111169Y299726D01*
X111429Y299025D01*
X111705Y298329D01*
X111999Y297641D01*
X112310Y296960D01*
X112637Y296287D01*
X112980Y295622D01*
X113340Y294966D01*
X113715Y294319D01*
X114106Y293681D01*
X114513Y293053D01*
X114935Y292435D01*
X115372Y291827D01*
X115824Y291230D01*
X116290Y290645D01*
X116770Y290071D01*
X117264Y289509D01*
X117772Y288959D01*
X118293Y288422D01*
X118827Y287898D01*
X119374Y287387D01*
X119933Y286890D01*
X120504Y286406D01*
X121086Y285936D01*
X121680Y285481D01*
X122285Y285040D01*
X122901Y284615D01*
X123527Y284204D01*
X124162Y283809D01*
X124807Y283430D01*
X125461Y283066D01*
X126124Y282719D01*
X126795Y282388D01*
X127474Y282073D01*
X128161Y281776D01*
X128854Y281495D01*
X129555Y281231D01*
X130261Y280984D01*
X130973Y280754D01*
X131691Y280542D01*
X132414Y280348D01*
X133141Y280171D01*
X133872Y280013D01*
X134607Y279872D01*
X135345Y279749D01*
X136086Y279644D01*
X136830Y279558D01*
X137575Y279489D01*
X138321Y279439D01*
X139069Y279407D01*
X139817Y279394D01*
X140566Y279398D01*
X141314Y279421D01*
X142061Y279462D01*
X142807Y279522D01*
X143551Y279600D01*
X144293Y279696D01*
X145033Y279810D01*
X145769Y279942D01*
X146503Y280092D01*
X147232Y280260D01*
X147957Y280445D01*
X148677Y280649D01*
X149392Y280870D01*
X150101Y281108D01*
X150805Y281363D01*
X151501Y281636D01*
X152191Y281926D01*
X152874Y282232D01*
X153549Y282555D01*
X154216Y282895D01*
X154875Y283250D01*
X155524Y283622D01*
X156164Y284010D01*
X156795Y284412D01*
X157415Y284831D01*
X158026Y285264D01*
X158625Y285712D01*
X159213Y286175D01*
X159790Y286652D01*
X160355Y287142D01*
X160908Y287647D01*
X161448Y288165D01*
X161975Y288696D01*
X162489Y289239D01*
X162990Y289795D01*
X163477Y290363D01*
X163950Y290943D01*
X164409Y291534D01*
X166238Y290163D01*
X165745Y289527D01*
X165237Y288904D01*
X164713Y288293D01*
X164175Y287695D01*
X163623Y287111D01*
X163056Y286540D01*
X162476Y285983D01*
X161882Y285441D01*
X161275Y284913D01*
X160655Y284401D01*
X160023Y283903D01*
X159379Y283421D01*
X158723Y282956D01*
X158056Y282506D01*
X157378Y282073D01*
X156690Y281656D01*
X155992Y281256D01*
X155285Y280874D01*
X154568Y280509D01*
X153843Y280162D01*
X153109Y279832D01*
X152367Y279521D01*
X151618Y279227D01*
X150863Y278952D01*
X150100Y278696D01*
X149332Y278458D01*
X148558Y278240D01*
X147779Y278040D01*
X146995Y277859D01*
X146207Y277698D01*
X145415Y277556D01*
X144620Y277433D01*
X143823Y277330D01*
X143023Y277246D01*
X142221Y277182D01*
X141418Y277138D01*
X140614Y277113D01*
X139810Y277108D01*
X139005Y277122D01*
X138202Y277156D01*
X137399Y277210D01*
X136598Y277283D01*
X135799Y277376D01*
X135003Y277489D01*
X134210Y277621D01*
X133420Y277772D01*
X132634Y277942D01*
X131852Y278132D01*
X131075Y278341D01*
X130304Y278569D01*
X129538Y278815D01*
X128779Y279080D01*
X128026Y279364D01*
X127281Y279666D01*
X126543Y279986D01*
X125813Y280324D01*
X125091Y280680D01*
X124379Y281053D01*
X123676Y281444D01*
X122983Y281851D01*
X122299Y282276D01*
X121627Y282717D01*
X120965Y283174D01*
X120315Y283648D01*
X119677Y284137D01*
X119050Y284641D01*
X118436Y285161D01*
X117836Y285696D01*
X117248Y286245D01*
X116674Y286809D01*
X116114Y287386D01*
X115568Y287977D01*
X115037Y288581D01*
X114521Y289197D01*
X114020Y289827D01*
X113534Y290468D01*
X113064Y291121D01*
X112611Y291785D01*
X112174Y292460D01*
X111753Y293146D01*
X111349Y293841D01*
X110963Y294547D01*
X110594Y295261D01*
X110242Y295985D01*
X109908Y296717D01*
X109593Y297456D01*
X109295Y298204D01*
X109016Y298958D01*
X108755Y299719D01*
X108513Y300486D01*
X108290Y301259D01*
X108086Y302037D01*
X107900Y302819D01*
X107734Y303606D01*
X107588Y304397D01*
X107460Y305191D01*
X107353Y305988D01*
X107264Y306788D01*
X107195Y307589D01*
X107146Y308392D01*
X107117Y309196D01*
X107107Y310000D01*
X107117Y310804D01*
X107146Y311608D01*
X107195Y312411D01*
X107264Y313212D01*
X107353Y314012D01*
X107460Y314809D01*
X107588Y315603D01*
X107734Y316394D01*
X107900Y317181D01*
X108086Y317963D01*
X108290Y318741D01*
X108513Y319514D01*
X108755Y320281D01*
X109016Y321042D01*
X109295Y321796D01*
X109593Y322544D01*
X109908Y323283D01*
X110242Y324015D01*
X110594Y324739D01*
X110963Y325453D01*
X111349Y326159D01*
X111753Y326854D01*
X112174Y327540D01*
X112611Y328215D01*
X113064Y328879D01*
X113534Y329532D01*
X114020Y330173D01*
X114521Y330803D01*
X115037Y331419D01*
X115568Y332023D01*
X116114Y332614D01*
X116674Y333191D01*
X117248Y333755D01*
X117836Y334304D01*
X118436Y334839D01*
X119050Y335359D01*
X119677Y335863D01*
X120315Y336352D01*
X120965Y336826D01*
X121627Y337283D01*
X122299Y337724D01*
X122983Y338149D01*
X123676Y338556D01*
X124379Y338947D01*
X125091Y339320D01*
X125813Y339676D01*
X126543Y340014D01*
X127281Y340334D01*
X128026Y340636D01*
X128779Y340920D01*
X129538Y341185D01*
X130304Y341431D01*
X131075Y341659D01*
X131852Y341868D01*
X132634Y342058D01*
X133420Y342228D01*
X134210Y342379D01*
X135003Y342511D01*
X135799Y342624D01*
X136598Y342717D01*
X137399Y342790D01*
X138202Y342844D01*
X139005Y342878D01*
X139810Y342892D01*
X140614Y342887D01*
X141418Y342862D01*
X142221Y342818D01*
X143023Y342754D01*
X143823Y342670D01*
X144620Y342567D01*
X145415Y342444D01*
X146207Y342302D01*
X146995Y342141D01*
X147779Y341960D01*
X148558Y341760D01*
X149332Y341542D01*
X150100Y341304D01*
X150863Y341048D01*
X151618Y340773D01*
X152367Y340479D01*
X153109Y340168D01*
X153843Y339838D01*
X154568Y339491D01*
X155285Y339126D01*
X155992Y338744D01*
X156690Y338344D01*
X157378Y337927D01*
X158056Y337494D01*
X158723Y337044D01*
X159379Y336579D01*
X160023Y336097D01*
X160655Y335599D01*
X161275Y335087D01*
X161882Y334559D01*
X162476Y334017D01*
X163056Y333460D01*
X163623Y332889D01*
X164175Y332305D01*
X164713Y331707D01*
X165237Y331096D01*
X165745Y330473D01*
X166238Y329837D01*
X166046Y329693D01*
X165557Y330324D01*
X165052Y330943D01*
X164533Y331549D01*
X163998Y332143D01*
X163450Y332723D01*
X162887Y333289D01*
X162311Y333842D01*
X161721Y334380D01*
X161119Y334904D01*
X160503Y335413D01*
X159876Y335907D01*
X159237Y336385D01*
X158586Y336848D01*
X157924Y337294D01*
X157251Y337724D01*
X156568Y338138D01*
X155875Y338534D01*
X155173Y338914D01*
X154461Y339276D01*
X153741Y339621D01*
X153013Y339948D01*
X152276Y340257D01*
X151533Y340548D01*
X150783Y340821D01*
X150026Y341076D01*
X149263Y341312D01*
X148495Y341529D01*
X147721Y341727D01*
X146943Y341906D01*
X146161Y342067D01*
X145375Y342208D01*
X144586Y342329D01*
X143794Y342432D01*
X143000Y342515D01*
X142204Y342579D01*
X141407Y342623D01*
X140609Y342647D01*
X139810Y342652D01*
X139012Y342638D01*
X138214Y342604D01*
X137418Y342551D01*
X136623Y342478D01*
X135830Y342386D01*
X135039Y342274D01*
X134251Y342143D01*
X133467Y341993D01*
X132687Y341824D01*
X131911Y341635D01*
X131140Y341428D01*
X130374Y341202D01*
X129614Y340957D01*
X128860Y340694D01*
X128113Y340412D01*
X127373Y340113D01*
X126640Y339795D01*
X125916Y339459D01*
X125200Y339106D01*
X124493Y338736D01*
X123795Y338348D01*
X123106Y337943D01*
X122428Y337522D01*
X121761Y337084D01*
X121104Y336630D01*
X120458Y336160D01*
X119825Y335674D01*
X119203Y335173D01*
X118594Y334657D01*
X117997Y334127D01*
X117414Y333581D01*
X116844Y333022D01*
X116288Y332449D01*
X115746Y331862D01*
X115219Y331263D01*
X114706Y330651D01*
X114209Y330026D01*
X113727Y329389D01*
X113261Y328741D01*
X112811Y328082D01*
X112377Y327412D01*
X111959Y326731D01*
X111558Y326040D01*
X111175Y325340D01*
X110808Y324631D01*
X110459Y323913D01*
X110128Y323186D01*
X109814Y322452D01*
X109519Y321710D01*
X109242Y320961D01*
X108983Y320206D01*
X108743Y319445D01*
X108521Y318678D01*
X108318Y317905D01*
X108135Y317128D01*
X107970Y316347D01*
X107824Y315562D01*
X107698Y314774D01*
X107591Y313982D01*
X107503Y313189D01*
X107435Y312393D01*
X107386Y311596D01*
X107357Y310798D01*
X107347Y310000D01*
X107357Y309202D01*
X107386Y308404D01*
X107435Y307607D01*
X107503Y306811D01*
X107591Y306018D01*
X107698Y305226D01*
X107824Y304438D01*
X107970Y303653D01*
X108135Y302872D01*
X108318Y302095D01*
X108521Y301322D01*
X108743Y300555D01*
X108983Y299794D01*
X109242Y299039D01*
X109519Y298290D01*
X109814Y297548D01*
X110128Y296814D01*
X110459Y296087D01*
X110808Y295369D01*
X111175Y294660D01*
X111558Y293960D01*
X111959Y293269D01*
X112377Y292588D01*
X112811Y291918D01*
X113261Y291259D01*
X113727Y290611D01*
X114209Y289974D01*
X114706Y289349D01*
X115219Y288737D01*
X115746Y288138D01*
X116288Y287551D01*
X116844Y286978D01*
X117414Y286419D01*
X117997Y285873D01*
X118594Y285343D01*
X119203Y284827D01*
X119825Y284326D01*
X120458Y283840D01*
X121104Y283370D01*
X121761Y282916D01*
X122428Y282478D01*
X123106Y282057D01*
X123795Y281652D01*
X124493Y281264D01*
X125200Y280894D01*
X125916Y280541D01*
X126640Y280205D01*
X127373Y279887D01*
X128113Y279588D01*
X128860Y279306D01*
X129614Y279043D01*
X130374Y278798D01*
X131140Y278572D01*
X131911Y278365D01*
X132687Y278176D01*
X133467Y278007D01*
X134251Y277857D01*
X135039Y277726D01*
X135830Y277614D01*
X136623Y277522D01*
X137418Y277449D01*
X138214Y277396D01*
X139012Y277362D01*
X139810Y277348D01*
X140609Y277353D01*
X141407Y277377D01*
X142204Y277421D01*
X143000Y277485D01*
X143794Y277568D01*
X144586Y277671D01*
X145375Y277792D01*
X146161Y277933D01*
X146943Y278094D01*
X147721Y278273D01*
X148495Y278471D01*
X149263Y278688D01*
X150026Y278924D01*
X150783Y279179D01*
X151533Y279452D01*
X152276Y279743D01*
X153013Y280052D01*
X153741Y280379D01*
X154461Y280724D01*
X155173Y281086D01*
X155875Y281466D01*
X156568Y281862D01*
X157251Y282276D01*
X157924Y282706D01*
X158586Y283152D01*
X159237Y283615D01*
X159876Y284093D01*
X160503Y284587D01*
X161119Y285096D01*
X161721Y285620D01*
X162311Y286158D01*
X162887Y286711D01*
X163450Y287277D01*
X163998Y287857D01*
X164533Y288451D01*
X165052Y289057D01*
X165557Y289676D01*
X166046Y290307D01*
X165854Y290451D01*
X165368Y289824D01*
X164867Y289210D01*
X164352Y288608D01*
X163821Y288019D01*
X163277Y287444D01*
X162718Y286881D01*
X162146Y286333D01*
X161561Y285798D01*
X160963Y285278D01*
X160352Y284773D01*
X159729Y284283D01*
X159095Y283808D01*
X158448Y283349D01*
X157791Y282906D01*
X157124Y282479D01*
X156445Y282069D01*
X155758Y281675D01*
X155060Y281298D01*
X154354Y280939D01*
X153639Y280596D01*
X152916Y280272D01*
X152186Y279965D01*
X151448Y279676D01*
X150703Y279405D01*
X149951Y279152D01*
X149194Y278918D01*
X148432Y278703D01*
X147664Y278506D01*
X146891Y278328D01*
X146115Y278169D01*
X145335Y278029D01*
X144552Y277908D01*
X143766Y277806D01*
X142977Y277724D01*
X142187Y277661D01*
X141396Y277617D01*
X140604Y277593D01*
X139811Y277588D01*
X139019Y277602D01*
X138227Y277636D01*
X137436Y277689D01*
X136647Y277761D01*
X135860Y277853D01*
X135075Y277963D01*
X134293Y278093D01*
X133515Y278242D01*
X132740Y278411D01*
X131970Y278597D01*
X131204Y278803D01*
X130444Y279028D01*
X129690Y279270D01*
X128942Y279532D01*
X128200Y279811D01*
X127465Y280109D01*
X126738Y280424D01*
X126019Y280757D01*
X125308Y281108D01*
X124606Y281476D01*
X123913Y281861D01*
X123230Y282262D01*
X122557Y282681D01*
X121894Y283115D01*
X121242Y283566D01*
X120602Y284033D01*
X119973Y284515D01*
X119355Y285012D01*
X118751Y285524D01*
X118159Y286051D01*
X117580Y286592D01*
X117014Y287147D01*
X116462Y287716D01*
X115924Y288298D01*
X115401Y288894D01*
X114892Y289501D01*
X114398Y290121D01*
X113920Y290753D01*
X113457Y291397D01*
X113010Y292051D01*
X112580Y292716D01*
X112165Y293392D01*
X111767Y294078D01*
X111387Y294773D01*
X111023Y295477D01*
X110676Y296190D01*
X110347Y296911D01*
X110036Y297640D01*
X109743Y298376D01*
X109468Y299119D01*
X109211Y299869D01*
X108972Y300625D01*
X108752Y301386D01*
X108551Y302153D01*
X108369Y302924D01*
X108205Y303700D01*
X108061Y304479D01*
X107935Y305262D01*
X107829Y306047D01*
X107742Y306835D01*
X107674Y307624D01*
X107626Y308415D01*
X107597Y309207D01*
X107587Y310000D01*
X107597Y310793D01*
X107626Y311585D01*
X107674Y312376D01*
X107742Y313165D01*
X107829Y313953D01*
X107935Y314738D01*
X108061Y315521D01*
X108205Y316300D01*
X108369Y317076D01*
X108551Y317847D01*
X108752Y318614D01*
X108972Y319375D01*
X109211Y320131D01*
X109468Y320881D01*
X109743Y321624D01*
X110036Y322360D01*
X110347Y323089D01*
X110676Y323810D01*
X111023Y324523D01*
X111387Y325227D01*
X111767Y325922D01*
X112165Y326608D01*
X112580Y327284D01*
X113010Y327949D01*
X113457Y328603D01*
X113920Y329247D01*
X114398Y329879D01*
X114892Y330499D01*
X115401Y331106D01*
X115924Y331702D01*
X116462Y332284D01*
X117014Y332853D01*
X117580Y333408D01*
X118159Y333949D01*
X118751Y334476D01*
X119355Y334988D01*
X119973Y335485D01*
X120602Y335967D01*
X121242Y336434D01*
X121894Y336885D01*
X122557Y337319D01*
X123230Y337738D01*
X123913Y338139D01*
X124606Y338524D01*
X125308Y338892D01*
X126019Y339243D01*
X126738Y339576D01*
X127465Y339891D01*
X128200Y340189D01*
X128942Y340468D01*
X129690Y340730D01*
X130444Y340972D01*
X131204Y341197D01*
X131970Y341403D01*
X132740Y341589D01*
X133515Y341758D01*
X134293Y341907D01*
X135075Y342037D01*
X135860Y342147D01*
X136647Y342239D01*
X137436Y342311D01*
X138227Y342364D01*
X139019Y342398D01*
X139811Y342412D01*
X140604Y342407D01*
X141396Y342383D01*
X142187Y342339D01*
X142977Y342276D01*
X143766Y342194D01*
X144552Y342092D01*
X145335Y341971D01*
X146115Y341831D01*
X146891Y341672D01*
X147664Y341494D01*
X148432Y341297D01*
X149194Y341082D01*
X149951Y340848D01*
X150703Y340595D01*
X151448Y340324D01*
X152186Y340035D01*
X152916Y339728D01*
X153639Y339404D01*
X154354Y339061D01*
X155060Y338702D01*
X155758Y338325D01*
X156445Y337931D01*
X157124Y337521D01*
X157791Y337094D01*
X158448Y336651D01*
X159095Y336192D01*
X159729Y335717D01*
X160352Y335227D01*
X160963Y334722D01*
X161561Y334202D01*
X162146Y333667D01*
X162718Y333119D01*
X163277Y332556D01*
X163821Y331981D01*
X164352Y331392D01*
X164867Y330790D01*
X165368Y330176D01*
X165854Y329549D01*
X165662Y329405D01*
X165180Y330027D01*
X164683Y330637D01*
X164171Y331234D01*
X163644Y331818D01*
X163104Y332390D01*
X162549Y332948D01*
X161982Y333493D01*
X161401Y334023D01*
X160807Y334539D01*
X160201Y335041D01*
X159582Y335527D01*
X158952Y335998D01*
X158311Y336454D01*
X157659Y336894D01*
X156996Y337317D01*
X156323Y337725D01*
X155640Y338116D01*
X154948Y338490D01*
X154247Y338846D01*
X153538Y339186D01*
X152820Y339508D01*
X152095Y339813D01*
X151362Y340100D01*
X150623Y340369D01*
X149877Y340619D01*
X149125Y340852D01*
X148368Y341066D01*
X147606Y341261D01*
X146840Y341438D01*
X146069Y341595D01*
X145295Y341734D01*
X144517Y341854D01*
X143737Y341955D01*
X142955Y342037D01*
X142170Y342100D01*
X141385Y342143D01*
X140599Y342167D01*
X139812Y342172D01*
X139025Y342158D01*
X138239Y342125D01*
X137455Y342072D01*
X136671Y342000D01*
X135890Y341909D01*
X135111Y341799D01*
X134335Y341670D01*
X133562Y341522D01*
X132793Y341355D01*
X132029Y341170D01*
X131269Y340966D01*
X130515Y340743D01*
X129766Y340502D01*
X129023Y340243D01*
X128287Y339965D01*
X127558Y339670D01*
X126836Y339357D01*
X126122Y339026D01*
X125417Y338678D01*
X124720Y338313D01*
X124032Y337931D01*
X123354Y337532D01*
X122686Y337117D01*
X122028Y336685D01*
X121381Y336238D01*
X120745Y335775D01*
X120121Y335296D01*
X119508Y334803D01*
X118908Y334294D01*
X118320Y333771D01*
X117745Y333234D01*
X117184Y332683D01*
X116636Y332119D01*
X116102Y331541D01*
X115583Y330950D01*
X115078Y330347D01*
X114588Y329731D01*
X114113Y329104D01*
X113654Y328465D01*
X113210Y327816D01*
X112782Y327155D01*
X112371Y326485D01*
X111976Y325804D01*
X111598Y325114D01*
X111237Y324415D01*
X110893Y323708D01*
X110567Y322992D01*
X110258Y322269D01*
X109967Y321538D01*
X109694Y320800D01*
X109439Y320056D01*
X109202Y319306D01*
X108984Y318550D01*
X108784Y317789D01*
X108603Y317023D01*
X108441Y316254D01*
X108297Y315480D01*
X108173Y314703D01*
X108067Y313924D01*
X107981Y313142D01*
X107914Y312358D01*
X107865Y311573D01*
X107837Y310787D01*
X107827Y310000D01*
X107837Y309213D01*
X107865Y308427D01*
X107914Y307642D01*
X107981Y306858D01*
X108067Y306076D01*
X108173Y305297D01*
X108297Y304520D01*
X108441Y303746D01*
X108603Y302977D01*
X108784Y302211D01*
X108984Y301450D01*
X109202Y300694D01*
X109439Y299944D01*
X109694Y299200D01*
X109967Y298462D01*
X110258Y297731D01*
X110567Y297008D01*
X110893Y296292D01*
X111237Y295585D01*
X111598Y294886D01*
X111976Y294196D01*
X112371Y293515D01*
X112782Y292845D01*
X113210Y292184D01*
X113654Y291535D01*
X114113Y290896D01*
X114588Y290269D01*
X115078Y289653D01*
X115583Y289050D01*
X116102Y288459D01*
X116636Y287881D01*
X117184Y287317D01*
X117745Y286766D01*
X118320Y286229D01*
X118908Y285706D01*
X119508Y285197D01*
X120121Y284704D01*
X120745Y284225D01*
X121381Y283762D01*
X122028Y283315D01*
X122686Y282883D01*
X123354Y282468D01*
X124032Y282069D01*
X124720Y281687D01*
X125417Y281322D01*
X126122Y280974D01*
X126836Y280643D01*
X127558Y280330D01*
X128287Y280035D01*
X129023Y279757D01*
X129766Y279498D01*
X130515Y279257D01*
X131269Y279034D01*
X132029Y278830D01*
X132793Y278645D01*
X133562Y278478D01*
X134335Y278330D01*
X135111Y278201D01*
X135890Y278091D01*
X136671Y278000D01*
X137455Y277928D01*
X138239Y277875D01*
X139025Y277842D01*
X139812Y277828D01*
X140599Y277833D01*
X141385Y277857D01*
X142170Y277900D01*
X142955Y277963D01*
X143737Y278045D01*
X144517Y278146D01*
X145295Y278266D01*
X146069Y278405D01*
X146840Y278562D01*
X147606Y278739D01*
X148368Y278934D01*
X149125Y279148D01*
X149877Y279381D01*
X150623Y279631D01*
X151362Y279900D01*
X152095Y280187D01*
X152820Y280492D01*
X153538Y280814D01*
X154247Y281154D01*
X154948Y281510D01*
X155640Y281884D01*
X156323Y282275D01*
X156996Y282683D01*
X157659Y283106D01*
X158311Y283546D01*
X158952Y284002D01*
X159582Y284473D01*
X160201Y284959D01*
X160807Y285461D01*
X161401Y285977D01*
X161982Y286507D01*
X162549Y287052D01*
X163104Y287610D01*
X163644Y288182D01*
X164171Y288766D01*
X164683Y289363D01*
X165180Y289973D01*
X165662Y290595D01*
X165470Y290739D01*
X164991Y290122D01*
X164498Y289517D01*
X163990Y288924D01*
X163467Y288344D01*
X162931Y287776D01*
X162381Y287222D01*
X161817Y286682D01*
X161240Y286155D01*
X160651Y285643D01*
X160049Y285146D01*
X159436Y284663D01*
X158810Y284195D01*
X158174Y283743D01*
X157526Y283307D01*
X156869Y282886D01*
X156201Y282482D01*
X155523Y282094D01*
X154836Y281723D01*
X154140Y281368D01*
X153436Y281031D01*
X152724Y280711D01*
X152004Y280409D01*
X151277Y280124D01*
X150543Y279858D01*
X149803Y279609D01*
X149057Y279378D01*
X148305Y279166D01*
X147549Y278972D01*
X146788Y278797D01*
X146023Y278640D01*
X145255Y278502D01*
X144483Y278383D01*
X143709Y278283D01*
X142932Y278202D01*
X142154Y278140D01*
X141374Y278097D01*
X140594Y278073D01*
X139813Y278068D01*
X139032Y278082D01*
X138252Y278115D01*
X137473Y278167D01*
X136695Y278238D01*
X135920Y278329D01*
X135147Y278438D01*
X134376Y278566D01*
X133610Y278713D01*
X132847Y278879D01*
X132088Y279063D01*
X131334Y279265D01*
X130585Y279487D01*
X129842Y279726D01*
X129105Y279983D01*
X128374Y280259D01*
X127650Y280552D01*
X126934Y280863D01*
X126225Y281191D01*
X125525Y281536D01*
X124834Y281899D01*
X124151Y282278D01*
X123478Y282674D01*
X122815Y283086D01*
X122162Y283514D01*
X121520Y283958D01*
X120888Y284418D01*
X120269Y284892D01*
X119661Y285382D01*
X119065Y285887D01*
X118482Y286406D01*
X117911Y286939D01*
X117354Y287486D01*
X116810Y288047D01*
X116280Y288620D01*
X115765Y289207D01*
X115264Y289805D01*
X114777Y290416D01*
X114306Y291039D01*
X113850Y291673D01*
X113410Y292317D01*
X112985Y292973D01*
X112577Y293638D01*
X112185Y294314D01*
X111810Y294999D01*
X111452Y295692D01*
X111110Y296394D01*
X110786Y297105D01*
X110480Y297823D01*
X110191Y298548D01*
X109920Y299281D01*
X109667Y300019D01*
X109432Y300764D01*
X109215Y301514D01*
X109017Y302269D01*
X108837Y303029D01*
X108676Y303793D01*
X108534Y304561D01*
X108410Y305332D01*
X108305Y306106D01*
X108220Y306882D01*
X108153Y307660D01*
X108105Y308439D01*
X108077Y309219D01*
X108067Y310000D01*
X108077Y310781D01*
X108105Y311561D01*
X108153Y312340D01*
X108220Y313118D01*
X108305Y313894D01*
X108410Y314668D01*
X108534Y315439D01*
X108676Y316207D01*
X108837Y316971D01*
X109017Y317731D01*
X109215Y318486D01*
X109432Y319236D01*
X109667Y319981D01*
X109920Y320719D01*
X110191Y321452D01*
X110480Y322177D01*
X110786Y322895D01*
X111110Y323606D01*
X111452Y324308D01*
X111810Y325001D01*
X112185Y325686D01*
X112577Y326362D01*
X112985Y327027D01*
X113410Y327683D01*
X113850Y328327D01*
X114306Y328961D01*
X114777Y329584D01*
X115264Y330195D01*
X115765Y330793D01*
X116280Y331380D01*
X116810Y331953D01*
X117354Y332514D01*
X117911Y333061D01*
X118482Y333594D01*
X119065Y334113D01*
X119661Y334618D01*
X120269Y335108D01*
X120888Y335582D01*
X121520Y336042D01*
X122162Y336486D01*
X122815Y336914D01*
X123478Y337326D01*
X124151Y337722D01*
X124834Y338101D01*
X125525Y338464D01*
X126225Y338809D01*
X126934Y339137D01*
X127650Y339448D01*
X128374Y339741D01*
X129105Y340017D01*
X129842Y340274D01*
X130585Y340513D01*
X131334Y340735D01*
X132088Y340937D01*
X132847Y341121D01*
X133610Y341287D01*
X134376Y341434D01*
X135147Y341562D01*
X135920Y341671D01*
X136695Y341762D01*
X137473Y341833D01*
X138252Y341885D01*
X139032Y341918D01*
X139813Y341932D01*
X140594Y341927D01*
X141374Y341903D01*
X142154Y341860D01*
X142932Y341798D01*
X143709Y341717D01*
X144483Y341617D01*
X145255Y341498D01*
X146023Y341360D01*
X146788Y341203D01*
X147549Y341028D01*
X148305Y340834D01*
X149057Y340622D01*
X149803Y340391D01*
X150543Y340142D01*
X151277Y339876D01*
X152004Y339591D01*
X152724Y339289D01*
X153436Y338969D01*
X154140Y338632D01*
X154836Y338277D01*
X155523Y337906D01*
X156201Y337518D01*
X156869Y337114D01*
X157526Y336693D01*
X158174Y336257D01*
X158810Y335805D01*
X159436Y335337D01*
X160049Y334854D01*
X160651Y334357D01*
X161240Y333845D01*
X161817Y333318D01*
X162381Y332778D01*
X162931Y332224D01*
X163467Y331656D01*
X163990Y331076D01*
X164498Y330483D01*
X164991Y329878D01*
X165470Y329261D01*
X165278Y329117D01*
X164803Y329730D01*
X164313Y330330D01*
X163809Y330918D01*
X163290Y331494D01*
X162758Y332057D01*
X162212Y332607D01*
X161652Y333143D01*
X161080Y333666D01*
X160495Y334174D01*
X159898Y334668D01*
X159289Y335147D01*
X158668Y335611D01*
X158037Y336060D01*
X157394Y336493D01*
X156741Y336911D01*
X156078Y337312D01*
X155406Y337697D01*
X154724Y338065D01*
X154033Y338417D01*
X153334Y338751D01*
X152627Y339069D01*
X151913Y339369D01*
X151191Y339651D01*
X150463Y339916D01*
X149728Y340163D01*
X148988Y340392D01*
X148242Y340602D01*
X147492Y340795D01*
X146736Y340969D01*
X145977Y341124D01*
X145214Y341261D01*
X144449Y341379D01*
X143680Y341479D01*
X142909Y341559D01*
X142137Y341621D01*
X141363Y341664D01*
X140589Y341688D01*
X139814Y341692D01*
X139039Y341678D01*
X138265Y341645D01*
X137491Y341594D01*
X136720Y341523D01*
X135950Y341433D01*
X135183Y341325D01*
X134418Y341198D01*
X133657Y341052D01*
X132900Y340887D01*
X132147Y340705D01*
X131398Y340503D01*
X130655Y340284D01*
X129918Y340046D01*
X129186Y339791D01*
X128461Y339518D01*
X127743Y339227D01*
X127032Y338918D01*
X126329Y338593D01*
X125634Y338250D01*
X124947Y337890D01*
X124270Y337514D01*
X123602Y337121D01*
X122944Y336712D01*
X122296Y336287D01*
X121658Y335846D01*
X121032Y335390D01*
X120417Y334919D01*
X119813Y334432D01*
X119222Y333932D01*
X118643Y333416D01*
X118077Y332887D01*
X117524Y332344D01*
X116984Y331788D01*
X116458Y331219D01*
X115947Y330637D01*
X115449Y330043D01*
X114967Y329436D01*
X114499Y328819D01*
X114046Y328190D01*
X113609Y327550D01*
X113188Y326899D01*
X112783Y326238D01*
X112394Y325568D01*
X112022Y324889D01*
X111666Y324200D01*
X111327Y323503D01*
X111006Y322798D01*
X110702Y322085D01*
X110415Y321365D01*
X110146Y320639D01*
X109895Y319906D01*
X109662Y319167D01*
X109447Y318422D01*
X109250Y317673D01*
X109071Y316918D01*
X108911Y316160D01*
X108770Y315398D01*
X108647Y314633D01*
X108544Y313865D01*
X108458Y313095D01*
X108392Y312323D01*
X108345Y311549D01*
X108316Y310775D01*
X108307Y310000D01*
X108316Y309225D01*
X108345Y308451D01*
X108392Y307677D01*
X108458Y306905D01*
X108544Y306135D01*
X108647Y305367D01*
X108770Y304602D01*
X108911Y303840D01*
X109071Y303082D01*
X109250Y302327D01*
X109447Y301578D01*
X109662Y300833D01*
X109895Y300094D01*
X110146Y299361D01*
X110415Y298635D01*
X110702Y297915D01*
X111006Y297202D01*
X111327Y296497D01*
X111666Y295800D01*
X112022Y295111D01*
X112394Y294432D01*
X112783Y293762D01*
X113188Y293101D01*
X113609Y292450D01*
X114046Y291810D01*
X114499Y291181D01*
X114967Y290564D01*
X115449Y289957D01*
X115947Y289363D01*
X116458Y288781D01*
X116984Y288212D01*
X117524Y287656D01*
X118077Y287113D01*
X118643Y286584D01*
X119222Y286068D01*
X119813Y285568D01*
X120417Y285081D01*
X121032Y284610D01*
X121658Y284154D01*
X122296Y283713D01*
X122944Y283288D01*
X123602Y282879D01*
X124270Y282486D01*
X124947Y282110D01*
X125634Y281750D01*
X126329Y281407D01*
X127032Y281082D01*
X127743Y280773D01*
X128461Y280482D01*
X129186Y280209D01*
X129918Y279954D01*
X130655Y279716D01*
X131398Y279497D01*
X132147Y279295D01*
X132900Y279113D01*
X133657Y278948D01*
X134418Y278802D01*
X135183Y278675D01*
X135950Y278567D01*
X136720Y278477D01*
X137491Y278406D01*
X138265Y278355D01*
X139039Y278322D01*
X139814Y278308D01*
X140589Y278312D01*
X141363Y278336D01*
X142137Y278379D01*
X142909Y278441D01*
X143680Y278521D01*
X144449Y278621D01*
X145214Y278739D01*
X145977Y278876D01*
X146736Y279031D01*
X147492Y279205D01*
X148242Y279398D01*
X148988Y279608D01*
X149728Y279837D01*
X150463Y280084D01*
X151191Y280349D01*
X151913Y280631D01*
X152627Y280931D01*
X153334Y281249D01*
X154033Y281583D01*
X154724Y281935D01*
X155406Y282303D01*
X156078Y282688D01*
X156741Y283089D01*
X157394Y283507D01*
X158037Y283940D01*
X158668Y284389D01*
X159289Y284853D01*
X159898Y285332D01*
X160495Y285826D01*
X161080Y286334D01*
X161652Y286857D01*
X162212Y287393D01*
X162758Y287943D01*
X163290Y288506D01*
X163809Y289082D01*
X164313Y289670D01*
X164803Y290270D01*
X165278Y290883D01*
X165086Y291027D01*
X164615Y290419D01*
X164129Y289823D01*
X163628Y289239D01*
X163113Y288668D01*
X162585Y288109D01*
X162043Y287563D01*
X161488Y287031D01*
X160920Y286513D01*
X160339Y286008D01*
X159747Y285518D01*
X159142Y285043D01*
X158526Y284582D01*
X157899Y284137D01*
X157262Y283707D01*
X156614Y283293D01*
X155956Y282895D01*
X155288Y282513D01*
X154612Y282147D01*
X153926Y281798D01*
X153233Y281466D01*
X152531Y281151D01*
X151822Y280853D01*
X151106Y280573D01*
X150383Y280310D01*
X149654Y280065D01*
X148919Y279838D01*
X148179Y279629D01*
X147434Y279438D01*
X146685Y279266D01*
X145931Y279111D01*
X145174Y278976D01*
X144414Y278858D01*
X143652Y278760D01*
X142887Y278680D01*
X142120Y278619D01*
X141352Y278576D01*
X140583Y278552D01*
X139814Y278548D01*
X139046Y278561D01*
X138277Y278594D01*
X137510Y278646D01*
X136744Y278716D01*
X135980Y278805D01*
X135219Y278913D01*
X134460Y279039D01*
X133705Y279183D01*
X132953Y279347D01*
X132206Y279528D01*
X131463Y279728D01*
X130726Y279945D01*
X129993Y280181D01*
X129267Y280435D01*
X128548Y280706D01*
X127835Y280995D01*
X127129Y281301D01*
X126432Y281624D01*
X125742Y281964D01*
X125061Y282321D01*
X124389Y282695D01*
X123726Y283085D01*
X123072Y283491D01*
X122429Y283912D01*
X121797Y284350D01*
X121175Y284803D01*
X120565Y285270D01*
X119966Y285753D01*
X119379Y286250D01*
X118805Y286761D01*
X118243Y287286D01*
X117694Y287825D01*
X117158Y288377D01*
X116637Y288942D01*
X116129Y289519D01*
X115635Y290109D01*
X115156Y290711D01*
X114692Y291324D01*
X114243Y291948D01*
X113809Y292584D01*
X113391Y293229D01*
X112989Y293885D01*
X112603Y294550D01*
X112234Y295224D01*
X111881Y295908D01*
X111545Y296599D01*
X111225Y297299D01*
X110923Y298006D01*
X110639Y298721D01*
X110372Y299442D01*
X110123Y300170D01*
X109891Y300903D01*
X109678Y301642D01*
X109483Y302386D01*
X109306Y303134D01*
X109147Y303887D01*
X109007Y304643D01*
X108885Y305402D01*
X108782Y306164D01*
X108697Y306929D01*
X108632Y307695D01*
X108585Y308462D01*
X108556Y309231D01*
X108547Y310000D01*
X108556Y310769D01*
X108585Y311538D01*
X108632Y312305D01*
X108697Y313071D01*
X108782Y313836D01*
X108885Y314598D01*
X109007Y315357D01*
X109147Y316113D01*
X109306Y316866D01*
X109483Y317614D01*
X109678Y318358D01*
X109891Y319097D01*
X110123Y319830D01*
X110372Y320558D01*
X110639Y321279D01*
X110923Y321994D01*
X111225Y322701D01*
X111545Y323401D01*
X111881Y324092D01*
X112234Y324776D01*
X112603Y325450D01*
X112989Y326115D01*
X113391Y326771D01*
X113809Y327416D01*
X114243Y328052D01*
X114692Y328676D01*
X115156Y329289D01*
X115635Y329891D01*
X116129Y330481D01*
X116637Y331058D01*
X117158Y331623D01*
X117694Y332175D01*
X118243Y332714D01*
X118805Y333239D01*
X119379Y333750D01*
X119966Y334247D01*
X120565Y334730D01*
X121175Y335197D01*
X121797Y335650D01*
X122429Y336088D01*
X123072Y336509D01*
X123726Y336915D01*
X124389Y337305D01*
X125061Y337679D01*
X125742Y338036D01*
X126432Y338376D01*
X127129Y338699D01*
X127835Y339005D01*
X128548Y339294D01*
X129267Y339565D01*
X129993Y339819D01*
X130726Y340055D01*
X131463Y340272D01*
X132206Y340472D01*
X132953Y340653D01*
X133705Y340817D01*
X134460Y340961D01*
X135219Y341087D01*
X135980Y341195D01*
X136744Y341284D01*
X137510Y341354D01*
X138277Y341406D01*
X139046Y341439D01*
X139814Y341452D01*
X140583Y341448D01*
X141352Y341424D01*
X142120Y341381D01*
X142887Y341320D01*
X143652Y341240D01*
X144414Y341142D01*
X145174Y341024D01*
X145931Y340889D01*
X146685Y340734D01*
X147434Y340562D01*
X148179Y340371D01*
X148919Y340162D01*
X149654Y339935D01*
X150383Y339690D01*
X151106Y339427D01*
X151822Y339147D01*
X152531Y338849D01*
X153233Y338534D01*
X153926Y338202D01*
X154612Y337853D01*
X155288Y337487D01*
X155956Y337105D01*
X156614Y336707D01*
X157262Y336293D01*
X157899Y335863D01*
X158526Y335418D01*
X159142Y334957D01*
X159747Y334482D01*
X160339Y333992D01*
X160920Y333487D01*
X161488Y332969D01*
X162043Y332437D01*
X162585Y331891D01*
X163113Y331332D01*
X163628Y330761D01*
X164129Y330177D01*
X164615Y329581D01*
X165086Y328973D01*
X164894Y328829D01*
X164426Y329432D01*
X163944Y330024D01*
X163447Y330603D01*
X162936Y331170D01*
X162412Y331725D01*
X161874Y332266D01*
X161323Y332794D01*
X160760Y333309D01*
X160183Y333809D01*
X159595Y334296D01*
X158995Y334767D01*
X158384Y335224D01*
X157762Y335666D01*
X157129Y336093D01*
X156486Y336504D01*
X155833Y336899D01*
X155171Y337278D01*
X154499Y337641D01*
X153819Y337987D01*
X153131Y338317D01*
X152435Y338629D01*
X151731Y338925D01*
X151020Y339203D01*
X150303Y339464D01*
X149580Y339707D01*
X148850Y339932D01*
X148116Y340139D01*
X147377Y340329D01*
X146633Y340500D01*
X145885Y340653D01*
X145134Y340788D01*
X144380Y340904D01*
X143623Y341002D01*
X142864Y341081D01*
X142103Y341142D01*
X141341Y341184D01*
X140578Y341208D01*
X139815Y341212D01*
X139052Y341199D01*
X138290Y341166D01*
X137528Y341115D01*
X136768Y341045D01*
X136010Y340957D01*
X135255Y340850D01*
X134502Y340725D01*
X133752Y340581D01*
X133006Y340419D01*
X132265Y340239D01*
X131528Y340041D01*
X130796Y339825D01*
X130069Y339591D01*
X129349Y339339D01*
X128635Y339070D01*
X127927Y338784D01*
X127227Y338480D01*
X126535Y338159D01*
X125850Y337822D01*
X125174Y337467D01*
X124507Y337097D01*
X123849Y336710D01*
X123201Y336307D01*
X122563Y335888D01*
X121935Y335454D01*
X121318Y335005D01*
X120713Y334541D01*
X120118Y334062D01*
X119536Y333569D01*
X118966Y333061D01*
X118408Y332540D01*
X117864Y332006D01*
X117332Y331458D01*
X116815Y330897D01*
X116311Y330324D01*
X115821Y329739D01*
X115345Y329142D01*
X114885Y328533D01*
X114439Y327914D01*
X114009Y327283D01*
X113594Y326643D01*
X113195Y325992D01*
X112812Y325332D01*
X112445Y324663D01*
X112095Y323985D01*
X111762Y323298D01*
X111445Y322604D01*
X111145Y321902D01*
X110863Y321193D01*
X110598Y320477D01*
X110351Y319755D01*
X110121Y319027D01*
X109909Y318294D01*
X109715Y317556D01*
X109540Y316813D01*
X109382Y316067D01*
X109243Y315316D01*
X109122Y314563D01*
X109020Y313806D01*
X108936Y313048D01*
X108871Y312288D01*
X108824Y311526D01*
X108796Y310763D01*
X108787Y310000D01*
X108796Y309237D01*
X108824Y308474D01*
X108871Y307712D01*
X108936Y306952D01*
X109020Y306194D01*
X109122Y305437D01*
X109243Y304684D01*
X109382Y303933D01*
X109540Y303187D01*
X109715Y302444D01*
X109909Y301706D01*
X110121Y300973D01*
X110351Y300245D01*
X110598Y299523D01*
X110863Y298807D01*
X111145Y298098D01*
X111445Y297396D01*
X111762Y296702D01*
X112095Y296015D01*
X112445Y295337D01*
X112812Y294668D01*
X113195Y294008D01*
X113594Y293357D01*
X114009Y292717D01*
X114439Y292086D01*
X114885Y291467D01*
X115345Y290858D01*
X115821Y290261D01*
X116311Y289676D01*
X116815Y289103D01*
X117332Y288542D01*
X117864Y287994D01*
X118408Y287460D01*
X118966Y286939D01*
X119536Y286431D01*
X120118Y285938D01*
X120713Y285459D01*
X121318Y284995D01*
X121935Y284546D01*
X122563Y284112D01*
X123201Y283693D01*
X123849Y283290D01*
X124507Y282903D01*
X125174Y282533D01*
X125850Y282178D01*
X126535Y281841D01*
X127227Y281520D01*
X127927Y281216D01*
X128635Y280930D01*
X129349Y280661D01*
X130069Y280409D01*
X130796Y280175D01*
X131528Y279959D01*
X132265Y279761D01*
X133006Y279581D01*
X133752Y279419D01*
X134502Y279275D01*
X135255Y279150D01*
X136010Y279043D01*
X136768Y278955D01*
X137528Y278885D01*
X138290Y278834D01*
X139052Y278801D01*
X139815Y278788D01*
X140578Y278792D01*
X141341Y278816D01*
X142103Y278858D01*
X142864Y278919D01*
X143623Y278998D01*
X144380Y279096D01*
X145134Y279212D01*
X145885Y279347D01*
X146633Y279500D01*
X147377Y279671D01*
X148116Y279861D01*
X148850Y280068D01*
X149580Y280293D01*
X150303Y280536D01*
X151020Y280797D01*
X151731Y281075D01*
X152435Y281371D01*
X153131Y281683D01*
X153819Y282013D01*
X154499Y282359D01*
X155171Y282722D01*
X155833Y283101D01*
X156486Y283496D01*
X157129Y283907D01*
X157762Y284334D01*
X158384Y284776D01*
X158995Y285233D01*
X159595Y285704D01*
X160183Y286191D01*
X160760Y286691D01*
X161323Y287206D01*
X161874Y287734D01*
X162412Y288275D01*
X162936Y288830D01*
X163447Y289397D01*
X163944Y289976D01*
X164426Y290568D01*
X164894Y291171D01*
X164702Y291315D01*
X164238Y290716D01*
X163759Y290130D01*
X163266Y289555D01*
X162759Y288992D01*
X162239Y288442D01*
X161705Y287905D01*
X161159Y287380D01*
X160599Y286870D01*
X160028Y286373D01*
X159444Y285891D01*
X158849Y285423D01*
X158242Y284969D01*
X157625Y284531D01*
X156997Y284107D01*
X156359Y283699D01*
X155711Y283307D01*
X155053Y282931D01*
X154387Y282571D01*
X153712Y282228D01*
X153029Y281901D01*
X152338Y281591D01*
X151640Y281297D01*
X150935Y281021D01*
X150223Y280763D01*
X149505Y280522D01*
X148782Y280298D01*
X148053Y280092D01*
X147319Y279904D01*
X146581Y279734D01*
X145839Y279582D01*
X145094Y279449D01*
X144346Y279333D01*
X143595Y279236D01*
X142841Y279158D01*
X142086Y279097D01*
X141330Y279056D01*
X140573Y279032D01*
X139816Y279028D01*
X139059Y279041D01*
X138302Y279074D01*
X137547Y279124D01*
X136793Y279194D01*
X136040Y279281D01*
X135290Y279387D01*
X134543Y279511D01*
X133800Y279654D01*
X133060Y279815D01*
X132324Y279993D01*
X131592Y280190D01*
X130866Y280404D01*
X130145Y280637D01*
X129430Y280886D01*
X128722Y281153D01*
X128020Y281438D01*
X127325Y281739D01*
X126638Y282058D01*
X125959Y282393D01*
X125288Y282744D01*
X124626Y283112D01*
X123973Y283496D01*
X123330Y283896D01*
X122697Y284311D01*
X122074Y284742D01*
X121462Y285187D01*
X120861Y285648D01*
X120271Y286123D01*
X119693Y286613D01*
X119127Y287116D01*
X118574Y287633D01*
X118034Y288164D01*
X117507Y288707D01*
X116993Y289264D01*
X116493Y289832D01*
X116007Y290413D01*
X115535Y291006D01*
X115078Y291609D01*
X114636Y292224D01*
X114209Y292850D01*
X113797Y293485D01*
X113401Y294131D01*
X113021Y294786D01*
X112657Y295450D01*
X112310Y296123D01*
X111979Y296804D01*
X111664Y297493D01*
X111367Y298190D01*
X111087Y298893D01*
X110824Y299603D01*
X110579Y300320D01*
X110351Y301042D01*
X110141Y301770D01*
X109948Y302502D01*
X109774Y303239D01*
X109618Y303980D01*
X109480Y304725D01*
X109360Y305472D01*
X109258Y306223D01*
X109175Y306976D01*
X109110Y307730D01*
X109064Y308486D01*
X109036Y309243D01*
X109027Y310000D01*
X109036Y310757D01*
X109064Y311514D01*
X109110Y312270D01*
X109175Y313024D01*
X109258Y313777D01*
X109360Y314528D01*
X109480Y315275D01*
X109618Y316020D01*
X109774Y316761D01*
X109948Y317498D01*
X110141Y318230D01*
X110351Y318958D01*
X110579Y319680D01*
X110824Y320397D01*
X111087Y321107D01*
X111367Y321810D01*
X111664Y322507D01*
X111979Y323196D01*
X112310Y323877D01*
X112657Y324550D01*
X113021Y325214D01*
X113401Y325869D01*
X113797Y326515D01*
X114209Y327150D01*
X114636Y327776D01*
X115078Y328391D01*
X115535Y328994D01*
X116007Y329587D01*
X116493Y330168D01*
X116993Y330736D01*
X117507Y331293D01*
X118034Y331836D01*
X118574Y332367D01*
X119127Y332884D01*
X119693Y333387D01*
X120271Y333877D01*
X120861Y334352D01*
X121462Y334813D01*
X122074Y335258D01*
X122697Y335689D01*
X123330Y336104D01*
X123973Y336504D01*
X124626Y336888D01*
X125288Y337256D01*
X125959Y337607D01*
X126638Y337942D01*
X127325Y338261D01*
X128020Y338562D01*
X128722Y338847D01*
X129430Y339114D01*
X130145Y339363D01*
X130866Y339596D01*
X131592Y339810D01*
X132324Y340007D01*
X133060Y340185D01*
X133800Y340346D01*
X134543Y340489D01*
X135290Y340613D01*
X136040Y340719D01*
X136793Y340806D01*
X137547Y340876D01*
X138302Y340926D01*
X139059Y340959D01*
X139816Y340972D01*
X140573Y340968D01*
X141330Y340944D01*
X142086Y340903D01*
X142841Y340842D01*
X143595Y340764D01*
X144346Y340667D01*
X145094Y340551D01*
X145839Y340418D01*
X146581Y340266D01*
X147319Y340096D01*
X148053Y339908D01*
X148782Y339702D01*
X149505Y339478D01*
X150223Y339237D01*
X150935Y338979D01*
X151640Y338703D01*
X152338Y338409D01*
X153029Y338099D01*
X153712Y337772D01*
X154387Y337429D01*
X155053Y337069D01*
X155711Y336693D01*
X156359Y336301D01*
X156997Y335893D01*
X157625Y335469D01*
X158242Y335031D01*
X158849Y334577D01*
X159444Y334109D01*
X160028Y333627D01*
X160599Y333130D01*
X161159Y332620D01*
X161705Y332095D01*
X162239Y331558D01*
X162759Y331008D01*
X163266Y330445D01*
X163759Y329870D01*
X164238Y329284D01*
X164702Y328685D01*
X164510Y328541D01*
X164049Y329135D01*
X163574Y329717D01*
X163085Y330288D01*
X162582Y330846D01*
X162066Y331392D01*
X161536Y331925D01*
X160994Y332445D01*
X160439Y332951D01*
X159872Y333444D01*
X159293Y333923D01*
X158702Y334388D01*
X158100Y334838D01*
X157487Y335273D01*
X156864Y335693D01*
X156231Y336097D01*
X155588Y336486D01*
X154936Y336859D01*
X154275Y337217D01*
X153605Y337557D01*
X152928Y337882D01*
X152242Y338190D01*
X151549Y338480D01*
X150849Y338754D01*
X150143Y339011D01*
X149431Y339250D01*
X148713Y339472D01*
X147990Y339676D01*
X147262Y339863D01*
X146530Y340031D01*
X145793Y340182D01*
X145054Y340315D01*
X144311Y340429D01*
X143566Y340525D01*
X142819Y340603D01*
X142070Y340663D01*
X141319Y340705D01*
X140568Y340728D01*
X139817Y340732D01*
X139066Y340719D01*
X138315Y340687D01*
X137565Y340636D01*
X136817Y340568D01*
X136070Y340481D01*
X135326Y340376D01*
X134585Y340252D01*
X133847Y340111D01*
X133113Y339951D01*
X132383Y339774D01*
X131657Y339579D01*
X130936Y339366D01*
X130221Y339136D01*
X129512Y338888D01*
X128809Y338623D01*
X128112Y338341D01*
X127423Y338042D01*
X126741Y337726D01*
X126067Y337393D01*
X125402Y337045D01*
X124745Y336680D01*
X124097Y336299D01*
X123459Y335902D01*
X122831Y335490D01*
X122213Y335062D01*
X121605Y334620D01*
X121009Y334163D01*
X120424Y333691D01*
X119850Y333206D01*
X119289Y332706D01*
X118740Y332193D01*
X118204Y331667D01*
X117681Y331127D01*
X117171Y330575D01*
X116675Y330011D01*
X116192Y329435D01*
X115724Y328847D01*
X115271Y328248D01*
X114832Y327638D01*
X114408Y327017D01*
X114000Y326386D01*
X113607Y325746D01*
X113230Y325096D01*
X112869Y324437D01*
X112524Y323769D01*
X112196Y323093D01*
X111884Y322410D01*
X111589Y321719D01*
X111311Y321021D01*
X111050Y320316D01*
X110807Y319605D01*
X110580Y318888D01*
X110372Y318167D01*
X110181Y317440D01*
X110008Y316709D01*
X109853Y315973D01*
X109716Y315234D01*
X109597Y314492D01*
X109496Y313748D01*
X109414Y313001D01*
X109350Y312252D01*
X109304Y311502D01*
X109276Y310751D01*
X109267Y310000D01*
X109276Y309249D01*
X109304Y308498D01*
X109350Y307748D01*
X109414Y306999D01*
X109496Y306252D01*
X109597Y305508D01*
X109716Y304766D01*
X109853Y304027D01*
X110008Y303291D01*
X110181Y302560D01*
X110372Y301833D01*
X110580Y301112D01*
X110807Y300395D01*
X111050Y299684D01*
X111311Y298979D01*
X111589Y298281D01*
X111884Y297590D01*
X112196Y296907D01*
X112524Y296231D01*
X112869Y295563D01*
X113230Y294904D01*
X113607Y294254D01*
X114000Y293614D01*
X114408Y292983D01*
X114832Y292362D01*
X115271Y291752D01*
X115724Y291153D01*
X116192Y290565D01*
X116675Y289989D01*
X117171Y289425D01*
X117681Y288873D01*
X118204Y288333D01*
X118740Y287807D01*
X119289Y287294D01*
X119850Y286794D01*
X120424Y286309D01*
X121009Y285837D01*
X121605Y285380D01*
X122213Y284938D01*
X122831Y284510D01*
X123459Y284098D01*
X124097Y283701D01*
X124745Y283320D01*
X125402Y282955D01*
X126067Y282607D01*
X126741Y282274D01*
X127423Y281958D01*
X128112Y281659D01*
X128809Y281377D01*
X129512Y281112D01*
X130221Y280864D01*
X130936Y280634D01*
X131657Y280421D01*
X132383Y280226D01*
X133113Y280049D01*
X133847Y279889D01*
X134585Y279748D01*
X135326Y279624D01*
X136070Y279519D01*
X136817Y279432D01*
X137565Y279364D01*
X138315Y279313D01*
X139066Y279281D01*
X139817Y279268D01*
X140568Y279272D01*
X141319Y279295D01*
X142070Y279337D01*
X142819Y279397D01*
X143566Y279475D01*
X144311Y279571D01*
X145054Y279685D01*
X145793Y279818D01*
X146530Y279969D01*
X147262Y280137D01*
X147990Y280324D01*
X148713Y280528D01*
X149431Y280750D01*
X150143Y280989D01*
X150849Y281246D01*
X151549Y281520D01*
X152242Y281810D01*
X152928Y282118D01*
X153605Y282443D01*
X154275Y282783D01*
X154936Y283141D01*
X155588Y283514D01*
X156231Y283903D01*
X156864Y284307D01*
X157487Y284727D01*
X158100Y285162D01*
X158702Y285612D01*
X159293Y286077D01*
X159872Y286556D01*
X160439Y287049D01*
X160994Y287555D01*
X161536Y288075D01*
X162066Y288608D01*
X162582Y289154D01*
X163085Y289712D01*
X163574Y290283D01*
X164049Y290865D01*
X164510Y291459D01*
D11*
X114600Y310000D02*
X114608Y310623D01*
X114631Y311246D01*
X114669Y311869D01*
X114722Y312490D01*
X114791Y313109D01*
X114875Y313727D01*
X114974Y314342D01*
X115088Y314955D01*
X115217Y315565D01*
X115361Y316172D01*
X115520Y316775D01*
X115694Y317373D01*
X115882Y317968D01*
X116085Y318557D01*
X116302Y319141D01*
X116533Y319720D01*
X116779Y320293D01*
X117039Y320860D01*
X117312Y321420D01*
X117599Y321973D01*
X117900Y322520D01*
X118214Y323058D01*
X118541Y323589D01*
X118881Y324111D01*
X119233Y324626D01*
X119599Y325131D01*
X119976Y325627D01*
X120366Y326114D01*
X120767Y326591D01*
X121180Y327058D01*
X121604Y327514D01*
X122039Y327961D01*
X122486Y328396D01*
X122942Y328820D01*
X123409Y329233D01*
X123886Y329634D01*
X124373Y330024D01*
X124869Y330401D01*
X125374Y330767D01*
X125889Y331119D01*
X126411Y331459D01*
X126942Y331786D01*
X127480Y332100D01*
X128027Y332401D01*
X128580Y332688D01*
X129140Y332961D01*
X129707Y333221D01*
X130280Y333467D01*
X130859Y333698D01*
X131443Y333915D01*
X132032Y334118D01*
X132627Y334306D01*
X133225Y334480D01*
X133828Y334639D01*
X134435Y334783D01*
X135045Y334912D01*
X135658Y335026D01*
X136273Y335125D01*
X136891Y335209D01*
X137510Y335278D01*
X138131Y335331D01*
X138754Y335369D01*
X139377Y335392D01*
X140000Y335400D01*
X140623Y335392D01*
X141246Y335369D01*
X141869Y335331D01*
X142490Y335278D01*
X143109Y335209D01*
X143727Y335125D01*
X144342Y335026D01*
X144955Y334912D01*
X145565Y334783D01*
X146172Y334639D01*
X146775Y334480D01*
X147373Y334306D01*
X147968Y334118D01*
X148557Y333915D01*
X149141Y333698D01*
X149720Y333467D01*
X150293Y333221D01*
X150860Y332961D01*
X151420Y332688D01*
X151973Y332401D01*
X152520Y332100D01*
X153058Y331786D01*
X153589Y331459D01*
X154111Y331119D01*
X154626Y330767D01*
X155131Y330401D01*
X155627Y330024D01*
X156114Y329634D01*
X156591Y329233D01*
X157058Y328820D01*
X157514Y328396D01*
X157961Y327961D01*
X158396Y327514D01*
X158820Y327058D01*
X159233Y326591D01*
X159634Y326114D01*
X160024Y325627D01*
X160401Y325131D01*
X160767Y324626D01*
X161119Y324111D01*
X161459Y323589D01*
X161786Y323058D01*
X162100Y322520D01*
X162401Y321973D01*
X162688Y321420D01*
X162961Y320860D01*
X163221Y320293D01*
X163467Y319720D01*
X163698Y319141D01*
X163915Y318557D01*
X164118Y317968D01*
X164306Y317373D01*
X164480Y316775D01*
X164639Y316172D01*
X164783Y315565D01*
X164912Y314955D01*
X165026Y314342D01*
X165125Y313727D01*
X165209Y313109D01*
X165278Y312490D01*
X165331Y311869D01*
X165369Y311246D01*
X165392Y310623D01*
X165400Y310000D01*
X165392Y309377D01*
X165369Y308754D01*
X165331Y308131D01*
X165278Y307510D01*
X165209Y306891D01*
X165125Y306273D01*
X165026Y305658D01*
X164912Y305045D01*
X164783Y304435D01*
X164639Y303828D01*
X164480Y303225D01*
X164306Y302627D01*
X164118Y302032D01*
X163915Y301443D01*
X163698Y300859D01*
X163467Y300280D01*
X163221Y299707D01*
X162961Y299140D01*
X162688Y298580D01*
X162401Y298027D01*
X162100Y297480D01*
X161786Y296942D01*
X161459Y296411D01*
X161119Y295889D01*
X160767Y295374D01*
X160401Y294869D01*
X160024Y294373D01*
X159634Y293886D01*
X159233Y293409D01*
X158820Y292942D01*
X158396Y292486D01*
X157961Y292039D01*
X157514Y291604D01*
X157058Y291180D01*
X156591Y290767D01*
X156114Y290366D01*
X155627Y289976D01*
X155131Y289599D01*
X154626Y289233D01*
X154111Y288881D01*
X153589Y288541D01*
X153058Y288214D01*
X152520Y287900D01*
X151973Y287599D01*
X151420Y287312D01*
X150860Y287039D01*
X150293Y286779D01*
X149720Y286533D01*
X149141Y286302D01*
X148557Y286085D01*
X147968Y285882D01*
X147373Y285694D01*
X146775Y285520D01*
X146172Y285361D01*
X145565Y285217D01*
X144955Y285088D01*
X144342Y284974D01*
X143727Y284875D01*
X143109Y284791D01*
X142490Y284722D01*
X141869Y284669D01*
X141246Y284631D01*
X140623Y284608D01*
X140000Y284600D01*
X139377Y284608D01*
X138754Y284631D01*
X138131Y284669D01*
X137510Y284722D01*
X136891Y284791D01*
X136273Y284875D01*
X135658Y284974D01*
X135045Y285088D01*
X134435Y285217D01*
X133828Y285361D01*
X133225Y285520D01*
X132627Y285694D01*
X132032Y285882D01*
X131443Y286085D01*
X130859Y286302D01*
X130280Y286533D01*
X129707Y286779D01*
X129140Y287039D01*
X128580Y287312D01*
X128027Y287599D01*
X127480Y287900D01*
X126942Y288214D01*
X126411Y288541D01*
X125889Y288881D01*
X125374Y289233D01*
X124869Y289599D01*
X124373Y289976D01*
X123886Y290366D01*
X123409Y290767D01*
X122942Y291180D01*
X122486Y291604D01*
X122039Y292039D01*
X121604Y292486D01*
X121180Y292942D01*
X120767Y293409D01*
X120366Y293886D01*
X119976Y294373D01*
X119599Y294869D01*
X119233Y295374D01*
X118881Y295889D01*
X118541Y296411D01*
X118214Y296942D01*
X117900Y297480D01*
X117599Y298027D01*
X117312Y298580D01*
X117039Y299140D01*
X116779Y299707D01*
X116533Y300280D01*
X116302Y300859D01*
X116085Y301443D01*
X115882Y302032D01*
X115694Y302627D01*
X115520Y303225D01*
X115361Y303828D01*
X115217Y304435D01*
X115088Y305045D01*
X114974Y305658D01*
X114875Y306273D01*
X114791Y306891D01*
X114722Y307510D01*
X114669Y308131D01*
X114631Y308754D01*
X114608Y309377D01*
X114600Y310000D01*
D10*
X93670Y333619D02*
X93670Y345049D01*
X96845Y345049D01*
X96956Y345047D01*
X97066Y345041D01*
X97177Y345032D01*
X97287Y345018D01*
X97396Y345001D01*
X97505Y344980D01*
X97613Y344955D01*
X97720Y344926D01*
X97826Y344894D01*
X97931Y344858D01*
X98034Y344818D01*
X98136Y344775D01*
X98237Y344728D01*
X98336Y344677D01*
X98433Y344624D01*
X98527Y344567D01*
X98620Y344506D01*
X98711Y344443D01*
X98800Y344376D01*
X98886Y344306D01*
X98969Y344233D01*
X99051Y344158D01*
X99129Y344080D01*
X99204Y343998D01*
X99277Y343915D01*
X99347Y343829D01*
X99414Y343740D01*
X99477Y343649D01*
X99538Y343556D01*
X99595Y343462D01*
X99648Y343365D01*
X99699Y343266D01*
X99746Y343165D01*
X99789Y343063D01*
X99829Y342960D01*
X99865Y342855D01*
X99897Y342749D01*
X99926Y342642D01*
X99951Y342534D01*
X99972Y342425D01*
X99989Y342316D01*
X100003Y342206D01*
X100012Y342095D01*
X100018Y341985D01*
X100020Y341874D01*
X100020Y336794D01*
X100018Y336683D01*
X100012Y336573D01*
X100003Y336462D01*
X99989Y336352D01*
X99972Y336243D01*
X99951Y336134D01*
X99926Y336026D01*
X99897Y335919D01*
X99865Y335813D01*
X99829Y335708D01*
X99789Y335605D01*
X99746Y335503D01*
X99699Y335402D01*
X99648Y335303D01*
X99595Y335206D01*
X99538Y335112D01*
X99477Y335019D01*
X99414Y334928D01*
X99347Y334839D01*
X99277Y334753D01*
X99204Y334670D01*
X99129Y334588D01*
X99051Y334510D01*
X98969Y334435D01*
X98886Y334362D01*
X98800Y334292D01*
X98711Y334225D01*
X98620Y334162D01*
X98527Y334101D01*
X98432Y334044D01*
X98336Y333991D01*
X98237Y333940D01*
X98136Y333893D01*
X98034Y333850D01*
X97931Y333810D01*
X97826Y333774D01*
X97720Y333742D01*
X97613Y333713D01*
X97505Y333688D01*
X97396Y333667D01*
X97287Y333650D01*
X97177Y333636D01*
X97066Y333627D01*
X96956Y333621D01*
X96845Y333619D01*
X93670Y333619D01*
X105481Y333619D02*
X108656Y333619D01*
X108767Y333621D01*
X108877Y333627D01*
X108988Y333636D01*
X109098Y333650D01*
X109207Y333667D01*
X109316Y333688D01*
X109424Y333713D01*
X109531Y333742D01*
X109637Y333774D01*
X109742Y333810D01*
X109845Y333850D01*
X109947Y333893D01*
X110048Y333940D01*
X110147Y333991D01*
X110243Y334044D01*
X110338Y334101D01*
X110431Y334162D01*
X110522Y334225D01*
X110611Y334292D01*
X110697Y334362D01*
X110780Y334435D01*
X110862Y334510D01*
X110940Y334588D01*
X111015Y334670D01*
X111088Y334753D01*
X111158Y334839D01*
X111225Y334928D01*
X111288Y335019D01*
X111349Y335112D01*
X111406Y335206D01*
X111459Y335303D01*
X111510Y335402D01*
X111557Y335503D01*
X111600Y335605D01*
X111640Y335708D01*
X111676Y335813D01*
X111708Y335919D01*
X111737Y336026D01*
X111762Y336134D01*
X111783Y336243D01*
X111800Y336352D01*
X111814Y336462D01*
X111823Y336573D01*
X111829Y336683D01*
X111831Y336794D01*
X111829Y336905D01*
X111823Y337015D01*
X111814Y337126D01*
X111800Y337236D01*
X111783Y337345D01*
X111762Y337454D01*
X111737Y337562D01*
X111708Y337669D01*
X111676Y337775D01*
X111640Y337880D01*
X111600Y337983D01*
X111557Y338085D01*
X111510Y338186D01*
X111459Y338285D01*
X111406Y338381D01*
X111349Y338476D01*
X111288Y338569D01*
X111225Y338660D01*
X111158Y338749D01*
X111088Y338835D01*
X111015Y338918D01*
X110940Y339000D01*
X110862Y339078D01*
X110780Y339153D01*
X110697Y339226D01*
X110611Y339296D01*
X110522Y339363D01*
X110431Y339426D01*
X110338Y339487D01*
X110244Y339544D01*
X110147Y339597D01*
X110048Y339648D01*
X109947Y339695D01*
X109845Y339738D01*
X109742Y339778D01*
X109637Y339814D01*
X109531Y339846D01*
X109424Y339875D01*
X109316Y339900D01*
X109207Y339921D01*
X109098Y339938D01*
X108988Y339952D01*
X108877Y339961D01*
X108767Y339967D01*
X108656Y339969D01*
X109291Y345049D02*
X105481Y345049D01*
X109291Y345049D02*
X109391Y345047D01*
X109490Y345041D01*
X109590Y345031D01*
X109688Y345018D01*
X109787Y345000D01*
X109884Y344979D01*
X109980Y344954D01*
X110076Y344925D01*
X110170Y344892D01*
X110263Y344856D01*
X110354Y344816D01*
X110444Y344772D01*
X110532Y344725D01*
X110618Y344675D01*
X110702Y344621D01*
X110784Y344564D01*
X110863Y344504D01*
X110941Y344440D01*
X111015Y344374D01*
X111087Y344305D01*
X111156Y344233D01*
X111222Y344159D01*
X111286Y344081D01*
X111346Y344002D01*
X111403Y343920D01*
X111457Y343836D01*
X111507Y343750D01*
X111554Y343662D01*
X111598Y343572D01*
X111638Y343481D01*
X111674Y343388D01*
X111707Y343294D01*
X111736Y343198D01*
X111761Y343102D01*
X111782Y343005D01*
X111800Y342906D01*
X111813Y342808D01*
X111823Y342708D01*
X111829Y342609D01*
X111831Y342509D01*
X111829Y342409D01*
X111823Y342310D01*
X111813Y342210D01*
X111800Y342112D01*
X111782Y342013D01*
X111761Y341916D01*
X111736Y341820D01*
X111707Y341724D01*
X111674Y341630D01*
X111638Y341537D01*
X111598Y341446D01*
X111554Y341356D01*
X111507Y341268D01*
X111457Y341182D01*
X111403Y341098D01*
X111346Y341016D01*
X111286Y340937D01*
X111222Y340859D01*
X111156Y340785D01*
X111087Y340713D01*
X111015Y340644D01*
X110941Y340578D01*
X110863Y340514D01*
X110784Y340454D01*
X110702Y340397D01*
X110618Y340343D01*
X110532Y340293D01*
X110444Y340246D01*
X110354Y340202D01*
X110263Y340162D01*
X110170Y340126D01*
X110076Y340093D01*
X109980Y340064D01*
X109884Y340039D01*
X109787Y340018D01*
X109688Y340000D01*
X109590Y339987D01*
X109490Y339977D01*
X109391Y339971D01*
X109291Y339969D01*
X106751Y339969D01*
X116400Y195000D02*
X233600Y195000D01*
X245600Y207000D02*
X104400Y207000D01*
X233600Y195000D02*
X233600Y111000D01*
X245600Y111000D01*
X245600Y207000D01*
X116400Y195000D02*
X116400Y111000D01*
X104400Y111000D01*
X104400Y207000D01*
X104221Y209285D02*
X104221Y220715D01*
X108031Y214365D01*
X111841Y220715D01*
X111841Y209285D01*
X117429Y218175D02*
X120604Y220715D01*
X120604Y209285D01*
X117429Y209285D02*
X123779Y209285D01*
D11*
X154680Y67700D02*
X195320Y67700D01*
X154680Y67700D02*
X154680Y42300D01*
X195320Y42300D01*
X195320Y67700D01*
X181350Y55000D02*
X175000Y55000D01*
X164840Y48650D02*
X164840Y61350D01*
X175000Y55000D01*
X159760Y55000D01*
X164840Y48650D02*
X175000Y55000D01*
X175000Y48650D01*
X175000Y55000D02*
X175000Y61350D01*
D12*
X188970Y55000D03*
D13*
X145155Y55000D03*
X204845Y55000D03*
D10*
X164524Y38855D02*
X164524Y27425D01*
X164524Y38855D02*
X167699Y38855D01*
X167810Y38853D01*
X167920Y38847D01*
X168031Y38838D01*
X168141Y38824D01*
X168250Y38807D01*
X168359Y38786D01*
X168467Y38761D01*
X168574Y38732D01*
X168680Y38700D01*
X168785Y38664D01*
X168888Y38624D01*
X168990Y38581D01*
X169091Y38534D01*
X169190Y38483D01*
X169287Y38430D01*
X169381Y38373D01*
X169474Y38312D01*
X169565Y38249D01*
X169654Y38182D01*
X169740Y38112D01*
X169823Y38039D01*
X169905Y37964D01*
X169983Y37886D01*
X170058Y37804D01*
X170131Y37721D01*
X170201Y37635D01*
X170268Y37546D01*
X170331Y37455D01*
X170392Y37362D01*
X170449Y37268D01*
X170502Y37171D01*
X170553Y37072D01*
X170600Y36971D01*
X170643Y36869D01*
X170683Y36766D01*
X170719Y36661D01*
X170751Y36555D01*
X170780Y36448D01*
X170805Y36340D01*
X170826Y36231D01*
X170843Y36122D01*
X170857Y36012D01*
X170866Y35901D01*
X170872Y35791D01*
X170874Y35680D01*
X170874Y30600D01*
X170872Y30489D01*
X170866Y30379D01*
X170857Y30268D01*
X170843Y30158D01*
X170826Y30049D01*
X170805Y29940D01*
X170780Y29832D01*
X170751Y29725D01*
X170719Y29619D01*
X170683Y29514D01*
X170643Y29411D01*
X170600Y29309D01*
X170553Y29208D01*
X170502Y29109D01*
X170449Y29012D01*
X170392Y28918D01*
X170331Y28825D01*
X170268Y28734D01*
X170201Y28645D01*
X170131Y28559D01*
X170058Y28476D01*
X169983Y28394D01*
X169905Y28316D01*
X169823Y28241D01*
X169740Y28168D01*
X169654Y28098D01*
X169565Y28031D01*
X169474Y27968D01*
X169381Y27907D01*
X169286Y27850D01*
X169190Y27797D01*
X169091Y27746D01*
X168990Y27699D01*
X168888Y27656D01*
X168785Y27616D01*
X168680Y27580D01*
X168574Y27548D01*
X168467Y27519D01*
X168359Y27494D01*
X168250Y27473D01*
X168141Y27456D01*
X168031Y27442D01*
X167920Y27433D01*
X167810Y27427D01*
X167699Y27425D01*
X164524Y27425D01*
X179828Y38856D02*
X179932Y38854D01*
X180037Y38848D01*
X180141Y38839D01*
X180244Y38826D01*
X180347Y38808D01*
X180449Y38788D01*
X180551Y38763D01*
X180651Y38735D01*
X180751Y38703D01*
X180849Y38667D01*
X180946Y38628D01*
X181041Y38586D01*
X181135Y38540D01*
X181227Y38490D01*
X181317Y38438D01*
X181405Y38382D01*
X181491Y38322D01*
X181575Y38260D01*
X181656Y38195D01*
X181735Y38127D01*
X181812Y38055D01*
X181885Y37982D01*
X181957Y37905D01*
X182025Y37826D01*
X182090Y37745D01*
X182152Y37661D01*
X182212Y37575D01*
X182268Y37487D01*
X182320Y37397D01*
X182370Y37305D01*
X182416Y37211D01*
X182458Y37116D01*
X182497Y37019D01*
X182533Y36921D01*
X182565Y36821D01*
X182593Y36721D01*
X182618Y36619D01*
X182638Y36517D01*
X182656Y36414D01*
X182669Y36311D01*
X182678Y36207D01*
X182684Y36102D01*
X182686Y35998D01*
X179828Y38855D02*
X179710Y38853D01*
X179591Y38847D01*
X179473Y38838D01*
X179356Y38825D01*
X179239Y38807D01*
X179122Y38787D01*
X179006Y38762D01*
X178891Y38734D01*
X178778Y38701D01*
X178665Y38666D01*
X178553Y38626D01*
X178443Y38584D01*
X178334Y38537D01*
X178226Y38487D01*
X178121Y38434D01*
X178017Y38377D01*
X177915Y38317D01*
X177815Y38254D01*
X177717Y38187D01*
X177621Y38118D01*
X177528Y38045D01*
X177437Y37969D01*
X177348Y37891D01*
X177262Y37809D01*
X177179Y37725D01*
X177098Y37639D01*
X177021Y37549D01*
X176946Y37458D01*
X176874Y37364D01*
X176805Y37267D01*
X176740Y37169D01*
X176677Y37068D01*
X176618Y36965D01*
X176562Y36861D01*
X176510Y36755D01*
X176461Y36647D01*
X176416Y36538D01*
X176374Y36427D01*
X176336Y36315D01*
X181733Y33776D02*
X181809Y33851D01*
X181884Y33930D01*
X181955Y34011D01*
X182024Y34095D01*
X182089Y34181D01*
X182151Y34269D01*
X182211Y34359D01*
X182267Y34451D01*
X182320Y34546D01*
X182369Y34642D01*
X182415Y34740D01*
X182458Y34839D01*
X182497Y34940D01*
X182532Y35042D01*
X182564Y35145D01*
X182592Y35249D01*
X182617Y35354D01*
X182638Y35461D01*
X182655Y35567D01*
X182668Y35674D01*
X182677Y35782D01*
X182683Y35890D01*
X182685Y35998D01*
X181733Y33775D02*
X176335Y27425D01*
X182685Y27425D01*
M02*
