G04 EAGLE Gerber RS-274X export*
G75*
%MOMM*%
%FSLAX34Y34*%
%LPD*%
%INSilkscreen Bottom*%
%IPPOS*%
%AMOC8*
5,1,8,0,0,1.08239X$1,22.5*%
G01*
%ADD10C,0.127000*%
%ADD11C,0.200000*%

G36*
X136625Y220096D02*
X136625Y220096D01*
X136691Y220101D01*
X136721Y220116D01*
X136754Y220123D01*
X136771Y220134D01*
X136793Y220128D01*
X136822Y220111D01*
X136909Y220096D01*
X136952Y220084D01*
X136967Y220086D01*
X136986Y220083D01*
X140689Y220083D01*
X140740Y220094D01*
X140793Y220094D01*
X140846Y220115D01*
X140884Y220123D01*
X140909Y220140D01*
X140947Y220155D01*
X141340Y220392D01*
X141371Y220421D01*
X141408Y220441D01*
X141454Y220497D01*
X141486Y220527D01*
X141495Y220547D01*
X141514Y220570D01*
X146804Y229733D01*
X146815Y229764D01*
X146833Y229791D01*
X146846Y229858D01*
X146867Y229922D01*
X146865Y229954D01*
X146871Y229986D01*
X146855Y230076D01*
X146852Y230120D01*
X146845Y230133D01*
X146842Y230150D01*
X146679Y230608D01*
X146660Y230640D01*
X146641Y230690D01*
X141351Y239854D01*
X141300Y239912D01*
X141254Y239975D01*
X141235Y239986D01*
X141220Y240003D01*
X141150Y240037D01*
X141083Y240076D01*
X141058Y240080D01*
X141040Y240089D01*
X140995Y240091D01*
X140919Y240104D01*
X130338Y240104D01*
X130296Y240095D01*
X130226Y240091D01*
X129760Y239984D01*
X129739Y239975D01*
X129716Y239972D01*
X129649Y239934D01*
X129578Y239902D01*
X129563Y239885D01*
X129543Y239874D01*
X129465Y239779D01*
X129444Y239755D01*
X129442Y239750D01*
X129438Y239745D01*
X124182Y230563D01*
X124175Y230542D01*
X124162Y230524D01*
X124128Y230402D01*
X124119Y230374D01*
X124119Y230369D01*
X124118Y230364D01*
X124073Y229905D01*
X124080Y229833D01*
X124080Y229761D01*
X124091Y229731D01*
X124093Y229707D01*
X124114Y229670D01*
X124138Y229605D01*
X124937Y228234D01*
X124951Y228218D01*
X124963Y228194D01*
X125118Y227978D01*
X125144Y227909D01*
X125154Y227865D01*
X125156Y227863D01*
X125157Y227861D01*
X125167Y227847D01*
X125176Y227824D01*
X129414Y220551D01*
X129449Y220512D01*
X129475Y220468D01*
X129521Y220432D01*
X129547Y220402D01*
X129574Y220390D01*
X129605Y220365D01*
X130005Y220145D01*
X130045Y220132D01*
X130082Y220111D01*
X130153Y220099D01*
X130195Y220086D01*
X130217Y220088D01*
X130246Y220083D01*
X136559Y220083D01*
X136625Y220096D01*
G37*
G36*
X133102Y240236D02*
X133102Y240236D01*
X133140Y240243D01*
X133178Y240242D01*
X133236Y240263D01*
X133297Y240276D01*
X133328Y240298D01*
X133364Y240311D01*
X133410Y240353D01*
X133460Y240389D01*
X133481Y240421D01*
X133509Y240447D01*
X133534Y240504D01*
X133567Y240556D01*
X133573Y240594D01*
X133589Y240629D01*
X133590Y240691D01*
X133600Y240752D01*
X133591Y240790D01*
X133591Y240828D01*
X133564Y240902D01*
X133554Y240946D01*
X133542Y240961D01*
X133534Y240984D01*
X128732Y249315D01*
X128680Y249373D01*
X128634Y249436D01*
X128615Y249447D01*
X128600Y249464D01*
X128530Y249498D01*
X128463Y249537D01*
X128439Y249541D01*
X128421Y249550D01*
X128376Y249552D01*
X128299Y249565D01*
X121449Y249562D01*
X118173Y255247D01*
X121449Y260918D01*
X128006Y260918D01*
X131287Y255241D01*
X128521Y250452D01*
X128515Y250433D01*
X128508Y250414D01*
X128494Y250393D01*
X128490Y250368D01*
X128464Y250302D01*
X128456Y250261D01*
X128456Y250165D01*
X128455Y250069D01*
X128456Y250065D01*
X128456Y250063D01*
X128465Y250043D01*
X128513Y249913D01*
X130426Y246599D01*
X130452Y246570D01*
X130470Y246535D01*
X130517Y246496D01*
X130558Y246450D01*
X130593Y246433D01*
X130623Y246408D01*
X130682Y246391D01*
X130737Y246364D01*
X130777Y246363D01*
X130814Y246351D01*
X130875Y246358D01*
X130936Y246355D01*
X130973Y246369D01*
X131012Y246373D01*
X131065Y246403D01*
X131122Y246425D01*
X131151Y246452D01*
X131185Y246471D01*
X131234Y246531D01*
X131267Y246561D01*
X131275Y246580D01*
X131291Y246599D01*
X136122Y254966D01*
X136126Y254977D01*
X136133Y254985D01*
X136142Y255014D01*
X136150Y255026D01*
X136154Y255052D01*
X136184Y255144D01*
X136190Y255184D01*
X136185Y255267D01*
X136186Y255350D01*
X136180Y255368D01*
X136179Y255383D01*
X136159Y255423D01*
X136128Y255506D01*
X130636Y264995D01*
X130585Y265053D01*
X130539Y265115D01*
X130519Y265127D01*
X130504Y265144D01*
X130434Y265177D01*
X130368Y265217D01*
X130343Y265221D01*
X130325Y265229D01*
X130280Y265231D01*
X130204Y265244D01*
X119237Y265240D01*
X119162Y265224D01*
X119085Y265216D01*
X119065Y265204D01*
X119043Y265200D01*
X118979Y265156D01*
X118911Y265118D01*
X118895Y265099D01*
X118879Y265087D01*
X118855Y265050D01*
X118805Y264990D01*
X113345Y255530D01*
X113334Y255496D01*
X113290Y255389D01*
X113281Y255349D01*
X113281Y255347D01*
X113281Y255346D01*
X113279Y255248D01*
X113278Y255150D01*
X113278Y255148D01*
X113278Y255147D01*
X113336Y254991D01*
X118820Y245491D01*
X118875Y245430D01*
X118925Y245364D01*
X118942Y245354D01*
X118952Y245342D01*
X118992Y245323D01*
X119067Y245277D01*
X119105Y245262D01*
X119116Y245260D01*
X119126Y245254D01*
X119290Y245226D01*
X126093Y245220D01*
X128819Y240497D01*
X128854Y240457D01*
X128882Y240411D01*
X128925Y240377D01*
X128950Y240348D01*
X128979Y240335D01*
X129013Y240308D01*
X129048Y240289D01*
X129088Y240277D01*
X129124Y240256D01*
X129196Y240243D01*
X129238Y240231D01*
X129260Y240233D01*
X129288Y240228D01*
X133102Y240236D01*
G37*
G36*
X155478Y226297D02*
X155478Y226297D01*
X155554Y226312D01*
X155631Y226321D01*
X155651Y226332D01*
X155673Y226337D01*
X155737Y226380D01*
X155804Y226418D01*
X155820Y226438D01*
X155837Y226449D01*
X155861Y226487D01*
X155910Y226547D01*
X161393Y236042D01*
X161405Y236076D01*
X161419Y236099D01*
X161424Y236130D01*
X161449Y236186D01*
X161449Y236208D01*
X161456Y236230D01*
X161452Y236291D01*
X161452Y236295D01*
X161451Y236301D01*
X161450Y236307D01*
X161451Y236385D01*
X161442Y236408D01*
X161441Y236428D01*
X161420Y236468D01*
X161393Y236541D01*
X155917Y246036D01*
X155865Y246095D01*
X155819Y246158D01*
X155798Y246171D01*
X155786Y246185D01*
X155745Y246205D01*
X155678Y246247D01*
X155641Y246263D01*
X155625Y246266D01*
X155611Y246274D01*
X155447Y246302D01*
X144529Y246302D01*
X144524Y246301D01*
X144519Y246302D01*
X144355Y246270D01*
X144317Y246256D01*
X144242Y246209D01*
X144165Y246166D01*
X144157Y246156D01*
X144148Y246151D01*
X144124Y246117D01*
X144120Y246113D01*
X144118Y246111D01*
X144115Y246106D01*
X144059Y246038D01*
X141142Y240987D01*
X141142Y240985D01*
X141140Y240984D01*
X141128Y240951D01*
X141128Y240950D01*
X141084Y240828D01*
X141076Y240787D01*
X141078Y240696D01*
X141077Y240604D01*
X141080Y240596D01*
X141080Y240588D01*
X141095Y240555D01*
X141135Y240448D01*
X143047Y237134D01*
X143073Y237105D01*
X143091Y237070D01*
X143138Y237031D01*
X143179Y236985D01*
X143214Y236968D01*
X143244Y236943D01*
X143303Y236926D01*
X143358Y236899D01*
X143397Y236898D01*
X143435Y236886D01*
X143496Y236893D01*
X143557Y236890D01*
X143594Y236904D01*
X143632Y236908D01*
X143686Y236938D01*
X143743Y236960D01*
X143772Y236987D01*
X143806Y237006D01*
X143855Y237066D01*
X143888Y237096D01*
X143896Y237115D01*
X143912Y237134D01*
X146710Y241974D01*
X153264Y241974D01*
X156540Y236286D01*
X153265Y230619D01*
X147751Y230619D01*
X147681Y230605D01*
X147610Y230599D01*
X147581Y230585D01*
X147556Y230579D01*
X147521Y230555D01*
X147461Y230526D01*
X147428Y230503D01*
X147411Y230485D01*
X147390Y230473D01*
X147316Y230383D01*
X147292Y230357D01*
X147290Y230351D01*
X147284Y230345D01*
X145389Y227041D01*
X145377Y227004D01*
X145356Y226972D01*
X145346Y226911D01*
X145326Y226852D01*
X145329Y226814D01*
X145323Y226776D01*
X145337Y226715D01*
X145342Y226654D01*
X145360Y226620D01*
X145369Y226582D01*
X145406Y226532D01*
X145434Y226478D01*
X145464Y226453D01*
X145487Y226422D01*
X145540Y226391D01*
X145588Y226351D01*
X145625Y226340D01*
X145658Y226321D01*
X145736Y226308D01*
X145779Y226295D01*
X145798Y226297D01*
X145822Y226293D01*
X155478Y226297D01*
G37*
G36*
X182822Y198040D02*
X182822Y198040D01*
X182840Y198038D01*
X182919Y198060D01*
X182999Y198076D01*
X183014Y198087D01*
X183032Y198092D01*
X183150Y198180D01*
X183162Y198189D01*
X183163Y198190D01*
X183165Y198191D01*
X184651Y199750D01*
X188660Y199764D01*
X188679Y199768D01*
X188702Y199766D01*
X189228Y199812D01*
X189256Y199820D01*
X189294Y199822D01*
X189809Y199938D01*
X189850Y199956D01*
X189926Y199980D01*
X190395Y200218D01*
X190415Y200234D01*
X190439Y200244D01*
X190521Y200318D01*
X190551Y200342D01*
X190555Y200349D01*
X190562Y200356D01*
X190885Y200768D01*
X190886Y200771D01*
X190888Y200773D01*
X190966Y200920D01*
X191130Y201421D01*
X191134Y201459D01*
X191150Y201510D01*
X191220Y202034D01*
X191219Y202057D01*
X191225Y202086D01*
X191239Y202614D01*
X191238Y202621D01*
X191239Y202629D01*
X191229Y207914D01*
X191224Y207939D01*
X191225Y207973D01*
X191162Y208497D01*
X191151Y208531D01*
X191145Y208581D01*
X190993Y209086D01*
X190987Y209098D01*
X190921Y209233D01*
X190616Y209659D01*
X190595Y209678D01*
X190581Y209702D01*
X190501Y209766D01*
X190470Y209795D01*
X190461Y209798D01*
X190451Y209806D01*
X189991Y210060D01*
X189948Y210073D01*
X189868Y210107D01*
X189356Y210233D01*
X189325Y210234D01*
X189286Y210245D01*
X188760Y210297D01*
X188739Y210295D01*
X188712Y210299D01*
X183956Y210307D01*
X183955Y210307D01*
X181295Y210307D01*
X181286Y210305D01*
X181274Y210307D01*
X180742Y210283D01*
X180720Y210278D01*
X180689Y210278D01*
X180164Y210199D01*
X180128Y210185D01*
X180073Y210176D01*
X179573Y210000D01*
X179568Y209998D01*
X179567Y209997D01*
X179566Y209997D01*
X179559Y209996D01*
X179416Y209911D01*
X179013Y209571D01*
X178999Y209553D01*
X178979Y209539D01*
X178912Y209443D01*
X178890Y209415D01*
X178888Y209409D01*
X178884Y209403D01*
X178658Y208924D01*
X178647Y208881D01*
X178620Y208810D01*
X178515Y208289D01*
X178515Y208260D01*
X178506Y208223D01*
X178471Y207692D01*
X178473Y207678D01*
X178470Y207660D01*
X178469Y204468D01*
X178478Y204424D01*
X178485Y204342D01*
X178551Y204090D01*
X178477Y203690D01*
X178478Y203653D01*
X178469Y203600D01*
X178469Y202543D01*
X178471Y202534D01*
X178469Y202523D01*
X178491Y201995D01*
X178497Y201970D01*
X178496Y201937D01*
X178578Y201415D01*
X178593Y201377D01*
X178604Y201318D01*
X178789Y200825D01*
X178795Y200814D01*
X178798Y200803D01*
X178888Y200663D01*
X179241Y200277D01*
X179257Y200265D01*
X179269Y200249D01*
X179383Y200173D01*
X179401Y200160D01*
X179404Y200159D01*
X179408Y200157D01*
X179889Y199944D01*
X179931Y199935D01*
X179994Y199911D01*
X180512Y199809D01*
X180539Y199809D01*
X180573Y199801D01*
X181100Y199763D01*
X181116Y199765D01*
X181135Y199761D01*
X181564Y199760D01*
X181066Y198758D01*
X181060Y198735D01*
X181047Y198715D01*
X181034Y198640D01*
X181015Y198566D01*
X181018Y198543D01*
X181014Y198519D01*
X181032Y198445D01*
X181043Y198369D01*
X181055Y198349D01*
X181060Y198326D01*
X181105Y198264D01*
X181145Y198199D01*
X181164Y198185D01*
X181178Y198166D01*
X181244Y198127D01*
X181306Y198082D01*
X181329Y198076D01*
X181349Y198064D01*
X181466Y198045D01*
X181500Y198037D01*
X181506Y198038D01*
X181513Y198037D01*
X182804Y198037D01*
X182822Y198040D01*
G37*
%LPC*%
G36*
X136515Y224377D02*
X136515Y224377D01*
X136506Y224378D01*
X136500Y224382D01*
X136463Y224385D01*
X136351Y224404D01*
X132277Y224404D01*
X132115Y224499D01*
X130079Y228031D01*
X130075Y228036D01*
X130073Y228042D01*
X129964Y228168D01*
X129828Y228280D01*
X129752Y228565D01*
X129732Y228605D01*
X129702Y228686D01*
X128962Y229971D01*
X128941Y230163D01*
X132169Y235749D01*
X132393Y235767D01*
X138609Y235767D01*
X138782Y235685D01*
X142005Y230097D01*
X141900Y229892D01*
X138794Y224508D01*
X138633Y224404D01*
X136664Y224404D01*
X136573Y224386D01*
X136516Y224376D01*
X136515Y224377D01*
G37*
%LPD*%
G36*
X123248Y229559D02*
X123248Y229559D01*
X123325Y229568D01*
X123345Y229579D01*
X123367Y229583D01*
X123431Y229627D01*
X123499Y229665D01*
X123515Y229684D01*
X123531Y229696D01*
X123555Y229733D01*
X123605Y229793D01*
X125516Y233109D01*
X125528Y233144D01*
X125548Y233175D01*
X125559Y233238D01*
X125579Y233298D01*
X125576Y233334D01*
X125583Y233371D01*
X125568Y233433D01*
X125563Y233496D01*
X125547Y233529D01*
X125538Y233564D01*
X125501Y233616D01*
X125472Y233673D01*
X125443Y233696D01*
X125422Y233726D01*
X125353Y233771D01*
X125318Y233799D01*
X125301Y233804D01*
X125283Y233816D01*
X125256Y233828D01*
X125237Y233832D01*
X125221Y233842D01*
X125079Y233866D01*
X125061Y233869D01*
X125059Y233869D01*
X125057Y233869D01*
X119531Y233869D01*
X116254Y239547D01*
X119041Y244375D01*
X119066Y244449D01*
X119097Y244519D01*
X119097Y244542D01*
X119105Y244564D01*
X119099Y244641D01*
X119100Y244718D01*
X119091Y244742D01*
X119089Y244762D01*
X119069Y244802D01*
X119042Y244874D01*
X117136Y248189D01*
X117129Y248197D01*
X117125Y248206D01*
X117064Y248271D01*
X117004Y248338D01*
X116995Y248343D01*
X116988Y248350D01*
X116906Y248385D01*
X116825Y248424D01*
X116815Y248425D01*
X116805Y248429D01*
X116734Y248431D01*
X116724Y248434D01*
X116708Y248432D01*
X116639Y248435D01*
X116615Y248432D01*
X116572Y248417D01*
X116527Y248412D01*
X116479Y248385D01*
X116427Y248368D01*
X116393Y248337D01*
X116353Y248315D01*
X116311Y248263D01*
X116279Y248235D01*
X116268Y248212D01*
X116247Y248186D01*
X111417Y239819D01*
X111407Y239790D01*
X111390Y239765D01*
X111368Y239671D01*
X111354Y239630D01*
X111355Y239618D01*
X111351Y239603D01*
X111349Y239563D01*
X111352Y239537D01*
X111348Y239512D01*
X111357Y239475D01*
X111356Y239435D01*
X111371Y239396D01*
X111375Y239366D01*
X111388Y239344D01*
X111394Y239319D01*
X111406Y239303D01*
X111414Y239279D01*
X116874Y229820D01*
X116878Y229816D01*
X116979Y229693D01*
X117010Y229666D01*
X117093Y229619D01*
X117174Y229571D01*
X117179Y229570D01*
X117184Y229568D01*
X117213Y229565D01*
X117338Y229544D01*
X123172Y229544D01*
X123248Y229559D01*
G37*
G36*
X83857Y199755D02*
X83857Y199755D01*
X83866Y199753D01*
X83954Y199775D01*
X84043Y199793D01*
X84051Y199798D01*
X84060Y199800D01*
X84197Y199895D01*
X84464Y200155D01*
X84473Y200168D01*
X84486Y200178D01*
X84529Y200250D01*
X84576Y200319D01*
X84579Y200335D01*
X84587Y200349D01*
X84615Y200513D01*
X84615Y205317D01*
X87750Y201151D01*
X87772Y201132D01*
X87788Y201107D01*
X87846Y201066D01*
X87899Y201019D01*
X87927Y201010D01*
X87951Y200993D01*
X88047Y200970D01*
X88088Y200956D01*
X88099Y200957D01*
X88112Y200954D01*
X88607Y200917D01*
X88673Y200925D01*
X88739Y200925D01*
X88771Y200938D01*
X88805Y200942D01*
X88862Y200976D01*
X88923Y201001D01*
X88951Y201028D01*
X88977Y201042D01*
X89000Y201074D01*
X89044Y201116D01*
X92243Y205385D01*
X92243Y200567D01*
X92256Y200503D01*
X92260Y200438D01*
X92277Y200401D01*
X92283Y200372D01*
X92305Y200339D01*
X92329Y200286D01*
X92543Y199972D01*
X92585Y199930D01*
X92621Y199882D01*
X92656Y199862D01*
X92685Y199833D01*
X92740Y199811D01*
X92792Y199781D01*
X92838Y199773D01*
X92870Y199761D01*
X92906Y199762D01*
X92956Y199753D01*
X94539Y199753D01*
X94547Y199755D01*
X94556Y199753D01*
X94644Y199774D01*
X94734Y199793D01*
X94741Y199797D01*
X94749Y199799D01*
X94822Y199853D01*
X94898Y199905D01*
X94902Y199912D01*
X94909Y199917D01*
X94956Y199996D01*
X95005Y200073D01*
X95006Y200081D01*
X95011Y200088D01*
X95038Y200252D01*
X95038Y209752D01*
X95038Y209754D01*
X95038Y209755D01*
X95037Y209760D01*
X95022Y209831D01*
X95012Y209911D01*
X95003Y209928D01*
X94999Y209947D01*
X94953Y210014D01*
X94913Y210083D01*
X94897Y210095D01*
X94886Y210111D01*
X94818Y210154D01*
X94754Y210203D01*
X94733Y210209D01*
X94719Y210218D01*
X94674Y210226D01*
X94594Y210249D01*
X94119Y210301D01*
X94095Y210299D01*
X94064Y210305D01*
X93009Y210305D01*
X92980Y210299D01*
X92951Y210301D01*
X92855Y210273D01*
X92814Y210265D01*
X92804Y210259D01*
X92791Y210255D01*
X92364Y210048D01*
X92339Y210029D01*
X92310Y210018D01*
X92241Y209955D01*
X92206Y209928D01*
X92200Y209916D01*
X92188Y209906D01*
X88248Y204846D01*
X84280Y210046D01*
X84268Y210056D01*
X84261Y210070D01*
X84237Y210088D01*
X84222Y210108D01*
X84182Y210132D01*
X84130Y210177D01*
X84116Y210182D01*
X84104Y210191D01*
X84060Y210204D01*
X84051Y210210D01*
X84031Y210213D01*
X83944Y210239D01*
X83941Y210239D01*
X83447Y210301D01*
X83420Y210299D01*
X83386Y210305D01*
X82330Y210305D01*
X82323Y210303D01*
X82317Y210304D01*
X82227Y210284D01*
X82135Y210265D01*
X82130Y210261D01*
X82123Y210260D01*
X81985Y210166D01*
X81715Y209909D01*
X81705Y209893D01*
X81690Y209883D01*
X81648Y209813D01*
X81602Y209745D01*
X81598Y209727D01*
X81588Y209712D01*
X81564Y209564D01*
X81561Y209551D01*
X81561Y209549D01*
X81561Y209547D01*
X81561Y200575D01*
X81572Y200519D01*
X81574Y200461D01*
X81593Y200415D01*
X81600Y200380D01*
X81620Y200352D01*
X81639Y200308D01*
X81843Y199985D01*
X81890Y199936D01*
X81930Y199882D01*
X81958Y199865D01*
X81981Y199842D01*
X82043Y199815D01*
X82101Y199781D01*
X82138Y199775D01*
X82164Y199763D01*
X82205Y199763D01*
X82265Y199753D01*
X83848Y199753D01*
X83857Y199755D01*
G37*
G36*
X132568Y199761D02*
X132568Y199761D01*
X132608Y199759D01*
X132680Y199784D01*
X132724Y199793D01*
X132741Y199804D01*
X132766Y199813D01*
X133210Y200051D01*
X133242Y200077D01*
X133295Y200109D01*
X139801Y205583D01*
X139802Y205584D01*
X139803Y205585D01*
X139917Y205681D01*
X139912Y200381D01*
X139918Y200350D01*
X139916Y200318D01*
X139938Y200253D01*
X139951Y200186D01*
X139969Y200160D01*
X139980Y200129D01*
X140025Y200078D01*
X140064Y200022D01*
X140091Y200005D01*
X140112Y199981D01*
X140194Y199939D01*
X140231Y199915D01*
X140245Y199913D01*
X140260Y199905D01*
X140663Y199777D01*
X140697Y199773D01*
X140814Y199753D01*
X142409Y199753D01*
X142417Y199755D01*
X142425Y199753D01*
X142514Y199774D01*
X142603Y199793D01*
X142610Y199797D01*
X142619Y199799D01*
X142691Y199853D01*
X142767Y199905D01*
X142772Y199912D01*
X142779Y199917D01*
X142825Y199996D01*
X142874Y200073D01*
X142876Y200081D01*
X142880Y200088D01*
X142908Y200252D01*
X142908Y209286D01*
X142907Y209292D01*
X142908Y209298D01*
X142895Y209817D01*
X142895Y209820D01*
X142895Y209822D01*
X142873Y209916D01*
X142851Y210011D01*
X142850Y210013D01*
X142849Y210015D01*
X142792Y210092D01*
X142735Y210172D01*
X142733Y210174D01*
X142731Y210175D01*
X142649Y210224D01*
X142564Y210275D01*
X142562Y210276D01*
X142560Y210277D01*
X142396Y210305D01*
X141333Y210305D01*
X141309Y210299D01*
X141276Y210301D01*
X140766Y210242D01*
X140707Y210223D01*
X140646Y210213D01*
X140622Y210198D01*
X140619Y210198D01*
X140610Y210192D01*
X140608Y210190D01*
X140577Y210180D01*
X140549Y210156D01*
X140503Y210129D01*
X133654Y204391D01*
X133666Y204616D01*
X133665Y204628D01*
X133667Y204643D01*
X133670Y209426D01*
X133668Y209438D01*
X133669Y209450D01*
X133634Y209613D01*
X133481Y209992D01*
X133474Y210003D01*
X133471Y210015D01*
X133420Y210085D01*
X133372Y210158D01*
X133361Y210165D01*
X133353Y210175D01*
X133279Y210220D01*
X133206Y210268D01*
X133193Y210270D01*
X133182Y210277D01*
X133018Y210305D01*
X131424Y210305D01*
X131398Y210299D01*
X131371Y210302D01*
X131301Y210280D01*
X131229Y210265D01*
X131207Y210250D01*
X131181Y210242D01*
X131098Y210175D01*
X131065Y210152D01*
X131060Y210145D01*
X131052Y210138D01*
X130801Y209857D01*
X130751Y209772D01*
X130702Y209689D01*
X130701Y209687D01*
X130701Y209685D01*
X130699Y209671D01*
X130674Y209525D01*
X130674Y200491D01*
X130682Y200453D01*
X130680Y200415D01*
X130701Y200357D01*
X130714Y200296D01*
X130735Y200264D01*
X130749Y200228D01*
X130801Y200169D01*
X130826Y200132D01*
X130842Y200121D01*
X130859Y200103D01*
X131152Y199865D01*
X131228Y199825D01*
X131302Y199781D01*
X131317Y199778D01*
X131328Y199773D01*
X131371Y199769D01*
X131467Y199753D01*
X132529Y199753D01*
X132568Y199761D01*
G37*
G36*
X108594Y199761D02*
X108594Y199761D01*
X108609Y199760D01*
X109139Y199790D01*
X109163Y199796D01*
X109196Y199796D01*
X109718Y199886D01*
X109756Y199901D01*
X109816Y199914D01*
X110308Y200108D01*
X110320Y200116D01*
X110334Y200119D01*
X110472Y200213D01*
X110849Y200578D01*
X110860Y200593D01*
X110874Y200604D01*
X110955Y200732D01*
X110962Y200742D01*
X110962Y200743D01*
X110963Y200744D01*
X111167Y201232D01*
X111175Y201274D01*
X111198Y201337D01*
X111291Y201858D01*
X111290Y201885D01*
X111298Y201919D01*
X111327Y202449D01*
X111325Y202461D01*
X111327Y202476D01*
X111328Y209372D01*
X111319Y209414D01*
X111316Y209481D01*
X111218Y209914D01*
X111197Y209963D01*
X111184Y210015D01*
X111156Y210053D01*
X111137Y210096D01*
X111098Y210132D01*
X111066Y210175D01*
X111026Y210199D01*
X110992Y210231D01*
X110941Y210250D01*
X110895Y210277D01*
X110841Y210286D01*
X110805Y210299D01*
X110773Y210297D01*
X110731Y210305D01*
X108609Y210305D01*
X108601Y210303D01*
X108593Y210304D01*
X108504Y210283D01*
X108414Y210265D01*
X108408Y210260D01*
X108399Y210258D01*
X108326Y210204D01*
X108251Y210152D01*
X108246Y210145D01*
X108239Y210140D01*
X108193Y210062D01*
X108144Y209985D01*
X108142Y209977D01*
X108138Y209969D01*
X108110Y209805D01*
X108110Y202553D01*
X102780Y202553D01*
X102780Y209724D01*
X102768Y209786D01*
X102764Y209849D01*
X102748Y209882D01*
X102741Y209919D01*
X102705Y209971D01*
X102677Y210028D01*
X102649Y210052D01*
X102628Y210083D01*
X102575Y210117D01*
X102527Y210158D01*
X102487Y210173D01*
X102461Y210190D01*
X102423Y210196D01*
X102370Y210215D01*
X101921Y210296D01*
X101884Y210296D01*
X101832Y210305D01*
X100241Y210305D01*
X100158Y210288D01*
X100074Y210276D01*
X100061Y210268D01*
X100046Y210265D01*
X99976Y210217D01*
X99903Y210173D01*
X99893Y210160D01*
X99882Y210152D01*
X99858Y210115D01*
X99801Y210042D01*
X99616Y209697D01*
X99604Y209659D01*
X99584Y209624D01*
X99571Y209549D01*
X99558Y209507D01*
X99560Y209486D01*
X99556Y209460D01*
X99556Y202564D01*
X99558Y202556D01*
X99556Y202546D01*
X99576Y202016D01*
X99581Y201992D01*
X99581Y201959D01*
X99661Y201435D01*
X99675Y201397D01*
X99686Y201339D01*
X99868Y200842D01*
X99873Y200833D01*
X99875Y200823D01*
X99963Y200682D01*
X100313Y200289D01*
X100330Y200277D01*
X100342Y200259D01*
X100450Y200187D01*
X100472Y200170D01*
X100476Y200169D01*
X100480Y200167D01*
X100961Y199949D01*
X101004Y199939D01*
X101068Y199914D01*
X101588Y199810D01*
X101615Y199810D01*
X101650Y199801D01*
X102179Y199762D01*
X102195Y199764D01*
X102215Y199761D01*
X108581Y199759D01*
X108594Y199761D01*
G37*
G36*
X172043Y199761D02*
X172043Y199761D01*
X172059Y199760D01*
X172589Y199790D01*
X172613Y199796D01*
X172646Y199796D01*
X173168Y199887D01*
X173206Y199902D01*
X173266Y199915D01*
X173758Y200109D01*
X173769Y200116D01*
X173782Y200119D01*
X173920Y200213D01*
X174299Y200576D01*
X174309Y200592D01*
X174324Y200603D01*
X174405Y200729D01*
X174412Y200740D01*
X174412Y200741D01*
X174413Y200743D01*
X174619Y201230D01*
X174627Y201272D01*
X174650Y201337D01*
X174743Y201859D01*
X174742Y201886D01*
X174750Y201920D01*
X174777Y202450D01*
X174775Y202461D01*
X174777Y202475D01*
X174777Y209372D01*
X174769Y209414D01*
X174765Y209481D01*
X174668Y209914D01*
X174646Y209963D01*
X174634Y210015D01*
X174606Y210053D01*
X174587Y210096D01*
X174548Y210132D01*
X174516Y210175D01*
X174476Y210199D01*
X174441Y210231D01*
X174391Y210250D01*
X174345Y210277D01*
X174290Y210286D01*
X174254Y210299D01*
X174223Y210297D01*
X174181Y210305D01*
X172059Y210305D01*
X172051Y210303D01*
X172043Y210304D01*
X171954Y210283D01*
X171864Y210265D01*
X171857Y210260D01*
X171849Y210258D01*
X171776Y210204D01*
X171700Y210152D01*
X171696Y210145D01*
X171689Y210140D01*
X171643Y210062D01*
X171593Y209985D01*
X171592Y209977D01*
X171588Y209969D01*
X171560Y209805D01*
X171560Y202553D01*
X166225Y202553D01*
X166225Y209720D01*
X166213Y209780D01*
X166211Y209841D01*
X166194Y209876D01*
X166186Y209915D01*
X166151Y209965D01*
X166125Y210020D01*
X166096Y210046D01*
X166073Y210079D01*
X166022Y210112D01*
X165976Y210152D01*
X165934Y210168D01*
X165906Y210186D01*
X165869Y210192D01*
X165820Y210210D01*
X165375Y210296D01*
X165336Y210295D01*
X165281Y210305D01*
X163690Y210305D01*
X163606Y210287D01*
X163521Y210275D01*
X163509Y210268D01*
X163495Y210265D01*
X163424Y210217D01*
X163351Y210172D01*
X163341Y210160D01*
X163331Y210152D01*
X163307Y210116D01*
X163249Y210041D01*
X163064Y209695D01*
X163053Y209657D01*
X163033Y209624D01*
X163020Y209547D01*
X163008Y209504D01*
X163010Y209484D01*
X163006Y209459D01*
X163006Y202563D01*
X163007Y202555D01*
X163006Y202545D01*
X163025Y202015D01*
X163031Y201990D01*
X163030Y201958D01*
X163110Y201434D01*
X163124Y201396D01*
X163135Y201338D01*
X163316Y200841D01*
X163322Y200831D01*
X163324Y200821D01*
X163412Y200680D01*
X163762Y200288D01*
X163779Y200275D01*
X163791Y200258D01*
X163899Y200185D01*
X163921Y200169D01*
X163925Y200168D01*
X163929Y200165D01*
X164411Y199948D01*
X164453Y199939D01*
X164518Y199914D01*
X165037Y199809D01*
X165065Y199809D01*
X165099Y199801D01*
X165628Y199762D01*
X165644Y199764D01*
X165665Y199761D01*
X172031Y199759D01*
X172043Y199761D01*
G37*
G36*
X148911Y199754D02*
X148911Y199754D01*
X149071Y199781D01*
X149512Y199934D01*
X149603Y199988D01*
X149683Y200035D01*
X149786Y200166D01*
X150689Y201818D01*
X150893Y201852D01*
X156049Y201852D01*
X156210Y201773D01*
X157129Y200037D01*
X157178Y199977D01*
X157222Y199912D01*
X157241Y199900D01*
X157255Y199883D01*
X157324Y199847D01*
X157390Y199805D01*
X157414Y199800D01*
X157431Y199791D01*
X157476Y199788D01*
X157553Y199772D01*
X158074Y199754D01*
X158081Y199755D01*
X158091Y199754D01*
X159685Y199754D01*
X159751Y199767D01*
X159818Y199772D01*
X159848Y199787D01*
X159880Y199793D01*
X159935Y199832D01*
X159996Y199862D01*
X160017Y199887D01*
X160044Y199906D01*
X160080Y199963D01*
X160123Y200015D01*
X160133Y200046D01*
X160151Y200073D01*
X160162Y200140D01*
X160182Y200205D01*
X160179Y200242D01*
X160184Y200269D01*
X160174Y200309D01*
X160170Y200371D01*
X160082Y200731D01*
X160064Y200771D01*
X160032Y200860D01*
X157151Y205946D01*
X155069Y209619D01*
X155061Y209628D01*
X155054Y209643D01*
X154777Y210073D01*
X154732Y210120D01*
X154693Y210173D01*
X154663Y210191D01*
X154639Y210215D01*
X154578Y210241D01*
X154522Y210274D01*
X154483Y210281D01*
X154455Y210292D01*
X154415Y210292D01*
X154358Y210302D01*
X152247Y210302D01*
X152170Y210286D01*
X152093Y210278D01*
X152074Y210267D01*
X152052Y210262D01*
X151988Y210218D01*
X151920Y210180D01*
X151904Y210161D01*
X151888Y210150D01*
X151864Y210112D01*
X151814Y210051D01*
X149711Y206391D01*
X149709Y206384D01*
X149704Y206377D01*
X149467Y205935D01*
X149458Y205905D01*
X149442Y205879D01*
X149432Y205823D01*
X149269Y205612D01*
X149256Y205585D01*
X149231Y205555D01*
X146586Y200946D01*
X146584Y200940D01*
X146578Y200933D01*
X146341Y200488D01*
X146333Y200458D01*
X146316Y200432D01*
X146304Y200364D01*
X146285Y200297D01*
X146288Y200267D01*
X146283Y200236D01*
X146299Y200169D01*
X146307Y200100D01*
X146322Y200073D01*
X146329Y200043D01*
X146370Y199987D01*
X146404Y199926D01*
X146429Y199907D01*
X146447Y199883D01*
X146507Y199847D01*
X146562Y199805D01*
X146591Y199797D01*
X146618Y199781D01*
X146712Y199765D01*
X146754Y199754D01*
X146767Y199756D01*
X146782Y199754D01*
X148907Y199754D01*
X148911Y199754D01*
G37*
G36*
X122139Y199759D02*
X122139Y199759D01*
X122167Y199756D01*
X122236Y199778D01*
X122307Y199793D01*
X122330Y199808D01*
X122356Y199817D01*
X122437Y199882D01*
X122471Y199905D01*
X122476Y199914D01*
X122486Y199921D01*
X122508Y199946D01*
X122557Y200031D01*
X122605Y200113D01*
X122606Y200116D01*
X122607Y200118D01*
X122610Y200139D01*
X122633Y200277D01*
X122633Y207603D01*
X126496Y207603D01*
X126498Y207603D01*
X126500Y207603D01*
X126593Y207622D01*
X126691Y207642D01*
X126693Y207643D01*
X126695Y207644D01*
X126834Y207735D01*
X126859Y207757D01*
X126872Y207776D01*
X126891Y207789D01*
X126930Y207855D01*
X126975Y207918D01*
X126980Y207940D01*
X126992Y207960D01*
X127012Y208080D01*
X127020Y208112D01*
X127019Y208117D01*
X127020Y208124D01*
X127020Y209805D01*
X127018Y209814D01*
X127019Y209822D01*
X126998Y209911D01*
X126980Y210000D01*
X126975Y210007D01*
X126973Y210015D01*
X126919Y210089D01*
X126868Y210164D01*
X126860Y210169D01*
X126855Y210175D01*
X126777Y210222D01*
X126700Y210271D01*
X126692Y210273D01*
X126684Y210277D01*
X126520Y210305D01*
X115504Y210301D01*
X115496Y210299D01*
X115488Y210300D01*
X115400Y210279D01*
X115310Y210261D01*
X115303Y210256D01*
X115295Y210254D01*
X115221Y210200D01*
X115146Y210148D01*
X115141Y210141D01*
X115134Y210136D01*
X115088Y210058D01*
X115039Y209981D01*
X115037Y209973D01*
X115033Y209965D01*
X115005Y209801D01*
X115005Y208120D01*
X115018Y208058D01*
X115022Y207994D01*
X115038Y207961D01*
X115045Y207925D01*
X115081Y207873D01*
X115109Y207815D01*
X115140Y207787D01*
X115157Y207762D01*
X115190Y207741D01*
X115194Y207737D01*
X115198Y207732D01*
X115203Y207729D01*
X115231Y207702D01*
X115260Y207684D01*
X115310Y207664D01*
X115325Y207655D01*
X115329Y207654D01*
X115369Y207630D01*
X115414Y207623D01*
X115444Y207611D01*
X115481Y207611D01*
X115533Y207603D01*
X119411Y207603D01*
X119418Y200252D01*
X119420Y200244D01*
X119418Y200236D01*
X119439Y200147D01*
X119458Y200057D01*
X119462Y200050D01*
X119464Y200042D01*
X119518Y199969D01*
X119570Y199893D01*
X119577Y199889D01*
X119582Y199882D01*
X119661Y199836D01*
X119738Y199786D01*
X119746Y199785D01*
X119753Y199781D01*
X119917Y199753D01*
X122112Y199753D01*
X122139Y199759D01*
G37*
G36*
X112668Y187062D02*
X112668Y187062D01*
X112701Y187066D01*
X112814Y187046D01*
X114378Y187046D01*
X114397Y187050D01*
X114421Y187048D01*
X114939Y187093D01*
X114950Y187096D01*
X114962Y187095D01*
X115121Y187145D01*
X115578Y187375D01*
X115579Y187376D01*
X115581Y187377D01*
X115657Y187437D01*
X115734Y187498D01*
X115735Y187500D01*
X115736Y187501D01*
X115820Y187645D01*
X116002Y188127D01*
X116007Y188159D01*
X116034Y188277D01*
X116060Y188797D01*
X116058Y188809D01*
X116061Y188823D01*
X116058Y191430D01*
X116049Y191473D01*
X116045Y191544D01*
X115926Y192049D01*
X115893Y192120D01*
X115867Y192194D01*
X115851Y192212D01*
X115843Y192229D01*
X115810Y192259D01*
X115758Y192319D01*
X115367Y192642D01*
X115326Y192664D01*
X115289Y192695D01*
X115229Y192716D01*
X115192Y192735D01*
X115165Y192738D01*
X115132Y192749D01*
X114620Y192835D01*
X114585Y192834D01*
X114538Y192842D01*
X112974Y192846D01*
X112894Y192829D01*
X112887Y192829D01*
X112785Y192846D01*
X110659Y192841D01*
X110623Y192833D01*
X110570Y192833D01*
X110050Y192737D01*
X109991Y192714D01*
X109930Y192699D01*
X109895Y192675D01*
X109865Y192663D01*
X109838Y192636D01*
X109793Y192606D01*
X109422Y192248D01*
X109384Y192193D01*
X109339Y192143D01*
X109325Y192108D01*
X109309Y192084D01*
X109301Y192044D01*
X109279Y191987D01*
X109175Y191469D01*
X109175Y191429D01*
X109165Y191371D01*
X109161Y188713D01*
X109165Y188693D01*
X109163Y188668D01*
X109210Y188139D01*
X109217Y188116D01*
X109217Y188091D01*
X109257Y187985D01*
X109267Y187949D01*
X109272Y187943D01*
X109275Y187935D01*
X109535Y187485D01*
X109599Y187412D01*
X109663Y187339D01*
X109665Y187337D01*
X109666Y187336D01*
X109682Y187328D01*
X109810Y187261D01*
X110309Y187094D01*
X110353Y187089D01*
X110446Y187069D01*
X110976Y187047D01*
X110986Y187048D01*
X110997Y187046D01*
X112592Y187046D01*
X112668Y187062D01*
G37*
G36*
X146543Y187058D02*
X146543Y187058D01*
X146580Y187066D01*
X146635Y187067D01*
X147151Y187164D01*
X147214Y187190D01*
X147279Y187207D01*
X147309Y187229D01*
X147335Y187239D01*
X147364Y187268D01*
X147414Y187304D01*
X147772Y187668D01*
X147806Y187721D01*
X147849Y187769D01*
X147863Y187808D01*
X147880Y187834D01*
X147887Y187872D01*
X147887Y187873D01*
X147889Y187876D01*
X147890Y187879D01*
X147907Y187924D01*
X148005Y188440D01*
X148005Y188478D01*
X148014Y188533D01*
X148018Y191169D01*
X148014Y191187D01*
X148016Y191211D01*
X147972Y191735D01*
X147966Y191755D01*
X147967Y191776D01*
X147924Y191901D01*
X147916Y191926D01*
X147914Y191929D01*
X147913Y191933D01*
X147665Y192386D01*
X147601Y192462D01*
X147538Y192536D01*
X147538Y192537D01*
X147537Y192538D01*
X147529Y192541D01*
X147393Y192617D01*
X146901Y192790D01*
X146860Y192796D01*
X146759Y192818D01*
X146233Y192843D01*
X146222Y192842D01*
X146209Y192844D01*
X143046Y192844D01*
X143028Y192840D01*
X143005Y192842D01*
X142481Y192799D01*
X142473Y192796D01*
X142465Y192797D01*
X142305Y192751D01*
X141837Y192525D01*
X141761Y192467D01*
X141683Y192409D01*
X141681Y192407D01*
X141679Y192405D01*
X141668Y192385D01*
X141594Y192269D01*
X141393Y191790D01*
X141385Y191751D01*
X141368Y191715D01*
X141363Y191639D01*
X141354Y191595D01*
X141358Y191575D01*
X141356Y191549D01*
X141401Y191080D01*
X141414Y191038D01*
X141417Y190994D01*
X141443Y190944D01*
X141459Y190890D01*
X141488Y190856D01*
X141508Y190817D01*
X141551Y190781D01*
X141587Y190738D01*
X141626Y190718D01*
X141660Y190689D01*
X141726Y190667D01*
X141728Y190666D01*
X141497Y190442D01*
X141487Y190428D01*
X141473Y190417D01*
X141431Y190346D01*
X141384Y190278D01*
X141381Y190261D01*
X141372Y190246D01*
X141346Y190092D01*
X141345Y190084D01*
X141345Y190083D01*
X141345Y190082D01*
X141350Y188500D01*
X141358Y188461D01*
X141360Y188400D01*
X141467Y187887D01*
X141496Y187819D01*
X141518Y187749D01*
X141537Y187725D01*
X141546Y187704D01*
X141577Y187674D01*
X141622Y187618D01*
X142001Y187276D01*
X142049Y187247D01*
X142092Y187210D01*
X142141Y187193D01*
X142172Y187175D01*
X142205Y187170D01*
X142249Y187155D01*
X142767Y187064D01*
X142803Y187065D01*
X142853Y187057D01*
X146543Y187058D01*
G37*
G36*
X135154Y187045D02*
X135154Y187045D01*
X135172Y187042D01*
X135326Y187079D01*
X135332Y187081D01*
X135333Y187081D01*
X135787Y187275D01*
X135790Y187277D01*
X135794Y187278D01*
X135933Y187370D01*
X137405Y188752D01*
X137690Y188855D01*
X137877Y188855D01*
X137877Y188006D01*
X137883Y187977D01*
X137882Y187938D01*
X137946Y187472D01*
X137971Y187401D01*
X137989Y187328D01*
X138004Y187308D01*
X138012Y187285D01*
X138063Y187229D01*
X138108Y187169D01*
X138129Y187156D01*
X138146Y187138D01*
X138215Y187106D01*
X138279Y187068D01*
X138307Y187064D01*
X138327Y187055D01*
X138371Y187053D01*
X138443Y187041D01*
X138974Y187044D01*
X138987Y187047D01*
X139004Y187045D01*
X139504Y187077D01*
X139593Y187102D01*
X139682Y187123D01*
X139689Y187127D01*
X139696Y187129D01*
X139769Y187186D01*
X139842Y187241D01*
X139846Y187248D01*
X139852Y187252D01*
X139897Y187333D01*
X139944Y187412D01*
X139945Y187420D01*
X139948Y187426D01*
X139952Y187463D01*
X139971Y187576D01*
X139968Y192347D01*
X139966Y192355D01*
X139967Y192363D01*
X139946Y192452D01*
X139928Y192542D01*
X139923Y192548D01*
X139921Y192556D01*
X139867Y192630D01*
X139815Y192705D01*
X139808Y192710D01*
X139803Y192716D01*
X139725Y192763D01*
X139648Y192812D01*
X139639Y192814D01*
X139632Y192818D01*
X139468Y192846D01*
X136816Y192846D01*
X136815Y192845D01*
X136814Y192846D01*
X135196Y192840D01*
X135152Y192831D01*
X135068Y192822D01*
X134552Y192683D01*
X134490Y192653D01*
X134425Y192630D01*
X134398Y192607D01*
X134374Y192594D01*
X134347Y192563D01*
X134299Y192522D01*
X133960Y192118D01*
X133930Y192062D01*
X133892Y192012D01*
X133881Y191971D01*
X133865Y191943D01*
X133862Y191905D01*
X133847Y191852D01*
X133788Y191319D01*
X133789Y191307D01*
X133785Y191295D01*
X133803Y191130D01*
X133855Y190944D01*
X133829Y190909D01*
X133823Y190884D01*
X133811Y190863D01*
X133793Y190751D01*
X133785Y190715D01*
X133786Y190708D01*
X133784Y190699D01*
X133789Y190168D01*
X133818Y190004D01*
X133994Y189512D01*
X134038Y189440D01*
X134078Y189364D01*
X134090Y189353D01*
X134097Y189342D01*
X134133Y189316D01*
X134203Y189255D01*
X134648Y188982D01*
X134675Y188972D01*
X134698Y188955D01*
X134715Y188951D01*
X133649Y188077D01*
X133589Y188003D01*
X133528Y187931D01*
X133526Y187926D01*
X133523Y187922D01*
X133497Y187831D01*
X133469Y187741D01*
X133469Y187736D01*
X133468Y187731D01*
X133479Y187638D01*
X133489Y187543D01*
X133491Y187538D01*
X133491Y187534D01*
X133506Y187509D01*
X133564Y187394D01*
X133674Y187244D01*
X133711Y187211D01*
X133741Y187170D01*
X133784Y187145D01*
X133822Y187111D01*
X133869Y187094D01*
X133912Y187069D01*
X133971Y187059D01*
X134009Y187046D01*
X134038Y187047D01*
X134076Y187041D01*
X135137Y187041D01*
X135154Y187045D01*
G37*
%LPC*%
G36*
X181684Y202550D02*
X181684Y202550D01*
X181684Y203538D01*
X181684Y203542D01*
X181684Y203545D01*
X181683Y203550D01*
X181684Y203559D01*
X181667Y203966D01*
X181684Y204067D01*
X181684Y207598D01*
X183538Y207598D01*
X183582Y207607D01*
X183670Y207616D01*
X183964Y207697D01*
X184211Y207620D01*
X184249Y207617D01*
X184359Y207598D01*
X188019Y207598D01*
X188019Y202550D01*
X181684Y202550D01*
G37*
%LPD*%
G36*
X154453Y187049D02*
X154453Y187049D01*
X154461Y187048D01*
X154549Y187069D01*
X154639Y187087D01*
X154646Y187092D01*
X154654Y187094D01*
X154727Y187148D01*
X154803Y187200D01*
X154808Y187207D01*
X154814Y187212D01*
X154861Y187290D01*
X154910Y187367D01*
X154912Y187376D01*
X154916Y187383D01*
X154944Y187547D01*
X154944Y192273D01*
X154930Y192341D01*
X154924Y192410D01*
X154910Y192437D01*
X154904Y192468D01*
X154865Y192525D01*
X154833Y192586D01*
X154809Y192606D01*
X154791Y192632D01*
X154733Y192669D01*
X154680Y192713D01*
X154646Y192724D01*
X154624Y192739D01*
X154583Y192746D01*
X154522Y192766D01*
X154069Y192838D01*
X154036Y192836D01*
X153991Y192844D01*
X149790Y192844D01*
X149762Y192838D01*
X149734Y192841D01*
X149666Y192818D01*
X149595Y192804D01*
X149572Y192788D01*
X149545Y192779D01*
X149466Y192715D01*
X149431Y192692D01*
X149426Y192683D01*
X149415Y192675D01*
X149170Y192395D01*
X149121Y192312D01*
X149073Y192229D01*
X149072Y192226D01*
X149070Y192223D01*
X149068Y192200D01*
X149045Y192065D01*
X149045Y191540D01*
X149045Y191539D01*
X149045Y191538D01*
X149046Y191531D01*
X149045Y191524D01*
X149065Y191440D01*
X149084Y191345D01*
X149085Y191344D01*
X149090Y191337D01*
X149091Y191331D01*
X149138Y191268D01*
X149139Y191266D01*
X149197Y191181D01*
X149198Y191181D01*
X149198Y191180D01*
X149206Y191175D01*
X149209Y191171D01*
X149270Y191134D01*
X149280Y191129D01*
X149365Y191074D01*
X149366Y191074D01*
X149376Y191072D01*
X149380Y191069D01*
X149431Y191061D01*
X149530Y191041D01*
X150040Y191026D01*
X150046Y191028D01*
X150054Y191026D01*
X152830Y191026D01*
X152830Y190956D01*
X151371Y190956D01*
X151353Y190952D01*
X151335Y190955D01*
X151256Y190933D01*
X151176Y190916D01*
X151161Y190906D01*
X151143Y190901D01*
X151023Y190812D01*
X151012Y190804D01*
X151011Y190803D01*
X151010Y190801D01*
X150753Y190533D01*
X150750Y190527D01*
X150744Y190523D01*
X150697Y190443D01*
X150647Y190365D01*
X150646Y190358D01*
X150643Y190352D01*
X150615Y190188D01*
X150615Y189663D01*
X150634Y189570D01*
X150652Y189476D01*
X150654Y189473D01*
X150655Y189468D01*
X150709Y189390D01*
X150761Y189310D01*
X150765Y189308D01*
X150767Y189304D01*
X150847Y189253D01*
X150927Y189200D01*
X150932Y189199D01*
X150935Y189197D01*
X150962Y189193D01*
X151089Y189164D01*
X151589Y189139D01*
X151600Y189141D01*
X151614Y189138D01*
X152830Y189138D01*
X152830Y188947D01*
X149932Y188947D01*
X149896Y188940D01*
X149843Y188939D01*
X149399Y188858D01*
X149340Y188835D01*
X149278Y188820D01*
X149248Y188798D01*
X149214Y188784D01*
X149169Y188740D01*
X149118Y188702D01*
X149099Y188670D01*
X149073Y188644D01*
X149049Y188585D01*
X149017Y188531D01*
X149010Y188489D01*
X148998Y188460D01*
X148998Y188422D01*
X148989Y188367D01*
X148989Y187842D01*
X149005Y187762D01*
X149016Y187681D01*
X149025Y187663D01*
X149028Y187647D01*
X149054Y187610D01*
X149095Y187534D01*
X149325Y187240D01*
X149358Y187212D01*
X149383Y187177D01*
X149433Y187148D01*
X149476Y187110D01*
X149517Y187097D01*
X149554Y187075D01*
X149624Y187064D01*
X149666Y187051D01*
X149689Y187053D01*
X149718Y187048D01*
X154444Y187048D01*
X154453Y187049D01*
G37*
G36*
X163556Y187066D02*
X163556Y187066D01*
X163645Y187081D01*
X163654Y187086D01*
X163662Y187087D01*
X163694Y187109D01*
X163789Y187165D01*
X166845Y189740D01*
X166844Y187602D01*
X166860Y187524D01*
X166869Y187446D01*
X166879Y187428D01*
X166884Y187407D01*
X166928Y187342D01*
X166968Y187273D01*
X166984Y187260D01*
X166996Y187243D01*
X167063Y187201D01*
X167126Y187152D01*
X167148Y187146D01*
X167163Y187136D01*
X167208Y187129D01*
X167286Y187106D01*
X167760Y187051D01*
X167785Y187053D01*
X167817Y187048D01*
X168347Y187048D01*
X168355Y187049D01*
X168363Y187048D01*
X168452Y187069D01*
X168541Y187087D01*
X168548Y187092D01*
X168557Y187094D01*
X168630Y187148D01*
X168705Y187200D01*
X168710Y187207D01*
X168717Y187212D01*
X168763Y187290D01*
X168812Y187367D01*
X168814Y187376D01*
X168818Y187383D01*
X168846Y187547D01*
X168846Y192309D01*
X168828Y192398D01*
X168813Y192487D01*
X168808Y192495D01*
X168806Y192504D01*
X168755Y192578D01*
X168707Y192655D01*
X168699Y192660D01*
X168694Y192668D01*
X168618Y192717D01*
X168544Y192768D01*
X168533Y192771D01*
X168526Y192775D01*
X168487Y192782D01*
X168382Y192807D01*
X167888Y192842D01*
X167868Y192840D01*
X167849Y192844D01*
X167712Y192820D01*
X167691Y192817D01*
X167688Y192815D01*
X167685Y192815D01*
X167216Y192648D01*
X167212Y192645D01*
X167207Y192644D01*
X167064Y192560D01*
X164205Y190167D01*
X164205Y192031D01*
X164191Y192097D01*
X164187Y192164D01*
X164171Y192198D01*
X164165Y192226D01*
X164154Y192242D01*
X164152Y192250D01*
X164137Y192271D01*
X164117Y192314D01*
X163901Y192628D01*
X163859Y192668D01*
X163825Y192715D01*
X163788Y192736D01*
X163758Y192766D01*
X163703Y192786D01*
X163654Y192816D01*
X163605Y192824D01*
X163572Y192837D01*
X163537Y192836D01*
X163490Y192844D01*
X162960Y192844D01*
X162942Y192840D01*
X162924Y192842D01*
X162846Y192820D01*
X162766Y192804D01*
X162750Y192794D01*
X162733Y192789D01*
X162613Y192700D01*
X162602Y192692D01*
X162601Y192690D01*
X162599Y192689D01*
X162341Y192418D01*
X162337Y192413D01*
X162332Y192409D01*
X162285Y192329D01*
X162235Y192250D01*
X162234Y192243D01*
X162231Y192238D01*
X162203Y192074D01*
X162203Y187840D01*
X162220Y187757D01*
X162232Y187673D01*
X162240Y187659D01*
X162242Y187646D01*
X162267Y187609D01*
X162313Y187528D01*
X162549Y187234D01*
X162579Y187209D01*
X162603Y187177D01*
X162655Y187146D01*
X162702Y187107D01*
X162740Y187096D01*
X162774Y187075D01*
X162849Y187063D01*
X162892Y187050D01*
X162912Y187052D01*
X162938Y187048D01*
X163467Y187048D01*
X163556Y187066D01*
G37*
G36*
X107318Y187049D02*
X107318Y187049D01*
X107326Y187048D01*
X107415Y187069D01*
X107505Y187087D01*
X107512Y187092D01*
X107520Y187094D01*
X107593Y187148D01*
X107668Y187200D01*
X107673Y187207D01*
X107680Y187212D01*
X107726Y187290D01*
X107776Y187367D01*
X107777Y187376D01*
X107781Y187383D01*
X107809Y187547D01*
X107809Y192309D01*
X107791Y192397D01*
X107777Y192485D01*
X107771Y192494D01*
X107769Y192504D01*
X107718Y192578D01*
X107671Y192654D01*
X107662Y192659D01*
X107657Y192668D01*
X107581Y192716D01*
X107507Y192767D01*
X107497Y192770D01*
X107489Y192775D01*
X107450Y192781D01*
X107346Y192807D01*
X106852Y192842D01*
X106833Y192840D01*
X106813Y192844D01*
X106677Y192820D01*
X106655Y192817D01*
X106653Y192816D01*
X106649Y192815D01*
X106181Y192648D01*
X106176Y192646D01*
X106171Y192645D01*
X106027Y192561D01*
X103168Y190166D01*
X103168Y192031D01*
X103155Y192097D01*
X103150Y192163D01*
X103134Y192198D01*
X103128Y192226D01*
X103117Y192242D01*
X103115Y192250D01*
X103100Y192271D01*
X103080Y192314D01*
X102864Y192627D01*
X102822Y192668D01*
X102788Y192715D01*
X102752Y192736D01*
X102721Y192766D01*
X102667Y192786D01*
X102617Y192816D01*
X102568Y192824D01*
X102536Y192837D01*
X102501Y192836D01*
X102453Y192844D01*
X101924Y192844D01*
X101906Y192840D01*
X101888Y192842D01*
X101809Y192820D01*
X101729Y192804D01*
X101714Y192794D01*
X101697Y192789D01*
X101575Y192698D01*
X101565Y192692D01*
X101564Y192691D01*
X101563Y192690D01*
X101304Y192419D01*
X101301Y192413D01*
X101295Y192409D01*
X101248Y192330D01*
X101198Y192251D01*
X101197Y192244D01*
X101194Y192238D01*
X101166Y192074D01*
X101166Y187841D01*
X101183Y187759D01*
X101194Y187676D01*
X101203Y187660D01*
X101206Y187647D01*
X101231Y187610D01*
X101275Y187530D01*
X101510Y187236D01*
X101541Y187209D01*
X101565Y187177D01*
X101616Y187146D01*
X101662Y187108D01*
X101701Y187096D01*
X101736Y187075D01*
X101810Y187063D01*
X101852Y187050D01*
X101874Y187052D01*
X101901Y187048D01*
X102429Y187048D01*
X102518Y187066D01*
X102607Y187081D01*
X102616Y187086D01*
X102624Y187088D01*
X102656Y187110D01*
X102751Y187166D01*
X105808Y189742D01*
X105807Y187602D01*
X105823Y187524D01*
X105832Y187445D01*
X105842Y187427D01*
X105847Y187407D01*
X105892Y187341D01*
X105931Y187273D01*
X105947Y187260D01*
X105959Y187243D01*
X106026Y187200D01*
X106089Y187152D01*
X106111Y187146D01*
X106127Y187136D01*
X106171Y187129D01*
X106249Y187106D01*
X106723Y187051D01*
X106748Y187053D01*
X106781Y187048D01*
X107310Y187048D01*
X107318Y187049D01*
G37*
G36*
X127555Y187065D02*
X127555Y187065D01*
X127648Y187083D01*
X127652Y187085D01*
X127656Y187086D01*
X127679Y187102D01*
X127789Y187170D01*
X128141Y187476D01*
X128143Y187479D01*
X128146Y187481D01*
X128250Y187611D01*
X128455Y187983D01*
X128605Y188095D01*
X130901Y188095D01*
X131037Y187965D01*
X131252Y187566D01*
X131276Y187537D01*
X131292Y187503D01*
X131350Y187447D01*
X131379Y187413D01*
X131395Y187404D01*
X131412Y187388D01*
X131791Y187132D01*
X131851Y187107D01*
X131907Y187074D01*
X131947Y187067D01*
X131975Y187056D01*
X132014Y187056D01*
X132071Y187046D01*
X132603Y187046D01*
X132678Y187062D01*
X132755Y187070D01*
X132778Y187082D01*
X132798Y187086D01*
X132835Y187111D01*
X132903Y187146D01*
X133136Y187321D01*
X133187Y187378D01*
X133242Y187430D01*
X133252Y187452D01*
X133268Y187469D01*
X133292Y187542D01*
X133323Y187612D01*
X133324Y187635D01*
X133332Y187658D01*
X133326Y187734D01*
X133327Y187810D01*
X133318Y187835D01*
X133317Y187856D01*
X133296Y187896D01*
X133270Y187967D01*
X130646Y192593D01*
X130599Y192646D01*
X130559Y192705D01*
X130552Y192710D01*
X130547Y192716D01*
X130529Y192727D01*
X130515Y192743D01*
X130451Y192774D01*
X130391Y192812D01*
X130383Y192814D01*
X130376Y192818D01*
X130353Y192822D01*
X130336Y192830D01*
X130292Y192832D01*
X130212Y192846D01*
X129148Y192846D01*
X129071Y192830D01*
X128994Y192821D01*
X128975Y192810D01*
X128953Y192806D01*
X128889Y192762D01*
X128821Y192724D01*
X128805Y192705D01*
X128789Y192694D01*
X128765Y192656D01*
X128715Y192596D01*
X127389Y190293D01*
X127373Y190246D01*
X127348Y190203D01*
X127345Y190181D01*
X127333Y190165D01*
X127300Y190135D01*
X127292Y190115D01*
X127274Y190094D01*
X125963Y187793D01*
X125951Y187757D01*
X125931Y187725D01*
X125920Y187664D01*
X125901Y187604D01*
X125904Y187566D01*
X125897Y187529D01*
X125912Y187468D01*
X125917Y187406D01*
X125935Y187372D01*
X125943Y187336D01*
X125981Y187285D01*
X126010Y187230D01*
X126039Y187206D01*
X126061Y187176D01*
X126115Y187144D01*
X126164Y187104D01*
X126200Y187093D01*
X126232Y187074D01*
X126311Y187061D01*
X126354Y187048D01*
X126373Y187050D01*
X126396Y187046D01*
X127461Y187046D01*
X127555Y187065D01*
G37*
G36*
X158936Y187065D02*
X158936Y187065D01*
X159022Y187078D01*
X159034Y187085D01*
X159045Y187087D01*
X159080Y187111D01*
X159167Y187161D01*
X159458Y187399D01*
X159481Y187428D01*
X159511Y187450D01*
X159543Y187504D01*
X159583Y187554D01*
X159594Y187589D01*
X159613Y187621D01*
X159626Y187701D01*
X159639Y187745D01*
X159637Y187762D01*
X159641Y187785D01*
X159646Y190989D01*
X161266Y190989D01*
X161330Y191002D01*
X161396Y191006D01*
X161427Y191022D01*
X161461Y191028D01*
X161515Y191066D01*
X161574Y191095D01*
X161596Y191121D01*
X161625Y191141D01*
X161660Y191196D01*
X161703Y191246D01*
X161716Y191284D01*
X161732Y191309D01*
X161738Y191348D01*
X161758Y191403D01*
X161836Y191855D01*
X161835Y191889D01*
X161843Y191922D01*
X161832Y192009D01*
X161830Y192053D01*
X161824Y192068D01*
X161821Y192087D01*
X161696Y192492D01*
X161680Y192522D01*
X161672Y192554D01*
X161633Y192608D01*
X161601Y192666D01*
X161574Y192687D01*
X161554Y192715D01*
X161497Y192748D01*
X161445Y192790D01*
X161412Y192799D01*
X161383Y192816D01*
X161296Y192831D01*
X161253Y192843D01*
X161238Y192841D01*
X161219Y192844D01*
X155922Y192844D01*
X155878Y192835D01*
X155833Y192836D01*
X155782Y192815D01*
X155727Y192804D01*
X155690Y192779D01*
X155649Y192762D01*
X155609Y192723D01*
X155563Y192692D01*
X155539Y192654D01*
X155507Y192623D01*
X155479Y192560D01*
X155456Y192524D01*
X155452Y192500D01*
X155439Y192471D01*
X155329Y192051D01*
X155327Y192018D01*
X155316Y191987D01*
X155320Y191897D01*
X155318Y191853D01*
X155323Y191839D01*
X155323Y191821D01*
X155416Y191384D01*
X155439Y191333D01*
X155452Y191278D01*
X155478Y191242D01*
X155496Y191202D01*
X155536Y191163D01*
X155570Y191118D01*
X155608Y191095D01*
X155640Y191065D01*
X155692Y191045D01*
X155741Y191017D01*
X155792Y191008D01*
X155826Y190995D01*
X155860Y190997D01*
X155905Y190989D01*
X157524Y190989D01*
X157524Y187780D01*
X157533Y187738D01*
X157532Y187696D01*
X157552Y187642D01*
X157564Y187585D01*
X157588Y187550D01*
X157604Y187510D01*
X157652Y187457D01*
X157677Y187421D01*
X157696Y187409D01*
X157715Y187387D01*
X158012Y187154D01*
X158086Y187117D01*
X158156Y187075D01*
X158176Y187072D01*
X158190Y187065D01*
X158235Y187062D01*
X158320Y187048D01*
X158850Y187048D01*
X158936Y187065D01*
G37*
G36*
X123526Y187065D02*
X123526Y187065D01*
X123613Y187078D01*
X123625Y187085D01*
X123636Y187087D01*
X123671Y187111D01*
X123757Y187161D01*
X124049Y187399D01*
X124072Y187428D01*
X124102Y187450D01*
X124134Y187505D01*
X124174Y187554D01*
X124184Y187589D01*
X124203Y187621D01*
X124217Y187701D01*
X124230Y187745D01*
X124228Y187762D01*
X124231Y187785D01*
X124236Y190989D01*
X125857Y190989D01*
X125921Y191002D01*
X125986Y191006D01*
X126018Y191022D01*
X126052Y191028D01*
X126106Y191066D01*
X126164Y191095D01*
X126187Y191121D01*
X126216Y191141D01*
X126251Y191196D01*
X126293Y191246D01*
X126307Y191284D01*
X126323Y191309D01*
X126329Y191348D01*
X126349Y191403D01*
X126427Y191855D01*
X126426Y191889D01*
X126434Y191922D01*
X126422Y192009D01*
X126421Y192053D01*
X126414Y192068D01*
X126412Y192087D01*
X126287Y192492D01*
X126271Y192522D01*
X126263Y192554D01*
X126223Y192608D01*
X126191Y192666D01*
X126165Y192687D01*
X126145Y192715D01*
X126088Y192748D01*
X126036Y192790D01*
X126003Y192799D01*
X125974Y192816D01*
X125887Y192831D01*
X125844Y192843D01*
X125829Y192841D01*
X125810Y192844D01*
X120512Y192844D01*
X120469Y192835D01*
X120424Y192836D01*
X120372Y192815D01*
X120317Y192804D01*
X120281Y192779D01*
X120239Y192762D01*
X120200Y192723D01*
X120154Y192692D01*
X120130Y192654D01*
X120098Y192623D01*
X120070Y192560D01*
X120047Y192524D01*
X120042Y192500D01*
X120029Y192471D01*
X119919Y192051D01*
X119918Y192018D01*
X119907Y191987D01*
X119911Y191897D01*
X119908Y191853D01*
X119913Y191839D01*
X119914Y191821D01*
X120007Y191384D01*
X120030Y191333D01*
X120043Y191278D01*
X120069Y191242D01*
X120087Y191202D01*
X120127Y191163D01*
X120160Y191118D01*
X120199Y191095D01*
X120231Y191065D01*
X120283Y191045D01*
X120331Y191017D01*
X120383Y191008D01*
X120417Y190995D01*
X120450Y190997D01*
X120495Y190989D01*
X122115Y190989D01*
X122115Y187780D01*
X122124Y187738D01*
X122122Y187696D01*
X122143Y187642D01*
X122155Y187585D01*
X122179Y187550D01*
X122194Y187510D01*
X122242Y187457D01*
X122267Y187421D01*
X122287Y187409D01*
X122306Y187387D01*
X122603Y187154D01*
X122676Y187117D01*
X122747Y187075D01*
X122767Y187072D01*
X122781Y187065D01*
X122826Y187062D01*
X122911Y187048D01*
X123441Y187048D01*
X123526Y187065D01*
G37*
G36*
X171916Y187049D02*
X171916Y187049D01*
X171924Y187048D01*
X172012Y187069D01*
X172102Y187087D01*
X172109Y187092D01*
X172117Y187094D01*
X172191Y187148D01*
X172266Y187200D01*
X172271Y187207D01*
X172277Y187212D01*
X172324Y187290D01*
X172373Y187367D01*
X172375Y187376D01*
X172379Y187383D01*
X172407Y187547D01*
X172407Y191847D01*
X172403Y191865D01*
X172405Y191888D01*
X172365Y192385D01*
X172340Y192469D01*
X172320Y192554D01*
X172313Y192564D01*
X172309Y192576D01*
X172254Y192644D01*
X172202Y192715D01*
X172192Y192721D01*
X172184Y192730D01*
X172106Y192771D01*
X172031Y192816D01*
X172018Y192818D01*
X172008Y192823D01*
X171966Y192827D01*
X171867Y192844D01*
X170792Y192844D01*
X170784Y192842D01*
X170775Y192843D01*
X170687Y192822D01*
X170597Y192804D01*
X170590Y192799D01*
X170582Y192797D01*
X170509Y192743D01*
X170433Y192692D01*
X170429Y192685D01*
X170422Y192680D01*
X170375Y192601D01*
X170326Y192524D01*
X170325Y192516D01*
X170320Y192509D01*
X170293Y192344D01*
X170293Y188044D01*
X170294Y188037D01*
X170293Y188030D01*
X170296Y188019D01*
X170294Y188004D01*
X170335Y187507D01*
X170359Y187422D01*
X170379Y187337D01*
X170387Y187327D01*
X170390Y187316D01*
X170445Y187247D01*
X170497Y187177D01*
X170508Y187171D01*
X170515Y187161D01*
X170593Y187120D01*
X170668Y187075D01*
X170681Y187073D01*
X170691Y187068D01*
X170733Y187064D01*
X170832Y187048D01*
X171907Y187048D01*
X171916Y187049D01*
G37*
G36*
X119043Y187049D02*
X119043Y187049D01*
X119052Y187048D01*
X119140Y187069D01*
X119230Y187087D01*
X119237Y187092D01*
X119245Y187094D01*
X119318Y187148D01*
X119394Y187200D01*
X119398Y187207D01*
X119405Y187212D01*
X119452Y187290D01*
X119501Y187367D01*
X119502Y187376D01*
X119507Y187383D01*
X119534Y187547D01*
X119534Y191847D01*
X119531Y191865D01*
X119533Y191888D01*
X119492Y192385D01*
X119468Y192469D01*
X119448Y192554D01*
X119440Y192564D01*
X119437Y192576D01*
X119382Y192644D01*
X119330Y192715D01*
X119319Y192721D01*
X119312Y192730D01*
X119234Y192771D01*
X119159Y192816D01*
X119146Y192818D01*
X119136Y192823D01*
X119094Y192827D01*
X118995Y192844D01*
X117920Y192844D01*
X117911Y192842D01*
X117903Y192843D01*
X117815Y192822D01*
X117725Y192804D01*
X117718Y192799D01*
X117710Y192797D01*
X117636Y192743D01*
X117561Y192692D01*
X117556Y192685D01*
X117550Y192680D01*
X117503Y192601D01*
X117454Y192524D01*
X117452Y192516D01*
X117448Y192509D01*
X117420Y192344D01*
X117420Y188044D01*
X117422Y188037D01*
X117421Y188030D01*
X117423Y188019D01*
X117422Y188004D01*
X117462Y187507D01*
X117487Y187422D01*
X117507Y187337D01*
X117514Y187327D01*
X117518Y187316D01*
X117573Y187247D01*
X117625Y187177D01*
X117635Y187171D01*
X117643Y187161D01*
X117721Y187120D01*
X117796Y187075D01*
X117809Y187073D01*
X117819Y187068D01*
X117861Y187065D01*
X117960Y187048D01*
X119035Y187048D01*
X119043Y187049D01*
G37*
%LPC*%
G36*
X112326Y188948D02*
X112326Y188948D01*
X112310Y188946D01*
X112290Y188949D01*
X111265Y188949D01*
X111265Y190984D01*
X112586Y190984D01*
X112658Y190999D01*
X112711Y191004D01*
X112784Y190991D01*
X113951Y190986D01*
X113951Y188957D01*
X112894Y188949D01*
X112854Y188941D01*
X112813Y188942D01*
X112758Y188921D01*
X112745Y188918D01*
X112326Y188948D01*
G37*
%LPD*%
%LPC*%
G36*
X152163Y204566D02*
X152163Y204566D01*
X152441Y205090D01*
X152454Y205133D01*
X152485Y205204D01*
X152562Y205515D01*
X152694Y205633D01*
X152697Y205637D01*
X152702Y205640D01*
X152803Y205772D01*
X153401Y206900D01*
X154180Y205480D01*
X154198Y205459D01*
X154209Y205427D01*
X154680Y204566D01*
X152163Y204566D01*
G37*
%LPD*%
%LPC*%
G36*
X143447Y188954D02*
X143447Y188954D01*
X143438Y188954D01*
X143439Y189026D01*
X144527Y189026D01*
X144571Y189035D01*
X144616Y189034D01*
X144667Y189055D01*
X144722Y189066D01*
X144759Y189092D01*
X144801Y189108D01*
X144850Y189154D01*
X144886Y189179D01*
X144899Y189199D01*
X144904Y189204D01*
X144907Y189206D01*
X144908Y189208D01*
X144923Y189221D01*
X145152Y189519D01*
X145188Y189594D01*
X145230Y189667D01*
X145233Y189685D01*
X145239Y189698D01*
X145242Y189742D01*
X145255Y189832D01*
X145247Y190350D01*
X145246Y190355D01*
X145247Y190359D01*
X145225Y190451D01*
X145204Y190545D01*
X145202Y190548D01*
X145201Y190552D01*
X145145Y190628D01*
X145089Y190707D01*
X145085Y190709D01*
X145083Y190713D01*
X145001Y190761D01*
X144920Y190811D01*
X144915Y190812D01*
X144912Y190814D01*
X144748Y190842D01*
X143398Y190842D01*
X143401Y190856D01*
X143415Y190897D01*
X143413Y190919D01*
X143419Y190948D01*
X143420Y190989D01*
X145911Y190989D01*
X145911Y188954D01*
X143447Y188954D01*
G37*
%LPD*%
%LPC*%
G36*
X135913Y190676D02*
X135913Y190676D01*
X135812Y190754D01*
X135815Y190762D01*
X135848Y190836D01*
X135891Y191005D01*
X136051Y191025D01*
X136559Y191025D01*
X136583Y191030D01*
X136607Y191028D01*
X136679Y191050D01*
X136754Y191065D01*
X136774Y191079D01*
X136797Y191086D01*
X136808Y191095D01*
X136824Y191082D01*
X136859Y191072D01*
X136891Y191053D01*
X136971Y191039D01*
X137015Y191027D01*
X137033Y191029D01*
X137055Y191025D01*
X137877Y191025D01*
X137877Y190676D01*
X137855Y190675D01*
X135913Y190676D01*
G37*
%LPD*%
%LPC*%
G36*
X129516Y189962D02*
X129516Y189962D01*
X129748Y190399D01*
X129759Y190387D01*
X129789Y190371D01*
X129806Y190356D01*
X129877Y190114D01*
X129897Y190076D01*
X129918Y190014D01*
X129947Y189962D01*
X129516Y189962D01*
G37*
%LPD*%
D10*
X284965Y91235D02*
X284965Y102665D01*
X281790Y102665D01*
X281679Y102663D01*
X281569Y102657D01*
X281458Y102648D01*
X281348Y102634D01*
X281239Y102617D01*
X281130Y102596D01*
X281022Y102571D01*
X280915Y102542D01*
X280809Y102510D01*
X280704Y102474D01*
X280601Y102434D01*
X280499Y102391D01*
X280398Y102344D01*
X280299Y102293D01*
X280203Y102240D01*
X280108Y102183D01*
X280015Y102122D01*
X279924Y102059D01*
X279835Y101992D01*
X279749Y101922D01*
X279666Y101849D01*
X279584Y101774D01*
X279506Y101696D01*
X279431Y101614D01*
X279358Y101531D01*
X279288Y101445D01*
X279221Y101356D01*
X279158Y101265D01*
X279097Y101172D01*
X279040Y101078D01*
X278987Y100981D01*
X278936Y100882D01*
X278889Y100781D01*
X278846Y100679D01*
X278806Y100576D01*
X278770Y100471D01*
X278738Y100365D01*
X278709Y100258D01*
X278684Y100150D01*
X278663Y100041D01*
X278646Y99932D01*
X278632Y99822D01*
X278623Y99711D01*
X278617Y99601D01*
X278615Y99490D01*
X278617Y99379D01*
X278623Y99269D01*
X278632Y99158D01*
X278646Y99048D01*
X278663Y98939D01*
X278684Y98830D01*
X278709Y98722D01*
X278738Y98615D01*
X278770Y98509D01*
X278806Y98404D01*
X278846Y98301D01*
X278889Y98199D01*
X278936Y98098D01*
X278987Y97999D01*
X279040Y97902D01*
X279097Y97808D01*
X279158Y97715D01*
X279221Y97624D01*
X279288Y97535D01*
X279358Y97449D01*
X279431Y97366D01*
X279506Y97284D01*
X279584Y97206D01*
X279666Y97131D01*
X279749Y97058D01*
X279835Y96988D01*
X279924Y96921D01*
X280015Y96858D01*
X280108Y96797D01*
X280203Y96740D01*
X280299Y96687D01*
X280398Y96636D01*
X280499Y96589D01*
X280601Y96546D01*
X280704Y96506D01*
X280809Y96470D01*
X280915Y96438D01*
X281022Y96409D01*
X281130Y96384D01*
X281239Y96363D01*
X281348Y96346D01*
X281458Y96332D01*
X281569Y96323D01*
X281679Y96317D01*
X281790Y96315D01*
X284965Y96315D01*
X281155Y96315D02*
X278615Y91235D01*
X271840Y91235D02*
X268665Y91235D01*
X271840Y91235D02*
X271925Y91237D01*
X272011Y91243D01*
X272096Y91252D01*
X272180Y91266D01*
X272264Y91283D01*
X272347Y91304D01*
X272429Y91328D01*
X272509Y91356D01*
X272589Y91388D01*
X272667Y91424D01*
X272743Y91462D01*
X272817Y91505D01*
X272889Y91550D01*
X272960Y91599D01*
X273028Y91651D01*
X273093Y91705D01*
X273156Y91763D01*
X273217Y91824D01*
X273275Y91887D01*
X273329Y91952D01*
X273381Y92020D01*
X273430Y92091D01*
X273475Y92163D01*
X273518Y92237D01*
X273556Y92313D01*
X273592Y92391D01*
X273624Y92471D01*
X273652Y92551D01*
X273676Y92633D01*
X273697Y92716D01*
X273714Y92800D01*
X273728Y92884D01*
X273737Y92969D01*
X273743Y93055D01*
X273745Y93140D01*
X273745Y96315D01*
X273743Y96415D01*
X273737Y96514D01*
X273727Y96614D01*
X273714Y96712D01*
X273696Y96811D01*
X273675Y96908D01*
X273650Y97004D01*
X273621Y97100D01*
X273588Y97194D01*
X273552Y97287D01*
X273512Y97378D01*
X273468Y97468D01*
X273421Y97556D01*
X273371Y97642D01*
X273317Y97726D01*
X273260Y97808D01*
X273200Y97887D01*
X273136Y97965D01*
X273070Y98039D01*
X273001Y98111D01*
X272929Y98180D01*
X272855Y98246D01*
X272777Y98310D01*
X272698Y98370D01*
X272616Y98427D01*
X272532Y98481D01*
X272446Y98531D01*
X272358Y98578D01*
X272268Y98622D01*
X272177Y98662D01*
X272084Y98698D01*
X271990Y98731D01*
X271894Y98760D01*
X271798Y98785D01*
X271701Y98806D01*
X271602Y98824D01*
X271504Y98837D01*
X271404Y98847D01*
X271305Y98853D01*
X271205Y98855D01*
X271105Y98853D01*
X271006Y98847D01*
X270906Y98837D01*
X270808Y98824D01*
X270709Y98806D01*
X270612Y98785D01*
X270516Y98760D01*
X270420Y98731D01*
X270326Y98698D01*
X270233Y98662D01*
X270142Y98622D01*
X270052Y98578D01*
X269964Y98531D01*
X269878Y98481D01*
X269794Y98427D01*
X269712Y98370D01*
X269633Y98310D01*
X269555Y98246D01*
X269481Y98180D01*
X269409Y98111D01*
X269340Y98039D01*
X269274Y97965D01*
X269210Y97887D01*
X269150Y97808D01*
X269093Y97726D01*
X269039Y97642D01*
X268989Y97556D01*
X268942Y97468D01*
X268898Y97378D01*
X268858Y97287D01*
X268822Y97194D01*
X268789Y97100D01*
X268760Y97004D01*
X268735Y96908D01*
X268714Y96811D01*
X268696Y96712D01*
X268683Y96614D01*
X268673Y96514D01*
X268667Y96415D01*
X268665Y96315D01*
X268665Y95045D01*
X273745Y95045D01*
X264220Y98855D02*
X261680Y91235D01*
X259140Y98855D01*
X243646Y97585D02*
X241741Y97585D01*
X241741Y91235D01*
X245551Y91235D01*
X245651Y91237D01*
X245750Y91243D01*
X245850Y91253D01*
X245948Y91266D01*
X246047Y91284D01*
X246144Y91305D01*
X246240Y91330D01*
X246336Y91359D01*
X246430Y91392D01*
X246523Y91428D01*
X246614Y91468D01*
X246704Y91512D01*
X246792Y91559D01*
X246878Y91609D01*
X246962Y91663D01*
X247044Y91720D01*
X247123Y91780D01*
X247201Y91844D01*
X247275Y91910D01*
X247347Y91979D01*
X247416Y92051D01*
X247482Y92125D01*
X247546Y92203D01*
X247606Y92282D01*
X247663Y92364D01*
X247717Y92448D01*
X247767Y92534D01*
X247814Y92622D01*
X247858Y92712D01*
X247898Y92803D01*
X247934Y92896D01*
X247967Y92990D01*
X247996Y93086D01*
X248021Y93182D01*
X248042Y93279D01*
X248060Y93378D01*
X248073Y93476D01*
X248083Y93576D01*
X248089Y93675D01*
X248091Y93775D01*
X248091Y100125D01*
X248089Y100225D01*
X248083Y100324D01*
X248073Y100424D01*
X248060Y100522D01*
X248042Y100621D01*
X248021Y100718D01*
X247996Y100814D01*
X247967Y100910D01*
X247934Y101004D01*
X247898Y101097D01*
X247858Y101188D01*
X247814Y101278D01*
X247767Y101366D01*
X247717Y101452D01*
X247663Y101536D01*
X247606Y101618D01*
X247546Y101697D01*
X247482Y101775D01*
X247416Y101849D01*
X247347Y101921D01*
X247275Y101990D01*
X247201Y102056D01*
X247123Y102120D01*
X247044Y102180D01*
X246962Y102237D01*
X246878Y102291D01*
X246792Y102341D01*
X246704Y102388D01*
X246614Y102432D01*
X246523Y102472D01*
X246430Y102508D01*
X246336Y102541D01*
X246240Y102570D01*
X246144Y102595D01*
X246047Y102616D01*
X245948Y102634D01*
X245850Y102647D01*
X245750Y102657D01*
X245651Y102663D01*
X245551Y102665D01*
X241741Y102665D01*
X281790Y110635D02*
X281790Y122065D01*
X284965Y122065D02*
X278615Y122065D01*
X273891Y122065D02*
X273891Y110635D01*
X268811Y110635D01*
X284965Y133170D02*
X284965Y138250D01*
X284963Y138361D01*
X284957Y138471D01*
X284948Y138582D01*
X284934Y138692D01*
X284917Y138801D01*
X284896Y138910D01*
X284871Y139018D01*
X284842Y139125D01*
X284810Y139231D01*
X284774Y139336D01*
X284734Y139439D01*
X284691Y139541D01*
X284644Y139642D01*
X284593Y139741D01*
X284540Y139838D01*
X284483Y139932D01*
X284422Y140025D01*
X284359Y140116D01*
X284292Y140205D01*
X284222Y140291D01*
X284149Y140374D01*
X284074Y140456D01*
X283996Y140534D01*
X283914Y140609D01*
X283831Y140682D01*
X283745Y140752D01*
X283656Y140819D01*
X283565Y140882D01*
X283472Y140943D01*
X283378Y141000D01*
X283281Y141053D01*
X283182Y141104D01*
X283081Y141151D01*
X282979Y141194D01*
X282876Y141234D01*
X282771Y141270D01*
X282665Y141302D01*
X282558Y141331D01*
X282450Y141356D01*
X282341Y141377D01*
X282232Y141394D01*
X282122Y141408D01*
X282011Y141417D01*
X281901Y141423D01*
X281790Y141425D01*
X281679Y141423D01*
X281569Y141417D01*
X281458Y141408D01*
X281348Y141394D01*
X281239Y141377D01*
X281130Y141356D01*
X281022Y141331D01*
X280915Y141302D01*
X280809Y141270D01*
X280704Y141234D01*
X280601Y141194D01*
X280499Y141151D01*
X280398Y141104D01*
X280299Y141053D01*
X280203Y141000D01*
X280108Y140943D01*
X280015Y140882D01*
X279924Y140819D01*
X279835Y140752D01*
X279749Y140682D01*
X279666Y140609D01*
X279584Y140534D01*
X279506Y140456D01*
X279431Y140374D01*
X279358Y140291D01*
X279288Y140205D01*
X279221Y140116D01*
X279158Y140025D01*
X279097Y139932D01*
X279040Y139838D01*
X278987Y139741D01*
X278936Y139642D01*
X278889Y139541D01*
X278846Y139439D01*
X278806Y139336D01*
X278770Y139231D01*
X278738Y139125D01*
X278709Y139018D01*
X278684Y138910D01*
X278663Y138801D01*
X278646Y138692D01*
X278632Y138582D01*
X278623Y138471D01*
X278617Y138361D01*
X278615Y138250D01*
X278615Y133170D01*
X278617Y133059D01*
X278623Y132949D01*
X278632Y132838D01*
X278646Y132728D01*
X278663Y132619D01*
X278684Y132510D01*
X278709Y132402D01*
X278738Y132295D01*
X278770Y132189D01*
X278806Y132084D01*
X278846Y131981D01*
X278889Y131879D01*
X278936Y131778D01*
X278987Y131679D01*
X279040Y131583D01*
X279097Y131488D01*
X279158Y131395D01*
X279221Y131304D01*
X279288Y131215D01*
X279358Y131129D01*
X279431Y131046D01*
X279506Y130964D01*
X279584Y130886D01*
X279666Y130811D01*
X279749Y130738D01*
X279835Y130668D01*
X279924Y130601D01*
X280015Y130538D01*
X280108Y130477D01*
X280203Y130420D01*
X280299Y130367D01*
X280398Y130316D01*
X280499Y130269D01*
X280601Y130226D01*
X280704Y130186D01*
X280809Y130150D01*
X280915Y130118D01*
X281022Y130089D01*
X281130Y130064D01*
X281239Y130043D01*
X281348Y130026D01*
X281458Y130012D01*
X281569Y130003D01*
X281679Y129997D01*
X281790Y129995D01*
X281901Y129997D01*
X282011Y130003D01*
X282122Y130012D01*
X282232Y130026D01*
X282341Y130043D01*
X282450Y130064D01*
X282558Y130089D01*
X282665Y130118D01*
X282771Y130150D01*
X282876Y130186D01*
X282979Y130226D01*
X283081Y130269D01*
X283182Y130316D01*
X283281Y130367D01*
X283377Y130420D01*
X283472Y130477D01*
X283565Y130538D01*
X283656Y130601D01*
X283745Y130668D01*
X283831Y130738D01*
X283914Y130811D01*
X283996Y130886D01*
X284074Y130964D01*
X284149Y131046D01*
X284222Y131129D01*
X284292Y131215D01*
X284359Y131304D01*
X284422Y131395D01*
X284483Y131488D01*
X284540Y131582D01*
X284593Y131679D01*
X284644Y131778D01*
X284691Y131879D01*
X284734Y131981D01*
X284774Y132084D01*
X284810Y132189D01*
X284842Y132295D01*
X284871Y132402D01*
X284896Y132510D01*
X284917Y132619D01*
X284934Y132728D01*
X284948Y132838D01*
X284957Y132949D01*
X284963Y133059D01*
X284965Y133170D01*
X279885Y132535D02*
X277345Y129995D01*
X273777Y134440D02*
X266157Y134440D01*
X260379Y129995D02*
X260379Y141425D01*
X257204Y141425D01*
X257093Y141423D01*
X256983Y141417D01*
X256872Y141408D01*
X256762Y141394D01*
X256653Y141377D01*
X256544Y141356D01*
X256436Y141331D01*
X256329Y141302D01*
X256223Y141270D01*
X256118Y141234D01*
X256015Y141194D01*
X255913Y141151D01*
X255812Y141104D01*
X255713Y141053D01*
X255617Y141000D01*
X255522Y140943D01*
X255429Y140882D01*
X255338Y140819D01*
X255249Y140752D01*
X255163Y140682D01*
X255080Y140609D01*
X254998Y140534D01*
X254920Y140456D01*
X254845Y140374D01*
X254772Y140291D01*
X254702Y140205D01*
X254635Y140116D01*
X254572Y140025D01*
X254511Y139932D01*
X254454Y139838D01*
X254401Y139741D01*
X254350Y139642D01*
X254303Y139541D01*
X254260Y139439D01*
X254220Y139336D01*
X254184Y139231D01*
X254152Y139125D01*
X254123Y139018D01*
X254098Y138910D01*
X254077Y138801D01*
X254060Y138692D01*
X254046Y138582D01*
X254037Y138471D01*
X254031Y138361D01*
X254029Y138250D01*
X254031Y138139D01*
X254037Y138029D01*
X254046Y137918D01*
X254060Y137808D01*
X254077Y137699D01*
X254098Y137590D01*
X254123Y137482D01*
X254152Y137375D01*
X254184Y137269D01*
X254220Y137164D01*
X254260Y137061D01*
X254303Y136959D01*
X254350Y136858D01*
X254401Y136759D01*
X254454Y136663D01*
X254511Y136568D01*
X254572Y136475D01*
X254635Y136384D01*
X254702Y136295D01*
X254772Y136209D01*
X254845Y136126D01*
X254920Y136044D01*
X254998Y135966D01*
X255080Y135891D01*
X255163Y135818D01*
X255249Y135748D01*
X255338Y135681D01*
X255429Y135618D01*
X255522Y135557D01*
X255617Y135500D01*
X255713Y135447D01*
X255812Y135396D01*
X255913Y135349D01*
X256015Y135306D01*
X256118Y135266D01*
X256223Y135230D01*
X256329Y135198D01*
X256436Y135169D01*
X256544Y135144D01*
X256653Y135123D01*
X256762Y135106D01*
X256872Y135092D01*
X256983Y135083D01*
X257093Y135077D01*
X257204Y135075D01*
X260379Y135075D01*
X247018Y129995D02*
X244478Y129995D01*
X247018Y129995D02*
X247118Y129997D01*
X247217Y130003D01*
X247317Y130013D01*
X247415Y130026D01*
X247514Y130044D01*
X247611Y130065D01*
X247707Y130090D01*
X247803Y130119D01*
X247897Y130152D01*
X247990Y130188D01*
X248081Y130228D01*
X248171Y130272D01*
X248259Y130319D01*
X248345Y130369D01*
X248429Y130423D01*
X248511Y130480D01*
X248590Y130540D01*
X248668Y130604D01*
X248742Y130670D01*
X248814Y130739D01*
X248883Y130811D01*
X248949Y130885D01*
X249013Y130963D01*
X249073Y131042D01*
X249130Y131124D01*
X249184Y131208D01*
X249234Y131294D01*
X249281Y131382D01*
X249325Y131472D01*
X249365Y131563D01*
X249401Y131656D01*
X249434Y131750D01*
X249463Y131846D01*
X249488Y131942D01*
X249509Y132039D01*
X249527Y132138D01*
X249540Y132236D01*
X249550Y132336D01*
X249556Y132435D01*
X249558Y132535D01*
X249558Y138885D01*
X249556Y138985D01*
X249550Y139084D01*
X249540Y139184D01*
X249527Y139282D01*
X249509Y139381D01*
X249488Y139478D01*
X249463Y139574D01*
X249434Y139670D01*
X249401Y139764D01*
X249365Y139857D01*
X249325Y139948D01*
X249281Y140038D01*
X249234Y140126D01*
X249184Y140212D01*
X249130Y140296D01*
X249073Y140378D01*
X249013Y140457D01*
X248949Y140535D01*
X248883Y140609D01*
X248814Y140681D01*
X248742Y140750D01*
X248668Y140816D01*
X248590Y140880D01*
X248511Y140940D01*
X248429Y140997D01*
X248345Y141051D01*
X248259Y141101D01*
X248171Y141148D01*
X248081Y141192D01*
X247990Y141232D01*
X247897Y141268D01*
X247803Y141301D01*
X247707Y141330D01*
X247611Y141355D01*
X247514Y141376D01*
X247415Y141394D01*
X247317Y141407D01*
X247217Y141417D01*
X247118Y141423D01*
X247018Y141425D01*
X244478Y141425D01*
X239424Y136345D02*
X236249Y136345D01*
X236138Y136343D01*
X236028Y136337D01*
X235917Y136328D01*
X235807Y136314D01*
X235698Y136297D01*
X235589Y136276D01*
X235481Y136251D01*
X235374Y136222D01*
X235268Y136190D01*
X235163Y136154D01*
X235060Y136114D01*
X234958Y136071D01*
X234857Y136024D01*
X234758Y135973D01*
X234662Y135920D01*
X234567Y135863D01*
X234474Y135802D01*
X234383Y135739D01*
X234294Y135672D01*
X234208Y135602D01*
X234125Y135529D01*
X234043Y135454D01*
X233965Y135376D01*
X233890Y135294D01*
X233817Y135211D01*
X233747Y135125D01*
X233680Y135036D01*
X233617Y134945D01*
X233556Y134852D01*
X233499Y134758D01*
X233446Y134661D01*
X233395Y134562D01*
X233348Y134461D01*
X233305Y134359D01*
X233265Y134256D01*
X233229Y134151D01*
X233197Y134045D01*
X233168Y133938D01*
X233143Y133830D01*
X233122Y133721D01*
X233105Y133612D01*
X233091Y133502D01*
X233082Y133391D01*
X233076Y133281D01*
X233074Y133170D01*
X233076Y133059D01*
X233082Y132949D01*
X233091Y132838D01*
X233105Y132728D01*
X233122Y132619D01*
X233143Y132510D01*
X233168Y132402D01*
X233197Y132295D01*
X233229Y132189D01*
X233265Y132084D01*
X233305Y131981D01*
X233348Y131879D01*
X233395Y131778D01*
X233446Y131679D01*
X233499Y131583D01*
X233556Y131488D01*
X233617Y131395D01*
X233680Y131304D01*
X233747Y131215D01*
X233817Y131129D01*
X233890Y131046D01*
X233965Y130964D01*
X234043Y130886D01*
X234125Y130811D01*
X234208Y130738D01*
X234294Y130668D01*
X234383Y130601D01*
X234474Y130538D01*
X234567Y130477D01*
X234662Y130420D01*
X234758Y130367D01*
X234857Y130316D01*
X234958Y130269D01*
X235060Y130226D01*
X235163Y130186D01*
X235268Y130150D01*
X235374Y130118D01*
X235481Y130089D01*
X235589Y130064D01*
X235698Y130043D01*
X235807Y130026D01*
X235917Y130012D01*
X236028Y130003D01*
X236138Y129997D01*
X236249Y129995D01*
X239424Y129995D01*
X239424Y141425D01*
X236249Y141425D01*
X236149Y141423D01*
X236050Y141417D01*
X235950Y141407D01*
X235852Y141394D01*
X235753Y141376D01*
X235656Y141355D01*
X235560Y141330D01*
X235464Y141301D01*
X235370Y141268D01*
X235277Y141232D01*
X235186Y141192D01*
X235096Y141148D01*
X235008Y141101D01*
X234922Y141051D01*
X234838Y140997D01*
X234756Y140940D01*
X234677Y140880D01*
X234599Y140816D01*
X234525Y140750D01*
X234453Y140681D01*
X234384Y140609D01*
X234318Y140535D01*
X234254Y140457D01*
X234194Y140378D01*
X234137Y140296D01*
X234083Y140212D01*
X234033Y140126D01*
X233986Y140038D01*
X233942Y139948D01*
X233902Y139857D01*
X233866Y139764D01*
X233833Y139670D01*
X233804Y139574D01*
X233779Y139478D01*
X233758Y139381D01*
X233740Y139282D01*
X233727Y139184D01*
X233717Y139084D01*
X233711Y138985D01*
X233709Y138885D01*
X233711Y138785D01*
X233717Y138686D01*
X233727Y138586D01*
X233740Y138488D01*
X233758Y138389D01*
X233779Y138292D01*
X233804Y138196D01*
X233833Y138100D01*
X233866Y138006D01*
X233902Y137913D01*
X233942Y137822D01*
X233986Y137732D01*
X234033Y137644D01*
X234083Y137558D01*
X234137Y137474D01*
X234194Y137392D01*
X234254Y137313D01*
X234318Y137235D01*
X234384Y137161D01*
X234453Y137089D01*
X234525Y137020D01*
X234599Y136954D01*
X234677Y136890D01*
X234756Y136830D01*
X234838Y136773D01*
X234922Y136719D01*
X235008Y136669D01*
X235096Y136622D01*
X235186Y136578D01*
X235277Y136538D01*
X235370Y136502D01*
X235464Y136469D01*
X235560Y136440D01*
X235656Y136415D01*
X235753Y136394D01*
X235852Y136376D01*
X235950Y136363D01*
X236050Y136353D01*
X236149Y136347D01*
X236249Y136345D01*
X228439Y134440D02*
X220819Y134440D01*
X215611Y135710D02*
X215608Y135935D01*
X215600Y136160D01*
X215587Y136384D01*
X215568Y136608D01*
X215544Y136832D01*
X215515Y137055D01*
X215480Y137277D01*
X215440Y137498D01*
X215394Y137718D01*
X215344Y137937D01*
X215288Y138155D01*
X215227Y138372D01*
X215161Y138587D01*
X215090Y138800D01*
X215013Y139011D01*
X214932Y139221D01*
X214846Y139429D01*
X214755Y139634D01*
X214659Y139837D01*
X214660Y139838D02*
X214628Y139926D01*
X214592Y140013D01*
X214553Y140099D01*
X214510Y140183D01*
X214464Y140265D01*
X214415Y140345D01*
X214363Y140423D01*
X214307Y140499D01*
X214249Y140573D01*
X214187Y140644D01*
X214123Y140713D01*
X214056Y140779D01*
X213987Y140842D01*
X213915Y140903D01*
X213841Y140961D01*
X213764Y141015D01*
X213686Y141067D01*
X213605Y141115D01*
X213523Y141160D01*
X213438Y141202D01*
X213352Y141240D01*
X213265Y141275D01*
X213177Y141307D01*
X213087Y141334D01*
X212996Y141359D01*
X212904Y141379D01*
X212812Y141396D01*
X212718Y141409D01*
X212625Y141418D01*
X212531Y141424D01*
X212437Y141426D01*
X212343Y141424D01*
X212249Y141418D01*
X212156Y141409D01*
X212062Y141396D01*
X211970Y141379D01*
X211878Y141359D01*
X211787Y141334D01*
X211697Y141307D01*
X211609Y141275D01*
X211522Y141240D01*
X211436Y141202D01*
X211351Y141160D01*
X211269Y141115D01*
X211188Y141067D01*
X211110Y141015D01*
X211033Y140961D01*
X210959Y140903D01*
X210887Y140842D01*
X210818Y140779D01*
X210751Y140713D01*
X210687Y140644D01*
X210625Y140573D01*
X210567Y140499D01*
X210511Y140423D01*
X210459Y140345D01*
X210410Y140265D01*
X210364Y140183D01*
X210321Y140099D01*
X210282Y140013D01*
X210246Y139926D01*
X210214Y139838D01*
X210214Y139837D02*
X210118Y139634D01*
X210027Y139429D01*
X209941Y139221D01*
X209860Y139011D01*
X209783Y138800D01*
X209712Y138587D01*
X209646Y138372D01*
X209585Y138155D01*
X209529Y137937D01*
X209479Y137718D01*
X209433Y137498D01*
X209393Y137277D01*
X209358Y137055D01*
X209329Y136832D01*
X209305Y136608D01*
X209286Y136384D01*
X209273Y136160D01*
X209265Y135935D01*
X209262Y135710D01*
X215611Y135710D02*
X215608Y135485D01*
X215600Y135260D01*
X215587Y135036D01*
X215568Y134812D01*
X215544Y134588D01*
X215515Y134365D01*
X215480Y134143D01*
X215440Y133922D01*
X215394Y133702D01*
X215344Y133483D01*
X215288Y133265D01*
X215227Y133048D01*
X215161Y132833D01*
X215090Y132620D01*
X215013Y132409D01*
X214932Y132199D01*
X214846Y131991D01*
X214755Y131786D01*
X214659Y131583D01*
X214660Y131583D02*
X214628Y131495D01*
X214592Y131408D01*
X214553Y131322D01*
X214510Y131238D01*
X214464Y131156D01*
X214415Y131076D01*
X214363Y130998D01*
X214307Y130922D01*
X214249Y130848D01*
X214187Y130777D01*
X214123Y130708D01*
X214056Y130642D01*
X213987Y130579D01*
X213915Y130518D01*
X213841Y130460D01*
X213764Y130406D01*
X213686Y130354D01*
X213605Y130306D01*
X213523Y130261D01*
X213438Y130219D01*
X213352Y130181D01*
X213265Y130146D01*
X213177Y130114D01*
X213087Y130087D01*
X212996Y130062D01*
X212904Y130042D01*
X212812Y130025D01*
X212718Y130012D01*
X212625Y130003D01*
X212531Y129997D01*
X212437Y129995D01*
X210214Y131583D02*
X210118Y131786D01*
X210027Y131991D01*
X209941Y132199D01*
X209860Y132409D01*
X209783Y132620D01*
X209712Y132833D01*
X209646Y133048D01*
X209585Y133265D01*
X209529Y133483D01*
X209479Y133702D01*
X209433Y133922D01*
X209393Y134143D01*
X209358Y134365D01*
X209329Y134588D01*
X209305Y134812D01*
X209286Y135036D01*
X209273Y135260D01*
X209265Y135485D01*
X209262Y135710D01*
X210214Y131583D02*
X210246Y131495D01*
X210282Y131408D01*
X210321Y131322D01*
X210364Y131238D01*
X210410Y131156D01*
X210459Y131076D01*
X210511Y130998D01*
X210567Y130922D01*
X210625Y130848D01*
X210687Y130777D01*
X210751Y130708D01*
X210818Y130642D01*
X210887Y130579D01*
X210959Y130518D01*
X211033Y130460D01*
X211110Y130406D01*
X211188Y130354D01*
X211269Y130306D01*
X211351Y130261D01*
X211436Y130219D01*
X211522Y130181D01*
X211609Y130146D01*
X211697Y130114D01*
X211787Y130087D01*
X211878Y130062D01*
X211970Y130042D01*
X212062Y130025D01*
X212156Y130012D01*
X212249Y130003D01*
X212343Y129997D01*
X212437Y129995D01*
X214977Y132535D02*
X209897Y138885D01*
X204181Y135710D02*
X204178Y135935D01*
X204170Y136160D01*
X204157Y136384D01*
X204138Y136608D01*
X204114Y136832D01*
X204085Y137055D01*
X204050Y137277D01*
X204010Y137498D01*
X203964Y137718D01*
X203914Y137937D01*
X203858Y138155D01*
X203797Y138372D01*
X203731Y138587D01*
X203660Y138800D01*
X203583Y139011D01*
X203502Y139221D01*
X203416Y139429D01*
X203325Y139634D01*
X203229Y139837D01*
X203230Y139838D02*
X203198Y139926D01*
X203162Y140013D01*
X203123Y140099D01*
X203080Y140183D01*
X203034Y140265D01*
X202985Y140345D01*
X202933Y140423D01*
X202877Y140499D01*
X202819Y140573D01*
X202757Y140644D01*
X202693Y140713D01*
X202626Y140779D01*
X202557Y140842D01*
X202485Y140903D01*
X202411Y140961D01*
X202334Y141015D01*
X202256Y141067D01*
X202175Y141115D01*
X202093Y141160D01*
X202008Y141202D01*
X201922Y141240D01*
X201835Y141275D01*
X201747Y141307D01*
X201657Y141334D01*
X201566Y141359D01*
X201474Y141379D01*
X201382Y141396D01*
X201288Y141409D01*
X201195Y141418D01*
X201101Y141424D01*
X201007Y141426D01*
X200913Y141424D01*
X200819Y141418D01*
X200726Y141409D01*
X200632Y141396D01*
X200540Y141379D01*
X200448Y141359D01*
X200357Y141334D01*
X200267Y141307D01*
X200179Y141275D01*
X200092Y141240D01*
X200006Y141202D01*
X199921Y141160D01*
X199839Y141115D01*
X199758Y141067D01*
X199680Y141015D01*
X199603Y140961D01*
X199529Y140903D01*
X199457Y140842D01*
X199388Y140779D01*
X199321Y140713D01*
X199257Y140644D01*
X199195Y140573D01*
X199137Y140499D01*
X199081Y140423D01*
X199029Y140345D01*
X198980Y140265D01*
X198934Y140183D01*
X198891Y140099D01*
X198852Y140013D01*
X198816Y139926D01*
X198784Y139838D01*
X198784Y139837D02*
X198688Y139634D01*
X198597Y139429D01*
X198511Y139221D01*
X198430Y139011D01*
X198353Y138800D01*
X198282Y138587D01*
X198216Y138372D01*
X198155Y138155D01*
X198099Y137937D01*
X198049Y137718D01*
X198003Y137498D01*
X197963Y137277D01*
X197928Y137055D01*
X197899Y136832D01*
X197875Y136608D01*
X197856Y136384D01*
X197843Y136160D01*
X197835Y135935D01*
X197832Y135710D01*
X204181Y135710D02*
X204178Y135485D01*
X204170Y135260D01*
X204157Y135036D01*
X204138Y134812D01*
X204114Y134588D01*
X204085Y134365D01*
X204050Y134143D01*
X204010Y133922D01*
X203964Y133702D01*
X203914Y133483D01*
X203858Y133265D01*
X203797Y133048D01*
X203731Y132833D01*
X203660Y132620D01*
X203583Y132409D01*
X203502Y132199D01*
X203416Y131991D01*
X203325Y131786D01*
X203229Y131583D01*
X203230Y131583D02*
X203198Y131495D01*
X203162Y131408D01*
X203123Y131322D01*
X203080Y131238D01*
X203034Y131156D01*
X202985Y131076D01*
X202933Y130998D01*
X202877Y130922D01*
X202819Y130848D01*
X202757Y130777D01*
X202693Y130708D01*
X202626Y130642D01*
X202557Y130579D01*
X202485Y130518D01*
X202411Y130460D01*
X202334Y130406D01*
X202256Y130354D01*
X202175Y130306D01*
X202093Y130261D01*
X202008Y130219D01*
X201922Y130181D01*
X201835Y130146D01*
X201747Y130114D01*
X201657Y130087D01*
X201566Y130062D01*
X201474Y130042D01*
X201382Y130025D01*
X201288Y130012D01*
X201195Y130003D01*
X201101Y129997D01*
X201007Y129995D01*
X198784Y131583D02*
X198688Y131786D01*
X198597Y131991D01*
X198511Y132199D01*
X198430Y132409D01*
X198353Y132620D01*
X198282Y132833D01*
X198216Y133048D01*
X198155Y133265D01*
X198099Y133483D01*
X198049Y133702D01*
X198003Y133922D01*
X197963Y134143D01*
X197928Y134365D01*
X197899Y134588D01*
X197875Y134812D01*
X197856Y135036D01*
X197843Y135260D01*
X197835Y135485D01*
X197832Y135710D01*
X198784Y131583D02*
X198816Y131495D01*
X198852Y131408D01*
X198891Y131322D01*
X198934Y131238D01*
X198980Y131156D01*
X199029Y131076D01*
X199081Y130998D01*
X199137Y130922D01*
X199195Y130848D01*
X199257Y130777D01*
X199321Y130708D01*
X199388Y130642D01*
X199457Y130579D01*
X199529Y130518D01*
X199603Y130460D01*
X199680Y130406D01*
X199758Y130354D01*
X199839Y130306D01*
X199921Y130261D01*
X200006Y130219D01*
X200092Y130181D01*
X200179Y130146D01*
X200267Y130114D01*
X200357Y130087D01*
X200448Y130062D01*
X200540Y130042D01*
X200632Y130025D01*
X200726Y130012D01*
X200819Y130003D01*
X200913Y129997D01*
X201007Y129995D01*
X203547Y132535D02*
X198467Y138885D01*
X192752Y138885D02*
X189577Y141425D01*
X189577Y129995D01*
X192752Y129995D02*
X186402Y129995D01*
X174908Y134440D02*
X165383Y134440D01*
X151350Y135075D02*
X147540Y135075D01*
X151350Y135075D02*
X151450Y135077D01*
X151549Y135083D01*
X151649Y135093D01*
X151747Y135106D01*
X151846Y135124D01*
X151943Y135145D01*
X152039Y135170D01*
X152135Y135199D01*
X152229Y135232D01*
X152322Y135268D01*
X152413Y135308D01*
X152503Y135352D01*
X152591Y135399D01*
X152677Y135449D01*
X152761Y135503D01*
X152843Y135560D01*
X152922Y135620D01*
X153000Y135684D01*
X153074Y135750D01*
X153146Y135819D01*
X153215Y135891D01*
X153281Y135965D01*
X153345Y136043D01*
X153405Y136122D01*
X153462Y136204D01*
X153516Y136288D01*
X153566Y136374D01*
X153613Y136462D01*
X153657Y136552D01*
X153697Y136643D01*
X153733Y136736D01*
X153766Y136830D01*
X153795Y136926D01*
X153820Y137022D01*
X153841Y137119D01*
X153859Y137218D01*
X153872Y137316D01*
X153882Y137416D01*
X153888Y137515D01*
X153890Y137615D01*
X153890Y138250D01*
X153888Y138361D01*
X153882Y138471D01*
X153873Y138582D01*
X153859Y138692D01*
X153842Y138801D01*
X153821Y138910D01*
X153796Y139018D01*
X153767Y139125D01*
X153735Y139231D01*
X153699Y139336D01*
X153659Y139439D01*
X153616Y139541D01*
X153569Y139642D01*
X153518Y139741D01*
X153465Y139838D01*
X153408Y139932D01*
X153347Y140025D01*
X153284Y140116D01*
X153217Y140205D01*
X153147Y140291D01*
X153074Y140374D01*
X152999Y140456D01*
X152921Y140534D01*
X152839Y140609D01*
X152756Y140682D01*
X152670Y140752D01*
X152581Y140819D01*
X152490Y140882D01*
X152397Y140943D01*
X152303Y141000D01*
X152206Y141053D01*
X152107Y141104D01*
X152006Y141151D01*
X151904Y141194D01*
X151801Y141234D01*
X151696Y141270D01*
X151590Y141302D01*
X151483Y141331D01*
X151375Y141356D01*
X151266Y141377D01*
X151157Y141394D01*
X151047Y141408D01*
X150936Y141417D01*
X150826Y141423D01*
X150715Y141425D01*
X150604Y141423D01*
X150494Y141417D01*
X150383Y141408D01*
X150273Y141394D01*
X150164Y141377D01*
X150055Y141356D01*
X149947Y141331D01*
X149840Y141302D01*
X149734Y141270D01*
X149629Y141234D01*
X149526Y141194D01*
X149424Y141151D01*
X149323Y141104D01*
X149224Y141053D01*
X149128Y141000D01*
X149033Y140943D01*
X148940Y140882D01*
X148849Y140819D01*
X148760Y140752D01*
X148674Y140682D01*
X148591Y140609D01*
X148509Y140534D01*
X148431Y140456D01*
X148356Y140374D01*
X148283Y140291D01*
X148213Y140205D01*
X148146Y140116D01*
X148083Y140025D01*
X148022Y139932D01*
X147965Y139838D01*
X147912Y139741D01*
X147861Y139642D01*
X147814Y139541D01*
X147771Y139439D01*
X147731Y139336D01*
X147695Y139231D01*
X147663Y139125D01*
X147634Y139018D01*
X147609Y138910D01*
X147588Y138801D01*
X147571Y138692D01*
X147557Y138582D01*
X147548Y138471D01*
X147542Y138361D01*
X147540Y138250D01*
X147540Y135075D01*
X147542Y134935D01*
X147548Y134795D01*
X147557Y134655D01*
X147571Y134516D01*
X147588Y134377D01*
X147609Y134239D01*
X147634Y134101D01*
X147663Y133964D01*
X147695Y133828D01*
X147732Y133693D01*
X147772Y133559D01*
X147815Y133426D01*
X147863Y133294D01*
X147913Y133163D01*
X147968Y133034D01*
X148026Y132907D01*
X148087Y132781D01*
X148152Y132657D01*
X148221Y132535D01*
X148292Y132415D01*
X148367Y132297D01*
X148445Y132180D01*
X148527Y132066D01*
X148611Y131955D01*
X148699Y131846D01*
X148789Y131739D01*
X148883Y131634D01*
X148979Y131533D01*
X149078Y131434D01*
X149179Y131338D01*
X149284Y131244D01*
X149391Y131154D01*
X149500Y131066D01*
X149611Y130982D01*
X149725Y130900D01*
X149842Y130822D01*
X149960Y130747D01*
X150080Y130676D01*
X150202Y130607D01*
X150326Y130542D01*
X150452Y130481D01*
X150579Y130423D01*
X150708Y130368D01*
X150839Y130318D01*
X150971Y130270D01*
X151104Y130227D01*
X151238Y130187D01*
X151373Y130150D01*
X151509Y130118D01*
X151646Y130089D01*
X151784Y130064D01*
X151922Y130043D01*
X152061Y130026D01*
X152200Y130012D01*
X152340Y130003D01*
X152480Y129997D01*
X152620Y129995D01*
X139285Y129995D02*
X143095Y141425D01*
X135475Y141425D02*
X139285Y129995D01*
X124362Y136345D02*
X121187Y136345D01*
X121076Y136343D01*
X120966Y136337D01*
X120855Y136328D01*
X120745Y136314D01*
X120636Y136297D01*
X120527Y136276D01*
X120419Y136251D01*
X120312Y136222D01*
X120206Y136190D01*
X120101Y136154D01*
X119998Y136114D01*
X119896Y136071D01*
X119795Y136024D01*
X119696Y135973D01*
X119600Y135920D01*
X119505Y135863D01*
X119412Y135802D01*
X119321Y135739D01*
X119232Y135672D01*
X119146Y135602D01*
X119063Y135529D01*
X118981Y135454D01*
X118903Y135376D01*
X118828Y135294D01*
X118755Y135211D01*
X118685Y135125D01*
X118618Y135036D01*
X118555Y134945D01*
X118494Y134852D01*
X118437Y134758D01*
X118384Y134661D01*
X118333Y134562D01*
X118286Y134461D01*
X118243Y134359D01*
X118203Y134256D01*
X118167Y134151D01*
X118135Y134045D01*
X118106Y133938D01*
X118081Y133830D01*
X118060Y133721D01*
X118043Y133612D01*
X118029Y133502D01*
X118020Y133391D01*
X118014Y133281D01*
X118012Y133170D01*
X118014Y133059D01*
X118020Y132949D01*
X118029Y132838D01*
X118043Y132728D01*
X118060Y132619D01*
X118081Y132510D01*
X118106Y132402D01*
X118135Y132295D01*
X118167Y132189D01*
X118203Y132084D01*
X118243Y131981D01*
X118286Y131879D01*
X118333Y131778D01*
X118384Y131679D01*
X118437Y131583D01*
X118494Y131488D01*
X118555Y131395D01*
X118618Y131304D01*
X118685Y131215D01*
X118755Y131129D01*
X118828Y131046D01*
X118903Y130964D01*
X118981Y130886D01*
X119063Y130811D01*
X119146Y130738D01*
X119232Y130668D01*
X119321Y130601D01*
X119412Y130538D01*
X119505Y130477D01*
X119600Y130420D01*
X119696Y130367D01*
X119795Y130316D01*
X119896Y130269D01*
X119998Y130226D01*
X120101Y130186D01*
X120206Y130150D01*
X120312Y130118D01*
X120419Y130089D01*
X120527Y130064D01*
X120636Y130043D01*
X120745Y130026D01*
X120855Y130012D01*
X120966Y130003D01*
X121076Y129997D01*
X121187Y129995D01*
X124362Y129995D01*
X124362Y141425D01*
X121187Y141425D01*
X121087Y141423D01*
X120988Y141417D01*
X120888Y141407D01*
X120790Y141394D01*
X120691Y141376D01*
X120594Y141355D01*
X120498Y141330D01*
X120402Y141301D01*
X120308Y141268D01*
X120215Y141232D01*
X120124Y141192D01*
X120034Y141148D01*
X119946Y141101D01*
X119860Y141051D01*
X119776Y140997D01*
X119694Y140940D01*
X119615Y140880D01*
X119537Y140816D01*
X119463Y140750D01*
X119391Y140681D01*
X119322Y140609D01*
X119256Y140535D01*
X119192Y140457D01*
X119132Y140378D01*
X119075Y140296D01*
X119021Y140212D01*
X118971Y140126D01*
X118924Y140038D01*
X118880Y139948D01*
X118840Y139857D01*
X118804Y139764D01*
X118771Y139670D01*
X118742Y139574D01*
X118717Y139478D01*
X118696Y139381D01*
X118678Y139282D01*
X118665Y139184D01*
X118655Y139084D01*
X118649Y138985D01*
X118647Y138885D01*
X118649Y138785D01*
X118655Y138686D01*
X118665Y138586D01*
X118678Y138488D01*
X118696Y138389D01*
X118717Y138292D01*
X118742Y138196D01*
X118771Y138100D01*
X118804Y138006D01*
X118840Y137913D01*
X118880Y137822D01*
X118924Y137732D01*
X118971Y137644D01*
X119021Y137558D01*
X119075Y137474D01*
X119132Y137392D01*
X119192Y137313D01*
X119256Y137235D01*
X119322Y137161D01*
X119391Y137089D01*
X119463Y137020D01*
X119537Y136954D01*
X119615Y136890D01*
X119694Y136830D01*
X119776Y136773D01*
X119860Y136719D01*
X119946Y136669D01*
X120034Y136622D01*
X120124Y136578D01*
X120215Y136538D01*
X120308Y136502D01*
X120402Y136469D01*
X120498Y136440D01*
X120594Y136415D01*
X120691Y136394D01*
X120790Y136376D01*
X120888Y136363D01*
X120988Y136353D01*
X121087Y136347D01*
X121187Y136345D01*
X111474Y134440D02*
X108617Y134440D01*
X111474Y134441D02*
X111567Y134439D01*
X111660Y134433D01*
X111753Y134423D01*
X111845Y134410D01*
X111936Y134392D01*
X112027Y134371D01*
X112117Y134346D01*
X112205Y134317D01*
X112292Y134285D01*
X112378Y134249D01*
X112462Y134209D01*
X112545Y134166D01*
X112626Y134119D01*
X112704Y134070D01*
X112781Y134016D01*
X112855Y133960D01*
X112927Y133901D01*
X112996Y133838D01*
X113062Y133773D01*
X113126Y133705D01*
X113187Y133635D01*
X113245Y133562D01*
X113299Y133487D01*
X113351Y133409D01*
X113399Y133330D01*
X113444Y133248D01*
X113485Y133165D01*
X113523Y133079D01*
X113558Y132993D01*
X113588Y132905D01*
X113615Y132816D01*
X113638Y132726D01*
X113658Y132635D01*
X113673Y132543D01*
X113685Y132450D01*
X113693Y132358D01*
X113697Y132265D01*
X113697Y132171D01*
X113693Y132078D01*
X113685Y131986D01*
X113673Y131893D01*
X113658Y131801D01*
X113638Y131710D01*
X113615Y131620D01*
X113588Y131531D01*
X113558Y131443D01*
X113523Y131357D01*
X113485Y131271D01*
X113444Y131188D01*
X113399Y131107D01*
X113351Y131027D01*
X113299Y130949D01*
X113245Y130874D01*
X113187Y130801D01*
X113126Y130731D01*
X113062Y130663D01*
X112996Y130598D01*
X112927Y130535D01*
X112855Y130476D01*
X112781Y130420D01*
X112704Y130366D01*
X112626Y130317D01*
X112545Y130270D01*
X112462Y130227D01*
X112378Y130187D01*
X112292Y130151D01*
X112205Y130119D01*
X112117Y130090D01*
X112027Y130065D01*
X111936Y130044D01*
X111845Y130026D01*
X111753Y130013D01*
X111660Y130003D01*
X111567Y129997D01*
X111474Y129995D01*
X108617Y129995D01*
X108617Y135710D01*
X108619Y135795D01*
X108625Y135881D01*
X108634Y135966D01*
X108648Y136050D01*
X108665Y136134D01*
X108686Y136217D01*
X108710Y136299D01*
X108738Y136379D01*
X108770Y136459D01*
X108806Y136537D01*
X108844Y136613D01*
X108887Y136687D01*
X108932Y136759D01*
X108981Y136830D01*
X109033Y136898D01*
X109087Y136963D01*
X109145Y137026D01*
X109206Y137087D01*
X109269Y137145D01*
X109334Y137199D01*
X109402Y137251D01*
X109473Y137300D01*
X109545Y137345D01*
X109619Y137388D01*
X109695Y137426D01*
X109773Y137462D01*
X109853Y137494D01*
X109933Y137522D01*
X110015Y137546D01*
X110098Y137567D01*
X110182Y137584D01*
X110266Y137598D01*
X110351Y137607D01*
X110437Y137613D01*
X110522Y137615D01*
X113062Y137615D01*
X104336Y137615D02*
X100526Y137615D01*
X103066Y141425D02*
X103066Y131900D01*
X103064Y131815D01*
X103058Y131729D01*
X103049Y131644D01*
X103035Y131560D01*
X103018Y131476D01*
X102997Y131393D01*
X102973Y131311D01*
X102945Y131231D01*
X102913Y131151D01*
X102877Y131073D01*
X102839Y130997D01*
X102796Y130923D01*
X102751Y130851D01*
X102702Y130780D01*
X102650Y130712D01*
X102596Y130647D01*
X102538Y130584D01*
X102477Y130523D01*
X102414Y130465D01*
X102349Y130411D01*
X102281Y130359D01*
X102210Y130310D01*
X102138Y130265D01*
X102064Y130222D01*
X101988Y130184D01*
X101910Y130148D01*
X101830Y130116D01*
X101750Y130088D01*
X101668Y130064D01*
X101585Y130043D01*
X101501Y130026D01*
X101417Y130012D01*
X101332Y130003D01*
X101246Y129997D01*
X101161Y129995D01*
X100526Y129995D01*
X97098Y137615D02*
X93288Y137615D01*
X95828Y141425D02*
X95828Y131900D01*
X95826Y131815D01*
X95820Y131729D01*
X95811Y131644D01*
X95797Y131560D01*
X95780Y131476D01*
X95759Y131393D01*
X95735Y131311D01*
X95707Y131231D01*
X95675Y131151D01*
X95639Y131073D01*
X95601Y130997D01*
X95558Y130923D01*
X95513Y130851D01*
X95464Y130780D01*
X95412Y130712D01*
X95358Y130647D01*
X95300Y130584D01*
X95239Y130523D01*
X95176Y130465D01*
X95111Y130411D01*
X95043Y130359D01*
X94972Y130310D01*
X94900Y130265D01*
X94826Y130222D01*
X94750Y130184D01*
X94672Y130148D01*
X94592Y130116D01*
X94512Y130088D01*
X94430Y130064D01*
X94347Y130043D01*
X94263Y130026D01*
X94179Y130012D01*
X94094Y130003D01*
X94008Y129997D01*
X93923Y129995D01*
X93288Y129995D01*
X86961Y129995D02*
X83786Y129995D01*
X86961Y129995D02*
X87046Y129997D01*
X87132Y130003D01*
X87217Y130012D01*
X87301Y130026D01*
X87385Y130043D01*
X87468Y130064D01*
X87550Y130088D01*
X87630Y130116D01*
X87710Y130148D01*
X87788Y130184D01*
X87864Y130222D01*
X87938Y130265D01*
X88010Y130310D01*
X88081Y130359D01*
X88149Y130411D01*
X88214Y130465D01*
X88277Y130523D01*
X88338Y130584D01*
X88396Y130647D01*
X88450Y130712D01*
X88502Y130780D01*
X88551Y130851D01*
X88596Y130923D01*
X88639Y130997D01*
X88677Y131073D01*
X88713Y131151D01*
X88745Y131231D01*
X88773Y131311D01*
X88797Y131393D01*
X88818Y131476D01*
X88835Y131560D01*
X88849Y131644D01*
X88858Y131729D01*
X88864Y131815D01*
X88866Y131900D01*
X88866Y135075D01*
X88864Y135175D01*
X88858Y135274D01*
X88848Y135374D01*
X88835Y135472D01*
X88817Y135571D01*
X88796Y135668D01*
X88771Y135764D01*
X88742Y135860D01*
X88709Y135954D01*
X88673Y136047D01*
X88633Y136138D01*
X88589Y136228D01*
X88542Y136316D01*
X88492Y136402D01*
X88438Y136486D01*
X88381Y136568D01*
X88321Y136647D01*
X88257Y136725D01*
X88191Y136799D01*
X88122Y136871D01*
X88050Y136940D01*
X87976Y137006D01*
X87898Y137070D01*
X87819Y137130D01*
X87737Y137187D01*
X87653Y137241D01*
X87567Y137291D01*
X87479Y137338D01*
X87389Y137382D01*
X87298Y137422D01*
X87205Y137458D01*
X87111Y137491D01*
X87015Y137520D01*
X86919Y137545D01*
X86822Y137566D01*
X86723Y137584D01*
X86625Y137597D01*
X86525Y137607D01*
X86426Y137613D01*
X86326Y137615D01*
X86226Y137613D01*
X86127Y137607D01*
X86027Y137597D01*
X85929Y137584D01*
X85830Y137566D01*
X85733Y137545D01*
X85637Y137520D01*
X85541Y137491D01*
X85447Y137458D01*
X85354Y137422D01*
X85263Y137382D01*
X85173Y137338D01*
X85085Y137291D01*
X84999Y137241D01*
X84915Y137187D01*
X84833Y137130D01*
X84754Y137070D01*
X84676Y137006D01*
X84602Y136940D01*
X84530Y136871D01*
X84461Y136799D01*
X84395Y136725D01*
X84331Y136647D01*
X84271Y136568D01*
X84214Y136486D01*
X84160Y136402D01*
X84110Y136316D01*
X84063Y136228D01*
X84019Y136138D01*
X83979Y136047D01*
X83943Y135954D01*
X83910Y135860D01*
X83881Y135764D01*
X83856Y135668D01*
X83835Y135571D01*
X83817Y135472D01*
X83804Y135374D01*
X83794Y135274D01*
X83788Y135175D01*
X83786Y135075D01*
X83786Y133805D01*
X88866Y133805D01*
X78504Y129995D02*
X78504Y137615D01*
X74694Y137615D01*
X74694Y136345D01*
X71340Y126185D02*
X70070Y126185D01*
X66260Y137615D01*
X71340Y137615D02*
X68800Y129995D01*
X201200Y33100D02*
X252000Y33100D01*
X201200Y33100D02*
X201200Y7700D01*
X252000Y7700D01*
X252000Y33100D01*
D11*
X238100Y400D02*
X238102Y463D01*
X238108Y525D01*
X238118Y587D01*
X238131Y649D01*
X238149Y709D01*
X238170Y768D01*
X238195Y826D01*
X238224Y882D01*
X238256Y936D01*
X238291Y988D01*
X238329Y1037D01*
X238371Y1085D01*
X238415Y1129D01*
X238463Y1171D01*
X238512Y1209D01*
X238564Y1244D01*
X238618Y1276D01*
X238674Y1305D01*
X238732Y1330D01*
X238791Y1351D01*
X238851Y1369D01*
X238913Y1382D01*
X238975Y1392D01*
X239037Y1398D01*
X239100Y1400D01*
X239163Y1398D01*
X239225Y1392D01*
X239287Y1382D01*
X239349Y1369D01*
X239409Y1351D01*
X239468Y1330D01*
X239526Y1305D01*
X239582Y1276D01*
X239636Y1244D01*
X239688Y1209D01*
X239737Y1171D01*
X239785Y1129D01*
X239829Y1085D01*
X239871Y1037D01*
X239909Y988D01*
X239944Y936D01*
X239976Y882D01*
X240005Y826D01*
X240030Y768D01*
X240051Y709D01*
X240069Y649D01*
X240082Y587D01*
X240092Y525D01*
X240098Y463D01*
X240100Y400D01*
X240098Y337D01*
X240092Y275D01*
X240082Y213D01*
X240069Y151D01*
X240051Y91D01*
X240030Y32D01*
X240005Y-26D01*
X239976Y-82D01*
X239944Y-136D01*
X239909Y-188D01*
X239871Y-237D01*
X239829Y-285D01*
X239785Y-329D01*
X239737Y-371D01*
X239688Y-409D01*
X239636Y-444D01*
X239582Y-476D01*
X239526Y-505D01*
X239468Y-530D01*
X239409Y-551D01*
X239349Y-569D01*
X239287Y-582D01*
X239225Y-592D01*
X239163Y-598D01*
X239100Y-600D01*
X239037Y-598D01*
X238975Y-592D01*
X238913Y-582D01*
X238851Y-569D01*
X238791Y-551D01*
X238732Y-530D01*
X238674Y-505D01*
X238618Y-476D01*
X238564Y-444D01*
X238512Y-409D01*
X238463Y-371D01*
X238415Y-329D01*
X238371Y-285D01*
X238329Y-237D01*
X238291Y-188D01*
X238256Y-136D01*
X238224Y-82D01*
X238195Y-26D01*
X238170Y32D01*
X238149Y91D01*
X238131Y151D01*
X238118Y213D01*
X238108Y275D01*
X238102Y337D01*
X238100Y400D01*
D10*
X193574Y28085D02*
X193574Y36975D01*
X193574Y28085D02*
X193576Y27985D01*
X193582Y27886D01*
X193592Y27786D01*
X193605Y27688D01*
X193623Y27589D01*
X193644Y27492D01*
X193669Y27396D01*
X193698Y27300D01*
X193731Y27206D01*
X193767Y27113D01*
X193807Y27022D01*
X193851Y26932D01*
X193898Y26844D01*
X193948Y26758D01*
X194002Y26674D01*
X194059Y26592D01*
X194119Y26513D01*
X194183Y26435D01*
X194249Y26361D01*
X194318Y26289D01*
X194390Y26220D01*
X194464Y26154D01*
X194542Y26090D01*
X194621Y26030D01*
X194703Y25973D01*
X194787Y25919D01*
X194873Y25869D01*
X194961Y25822D01*
X195051Y25778D01*
X195142Y25738D01*
X195235Y25702D01*
X195329Y25669D01*
X195425Y25640D01*
X195521Y25615D01*
X195618Y25594D01*
X195717Y25576D01*
X195815Y25563D01*
X195915Y25553D01*
X196014Y25547D01*
X196114Y25545D01*
X197384Y25545D01*
X188166Y28085D02*
X185626Y36975D01*
X188166Y28085D02*
X181816Y28085D01*
X183721Y30625D02*
X183721Y25545D01*
X150400Y33100D02*
X99600Y33100D01*
X99600Y7700D01*
X150400Y7700D01*
X150400Y33100D01*
D11*
X136500Y400D02*
X136502Y463D01*
X136508Y525D01*
X136518Y587D01*
X136531Y649D01*
X136549Y709D01*
X136570Y768D01*
X136595Y826D01*
X136624Y882D01*
X136656Y936D01*
X136691Y988D01*
X136729Y1037D01*
X136771Y1085D01*
X136815Y1129D01*
X136863Y1171D01*
X136912Y1209D01*
X136964Y1244D01*
X137018Y1276D01*
X137074Y1305D01*
X137132Y1330D01*
X137191Y1351D01*
X137251Y1369D01*
X137313Y1382D01*
X137375Y1392D01*
X137437Y1398D01*
X137500Y1400D01*
X137563Y1398D01*
X137625Y1392D01*
X137687Y1382D01*
X137749Y1369D01*
X137809Y1351D01*
X137868Y1330D01*
X137926Y1305D01*
X137982Y1276D01*
X138036Y1244D01*
X138088Y1209D01*
X138137Y1171D01*
X138185Y1129D01*
X138229Y1085D01*
X138271Y1037D01*
X138309Y988D01*
X138344Y936D01*
X138376Y882D01*
X138405Y826D01*
X138430Y768D01*
X138451Y709D01*
X138469Y649D01*
X138482Y587D01*
X138492Y525D01*
X138498Y463D01*
X138500Y400D01*
X138498Y337D01*
X138492Y275D01*
X138482Y213D01*
X138469Y151D01*
X138451Y91D01*
X138430Y32D01*
X138405Y-26D01*
X138376Y-82D01*
X138344Y-136D01*
X138309Y-188D01*
X138271Y-237D01*
X138229Y-285D01*
X138185Y-329D01*
X138137Y-371D01*
X138088Y-409D01*
X138036Y-444D01*
X137982Y-476D01*
X137926Y-505D01*
X137868Y-530D01*
X137809Y-551D01*
X137749Y-569D01*
X137687Y-582D01*
X137625Y-592D01*
X137563Y-598D01*
X137500Y-600D01*
X137437Y-598D01*
X137375Y-592D01*
X137313Y-582D01*
X137251Y-569D01*
X137191Y-551D01*
X137132Y-530D01*
X137074Y-505D01*
X137018Y-476D01*
X136964Y-444D01*
X136912Y-409D01*
X136863Y-371D01*
X136815Y-329D01*
X136771Y-285D01*
X136729Y-237D01*
X136691Y-188D01*
X136656Y-136D01*
X136624Y-82D01*
X136595Y-26D01*
X136570Y32D01*
X136549Y91D01*
X136531Y151D01*
X136518Y213D01*
X136508Y275D01*
X136502Y337D01*
X136500Y400D01*
D10*
X88974Y27085D02*
X88974Y35975D01*
X88974Y27085D02*
X88976Y26985D01*
X88982Y26886D01*
X88992Y26786D01*
X89005Y26688D01*
X89023Y26589D01*
X89044Y26492D01*
X89069Y26396D01*
X89098Y26300D01*
X89131Y26206D01*
X89167Y26113D01*
X89207Y26022D01*
X89251Y25932D01*
X89298Y25844D01*
X89348Y25758D01*
X89402Y25674D01*
X89459Y25592D01*
X89519Y25513D01*
X89583Y25435D01*
X89649Y25361D01*
X89718Y25289D01*
X89790Y25220D01*
X89864Y25154D01*
X89942Y25090D01*
X90021Y25030D01*
X90103Y24973D01*
X90187Y24919D01*
X90273Y24869D01*
X90361Y24822D01*
X90451Y24778D01*
X90542Y24738D01*
X90635Y24702D01*
X90729Y24669D01*
X90825Y24640D01*
X90921Y24615D01*
X91018Y24594D01*
X91117Y24576D01*
X91215Y24563D01*
X91315Y24553D01*
X91414Y24547D01*
X91514Y24545D01*
X92784Y24545D01*
X83566Y24545D02*
X79756Y24545D01*
X79656Y24547D01*
X79557Y24553D01*
X79457Y24563D01*
X79359Y24576D01*
X79260Y24594D01*
X79163Y24615D01*
X79067Y24640D01*
X78971Y24669D01*
X78877Y24702D01*
X78784Y24738D01*
X78693Y24778D01*
X78603Y24822D01*
X78515Y24869D01*
X78429Y24919D01*
X78345Y24973D01*
X78263Y25030D01*
X78184Y25090D01*
X78106Y25154D01*
X78032Y25220D01*
X77960Y25289D01*
X77891Y25361D01*
X77825Y25435D01*
X77761Y25513D01*
X77701Y25592D01*
X77644Y25674D01*
X77590Y25758D01*
X77540Y25844D01*
X77493Y25932D01*
X77449Y26022D01*
X77409Y26113D01*
X77373Y26206D01*
X77340Y26300D01*
X77311Y26396D01*
X77286Y26492D01*
X77265Y26589D01*
X77247Y26688D01*
X77234Y26786D01*
X77224Y26886D01*
X77218Y26985D01*
X77216Y27085D01*
X77216Y28355D01*
X77218Y28455D01*
X77224Y28554D01*
X77234Y28654D01*
X77247Y28752D01*
X77265Y28851D01*
X77286Y28948D01*
X77311Y29044D01*
X77340Y29140D01*
X77373Y29234D01*
X77409Y29327D01*
X77449Y29418D01*
X77493Y29508D01*
X77540Y29596D01*
X77590Y29682D01*
X77644Y29766D01*
X77701Y29848D01*
X77761Y29927D01*
X77825Y30005D01*
X77891Y30079D01*
X77960Y30151D01*
X78032Y30220D01*
X78106Y30286D01*
X78184Y30350D01*
X78263Y30410D01*
X78345Y30467D01*
X78429Y30521D01*
X78515Y30571D01*
X78603Y30618D01*
X78693Y30662D01*
X78784Y30702D01*
X78877Y30738D01*
X78971Y30771D01*
X79067Y30800D01*
X79163Y30825D01*
X79260Y30846D01*
X79359Y30864D01*
X79457Y30877D01*
X79557Y30887D01*
X79656Y30893D01*
X79756Y30895D01*
X83566Y30895D01*
X83566Y35975D01*
X77216Y35975D01*
M02*
