G04 EAGLE Gerber RS-274X export*
G75*
%MOMM*%
%FSLAX34Y34*%
%LPD*%
%IN*%
%IPPOS*%
%AMOC8*
5,1,8,0,0,1.08239X$1,22.5*%
G01*
%ADD10C,0.254000*%


D10*
X0Y10000D02*
X10000Y0D01*
X340000Y0D01*
X350000Y10000D01*
X350000Y340000D01*
X340000Y350000D01*
X10000Y350000D01*
X0Y340000D01*
X0Y10000D01*
X248000Y279000D02*
X256000Y279000D01*
X256000Y309000D01*
X248000Y309000D01*
X248000Y279000D01*
X285000Y260000D02*
X315000Y260000D01*
X315000Y268000D01*
X285000Y268000D01*
X285000Y260000D01*
X285000Y318000D02*
X315000Y318000D01*
X315000Y326000D01*
X285000Y326000D01*
X285000Y318000D01*
X316250Y154468D02*
X316180Y153406D01*
X316042Y152352D01*
X315834Y151308D01*
X315559Y150280D01*
X315217Y149273D01*
X314809Y148290D01*
X314339Y147336D01*
X313807Y146414D01*
X313216Y145530D01*
X312568Y144686D01*
X311867Y143886D01*
X311114Y143133D01*
X310314Y142432D01*
X309470Y141784D01*
X308586Y141193D01*
X307664Y140661D01*
X306710Y140191D01*
X305727Y139783D01*
X304720Y139441D01*
X303692Y139166D01*
X302648Y138958D01*
X301594Y138820D01*
X300532Y138750D01*
X299468Y138750D01*
X298406Y138820D01*
X297352Y138958D01*
X296308Y139166D01*
X295280Y139441D01*
X294273Y139783D01*
X293290Y140191D01*
X292336Y140661D01*
X291414Y141193D01*
X290530Y141784D01*
X289686Y142432D01*
X288886Y143133D01*
X288133Y143886D01*
X287432Y144686D01*
X286784Y145530D01*
X286193Y146414D01*
X285661Y147336D01*
X285191Y148290D01*
X284783Y149273D01*
X284441Y150280D01*
X284166Y151308D01*
X283958Y152352D01*
X283820Y153406D01*
X283750Y154468D01*
X283750Y155532D01*
X283820Y156594D01*
X283958Y157648D01*
X284166Y158692D01*
X284441Y159720D01*
X284783Y160727D01*
X285191Y161710D01*
X285661Y162664D01*
X286193Y163586D01*
X286784Y164470D01*
X287432Y165314D01*
X288133Y166114D01*
X288886Y166867D01*
X289686Y167568D01*
X290530Y168216D01*
X291414Y168807D01*
X292336Y169339D01*
X293290Y169809D01*
X294273Y170217D01*
X295280Y170559D01*
X296308Y170834D01*
X297352Y171042D01*
X298406Y171180D01*
X299468Y171250D01*
X300532Y171250D01*
X301594Y171180D01*
X302648Y171042D01*
X303692Y170834D01*
X304720Y170559D01*
X305727Y170217D01*
X306710Y169809D01*
X307664Y169339D01*
X308586Y168807D01*
X309470Y168216D01*
X310314Y167568D01*
X311114Y166867D01*
X311867Y166114D01*
X312568Y165314D01*
X313216Y164470D01*
X313807Y163586D01*
X314339Y162664D01*
X314809Y161710D01*
X315217Y160727D01*
X315559Y159720D01*
X315834Y158692D01*
X316042Y157648D01*
X316180Y156594D01*
X316250Y155532D01*
X316250Y154468D01*
X66250Y153468D02*
X66180Y152406D01*
X66042Y151352D01*
X65834Y150308D01*
X65559Y149280D01*
X65217Y148273D01*
X64809Y147290D01*
X64339Y146336D01*
X63807Y145414D01*
X63216Y144530D01*
X62568Y143686D01*
X61867Y142886D01*
X61114Y142133D01*
X60314Y141432D01*
X59470Y140784D01*
X58586Y140193D01*
X57664Y139661D01*
X56710Y139191D01*
X55727Y138783D01*
X54720Y138441D01*
X53692Y138166D01*
X52648Y137958D01*
X51594Y137820D01*
X50532Y137750D01*
X49468Y137750D01*
X48406Y137820D01*
X47352Y137958D01*
X46308Y138166D01*
X45280Y138441D01*
X44273Y138783D01*
X43290Y139191D01*
X42336Y139661D01*
X41414Y140193D01*
X40530Y140784D01*
X39686Y141432D01*
X38886Y142133D01*
X38133Y142886D01*
X37432Y143686D01*
X36784Y144530D01*
X36193Y145414D01*
X35661Y146336D01*
X35191Y147290D01*
X34783Y148273D01*
X34441Y149280D01*
X34166Y150308D01*
X33958Y151352D01*
X33820Y152406D01*
X33750Y153468D01*
X33750Y154532D01*
X33820Y155594D01*
X33958Y156648D01*
X34166Y157692D01*
X34441Y158720D01*
X34783Y159727D01*
X35191Y160710D01*
X35661Y161664D01*
X36193Y162586D01*
X36784Y163470D01*
X37432Y164314D01*
X38133Y165114D01*
X38886Y165867D01*
X39686Y166568D01*
X40530Y167216D01*
X41414Y167807D01*
X42336Y168339D01*
X43290Y168809D01*
X44273Y169217D01*
X45280Y169559D01*
X46308Y169834D01*
X47352Y170042D01*
X48406Y170180D01*
X49468Y170250D01*
X50532Y170250D01*
X51594Y170180D01*
X52648Y170042D01*
X53692Y169834D01*
X54720Y169559D01*
X55727Y169217D01*
X56710Y168809D01*
X57664Y168339D01*
X58586Y167807D01*
X59470Y167216D01*
X60314Y166568D01*
X61114Y165867D01*
X61867Y165114D01*
X62568Y164314D01*
X63216Y163470D01*
X63807Y162586D01*
X64339Y161664D01*
X64809Y160710D01*
X65217Y159727D01*
X65559Y158720D01*
X65834Y157692D01*
X66042Y156648D01*
X66180Y155594D01*
X66250Y154532D01*
X66250Y153468D01*
M02*
