G04 EAGLE Gerber RS-274X export*
G75*
%MOMM*%
%FSLAX34Y34*%
%LPD*%
%INTop Copper*%
%IPPOS*%
%AMOC8*
5,1,8,0,0,1.08239X$1,22.5*%
G01*
%ADD10P,1.623585X8X292.500000*%
%ADD11C,1.500000*%
%ADD12C,1.930400*%
%ADD13C,1.524000*%
%ADD14C,1.950000*%
%ADD15R,1.650000X1.650000*%
%ADD16C,1.650000*%
%ADD17P,1.547818X8X112.500000*%
%ADD18P,1.547818X8X292.500000*%
%ADD19C,1.800000*%
%ADD20P,1.623585X8X22.500000*%
%ADD21C,1.676400*%
%ADD22P,1.814519X8X22.500000*%
%ADD23C,0.906400*%
%ADD24C,0.635000*%
%ADD25C,0.304800*%

G36*
X335250Y10937D02*
X335250Y10937D01*
X335341Y10945D01*
X335371Y10957D01*
X335403Y10962D01*
X335484Y11005D01*
X335568Y11041D01*
X335600Y11067D01*
X335620Y11078D01*
X335643Y11101D01*
X335699Y11146D01*
X338854Y14301D01*
X338907Y14375D01*
X338967Y14445D01*
X338979Y14475D01*
X338998Y14501D01*
X339025Y14588D01*
X339059Y14673D01*
X339063Y14714D01*
X339070Y14736D01*
X339069Y14768D01*
X339077Y14840D01*
X339077Y177111D01*
X339066Y177182D01*
X339064Y177253D01*
X339046Y177302D01*
X339038Y177354D01*
X339004Y177417D01*
X338979Y177484D01*
X338947Y177525D01*
X338922Y177571D01*
X338870Y177620D01*
X338826Y177676D01*
X338782Y177704D01*
X338744Y177740D01*
X338679Y177770D01*
X338619Y177809D01*
X338568Y177822D01*
X338521Y177844D01*
X338450Y177852D01*
X338380Y177869D01*
X338328Y177865D01*
X338277Y177871D01*
X338206Y177856D01*
X338135Y177850D01*
X338087Y177830D01*
X338036Y177819D01*
X337975Y177782D01*
X337909Y177754D01*
X337853Y177709D01*
X337825Y177693D01*
X337810Y177675D01*
X337778Y177649D01*
X335900Y175771D01*
X332072Y174185D01*
X327928Y174185D01*
X324100Y175771D01*
X321171Y178700D01*
X319585Y182528D01*
X319585Y185898D01*
X319571Y185988D01*
X319563Y186079D01*
X319551Y186109D01*
X319546Y186140D01*
X319503Y186221D01*
X319467Y186305D01*
X319441Y186337D01*
X319430Y186358D01*
X319407Y186380D01*
X319362Y186436D01*
X284245Y221553D01*
X284171Y221606D01*
X284102Y221666D01*
X284071Y221678D01*
X284045Y221697D01*
X283958Y221724D01*
X283873Y221758D01*
X283833Y221762D01*
X283810Y221769D01*
X283778Y221768D01*
X283707Y221776D01*
X283378Y221776D01*
X283264Y221758D01*
X283147Y221740D01*
X283141Y221737D01*
X283135Y221737D01*
X283033Y221682D01*
X282928Y221629D01*
X282923Y221624D01*
X282918Y221621D01*
X282837Y221536D01*
X282756Y221453D01*
X282752Y221447D01*
X282749Y221443D01*
X282741Y221426D01*
X282728Y221404D01*
X279419Y218094D01*
X275124Y216315D01*
X270476Y216315D01*
X266181Y218094D01*
X262894Y221381D01*
X261115Y225676D01*
X261115Y230324D01*
X262894Y234619D01*
X266181Y237906D01*
X270476Y239685D01*
X275124Y239685D01*
X279419Y237906D01*
X282745Y234579D01*
X282796Y234494D01*
X282801Y234490D01*
X282804Y234485D01*
X282894Y234410D01*
X282983Y234334D01*
X282989Y234332D01*
X282994Y234328D01*
X283102Y234286D01*
X283211Y234242D01*
X283219Y234241D01*
X283223Y234240D01*
X283242Y234239D01*
X283378Y234224D01*
X287838Y234224D01*
X290125Y233276D01*
X291983Y231418D01*
X319787Y203615D01*
X319866Y203558D01*
X319941Y203496D01*
X319965Y203487D01*
X319986Y203471D01*
X320080Y203443D01*
X320170Y203408D01*
X320197Y203407D01*
X320222Y203399D01*
X320319Y203402D01*
X320416Y203397D01*
X320441Y203405D01*
X320467Y203405D01*
X320559Y203439D01*
X320652Y203466D01*
X320674Y203481D01*
X320698Y203490D01*
X320775Y203551D01*
X320854Y203606D01*
X320870Y203627D01*
X320890Y203644D01*
X320943Y203725D01*
X321001Y203804D01*
X321009Y203828D01*
X321023Y203850D01*
X321047Y203945D01*
X321077Y204037D01*
X321077Y204064D01*
X321084Y204089D01*
X321076Y204186D01*
X321075Y204283D01*
X321066Y204315D01*
X321064Y204334D01*
X321052Y204364D01*
X321028Y204445D01*
X319585Y207928D01*
X319585Y211298D01*
X319571Y211388D01*
X319563Y211479D01*
X319551Y211509D01*
X319546Y211540D01*
X319503Y211621D01*
X319467Y211705D01*
X319441Y211737D01*
X319430Y211758D01*
X319407Y211780D01*
X319362Y211836D01*
X294724Y236475D01*
X293776Y238762D01*
X293776Y252206D01*
X293773Y252226D01*
X293775Y252245D01*
X293753Y252347D01*
X293737Y252449D01*
X293727Y252466D01*
X293723Y252486D01*
X293670Y252575D01*
X293621Y252666D01*
X293607Y252680D01*
X293597Y252697D01*
X293518Y252764D01*
X293443Y252836D01*
X293425Y252844D01*
X293410Y252857D01*
X293314Y252896D01*
X293220Y252939D01*
X293200Y252941D01*
X293182Y252949D01*
X293015Y252967D01*
X288805Y252967D01*
X284750Y254647D01*
X281647Y257750D01*
X279967Y261805D01*
X279967Y266195D01*
X281647Y270250D01*
X282760Y271362D01*
X282771Y271378D01*
X282787Y271391D01*
X282843Y271478D01*
X282903Y271562D01*
X282909Y271581D01*
X282920Y271598D01*
X282945Y271698D01*
X282975Y271797D01*
X282975Y271817D01*
X282980Y271836D01*
X282972Y271939D01*
X282969Y272043D01*
X282962Y272062D01*
X282961Y272081D01*
X282920Y272176D01*
X282885Y272274D01*
X282872Y272290D01*
X282864Y272308D01*
X282760Y272439D01*
X266582Y288617D01*
X264840Y290358D01*
X264782Y290400D01*
X264730Y290449D01*
X264683Y290471D01*
X264641Y290502D01*
X264572Y290523D01*
X264507Y290553D01*
X264455Y290559D01*
X264405Y290574D01*
X264334Y290572D01*
X264263Y290580D01*
X264212Y290569D01*
X264160Y290568D01*
X264092Y290543D01*
X264022Y290528D01*
X263977Y290501D01*
X263929Y290483D01*
X263873Y290438D01*
X263811Y290402D01*
X263777Y290362D01*
X263737Y290329D01*
X263698Y290269D01*
X263651Y290215D01*
X263632Y290166D01*
X263604Y290123D01*
X263586Y290053D01*
X263559Y289987D01*
X263551Y289915D01*
X263543Y289884D01*
X263545Y289861D01*
X263541Y289820D01*
X263541Y284092D01*
X263257Y282298D01*
X262695Y280570D01*
X261871Y278951D01*
X260803Y277482D01*
X259518Y276197D01*
X258049Y275129D01*
X256430Y274305D01*
X254702Y273743D01*
X253523Y273557D01*
X253523Y293238D01*
X253520Y293258D01*
X253522Y293277D01*
X253500Y293379D01*
X253483Y293481D01*
X253474Y293498D01*
X253470Y293518D01*
X253417Y293607D01*
X253368Y293698D01*
X253354Y293712D01*
X253344Y293729D01*
X253265Y293796D01*
X253190Y293867D01*
X253172Y293876D01*
X253157Y293889D01*
X253061Y293927D01*
X252967Y293971D01*
X252947Y293973D01*
X252929Y293981D01*
X252762Y293999D01*
X251999Y293999D01*
X251999Y294001D01*
X252762Y294001D01*
X252782Y294004D01*
X252801Y294002D01*
X252903Y294024D01*
X253005Y294041D01*
X253022Y294050D01*
X253042Y294054D01*
X253131Y294107D01*
X253222Y294156D01*
X253236Y294170D01*
X253253Y294180D01*
X253320Y294259D01*
X253391Y294334D01*
X253400Y294352D01*
X253413Y294367D01*
X253452Y294463D01*
X253495Y294557D01*
X253497Y294577D01*
X253505Y294595D01*
X253523Y294762D01*
X253523Y314443D01*
X254702Y314257D01*
X256430Y313695D01*
X258049Y312871D01*
X259518Y311803D01*
X260803Y310518D01*
X261871Y309049D01*
X262337Y308134D01*
X262377Y308079D01*
X262409Y308019D01*
X262449Y307981D01*
X262482Y307935D01*
X262538Y307896D01*
X262587Y307850D01*
X262638Y307826D01*
X262684Y307794D01*
X262748Y307775D01*
X262810Y307746D01*
X262866Y307740D01*
X262919Y307724D01*
X262987Y307726D01*
X263054Y307719D01*
X263109Y307731D01*
X263165Y307733D01*
X263229Y307757D01*
X263295Y307771D01*
X263343Y307800D01*
X263395Y307820D01*
X263448Y307863D01*
X263506Y307897D01*
X263542Y307940D01*
X263586Y307975D01*
X263622Y308033D01*
X263666Y308084D01*
X263687Y308136D01*
X263717Y308184D01*
X263732Y308250D01*
X263758Y308313D01*
X263766Y308391D01*
X263774Y308423D01*
X263772Y308444D01*
X263776Y308479D01*
X263776Y317107D01*
X263762Y317197D01*
X263754Y317288D01*
X263742Y317318D01*
X263737Y317349D01*
X263694Y317430D01*
X263658Y317514D01*
X263632Y317546D01*
X263621Y317567D01*
X263598Y317589D01*
X263553Y317645D01*
X257645Y323553D01*
X257571Y323606D01*
X257502Y323666D01*
X257471Y323678D01*
X257445Y323697D01*
X257358Y323724D01*
X257273Y323758D01*
X257233Y323762D01*
X257210Y323769D01*
X257178Y323768D01*
X257107Y323776D01*
X241334Y323776D01*
X241243Y323762D01*
X241153Y323754D01*
X241123Y323742D01*
X241091Y323737D01*
X241010Y323694D01*
X240926Y323658D01*
X240894Y323632D01*
X240873Y323621D01*
X240851Y323598D01*
X240795Y323553D01*
X238525Y321283D01*
X234745Y319717D01*
X230655Y319717D01*
X226875Y321283D01*
X223983Y324175D01*
X222417Y327955D01*
X222417Y332045D01*
X223983Y335825D01*
X225936Y337778D01*
X225978Y337836D01*
X226027Y337888D01*
X226049Y337935D01*
X226079Y337977D01*
X226100Y338046D01*
X226131Y338111D01*
X226136Y338163D01*
X226152Y338213D01*
X226150Y338284D01*
X226158Y338355D01*
X226147Y338406D01*
X226145Y338458D01*
X226121Y338526D01*
X226105Y338596D01*
X226079Y338641D01*
X226061Y338689D01*
X226016Y338745D01*
X225979Y338807D01*
X225940Y338841D01*
X225907Y338881D01*
X225847Y338920D01*
X225792Y338967D01*
X225744Y338986D01*
X225700Y339014D01*
X225631Y339032D01*
X225564Y339059D01*
X225493Y339067D01*
X225462Y339075D01*
X225438Y339073D01*
X225397Y339077D01*
X218852Y339077D01*
X218832Y339074D01*
X218813Y339076D01*
X218711Y339054D01*
X218609Y339038D01*
X218592Y339028D01*
X218572Y339024D01*
X218483Y338971D01*
X218392Y338922D01*
X218378Y338908D01*
X218361Y338898D01*
X218294Y338819D01*
X218222Y338744D01*
X218214Y338726D01*
X218201Y338711D01*
X218162Y338615D01*
X218119Y338521D01*
X218117Y338501D01*
X218109Y338483D01*
X218091Y338316D01*
X218091Y331523D01*
X208062Y331523D01*
X208042Y331520D01*
X208023Y331522D01*
X207921Y331500D01*
X207819Y331483D01*
X207802Y331474D01*
X207782Y331470D01*
X207693Y331417D01*
X207602Y331368D01*
X207588Y331354D01*
X207571Y331344D01*
X207504Y331265D01*
X207433Y331190D01*
X207424Y331172D01*
X207411Y331157D01*
X207373Y331061D01*
X207329Y330967D01*
X207327Y330947D01*
X207319Y330929D01*
X207301Y330762D01*
X207301Y329999D01*
X207299Y329999D01*
X207299Y330762D01*
X207296Y330782D01*
X207298Y330801D01*
X207276Y330903D01*
X207259Y331005D01*
X207250Y331022D01*
X207246Y331042D01*
X207193Y331131D01*
X207144Y331222D01*
X207130Y331236D01*
X207120Y331253D01*
X207041Y331320D01*
X206966Y331391D01*
X206948Y331400D01*
X206933Y331413D01*
X206837Y331452D01*
X206743Y331495D01*
X206723Y331497D01*
X206705Y331505D01*
X206538Y331523D01*
X196509Y331523D01*
X196509Y338316D01*
X196506Y338336D01*
X196508Y338355D01*
X196486Y338457D01*
X196470Y338559D01*
X196460Y338576D01*
X196456Y338596D01*
X196403Y338685D01*
X196354Y338776D01*
X196340Y338790D01*
X196330Y338807D01*
X196251Y338874D01*
X196176Y338946D01*
X196158Y338954D01*
X196143Y338967D01*
X196047Y339006D01*
X195953Y339049D01*
X195933Y339051D01*
X195915Y339059D01*
X195748Y339077D01*
X14840Y339077D01*
X14750Y339063D01*
X14659Y339055D01*
X14629Y339043D01*
X14597Y339038D01*
X14516Y338995D01*
X14432Y338959D01*
X14400Y338933D01*
X14380Y338922D01*
X14357Y338899D01*
X14301Y338854D01*
X11146Y335699D01*
X11093Y335625D01*
X11033Y335555D01*
X11021Y335525D01*
X11002Y335499D01*
X10975Y335412D01*
X10941Y335327D01*
X10937Y335286D01*
X10930Y335264D01*
X10931Y335232D01*
X10923Y335160D01*
X10923Y243608D01*
X10934Y243537D01*
X10936Y243465D01*
X10954Y243416D01*
X10962Y243365D01*
X10996Y243302D01*
X11021Y243234D01*
X11053Y243194D01*
X11078Y243147D01*
X11130Y243098D01*
X11174Y243042D01*
X11218Y243014D01*
X11256Y242978D01*
X11321Y242948D01*
X11381Y242909D01*
X11432Y242896D01*
X11479Y242874D01*
X11550Y242867D01*
X11620Y242849D01*
X11672Y242853D01*
X11723Y242847D01*
X11794Y242863D01*
X11865Y242868D01*
X11913Y242889D01*
X11964Y242900D01*
X12025Y242936D01*
X12091Y242965D01*
X12147Y243009D01*
X12175Y243026D01*
X12190Y243044D01*
X12222Y243069D01*
X12884Y243731D01*
X14275Y244742D01*
X15807Y245522D01*
X17442Y246054D01*
X18477Y246218D01*
X18477Y236162D01*
X18480Y236142D01*
X18478Y236123D01*
X18500Y236021D01*
X18517Y235919D01*
X18526Y235902D01*
X18530Y235882D01*
X18583Y235793D01*
X18632Y235702D01*
X18646Y235688D01*
X18656Y235671D01*
X18735Y235604D01*
X18810Y235533D01*
X18828Y235524D01*
X18843Y235511D01*
X18939Y235473D01*
X19033Y235429D01*
X19053Y235427D01*
X19071Y235419D01*
X19238Y235401D01*
X20001Y235401D01*
X20001Y235399D01*
X19238Y235399D01*
X19218Y235396D01*
X19199Y235398D01*
X19097Y235376D01*
X18995Y235359D01*
X18978Y235350D01*
X18958Y235346D01*
X18869Y235293D01*
X18778Y235244D01*
X18764Y235230D01*
X18747Y235220D01*
X18680Y235141D01*
X18609Y235066D01*
X18600Y235048D01*
X18587Y235033D01*
X18548Y234937D01*
X18505Y234843D01*
X18503Y234823D01*
X18495Y234805D01*
X18477Y234638D01*
X18477Y224582D01*
X17442Y224746D01*
X15807Y225278D01*
X14275Y226058D01*
X12884Y227069D01*
X12222Y227731D01*
X12164Y227773D01*
X12112Y227822D01*
X12065Y227844D01*
X12023Y227874D01*
X11954Y227895D01*
X11889Y227926D01*
X11837Y227931D01*
X11787Y227947D01*
X11716Y227945D01*
X11645Y227953D01*
X11594Y227942D01*
X11542Y227940D01*
X11474Y227916D01*
X11404Y227900D01*
X11359Y227874D01*
X11311Y227856D01*
X11255Y227811D01*
X11193Y227774D01*
X11159Y227735D01*
X11119Y227702D01*
X11080Y227642D01*
X11033Y227587D01*
X11014Y227539D01*
X10986Y227495D01*
X10968Y227426D01*
X10941Y227359D01*
X10933Y227288D01*
X10925Y227257D01*
X10927Y227233D01*
X10923Y227192D01*
X10923Y217489D01*
X10934Y217418D01*
X10936Y217347D01*
X10954Y217298D01*
X10962Y217246D01*
X10996Y217183D01*
X11021Y217116D01*
X11053Y217075D01*
X11078Y217029D01*
X11130Y216980D01*
X11174Y216924D01*
X11218Y216896D01*
X11256Y216860D01*
X11321Y216830D01*
X11381Y216791D01*
X11432Y216778D01*
X11479Y216756D01*
X11550Y216748D01*
X11620Y216731D01*
X11672Y216735D01*
X11723Y216729D01*
X11794Y216744D01*
X11865Y216750D01*
X11913Y216770D01*
X11964Y216781D01*
X12025Y216818D01*
X12091Y216846D01*
X12147Y216891D01*
X12175Y216907D01*
X12190Y216925D01*
X12222Y216951D01*
X14100Y218829D01*
X17928Y220415D01*
X22072Y220415D01*
X25900Y218829D01*
X28829Y215900D01*
X29184Y215043D01*
X29246Y214943D01*
X29306Y214843D01*
X29310Y214839D01*
X29314Y214834D01*
X29404Y214759D01*
X29493Y214683D01*
X29498Y214681D01*
X29503Y214677D01*
X29612Y214635D01*
X29721Y214591D01*
X29728Y214590D01*
X29733Y214589D01*
X29751Y214588D01*
X29887Y214573D01*
X40056Y214573D01*
X40076Y214576D01*
X40095Y214574D01*
X40197Y214596D01*
X40299Y214612D01*
X40316Y214622D01*
X40336Y214626D01*
X40425Y214679D01*
X40516Y214728D01*
X40530Y214742D01*
X40547Y214752D01*
X40614Y214831D01*
X40686Y214906D01*
X40694Y214924D01*
X40707Y214939D01*
X40746Y215035D01*
X40789Y215129D01*
X40791Y215149D01*
X40799Y215167D01*
X40817Y215334D01*
X40817Y223004D01*
X46196Y228383D01*
X53804Y228383D01*
X59183Y223004D01*
X59183Y215396D01*
X54796Y211009D01*
X54743Y210935D01*
X54683Y210866D01*
X54671Y210836D01*
X54652Y210810D01*
X54625Y210723D01*
X54591Y210638D01*
X54587Y210597D01*
X54580Y210575D01*
X54581Y210542D01*
X54573Y210471D01*
X54573Y195209D01*
X54587Y195119D01*
X54595Y195028D01*
X54607Y194999D01*
X54612Y194967D01*
X54655Y194886D01*
X54691Y194802D01*
X54717Y194770D01*
X54728Y194749D01*
X54751Y194727D01*
X54796Y194671D01*
X58671Y190796D01*
X58745Y190743D01*
X58815Y190683D01*
X58845Y190671D01*
X58871Y190652D01*
X58958Y190625D01*
X59043Y190591D01*
X59084Y190587D01*
X59106Y190580D01*
X59138Y190581D01*
X59209Y190573D01*
X65894Y190573D01*
X83224Y173243D01*
X83282Y173201D01*
X83334Y173152D01*
X83381Y173130D01*
X83423Y173100D01*
X83492Y173078D01*
X83557Y173048D01*
X83609Y173042D01*
X83659Y173027D01*
X83730Y173029D01*
X83801Y173021D01*
X83852Y173032D01*
X83904Y173034D01*
X83972Y173058D01*
X84042Y173073D01*
X84087Y173100D01*
X84135Y173118D01*
X84191Y173163D01*
X84253Y173200D01*
X84287Y173239D01*
X84327Y173272D01*
X84366Y173332D01*
X84413Y173386D01*
X84432Y173435D01*
X84460Y173479D01*
X84478Y173548D01*
X84505Y173615D01*
X84513Y173686D01*
X84521Y173717D01*
X84519Y173740D01*
X84523Y173781D01*
X84523Y175590D01*
X90695Y181762D01*
X90707Y181778D01*
X90722Y181790D01*
X90778Y181878D01*
X90838Y181961D01*
X90844Y181980D01*
X90855Y181997D01*
X90880Y182098D01*
X90911Y182197D01*
X90910Y182216D01*
X90915Y182236D01*
X90907Y182339D01*
X90904Y182442D01*
X90898Y182461D01*
X90896Y182481D01*
X90856Y182576D01*
X90820Y182673D01*
X90807Y182689D01*
X90800Y182707D01*
X90695Y182838D01*
X75427Y198106D01*
X75427Y210471D01*
X75413Y210561D01*
X75405Y210652D01*
X75393Y210682D01*
X75388Y210714D01*
X75345Y210795D01*
X75309Y210878D01*
X75283Y210911D01*
X75272Y210931D01*
X75249Y210953D01*
X75204Y211009D01*
X70817Y215396D01*
X70817Y223004D01*
X76196Y228383D01*
X83804Y228383D01*
X89183Y223004D01*
X89183Y215396D01*
X84796Y211009D01*
X84743Y210935D01*
X84683Y210866D01*
X84671Y210836D01*
X84652Y210810D01*
X84625Y210723D01*
X84591Y210638D01*
X84587Y210597D01*
X84580Y210575D01*
X84581Y210542D01*
X84573Y210471D01*
X84573Y202209D01*
X84587Y202119D01*
X84595Y202028D01*
X84607Y201999D01*
X84612Y201967D01*
X84655Y201886D01*
X84691Y201802D01*
X84717Y201770D01*
X84728Y201749D01*
X84751Y201727D01*
X84796Y201671D01*
X99371Y187096D01*
X99445Y187043D01*
X99515Y186983D01*
X99545Y186971D01*
X99571Y186952D01*
X99658Y186925D01*
X99743Y186891D01*
X99784Y186887D01*
X99806Y186880D01*
X99838Y186881D01*
X99909Y186873D01*
X135791Y186873D01*
X135881Y186887D01*
X135972Y186895D01*
X136001Y186907D01*
X136033Y186912D01*
X136114Y186955D01*
X136198Y186991D01*
X136230Y187017D01*
X136251Y187028D01*
X136273Y187051D01*
X136329Y187096D01*
X143806Y194573D01*
X156494Y194573D01*
X159396Y191671D01*
X167060Y184007D01*
X167076Y183996D01*
X167088Y183980D01*
X167175Y183924D01*
X167259Y183864D01*
X167278Y183858D01*
X167295Y183847D01*
X167396Y183822D01*
X167494Y183791D01*
X167514Y183792D01*
X167534Y183787D01*
X167637Y183795D01*
X167740Y183798D01*
X167759Y183805D01*
X167779Y183806D01*
X167874Y183846D01*
X167971Y183882D01*
X167987Y183895D01*
X168005Y183902D01*
X168136Y184007D01*
X169532Y185403D01*
X173080Y186873D01*
X176920Y186873D01*
X180468Y185403D01*
X183183Y182688D01*
X184653Y179140D01*
X184653Y160060D01*
X183183Y156512D01*
X181447Y154776D01*
X181394Y154702D01*
X181334Y154632D01*
X181322Y154602D01*
X181303Y154576D01*
X181276Y154489D01*
X181242Y154404D01*
X181238Y154363D01*
X181231Y154341D01*
X181232Y154309D01*
X181224Y154237D01*
X181224Y47893D01*
X181238Y47803D01*
X181246Y47712D01*
X181258Y47682D01*
X181263Y47651D01*
X181306Y47570D01*
X181342Y47486D01*
X181368Y47454D01*
X181379Y47433D01*
X181402Y47411D01*
X181447Y47355D01*
X187482Y41320D01*
X187556Y41267D01*
X187625Y41207D01*
X187656Y41195D01*
X187682Y41176D01*
X187769Y41149D01*
X187854Y41115D01*
X187894Y41111D01*
X187917Y41104D01*
X187949Y41105D01*
X188020Y41097D01*
X268356Y41097D01*
X268376Y41100D01*
X268395Y41098D01*
X268497Y41120D01*
X268599Y41136D01*
X268616Y41146D01*
X268636Y41150D01*
X268725Y41203D01*
X268816Y41252D01*
X268830Y41266D01*
X268847Y41276D01*
X268914Y41355D01*
X268986Y41430D01*
X268994Y41448D01*
X269007Y41463D01*
X269046Y41559D01*
X269089Y41653D01*
X269091Y41673D01*
X269099Y41691D01*
X269117Y41858D01*
X269117Y44524D01*
X270911Y48854D01*
X274226Y52169D01*
X278556Y53963D01*
X283244Y53963D01*
X287574Y52169D01*
X290889Y48854D01*
X292683Y44524D01*
X292683Y39836D01*
X290889Y35506D01*
X287574Y32191D01*
X283244Y30397D01*
X278541Y30397D01*
X278462Y30416D01*
X278348Y30445D01*
X278342Y30444D01*
X278336Y30445D01*
X278220Y30434D01*
X278103Y30425D01*
X278097Y30423D01*
X278091Y30422D01*
X277984Y30375D01*
X277877Y30329D01*
X277871Y30324D01*
X277866Y30322D01*
X277853Y30310D01*
X277746Y30224D01*
X277118Y29597D01*
X274831Y28649D01*
X250852Y28649D01*
X250832Y28646D01*
X250813Y28648D01*
X250711Y28626D01*
X250609Y28610D01*
X250592Y28600D01*
X250572Y28596D01*
X250483Y28543D01*
X250392Y28494D01*
X250378Y28480D01*
X250361Y28470D01*
X250294Y28391D01*
X250222Y28316D01*
X250214Y28298D01*
X250201Y28283D01*
X250162Y28187D01*
X250119Y28093D01*
X250117Y28073D01*
X250109Y28055D01*
X250091Y27888D01*
X250091Y21923D01*
X240062Y21923D01*
X240042Y21920D01*
X240023Y21922D01*
X239921Y21900D01*
X239819Y21883D01*
X239802Y21874D01*
X239782Y21870D01*
X239693Y21817D01*
X239602Y21768D01*
X239588Y21754D01*
X239571Y21744D01*
X239504Y21665D01*
X239433Y21590D01*
X239424Y21572D01*
X239411Y21557D01*
X239373Y21461D01*
X239329Y21367D01*
X239327Y21347D01*
X239319Y21329D01*
X239301Y21162D01*
X239301Y19638D01*
X239304Y19618D01*
X239302Y19599D01*
X239324Y19497D01*
X239341Y19395D01*
X239350Y19378D01*
X239354Y19358D01*
X239407Y19269D01*
X239456Y19178D01*
X239470Y19164D01*
X239480Y19147D01*
X239559Y19080D01*
X239634Y19009D01*
X239652Y19000D01*
X239667Y18987D01*
X239763Y18948D01*
X239857Y18905D01*
X239877Y18903D01*
X239895Y18895D01*
X240062Y18877D01*
X250091Y18877D01*
X250091Y11715D01*
X250091Y11714D01*
X250083Y11645D01*
X250084Y11641D01*
X250084Y11637D01*
X250110Y11521D01*
X250136Y11404D01*
X250138Y11401D01*
X250138Y11397D01*
X250201Y11295D01*
X250262Y11193D01*
X250265Y11191D01*
X250267Y11187D01*
X250358Y11111D01*
X250449Y11033D01*
X250452Y11032D01*
X250455Y11029D01*
X250565Y10986D01*
X250677Y10941D01*
X250682Y10941D01*
X250684Y10940D01*
X250697Y10939D01*
X250844Y10923D01*
X335160Y10923D01*
X335250Y10937D01*
G37*
G36*
X28524Y10934D02*
X28524Y10934D01*
X28596Y10936D01*
X28645Y10954D01*
X28696Y10962D01*
X28759Y10996D01*
X28827Y11021D01*
X28867Y11053D01*
X28913Y11078D01*
X28963Y11130D01*
X29019Y11174D01*
X29047Y11218D01*
X29083Y11256D01*
X29113Y11321D01*
X29152Y11381D01*
X29164Y11432D01*
X29186Y11479D01*
X29194Y11550D01*
X29212Y11620D01*
X29208Y11672D01*
X29213Y11723D01*
X29198Y11794D01*
X29193Y11865D01*
X29172Y11913D01*
X29161Y11964D01*
X29124Y12025D01*
X29096Y12091D01*
X29051Y12147D01*
X29035Y12175D01*
X29017Y12190D01*
X28991Y12222D01*
X26817Y14396D01*
X26817Y22004D01*
X32196Y27383D01*
X39804Y27383D01*
X44191Y22996D01*
X44265Y22943D01*
X44334Y22883D01*
X44364Y22871D01*
X44390Y22852D01*
X44477Y22825D01*
X44562Y22791D01*
X44603Y22787D01*
X44625Y22780D01*
X44658Y22781D01*
X44729Y22773D01*
X55271Y22773D01*
X55361Y22787D01*
X55452Y22795D01*
X55482Y22807D01*
X55514Y22812D01*
X55595Y22855D01*
X55678Y22891D01*
X55711Y22917D01*
X55731Y22928D01*
X55753Y22951D01*
X55809Y22996D01*
X60196Y27383D01*
X66401Y27383D01*
X66491Y27397D01*
X66582Y27405D01*
X66611Y27417D01*
X66643Y27422D01*
X66724Y27465D01*
X66808Y27501D01*
X66840Y27527D01*
X66861Y27538D01*
X66883Y27561D01*
X66939Y27606D01*
X115204Y75871D01*
X115249Y75933D01*
X115276Y75962D01*
X115281Y75973D01*
X115317Y76015D01*
X115329Y76045D01*
X115348Y76071D01*
X115375Y76158D01*
X115409Y76243D01*
X115413Y76284D01*
X115420Y76306D01*
X115419Y76338D01*
X115427Y76409D01*
X115427Y141894D01*
X118329Y144796D01*
X139724Y166191D01*
X139777Y166265D01*
X139837Y166335D01*
X139849Y166365D01*
X139868Y166391D01*
X139895Y166478D01*
X139929Y166563D01*
X139933Y166604D01*
X139940Y166626D01*
X139939Y166658D01*
X139947Y166729D01*
X139947Y176966D01*
X139944Y176986D01*
X139946Y177005D01*
X139924Y177107D01*
X139908Y177209D01*
X139898Y177226D01*
X139894Y177246D01*
X139841Y177335D01*
X139792Y177426D01*
X139778Y177440D01*
X139768Y177457D01*
X139689Y177524D01*
X139614Y177596D01*
X139596Y177604D01*
X139581Y177617D01*
X139485Y177656D01*
X139391Y177699D01*
X139371Y177701D01*
X139353Y177709D01*
X139186Y177727D01*
X99909Y177727D01*
X99819Y177713D01*
X99728Y177705D01*
X99699Y177693D01*
X99667Y177688D01*
X99586Y177645D01*
X99502Y177609D01*
X99470Y177583D01*
X99449Y177572D01*
X99427Y177549D01*
X99371Y177504D01*
X93892Y172025D01*
X93839Y171951D01*
X93779Y171881D01*
X93767Y171851D01*
X93748Y171825D01*
X93721Y171738D01*
X93687Y171653D01*
X93683Y171612D01*
X93676Y171590D01*
X93677Y171558D01*
X93669Y171487D01*
X93669Y126202D01*
X70894Y103427D01*
X45906Y103427D01*
X38939Y110394D01*
X38865Y110447D01*
X38795Y110507D01*
X38765Y110519D01*
X38739Y110538D01*
X38652Y110565D01*
X38567Y110599D01*
X38526Y110603D01*
X38504Y110610D01*
X38472Y110609D01*
X38401Y110617D01*
X32196Y110617D01*
X26817Y115996D01*
X26817Y123604D01*
X32196Y128983D01*
X35489Y128983D01*
X35536Y128990D01*
X35584Y128989D01*
X35657Y129010D01*
X35731Y129022D01*
X35774Y129045D01*
X35820Y129059D01*
X35882Y129102D01*
X35949Y129138D01*
X35982Y129172D01*
X36021Y129200D01*
X36066Y129261D01*
X36118Y129316D01*
X36138Y129359D01*
X36167Y129398D01*
X36190Y129470D01*
X36222Y129539D01*
X36227Y129587D01*
X36242Y129632D01*
X36241Y129708D01*
X36249Y129783D01*
X36239Y129830D01*
X36238Y129878D01*
X36213Y129950D01*
X36197Y130024D01*
X36172Y130065D01*
X36156Y130110D01*
X36109Y130170D01*
X36070Y130235D01*
X36034Y130266D01*
X36004Y130304D01*
X35901Y130380D01*
X35884Y130395D01*
X35877Y130397D01*
X35869Y130403D01*
X33114Y131994D01*
X27994Y137114D01*
X24373Y143385D01*
X22499Y150379D01*
X22499Y157621D01*
X24373Y164615D01*
X27994Y170886D01*
X33114Y176006D01*
X39385Y179627D01*
X46379Y181501D01*
X53195Y181501D01*
X53265Y181512D01*
X53337Y181514D01*
X53386Y181532D01*
X53437Y181540D01*
X53501Y181574D01*
X53568Y181599D01*
X53609Y181631D01*
X53655Y181656D01*
X53704Y181708D01*
X53760Y181752D01*
X53788Y181796D01*
X53824Y181834D01*
X53854Y181899D01*
X53893Y181959D01*
X53906Y182010D01*
X53928Y182057D01*
X53936Y182128D01*
X53953Y182198D01*
X53949Y182250D01*
X53955Y182301D01*
X53940Y182372D01*
X53934Y182443D01*
X53914Y182491D01*
X53903Y182542D01*
X53866Y182603D01*
X53838Y182669D01*
X53793Y182725D01*
X53776Y182753D01*
X53759Y182768D01*
X53733Y182800D01*
X45427Y191106D01*
X45427Y201791D01*
X45413Y201881D01*
X45405Y201972D01*
X45393Y202001D01*
X45388Y202033D01*
X45345Y202114D01*
X45309Y202198D01*
X45283Y202230D01*
X45272Y202251D01*
X45249Y202273D01*
X45204Y202329D01*
X42329Y205204D01*
X42255Y205257D01*
X42185Y205317D01*
X42155Y205329D01*
X42129Y205348D01*
X42042Y205375D01*
X41957Y205409D01*
X41916Y205413D01*
X41894Y205420D01*
X41862Y205419D01*
X41791Y205427D01*
X29887Y205427D01*
X29773Y205408D01*
X29656Y205391D01*
X29651Y205389D01*
X29645Y205388D01*
X29542Y205333D01*
X29437Y205280D01*
X29433Y205275D01*
X29427Y205272D01*
X29347Y205188D01*
X29265Y205104D01*
X29261Y205098D01*
X29258Y205094D01*
X29250Y205077D01*
X29184Y204957D01*
X28829Y204100D01*
X25900Y201171D01*
X22072Y199585D01*
X17928Y199585D01*
X14100Y201171D01*
X12222Y203049D01*
X12164Y203091D01*
X12112Y203140D01*
X12065Y203162D01*
X12023Y203193D01*
X11954Y203214D01*
X11889Y203244D01*
X11837Y203250D01*
X11787Y203265D01*
X11716Y203263D01*
X11645Y203271D01*
X11594Y203260D01*
X11542Y203259D01*
X11474Y203234D01*
X11404Y203219D01*
X11359Y203192D01*
X11311Y203174D01*
X11255Y203129D01*
X11193Y203093D01*
X11159Y203053D01*
X11119Y203020D01*
X11080Y202960D01*
X11033Y202906D01*
X11014Y202857D01*
X10986Y202814D01*
X10968Y202744D01*
X10941Y202678D01*
X10933Y202606D01*
X10925Y202575D01*
X10927Y202552D01*
X10923Y202511D01*
X10923Y192089D01*
X10925Y192074D01*
X10924Y192061D01*
X10934Y192011D01*
X10936Y191947D01*
X10954Y191898D01*
X10962Y191846D01*
X10976Y191821D01*
X10976Y191820D01*
X10978Y191817D01*
X10996Y191783D01*
X11021Y191716D01*
X11053Y191675D01*
X11078Y191629D01*
X11130Y191580D01*
X11174Y191524D01*
X11218Y191496D01*
X11256Y191460D01*
X11321Y191430D01*
X11381Y191391D01*
X11432Y191378D01*
X11479Y191356D01*
X11550Y191348D01*
X11620Y191331D01*
X11672Y191335D01*
X11723Y191329D01*
X11794Y191344D01*
X11865Y191350D01*
X11913Y191370D01*
X11964Y191381D01*
X12025Y191418D01*
X12091Y191446D01*
X12143Y191487D01*
X12155Y191494D01*
X12159Y191498D01*
X12175Y191507D01*
X12190Y191525D01*
X12222Y191551D01*
X14100Y193429D01*
X17928Y195015D01*
X22072Y195015D01*
X25900Y193429D01*
X28829Y190500D01*
X30415Y186672D01*
X30415Y182528D01*
X28829Y178700D01*
X25900Y175771D01*
X22072Y174185D01*
X17928Y174185D01*
X14100Y175771D01*
X12222Y177649D01*
X12164Y177691D01*
X12112Y177740D01*
X12065Y177762D01*
X12023Y177793D01*
X11954Y177814D01*
X11889Y177844D01*
X11837Y177850D01*
X11787Y177865D01*
X11716Y177863D01*
X11645Y177871D01*
X11594Y177860D01*
X11542Y177859D01*
X11474Y177834D01*
X11404Y177819D01*
X11359Y177792D01*
X11311Y177774D01*
X11255Y177729D01*
X11193Y177693D01*
X11159Y177653D01*
X11119Y177620D01*
X11080Y177560D01*
X11033Y177506D01*
X11014Y177457D01*
X10986Y177414D01*
X10968Y177344D01*
X10941Y177278D01*
X10933Y177206D01*
X10925Y177175D01*
X10927Y177152D01*
X10923Y177111D01*
X10923Y14840D01*
X10937Y14750D01*
X10945Y14659D01*
X10957Y14629D01*
X10962Y14597D01*
X11005Y14516D01*
X11041Y14432D01*
X11067Y14400D01*
X11078Y14380D01*
X11101Y14357D01*
X11146Y14301D01*
X14301Y11146D01*
X14375Y11093D01*
X14445Y11033D01*
X14475Y11021D01*
X14501Y11002D01*
X14588Y10975D01*
X14673Y10941D01*
X14714Y10937D01*
X14736Y10930D01*
X14768Y10931D01*
X14840Y10923D01*
X28453Y10923D01*
X28524Y10934D01*
G37*
G36*
X320441Y228805D02*
X320441Y228805D01*
X320467Y228805D01*
X320559Y228839D01*
X320652Y228866D01*
X320674Y228881D01*
X320698Y228890D01*
X320775Y228951D01*
X320854Y229006D01*
X320870Y229027D01*
X320890Y229044D01*
X320943Y229125D01*
X321001Y229204D01*
X321009Y229228D01*
X321023Y229250D01*
X321047Y229345D01*
X321077Y229437D01*
X321077Y229464D01*
X321084Y229489D01*
X321076Y229586D01*
X321075Y229683D01*
X321066Y229715D01*
X321064Y229734D01*
X321052Y229764D01*
X321028Y229845D01*
X319585Y233328D01*
X319585Y237472D01*
X321171Y241300D01*
X324100Y244229D01*
X327928Y245815D01*
X332072Y245815D01*
X335900Y244229D01*
X337778Y242351D01*
X337836Y242309D01*
X337888Y242260D01*
X337935Y242238D01*
X337977Y242207D01*
X338046Y242186D01*
X338111Y242156D01*
X338163Y242150D01*
X338213Y242135D01*
X338284Y242137D01*
X338355Y242129D01*
X338406Y242140D01*
X338458Y242141D01*
X338526Y242166D01*
X338596Y242181D01*
X338641Y242208D01*
X338689Y242226D01*
X338745Y242271D01*
X338807Y242307D01*
X338841Y242347D01*
X338881Y242380D01*
X338920Y242440D01*
X338967Y242494D01*
X338986Y242543D01*
X339014Y242586D01*
X339032Y242656D01*
X339059Y242722D01*
X339067Y242794D01*
X339075Y242825D01*
X339073Y242848D01*
X339077Y242889D01*
X339077Y335160D01*
X339063Y335250D01*
X339055Y335341D01*
X339043Y335371D01*
X339038Y335403D01*
X338995Y335484D01*
X338959Y335568D01*
X338933Y335600D01*
X338922Y335620D01*
X338899Y335643D01*
X338854Y335699D01*
X335699Y338854D01*
X335625Y338907D01*
X335555Y338967D01*
X335525Y338979D01*
X335499Y338998D01*
X335412Y339025D01*
X335327Y339059D01*
X335286Y339063D01*
X335264Y339070D01*
X335232Y339069D01*
X335160Y339077D01*
X240003Y339077D01*
X239932Y339066D01*
X239860Y339064D01*
X239811Y339046D01*
X239760Y339038D01*
X239696Y339004D01*
X239629Y338979D01*
X239588Y338947D01*
X239542Y338922D01*
X239493Y338870D01*
X239437Y338826D01*
X239409Y338782D01*
X239373Y338744D01*
X239343Y338679D01*
X239304Y338619D01*
X239291Y338568D01*
X239269Y338521D01*
X239261Y338450D01*
X239244Y338380D01*
X239248Y338328D01*
X239242Y338277D01*
X239258Y338206D01*
X239263Y338135D01*
X239283Y338087D01*
X239295Y338036D01*
X239331Y337975D01*
X239359Y337909D01*
X239404Y337853D01*
X239421Y337825D01*
X239439Y337810D01*
X239464Y337778D01*
X240795Y336447D01*
X240869Y336394D01*
X240939Y336334D01*
X240969Y336322D01*
X240995Y336303D01*
X241082Y336276D01*
X241167Y336242D01*
X241208Y336238D01*
X241230Y336231D01*
X241262Y336232D01*
X241334Y336224D01*
X261238Y336224D01*
X263525Y335276D01*
X275276Y323525D01*
X276224Y321238D01*
X276224Y296893D01*
X276238Y296803D01*
X276246Y296712D01*
X276258Y296682D01*
X276263Y296651D01*
X276306Y296570D01*
X276342Y296486D01*
X276368Y296454D01*
X276379Y296433D01*
X276402Y296411D01*
X276447Y296355D01*
X297546Y275256D01*
X297620Y275203D01*
X297689Y275143D01*
X297720Y275131D01*
X297746Y275112D01*
X297833Y275085D01*
X297918Y275051D01*
X297958Y275047D01*
X297981Y275040D01*
X298013Y275041D01*
X298084Y275033D01*
X311195Y275033D01*
X315250Y273353D01*
X318353Y270250D01*
X320033Y266195D01*
X320033Y261805D01*
X318353Y257750D01*
X315250Y254647D01*
X311195Y252967D01*
X306985Y252967D01*
X306965Y252964D01*
X306946Y252966D01*
X306844Y252944D01*
X306742Y252928D01*
X306725Y252918D01*
X306705Y252914D01*
X306616Y252861D01*
X306525Y252812D01*
X306511Y252798D01*
X306494Y252788D01*
X306427Y252709D01*
X306355Y252634D01*
X306347Y252616D01*
X306334Y252601D01*
X306295Y252505D01*
X306252Y252411D01*
X306250Y252391D01*
X306242Y252373D01*
X306224Y252206D01*
X306224Y242893D01*
X306238Y242803D01*
X306246Y242712D01*
X306258Y242682D01*
X306263Y242651D01*
X306306Y242570D01*
X306342Y242486D01*
X306368Y242454D01*
X306379Y242433D01*
X306402Y242411D01*
X306447Y242355D01*
X319787Y229015D01*
X319866Y228958D01*
X319941Y228896D01*
X319965Y228887D01*
X319986Y228871D01*
X320080Y228843D01*
X320170Y228808D01*
X320197Y228807D01*
X320222Y228799D01*
X320319Y228802D01*
X320416Y228797D01*
X320441Y228805D01*
G37*
%LPC*%
G36*
X223476Y43315D02*
X223476Y43315D01*
X219181Y45094D01*
X215894Y48381D01*
X214115Y52676D01*
X214115Y57324D01*
X215894Y61619D01*
X219221Y64945D01*
X219306Y64996D01*
X219310Y65001D01*
X219315Y65004D01*
X219390Y65094D01*
X219466Y65183D01*
X219468Y65189D01*
X219472Y65194D01*
X219514Y65302D01*
X219558Y65411D01*
X219559Y65419D01*
X219560Y65423D01*
X219561Y65442D01*
X219576Y65578D01*
X219576Y78379D01*
X219565Y78449D01*
X219563Y78521D01*
X219545Y78570D01*
X219537Y78621D01*
X219503Y78685D01*
X219478Y78752D01*
X219446Y78793D01*
X219421Y78839D01*
X219369Y78888D01*
X219325Y78944D01*
X219281Y78972D01*
X219243Y79008D01*
X219178Y79038D01*
X219118Y79077D01*
X219067Y79090D01*
X219020Y79112D01*
X218949Y79120D01*
X218879Y79137D01*
X218827Y79133D01*
X218776Y79139D01*
X218705Y79124D01*
X218634Y79118D01*
X218586Y79098D01*
X218535Y79087D01*
X218474Y79050D01*
X218408Y79022D01*
X218352Y78977D01*
X218324Y78961D01*
X218309Y78943D01*
X218277Y78917D01*
X214159Y74799D01*
X211523Y74799D01*
X211523Y84078D01*
X211520Y84098D01*
X211522Y84117D01*
X211500Y84219D01*
X211483Y84321D01*
X211474Y84338D01*
X211470Y84358D01*
X211417Y84447D01*
X211368Y84538D01*
X211354Y84552D01*
X211344Y84569D01*
X211265Y84636D01*
X211190Y84707D01*
X211172Y84716D01*
X211157Y84729D01*
X211061Y84767D01*
X210967Y84811D01*
X210947Y84813D01*
X210929Y84821D01*
X210762Y84839D01*
X209999Y84839D01*
X209999Y85602D01*
X209996Y85622D01*
X209998Y85641D01*
X209976Y85743D01*
X209959Y85845D01*
X209950Y85862D01*
X209946Y85882D01*
X209893Y85971D01*
X209844Y86062D01*
X209830Y86076D01*
X209820Y86093D01*
X209741Y86160D01*
X209666Y86231D01*
X209648Y86240D01*
X209633Y86253D01*
X209537Y86292D01*
X209443Y86335D01*
X209423Y86337D01*
X209405Y86345D01*
X209238Y86363D01*
X199959Y86363D01*
X199959Y88999D01*
X205841Y94881D01*
X206079Y94881D01*
X206175Y94896D01*
X206272Y94906D01*
X206296Y94916D01*
X206322Y94920D01*
X206408Y94966D01*
X206497Y95006D01*
X206516Y95023D01*
X206539Y95036D01*
X206606Y95106D01*
X206678Y95172D01*
X206691Y95195D01*
X206709Y95214D01*
X206750Y95302D01*
X206797Y95388D01*
X206801Y95413D01*
X206812Y95437D01*
X206823Y95534D01*
X206840Y95630D01*
X206836Y95656D01*
X206839Y95681D01*
X206819Y95777D01*
X206804Y95873D01*
X206793Y95896D01*
X206787Y95922D01*
X206737Y96005D01*
X206693Y96092D01*
X206674Y96111D01*
X206661Y96133D01*
X206587Y96196D01*
X206517Y96264D01*
X206489Y96280D01*
X206474Y96293D01*
X206443Y96305D01*
X206370Y96345D01*
X204600Y97079D01*
X201919Y99760D01*
X200467Y103264D01*
X200467Y105576D01*
X200453Y105666D01*
X200445Y105757D01*
X200433Y105787D01*
X200428Y105818D01*
X200385Y105899D01*
X200349Y105983D01*
X200323Y106015D01*
X200312Y106036D01*
X200289Y106058D01*
X200244Y106114D01*
X195124Y111235D01*
X194176Y113522D01*
X194176Y154237D01*
X194162Y154327D01*
X194154Y154418D01*
X194142Y154448D01*
X194137Y154480D01*
X194094Y154561D01*
X194058Y154645D01*
X194032Y154677D01*
X194021Y154698D01*
X193998Y154720D01*
X193953Y154776D01*
X192217Y156512D01*
X190747Y160060D01*
X190747Y179140D01*
X192217Y182688D01*
X193953Y184424D01*
X194006Y184498D01*
X194066Y184568D01*
X194078Y184598D01*
X194097Y184624D01*
X194124Y184711D01*
X194158Y184796D01*
X194162Y184837D01*
X194169Y184859D01*
X194168Y184891D01*
X194176Y184963D01*
X194176Y227707D01*
X194162Y227797D01*
X194154Y227888D01*
X194142Y227918D01*
X194137Y227949D01*
X194094Y228030D01*
X194058Y228114D01*
X194032Y228146D01*
X194021Y228167D01*
X193998Y228189D01*
X193953Y228245D01*
X168645Y253553D01*
X168571Y253606D01*
X168502Y253666D01*
X168471Y253678D01*
X168445Y253697D01*
X168358Y253724D01*
X168273Y253758D01*
X168233Y253762D01*
X168210Y253769D01*
X168178Y253768D01*
X168107Y253776D01*
X162973Y253776D01*
X162883Y253762D01*
X162792Y253754D01*
X162762Y253742D01*
X162730Y253737D01*
X162649Y253694D01*
X162566Y253658D01*
X162533Y253632D01*
X162513Y253621D01*
X162499Y253607D01*
X162498Y253607D01*
X162487Y253596D01*
X162435Y253553D01*
X159349Y250467D01*
X151451Y250467D01*
X145867Y256051D01*
X145867Y263949D01*
X151451Y269533D01*
X159349Y269533D01*
X162435Y266447D01*
X162509Y266394D01*
X162578Y266334D01*
X162608Y266322D01*
X162634Y266303D01*
X162721Y266276D01*
X162806Y266242D01*
X162847Y266238D01*
X162869Y266231D01*
X162902Y266232D01*
X162973Y266224D01*
X172238Y266224D01*
X174525Y265276D01*
X205676Y234125D01*
X206624Y231838D01*
X206624Y184963D01*
X206638Y184873D01*
X206646Y184782D01*
X206658Y184752D01*
X206663Y184720D01*
X206706Y184639D01*
X206742Y184555D01*
X206768Y184523D01*
X206779Y184502D01*
X206802Y184480D01*
X206847Y184424D01*
X208583Y182688D01*
X210053Y179140D01*
X210053Y160060D01*
X208583Y156512D01*
X206847Y154776D01*
X206794Y154702D01*
X206734Y154632D01*
X206722Y154602D01*
X206703Y154576D01*
X206676Y154489D01*
X206642Y154404D01*
X206638Y154363D01*
X206631Y154341D01*
X206632Y154309D01*
X206624Y154237D01*
X206624Y117653D01*
X206638Y117563D01*
X206646Y117472D01*
X206658Y117442D01*
X206663Y117411D01*
X206706Y117330D01*
X206742Y117246D01*
X206768Y117214D01*
X206779Y117193D01*
X206802Y117171D01*
X206847Y117115D01*
X209046Y114916D01*
X209120Y114863D01*
X209189Y114803D01*
X209220Y114791D01*
X209246Y114772D01*
X209333Y114745D01*
X209418Y114711D01*
X209458Y114707D01*
X209481Y114700D01*
X209513Y114701D01*
X209584Y114693D01*
X211896Y114693D01*
X215400Y113241D01*
X218081Y110560D01*
X219533Y107056D01*
X219533Y104744D01*
X219547Y104654D01*
X219555Y104563D01*
X219567Y104533D01*
X219572Y104502D01*
X219615Y104421D01*
X219651Y104337D01*
X219677Y104305D01*
X219688Y104284D01*
X219711Y104262D01*
X219756Y104206D01*
X231076Y92885D01*
X232024Y90598D01*
X232024Y65578D01*
X232043Y65462D01*
X232060Y65347D01*
X232063Y65341D01*
X232063Y65335D01*
X232118Y65233D01*
X232171Y65128D01*
X232176Y65123D01*
X232179Y65118D01*
X232264Y65037D01*
X232347Y64956D01*
X232353Y64952D01*
X232357Y64949D01*
X232374Y64941D01*
X232396Y64928D01*
X235706Y61619D01*
X237485Y57324D01*
X237485Y52676D01*
X235706Y48381D01*
X232419Y45094D01*
X228124Y43315D01*
X223476Y43315D01*
G37*
%LPD*%
G36*
X105468Y10934D02*
X105468Y10934D01*
X105540Y10936D01*
X105589Y10954D01*
X105640Y10962D01*
X105704Y10996D01*
X105771Y11021D01*
X105812Y11053D01*
X105858Y11078D01*
X105907Y11130D01*
X105963Y11174D01*
X105991Y11218D01*
X106027Y11256D01*
X106057Y11321D01*
X106096Y11381D01*
X106109Y11432D01*
X106131Y11479D01*
X106139Y11550D01*
X106156Y11620D01*
X106152Y11672D01*
X106158Y11723D01*
X106142Y11794D01*
X106137Y11865D01*
X106117Y11913D01*
X106105Y11964D01*
X106069Y12025D01*
X106041Y12091D01*
X105996Y12147D01*
X105979Y12175D01*
X105961Y12190D01*
X105936Y12222D01*
X103583Y14575D01*
X102017Y18355D01*
X102017Y22445D01*
X103583Y26225D01*
X106475Y29117D01*
X110255Y30683D01*
X114345Y30683D01*
X118125Y29117D01*
X121017Y26225D01*
X122583Y22445D01*
X122583Y18355D01*
X121017Y14575D01*
X118664Y12222D01*
X118622Y12164D01*
X118573Y12112D01*
X118551Y12065D01*
X118521Y12023D01*
X118500Y11954D01*
X118469Y11889D01*
X118464Y11837D01*
X118448Y11787D01*
X118450Y11716D01*
X118442Y11645D01*
X118453Y11594D01*
X118455Y11542D01*
X118479Y11474D01*
X118495Y11404D01*
X118521Y11359D01*
X118539Y11311D01*
X118584Y11255D01*
X118621Y11193D01*
X118660Y11159D01*
X118693Y11119D01*
X118753Y11080D01*
X118808Y11033D01*
X118856Y11014D01*
X118900Y10986D01*
X118969Y10968D01*
X119036Y10941D01*
X119107Y10933D01*
X119138Y10925D01*
X119162Y10927D01*
X119203Y10923D01*
X126656Y10923D01*
X126676Y10926D01*
X126695Y10924D01*
X126797Y10946D01*
X126899Y10962D01*
X126916Y10972D01*
X126936Y10976D01*
X127025Y11029D01*
X127116Y11078D01*
X127130Y11092D01*
X127147Y11102D01*
X127214Y11181D01*
X127286Y11256D01*
X127294Y11274D01*
X127307Y11289D01*
X127346Y11385D01*
X127389Y11479D01*
X127391Y11499D01*
X127399Y11517D01*
X127417Y11684D01*
X127417Y29492D01*
X128608Y30683D01*
X146792Y30683D01*
X147983Y29492D01*
X147983Y11684D01*
X147986Y11664D01*
X147984Y11645D01*
X148006Y11543D01*
X148022Y11441D01*
X148032Y11424D01*
X148036Y11404D01*
X148089Y11315D01*
X148138Y11224D01*
X148152Y11210D01*
X148162Y11193D01*
X148241Y11126D01*
X148316Y11054D01*
X148334Y11046D01*
X148349Y11033D01*
X148445Y10994D01*
X148539Y10951D01*
X148559Y10949D01*
X148577Y10941D01*
X148744Y10923D01*
X206997Y10923D01*
X207068Y10934D01*
X207140Y10936D01*
X207189Y10954D01*
X207240Y10962D01*
X207304Y10996D01*
X207371Y11021D01*
X207412Y11053D01*
X207458Y11078D01*
X207507Y11130D01*
X207563Y11174D01*
X207591Y11218D01*
X207627Y11256D01*
X207657Y11321D01*
X207696Y11381D01*
X207709Y11432D01*
X207731Y11479D01*
X207739Y11550D01*
X207756Y11620D01*
X207752Y11672D01*
X207758Y11723D01*
X207742Y11794D01*
X207737Y11865D01*
X207717Y11913D01*
X207705Y11964D01*
X207669Y12025D01*
X207641Y12091D01*
X207596Y12147D01*
X207579Y12175D01*
X207561Y12190D01*
X207536Y12222D01*
X205183Y14575D01*
X203617Y18355D01*
X203617Y22445D01*
X205183Y26225D01*
X206308Y27350D01*
X206350Y27408D01*
X206399Y27460D01*
X206421Y27507D01*
X206451Y27549D01*
X206472Y27618D01*
X206503Y27683D01*
X206508Y27735D01*
X206524Y27785D01*
X206522Y27856D01*
X206530Y27927D01*
X206519Y27978D01*
X206517Y28030D01*
X206493Y28098D01*
X206477Y28168D01*
X206451Y28213D01*
X206433Y28261D01*
X206388Y28317D01*
X206351Y28379D01*
X206312Y28413D01*
X206279Y28453D01*
X206219Y28492D01*
X206164Y28539D01*
X206116Y28558D01*
X206072Y28586D01*
X206003Y28604D01*
X205936Y28631D01*
X205865Y28639D01*
X205834Y28647D01*
X205810Y28645D01*
X205769Y28649D01*
X183889Y28649D01*
X181602Y29597D01*
X169724Y41475D01*
X168776Y43762D01*
X168776Y48015D01*
X168773Y48035D01*
X168775Y48054D01*
X168753Y48156D01*
X168737Y48258D01*
X168727Y48275D01*
X168723Y48295D01*
X168670Y48384D01*
X168621Y48475D01*
X168607Y48489D01*
X168597Y48506D01*
X168518Y48573D01*
X168443Y48645D01*
X168425Y48653D01*
X168410Y48666D01*
X168314Y48705D01*
X168220Y48748D01*
X168200Y48750D01*
X168182Y48758D01*
X168015Y48776D01*
X134778Y48776D01*
X134664Y48758D01*
X134547Y48740D01*
X134541Y48737D01*
X134535Y48737D01*
X134433Y48682D01*
X134328Y48629D01*
X134323Y48624D01*
X134318Y48621D01*
X134237Y48536D01*
X134156Y48453D01*
X134152Y48447D01*
X134149Y48443D01*
X134141Y48426D01*
X134128Y48404D01*
X130819Y45094D01*
X126524Y43315D01*
X121876Y43315D01*
X117581Y45094D01*
X114294Y48381D01*
X112515Y52676D01*
X112515Y57324D01*
X113118Y58780D01*
X113141Y58875D01*
X113169Y58968D01*
X113169Y58995D01*
X113175Y59020D01*
X113166Y59117D01*
X113163Y59214D01*
X113154Y59239D01*
X113152Y59265D01*
X113112Y59354D01*
X113079Y59445D01*
X113062Y59466D01*
X113052Y59490D01*
X112986Y59561D01*
X112925Y59637D01*
X112903Y59651D01*
X112885Y59671D01*
X112800Y59718D01*
X112718Y59770D01*
X112693Y59777D01*
X112670Y59789D01*
X112574Y59807D01*
X112479Y59830D01*
X112453Y59828D01*
X112428Y59833D01*
X112331Y59819D01*
X112234Y59811D01*
X112210Y59801D01*
X112184Y59797D01*
X112097Y59753D01*
X112008Y59715D01*
X111982Y59695D01*
X111965Y59686D01*
X111942Y59662D01*
X111877Y59610D01*
X73406Y21139D01*
X73353Y21065D01*
X73293Y20995D01*
X73281Y20965D01*
X73262Y20939D01*
X73235Y20852D01*
X73201Y20767D01*
X73197Y20726D01*
X73190Y20704D01*
X73191Y20672D01*
X73183Y20601D01*
X73183Y14396D01*
X71009Y12222D01*
X70967Y12164D01*
X70917Y12112D01*
X70895Y12065D01*
X70865Y12023D01*
X70844Y11954D01*
X70814Y11889D01*
X70808Y11837D01*
X70793Y11787D01*
X70795Y11716D01*
X70787Y11645D01*
X70798Y11594D01*
X70799Y11542D01*
X70824Y11474D01*
X70839Y11404D01*
X70866Y11359D01*
X70883Y11311D01*
X70928Y11255D01*
X70965Y11193D01*
X71005Y11159D01*
X71037Y11119D01*
X71097Y11080D01*
X71152Y11033D01*
X71200Y11014D01*
X71244Y10986D01*
X71314Y10968D01*
X71380Y10941D01*
X71451Y10933D01*
X71483Y10925D01*
X71506Y10927D01*
X71547Y10923D01*
X105397Y10923D01*
X105468Y10934D01*
G37*
G36*
X167197Y61238D02*
X167197Y61238D01*
X167288Y61246D01*
X167318Y61258D01*
X167349Y61263D01*
X167430Y61306D01*
X167514Y61342D01*
X167546Y61368D01*
X167567Y61379D01*
X167589Y61402D01*
X167645Y61447D01*
X168553Y62355D01*
X168606Y62429D01*
X168666Y62498D01*
X168678Y62529D01*
X168697Y62555D01*
X168724Y62642D01*
X168758Y62727D01*
X168762Y62767D01*
X168769Y62790D01*
X168768Y62822D01*
X168776Y62893D01*
X168776Y136137D01*
X168765Y136208D01*
X168763Y136279D01*
X168745Y136328D01*
X168737Y136380D01*
X168703Y136443D01*
X168678Y136510D01*
X168646Y136551D01*
X168621Y136597D01*
X168569Y136646D01*
X168525Y136702D01*
X168481Y136730D01*
X168443Y136766D01*
X168378Y136796D01*
X168318Y136835D01*
X168267Y136848D01*
X168220Y136870D01*
X168149Y136878D01*
X168079Y136895D01*
X168027Y136891D01*
X167976Y136897D01*
X167905Y136882D01*
X167834Y136876D01*
X167786Y136856D01*
X167735Y136845D01*
X167674Y136808D01*
X167608Y136780D01*
X167552Y136735D01*
X167524Y136719D01*
X167509Y136701D01*
X167477Y136675D01*
X146447Y115645D01*
X146394Y115571D01*
X146334Y115502D01*
X146322Y115471D01*
X146303Y115445D01*
X146276Y115358D01*
X146242Y115273D01*
X146238Y115233D01*
X146231Y115210D01*
X146232Y115178D01*
X146224Y115107D01*
X146224Y112733D01*
X146238Y112643D01*
X146246Y112552D01*
X146258Y112522D01*
X146263Y112490D01*
X146306Y112410D01*
X146342Y112326D01*
X146368Y112293D01*
X146379Y112273D01*
X146402Y112251D01*
X146447Y112195D01*
X148081Y110560D01*
X149533Y107056D01*
X149533Y103264D01*
X148081Y99760D01*
X145400Y97079D01*
X143630Y96345D01*
X143547Y96294D01*
X143461Y96248D01*
X143443Y96230D01*
X143421Y96216D01*
X143358Y96140D01*
X143291Y96070D01*
X143280Y96046D01*
X143264Y96026D01*
X143229Y95935D01*
X143188Y95847D01*
X143185Y95821D01*
X143176Y95797D01*
X143171Y95699D01*
X143161Y95603D01*
X143166Y95577D01*
X143165Y95551D01*
X143192Y95457D01*
X143213Y95362D01*
X143226Y95340D01*
X143234Y95315D01*
X143289Y95235D01*
X143339Y95151D01*
X143359Y95134D01*
X143374Y95113D01*
X143452Y95054D01*
X143526Y94991D01*
X143550Y94981D01*
X143571Y94966D01*
X143664Y94936D01*
X143754Y94899D01*
X143787Y94896D01*
X143805Y94890D01*
X143838Y94890D01*
X143921Y94881D01*
X144159Y94881D01*
X150041Y88999D01*
X150041Y86363D01*
X140762Y86363D01*
X140742Y86360D01*
X140723Y86362D01*
X140621Y86340D01*
X140519Y86323D01*
X140502Y86314D01*
X140482Y86310D01*
X140393Y86257D01*
X140302Y86208D01*
X140288Y86194D01*
X140271Y86184D01*
X140204Y86105D01*
X140133Y86030D01*
X140124Y86012D01*
X140111Y85997D01*
X140073Y85901D01*
X140029Y85807D01*
X140027Y85787D01*
X140019Y85769D01*
X140001Y85602D01*
X140001Y84839D01*
X139999Y84839D01*
X139999Y85602D01*
X139996Y85622D01*
X139998Y85641D01*
X139976Y85743D01*
X139959Y85845D01*
X139950Y85862D01*
X139946Y85882D01*
X139893Y85971D01*
X139844Y86062D01*
X139830Y86076D01*
X139820Y86093D01*
X139741Y86160D01*
X139666Y86231D01*
X139648Y86240D01*
X139633Y86253D01*
X139537Y86292D01*
X139443Y86335D01*
X139423Y86337D01*
X139405Y86345D01*
X139238Y86363D01*
X129959Y86363D01*
X129959Y88999D01*
X135841Y94881D01*
X136079Y94881D01*
X136175Y94896D01*
X136272Y94906D01*
X136296Y94916D01*
X136322Y94920D01*
X136408Y94966D01*
X136497Y95006D01*
X136516Y95023D01*
X136539Y95036D01*
X136606Y95106D01*
X136678Y95172D01*
X136691Y95195D01*
X136709Y95214D01*
X136750Y95302D01*
X136797Y95388D01*
X136801Y95413D01*
X136812Y95437D01*
X136823Y95534D01*
X136840Y95630D01*
X136836Y95656D01*
X136839Y95681D01*
X136819Y95777D01*
X136804Y95873D01*
X136793Y95896D01*
X136787Y95922D01*
X136737Y96005D01*
X136693Y96092D01*
X136674Y96111D01*
X136661Y96133D01*
X136587Y96196D01*
X136517Y96264D01*
X136489Y96280D01*
X136474Y96293D01*
X136443Y96305D01*
X136370Y96345D01*
X134600Y97079D01*
X131919Y99760D01*
X130467Y103264D01*
X130467Y107056D01*
X131919Y110560D01*
X133553Y112195D01*
X133606Y112269D01*
X133666Y112338D01*
X133678Y112368D01*
X133697Y112394D01*
X133724Y112481D01*
X133758Y112566D01*
X133762Y112607D01*
X133769Y112629D01*
X133768Y112662D01*
X133776Y112733D01*
X133776Y119238D01*
X134724Y121525D01*
X167725Y154527D01*
X167737Y154543D01*
X167753Y154556D01*
X167809Y154643D01*
X167869Y154727D01*
X167875Y154746D01*
X167886Y154763D01*
X167911Y154863D01*
X167941Y154962D01*
X167941Y154982D01*
X167946Y155001D01*
X167938Y155104D01*
X167935Y155208D01*
X167928Y155227D01*
X167927Y155246D01*
X167886Y155341D01*
X167850Y155439D01*
X167838Y155454D01*
X167830Y155473D01*
X167725Y155604D01*
X166817Y156512D01*
X165347Y160060D01*
X165347Y172471D01*
X165333Y172561D01*
X165325Y172652D01*
X165313Y172681D01*
X165308Y172713D01*
X165265Y172794D01*
X165229Y172878D01*
X165203Y172910D01*
X165192Y172931D01*
X165169Y172953D01*
X165124Y173009D01*
X160552Y177581D01*
X160494Y177623D01*
X160442Y177672D01*
X160395Y177694D01*
X160353Y177724D01*
X160284Y177746D01*
X160219Y177776D01*
X160167Y177781D01*
X160117Y177797D01*
X160046Y177795D01*
X159975Y177803D01*
X159924Y177792D01*
X159872Y177790D01*
X159804Y177766D01*
X159734Y177751D01*
X159689Y177724D01*
X159641Y177706D01*
X159585Y177661D01*
X159523Y177624D01*
X159489Y177585D01*
X159449Y177552D01*
X159410Y177492D01*
X159363Y177438D01*
X159344Y177389D01*
X159316Y177345D01*
X159298Y177276D01*
X159271Y177209D01*
X159263Y177138D01*
X159255Y177107D01*
X159257Y177084D01*
X159253Y177043D01*
X159253Y160060D01*
X157783Y156512D01*
X155068Y153797D01*
X151520Y152327D01*
X147680Y152327D01*
X144132Y153797D01*
X142736Y155193D01*
X142720Y155204D01*
X142708Y155220D01*
X142620Y155276D01*
X142536Y155336D01*
X142517Y155342D01*
X142501Y155353D01*
X142400Y155378D01*
X142301Y155409D01*
X142281Y155408D01*
X142262Y155413D01*
X142159Y155405D01*
X142055Y155402D01*
X142037Y155395D01*
X142017Y155394D01*
X141922Y155354D01*
X141824Y155318D01*
X141809Y155305D01*
X141791Y155298D01*
X141660Y155193D01*
X124796Y138329D01*
X124743Y138255D01*
X124683Y138185D01*
X124671Y138155D01*
X124652Y138129D01*
X124625Y138042D01*
X124591Y137957D01*
X124587Y137916D01*
X124580Y137894D01*
X124581Y137862D01*
X124573Y137791D01*
X124573Y72306D01*
X119590Y67323D01*
X119533Y67244D01*
X119471Y67169D01*
X119462Y67145D01*
X119446Y67123D01*
X119418Y67030D01*
X119383Y66939D01*
X119382Y66913D01*
X119374Y66888D01*
X119377Y66791D01*
X119372Y66694D01*
X119380Y66669D01*
X119380Y66642D01*
X119414Y66551D01*
X119441Y66457D01*
X119456Y66436D01*
X119465Y66411D01*
X119526Y66335D01*
X119581Y66255D01*
X119602Y66240D01*
X119619Y66219D01*
X119701Y66167D01*
X119779Y66109D01*
X119803Y66101D01*
X119825Y66086D01*
X119920Y66063D01*
X120012Y66032D01*
X120039Y66033D01*
X120064Y66026D01*
X120161Y66034D01*
X120258Y66035D01*
X120290Y66044D01*
X120309Y66045D01*
X120339Y66058D01*
X120420Y66082D01*
X121876Y66685D01*
X126524Y66685D01*
X130819Y64906D01*
X134145Y61579D01*
X134196Y61494D01*
X134201Y61490D01*
X134204Y61485D01*
X134294Y61410D01*
X134383Y61334D01*
X134389Y61332D01*
X134394Y61328D01*
X134502Y61286D01*
X134611Y61242D01*
X134619Y61241D01*
X134623Y61240D01*
X134642Y61239D01*
X134778Y61224D01*
X167107Y61224D01*
X167197Y61238D01*
G37*
%LPC*%
G36*
X296379Y127499D02*
X296379Y127499D01*
X289385Y129373D01*
X283114Y132994D01*
X277994Y138114D01*
X274373Y144385D01*
X272499Y151379D01*
X272499Y158621D01*
X274373Y165615D01*
X277994Y171886D01*
X283114Y177006D01*
X289385Y180627D01*
X296379Y182501D01*
X303621Y182501D01*
X310615Y180627D01*
X316886Y177006D01*
X322006Y171886D01*
X325627Y165615D01*
X327501Y158621D01*
X327501Y151379D01*
X325627Y144385D01*
X322006Y138114D01*
X316886Y132994D01*
X310615Y129373D01*
X303621Y127499D01*
X296379Y127499D01*
G37*
%LPD*%
%LPC*%
G36*
X168876Y216315D02*
X168876Y216315D01*
X164581Y218094D01*
X161255Y221421D01*
X161204Y221506D01*
X161199Y221510D01*
X161196Y221515D01*
X161106Y221590D01*
X161017Y221666D01*
X161011Y221668D01*
X161006Y221672D01*
X160898Y221714D01*
X160789Y221758D01*
X160781Y221759D01*
X160777Y221760D01*
X160758Y221761D01*
X160622Y221776D01*
X135362Y221776D01*
X133075Y222724D01*
X105554Y250244D01*
X105480Y250297D01*
X105411Y250357D01*
X105380Y250369D01*
X105354Y250388D01*
X105267Y250415D01*
X105182Y250449D01*
X105142Y250453D01*
X105119Y250460D01*
X105087Y250459D01*
X105016Y250467D01*
X100651Y250467D01*
X95067Y256051D01*
X95067Y263949D01*
X100651Y269533D01*
X108549Y269533D01*
X114133Y263949D01*
X114133Y259584D01*
X114147Y259494D01*
X114155Y259403D01*
X114167Y259373D01*
X114172Y259342D01*
X114215Y259261D01*
X114251Y259177D01*
X114277Y259145D01*
X114288Y259124D01*
X114311Y259102D01*
X114356Y259046D01*
X138955Y234447D01*
X139029Y234394D01*
X139098Y234334D01*
X139129Y234322D01*
X139155Y234303D01*
X139242Y234276D01*
X139327Y234242D01*
X139367Y234238D01*
X139390Y234231D01*
X139422Y234232D01*
X139493Y234224D01*
X160622Y234224D01*
X160736Y234242D01*
X160853Y234260D01*
X160859Y234263D01*
X160865Y234263D01*
X160967Y234318D01*
X161072Y234371D01*
X161077Y234376D01*
X161082Y234379D01*
X161163Y234464D01*
X161244Y234547D01*
X161248Y234553D01*
X161251Y234557D01*
X161259Y234574D01*
X161272Y234596D01*
X164581Y237906D01*
X168876Y239685D01*
X173524Y239685D01*
X177819Y237906D01*
X181106Y234619D01*
X182885Y230324D01*
X182885Y225676D01*
X181106Y221381D01*
X177819Y218094D01*
X173524Y216315D01*
X168876Y216315D01*
G37*
%LPD*%
%LPC*%
G36*
X122986Y299585D02*
X122986Y299585D01*
X117367Y305204D01*
X117293Y305257D01*
X117224Y305317D01*
X117193Y305329D01*
X117167Y305348D01*
X117080Y305375D01*
X116995Y305409D01*
X116955Y305413D01*
X116932Y305420D01*
X116900Y305419D01*
X116829Y305427D01*
X88906Y305427D01*
X82939Y311394D01*
X82865Y311447D01*
X82795Y311507D01*
X82765Y311519D01*
X82739Y311538D01*
X82652Y311565D01*
X82567Y311599D01*
X82526Y311603D01*
X82504Y311610D01*
X82472Y311609D01*
X82401Y311617D01*
X76196Y311617D01*
X70817Y316996D01*
X70817Y324604D01*
X76196Y329983D01*
X83804Y329983D01*
X89183Y324604D01*
X89183Y318399D01*
X89197Y318309D01*
X89205Y318218D01*
X89217Y318189D01*
X89222Y318157D01*
X89265Y318076D01*
X89301Y317992D01*
X89327Y317960D01*
X89338Y317939D01*
X89361Y317917D01*
X89406Y317861D01*
X92471Y314796D01*
X92545Y314743D01*
X92615Y314683D01*
X92645Y314671D01*
X92671Y314652D01*
X92758Y314625D01*
X92843Y314591D01*
X92884Y314587D01*
X92906Y314580D01*
X92938Y314581D01*
X93009Y314573D01*
X116829Y314573D01*
X116919Y314587D01*
X117010Y314595D01*
X117040Y314607D01*
X117072Y314612D01*
X117152Y314655D01*
X117236Y314691D01*
X117268Y314717D01*
X117289Y314728D01*
X117311Y314751D01*
X117367Y314796D01*
X122986Y320415D01*
X131614Y320415D01*
X137715Y314314D01*
X137715Y305686D01*
X131614Y299585D01*
X122986Y299585D01*
G37*
%LPD*%
%LPC*%
G36*
X301523Y323523D02*
X301523Y323523D01*
X301523Y333541D01*
X309908Y333541D01*
X311702Y333257D01*
X313430Y332695D01*
X315049Y331871D01*
X316518Y330803D01*
X317803Y329518D01*
X318871Y328049D01*
X319695Y326430D01*
X320257Y324702D01*
X320443Y323523D01*
X301523Y323523D01*
G37*
%LPD*%
%LPC*%
G36*
X279557Y323523D02*
X279557Y323523D01*
X279743Y324702D01*
X280305Y326430D01*
X281129Y328049D01*
X282197Y329518D01*
X283482Y330803D01*
X284951Y331871D01*
X286570Y332695D01*
X288298Y333257D01*
X290092Y333541D01*
X298477Y333541D01*
X298477Y323523D01*
X279557Y323523D01*
G37*
%LPD*%
%LPC*%
G36*
X301523Y310459D02*
X301523Y310459D01*
X301523Y320477D01*
X320443Y320477D01*
X320257Y319298D01*
X319695Y317570D01*
X318871Y315951D01*
X317803Y314482D01*
X316518Y313197D01*
X315049Y312129D01*
X313430Y311305D01*
X311702Y310743D01*
X309908Y310459D01*
X301523Y310459D01*
G37*
%LPD*%
%LPC*%
G36*
X240459Y295523D02*
X240459Y295523D01*
X240459Y303908D01*
X240743Y305702D01*
X241305Y307430D01*
X242129Y309049D01*
X243197Y310518D01*
X244482Y311803D01*
X245951Y312871D01*
X247570Y313695D01*
X249298Y314257D01*
X250477Y314443D01*
X250477Y295523D01*
X240459Y295523D01*
G37*
%LPD*%
%LPC*%
G36*
X249298Y273743D02*
X249298Y273743D01*
X247570Y274305D01*
X245951Y275129D01*
X244482Y276197D01*
X243197Y277482D01*
X242129Y278951D01*
X241305Y280570D01*
X240743Y282298D01*
X240459Y284092D01*
X240459Y292477D01*
X250477Y292477D01*
X250477Y273557D01*
X249298Y273743D01*
G37*
%LPD*%
%LPC*%
G36*
X290092Y310459D02*
X290092Y310459D01*
X288298Y310743D01*
X286570Y311305D01*
X284951Y312129D01*
X283482Y313197D01*
X282197Y314482D01*
X281129Y315951D01*
X280305Y317570D01*
X279743Y319298D01*
X279557Y320477D01*
X298477Y320477D01*
X298477Y310459D01*
X290092Y310459D01*
G37*
%LPD*%
G36*
X56474Y112584D02*
X56474Y112584D01*
X56546Y112586D01*
X56595Y112604D01*
X56646Y112612D01*
X56709Y112646D01*
X56777Y112671D01*
X56817Y112703D01*
X56863Y112728D01*
X56913Y112780D01*
X56969Y112824D01*
X56997Y112868D01*
X57033Y112906D01*
X57063Y112971D01*
X57102Y113031D01*
X57114Y113082D01*
X57136Y113129D01*
X57144Y113200D01*
X57162Y113270D01*
X57158Y113322D01*
X57163Y113373D01*
X57148Y113444D01*
X57143Y113515D01*
X57122Y113563D01*
X57111Y113614D01*
X57074Y113675D01*
X57046Y113741D01*
X57001Y113797D01*
X56985Y113825D01*
X56967Y113840D01*
X56941Y113872D01*
X54817Y115996D01*
X54817Y123604D01*
X57202Y125988D01*
X57230Y126027D01*
X57265Y126060D01*
X57301Y126126D01*
X57346Y126188D01*
X57360Y126234D01*
X57383Y126276D01*
X57396Y126351D01*
X57418Y126423D01*
X57417Y126471D01*
X57425Y126518D01*
X57413Y126593D01*
X57412Y126669D01*
X57395Y126714D01*
X57388Y126761D01*
X57353Y126829D01*
X57327Y126900D01*
X57297Y126938D01*
X57275Y126980D01*
X57221Y127033D01*
X57173Y127092D01*
X57133Y127118D01*
X57099Y127151D01*
X57030Y127184D01*
X56966Y127225D01*
X56920Y127237D01*
X56877Y127257D01*
X56801Y127267D01*
X56728Y127285D01*
X56680Y127281D01*
X56633Y127287D01*
X56505Y127268D01*
X56483Y127266D01*
X56477Y127263D01*
X56467Y127262D01*
X53621Y126499D01*
X46379Y126499D01*
X43533Y127262D01*
X43486Y127267D01*
X43440Y127281D01*
X43364Y127279D01*
X43289Y127286D01*
X43242Y127276D01*
X43194Y127274D01*
X43123Y127248D01*
X43049Y127231D01*
X43008Y127206D01*
X42963Y127190D01*
X42904Y127143D01*
X42839Y127103D01*
X42808Y127066D01*
X42771Y127036D01*
X42730Y126973D01*
X42681Y126914D01*
X42664Y126870D01*
X42638Y126829D01*
X42619Y126756D01*
X42592Y126685D01*
X42589Y126637D01*
X42578Y126591D01*
X42584Y126515D01*
X42580Y126440D01*
X42593Y126393D01*
X42597Y126346D01*
X42627Y126276D01*
X42647Y126203D01*
X42674Y126163D01*
X42693Y126119D01*
X42774Y126019D01*
X42786Y126000D01*
X42792Y125996D01*
X42798Y125988D01*
X45183Y123604D01*
X45183Y117399D01*
X45197Y117309D01*
X45205Y117218D01*
X45217Y117189D01*
X45222Y117157D01*
X45265Y117076D01*
X45301Y116992D01*
X45327Y116960D01*
X45338Y116939D01*
X45361Y116917D01*
X45406Y116861D01*
X49471Y112796D01*
X49545Y112743D01*
X49615Y112683D01*
X49645Y112671D01*
X49671Y112652D01*
X49758Y112625D01*
X49843Y112591D01*
X49884Y112587D01*
X49906Y112580D01*
X49938Y112581D01*
X50009Y112573D01*
X56403Y112573D01*
X56474Y112584D01*
G37*
G36*
X227873Y10942D02*
X227873Y10942D01*
X227992Y10960D01*
X227995Y10962D01*
X227999Y10962D01*
X228103Y11018D01*
X228210Y11073D01*
X228213Y11076D01*
X228217Y11078D01*
X228297Y11163D01*
X228382Y11250D01*
X228383Y11253D01*
X228386Y11256D01*
X228436Y11364D01*
X228487Y11472D01*
X228488Y11475D01*
X228490Y11479D01*
X228503Y11597D01*
X228517Y11716D01*
X228516Y11720D01*
X228517Y11723D01*
X228514Y11736D01*
X228509Y11766D01*
X228509Y18877D01*
X238538Y18877D01*
X238558Y18880D01*
X238577Y18878D01*
X238679Y18900D01*
X238781Y18917D01*
X238798Y18926D01*
X238818Y18930D01*
X238907Y18983D01*
X238998Y19032D01*
X239012Y19046D01*
X239029Y19056D01*
X239096Y19135D01*
X239167Y19210D01*
X239176Y19228D01*
X239189Y19243D01*
X239227Y19339D01*
X239271Y19433D01*
X239273Y19453D01*
X239281Y19471D01*
X239299Y19638D01*
X239299Y21162D01*
X239296Y21182D01*
X239298Y21201D01*
X239276Y21303D01*
X239259Y21405D01*
X239250Y21422D01*
X239246Y21442D01*
X239193Y21531D01*
X239144Y21622D01*
X239130Y21636D01*
X239120Y21653D01*
X239041Y21720D01*
X238966Y21791D01*
X238948Y21800D01*
X238933Y21813D01*
X238837Y21852D01*
X238743Y21895D01*
X238723Y21897D01*
X238705Y21905D01*
X238538Y21923D01*
X228509Y21923D01*
X228509Y27888D01*
X228506Y27908D01*
X228508Y27927D01*
X228486Y28029D01*
X228470Y28131D01*
X228460Y28148D01*
X228456Y28168D01*
X228403Y28257D01*
X228354Y28348D01*
X228340Y28362D01*
X228330Y28379D01*
X228251Y28446D01*
X228176Y28518D01*
X228158Y28526D01*
X228143Y28539D01*
X228047Y28578D01*
X227953Y28621D01*
X227933Y28623D01*
X227915Y28631D01*
X227748Y28649D01*
X222031Y28649D01*
X221960Y28638D01*
X221888Y28636D01*
X221839Y28618D01*
X221788Y28610D01*
X221724Y28576D01*
X221657Y28551D01*
X221616Y28519D01*
X221570Y28494D01*
X221521Y28442D01*
X221465Y28398D01*
X221437Y28354D01*
X221401Y28316D01*
X221371Y28251D01*
X221332Y28191D01*
X221319Y28140D01*
X221297Y28093D01*
X221289Y28022D01*
X221272Y27952D01*
X221276Y27900D01*
X221270Y27849D01*
X221286Y27778D01*
X221291Y27707D01*
X221311Y27659D01*
X221323Y27608D01*
X221359Y27547D01*
X221387Y27481D01*
X221432Y27425D01*
X221449Y27397D01*
X221467Y27382D01*
X221492Y27350D01*
X222617Y26225D01*
X224183Y22445D01*
X224183Y18355D01*
X222617Y14575D01*
X220264Y12222D01*
X220222Y12164D01*
X220173Y12112D01*
X220151Y12065D01*
X220121Y12023D01*
X220100Y11954D01*
X220069Y11889D01*
X220064Y11837D01*
X220048Y11787D01*
X220050Y11716D01*
X220042Y11645D01*
X220053Y11594D01*
X220055Y11542D01*
X220079Y11474D01*
X220095Y11404D01*
X220121Y11359D01*
X220139Y11311D01*
X220184Y11255D01*
X220221Y11193D01*
X220260Y11159D01*
X220293Y11119D01*
X220353Y11080D01*
X220408Y11033D01*
X220456Y11014D01*
X220500Y10986D01*
X220569Y10968D01*
X220636Y10941D01*
X220707Y10933D01*
X220738Y10925D01*
X220762Y10927D01*
X220803Y10923D01*
X227756Y10923D01*
X227873Y10942D01*
G37*
G36*
X338406Y191340D02*
X338406Y191340D01*
X338458Y191341D01*
X338526Y191366D01*
X338596Y191381D01*
X338641Y191408D01*
X338689Y191426D01*
X338745Y191471D01*
X338807Y191507D01*
X338841Y191547D01*
X338881Y191580D01*
X338920Y191640D01*
X338967Y191694D01*
X338986Y191743D01*
X339014Y191786D01*
X339032Y191856D01*
X339039Y191874D01*
X339049Y191895D01*
X339050Y191900D01*
X339059Y191922D01*
X339067Y191994D01*
X339075Y192025D01*
X339073Y192048D01*
X339077Y192089D01*
X339077Y202511D01*
X339066Y202582D01*
X339064Y202653D01*
X339046Y202702D01*
X339038Y202754D01*
X339004Y202817D01*
X338979Y202884D01*
X338947Y202925D01*
X338922Y202971D01*
X338870Y203020D01*
X338826Y203076D01*
X338782Y203104D01*
X338744Y203140D01*
X338679Y203170D01*
X338619Y203209D01*
X338568Y203222D01*
X338521Y203244D01*
X338450Y203252D01*
X338380Y203269D01*
X338328Y203265D01*
X338277Y203271D01*
X338206Y203256D01*
X338135Y203250D01*
X338087Y203230D01*
X338036Y203219D01*
X337975Y203182D01*
X337909Y203154D01*
X337853Y203109D01*
X337825Y203093D01*
X337810Y203075D01*
X337778Y203049D01*
X335900Y201171D01*
X332072Y199585D01*
X327928Y199585D01*
X324445Y201028D01*
X324350Y201051D01*
X324257Y201079D01*
X324230Y201079D01*
X324205Y201084D01*
X324108Y201075D01*
X324011Y201073D01*
X323986Y201064D01*
X323960Y201061D01*
X323871Y201022D01*
X323780Y200988D01*
X323759Y200972D01*
X323735Y200961D01*
X323664Y200895D01*
X323588Y200835D01*
X323574Y200813D01*
X323554Y200795D01*
X323507Y200710D01*
X323455Y200628D01*
X323448Y200602D01*
X323436Y200579D01*
X323418Y200484D01*
X323395Y200389D01*
X323397Y200363D01*
X323392Y200337D01*
X323406Y200241D01*
X323414Y200144D01*
X323424Y200120D01*
X323428Y200094D01*
X323472Y200007D01*
X323510Y199918D01*
X323530Y199892D01*
X323539Y199875D01*
X323563Y199852D01*
X323615Y199787D01*
X328164Y195238D01*
X328238Y195185D01*
X328307Y195125D01*
X328337Y195113D01*
X328364Y195094D01*
X328451Y195067D01*
X328536Y195033D01*
X328576Y195029D01*
X328599Y195022D01*
X328631Y195023D01*
X328702Y195015D01*
X332072Y195015D01*
X335900Y193429D01*
X337778Y191551D01*
X337836Y191509D01*
X337888Y191460D01*
X337935Y191438D01*
X337977Y191407D01*
X338046Y191386D01*
X338111Y191356D01*
X338163Y191350D01*
X338213Y191335D01*
X338284Y191337D01*
X338355Y191329D01*
X338406Y191340D01*
G37*
G36*
X338406Y216740D02*
X338406Y216740D01*
X338458Y216741D01*
X338526Y216766D01*
X338596Y216781D01*
X338641Y216808D01*
X338689Y216826D01*
X338745Y216871D01*
X338807Y216907D01*
X338841Y216947D01*
X338881Y216980D01*
X338920Y217040D01*
X338967Y217094D01*
X338986Y217143D01*
X339014Y217186D01*
X339032Y217256D01*
X339059Y217322D01*
X339067Y217394D01*
X339075Y217425D01*
X339073Y217448D01*
X339077Y217489D01*
X339077Y227911D01*
X339076Y227918D01*
X339075Y227923D01*
X339066Y227982D01*
X339064Y228053D01*
X339046Y228102D01*
X339038Y228154D01*
X339004Y228217D01*
X338979Y228284D01*
X338947Y228325D01*
X338922Y228371D01*
X338870Y228420D01*
X338826Y228476D01*
X338782Y228504D01*
X338744Y228540D01*
X338679Y228570D01*
X338619Y228609D01*
X338568Y228622D01*
X338521Y228644D01*
X338450Y228652D01*
X338380Y228669D01*
X338328Y228665D01*
X338277Y228671D01*
X338206Y228656D01*
X338135Y228650D01*
X338087Y228630D01*
X338036Y228619D01*
X337975Y228582D01*
X337909Y228554D01*
X337853Y228509D01*
X337825Y228493D01*
X337810Y228475D01*
X337778Y228449D01*
X335900Y226571D01*
X332072Y224985D01*
X327928Y224985D01*
X324445Y226428D01*
X324350Y226451D01*
X324257Y226479D01*
X324230Y226479D01*
X324205Y226484D01*
X324108Y226475D01*
X324011Y226473D01*
X323986Y226464D01*
X323960Y226461D01*
X323871Y226422D01*
X323780Y226388D01*
X323759Y226372D01*
X323735Y226361D01*
X323664Y226295D01*
X323588Y226235D01*
X323574Y226213D01*
X323554Y226195D01*
X323507Y226110D01*
X323455Y226028D01*
X323448Y226002D01*
X323436Y225979D01*
X323418Y225884D01*
X323395Y225789D01*
X323397Y225763D01*
X323392Y225737D01*
X323406Y225641D01*
X323414Y225544D01*
X323424Y225520D01*
X323428Y225494D01*
X323472Y225407D01*
X323510Y225318D01*
X323530Y225292D01*
X323539Y225275D01*
X323563Y225252D01*
X323615Y225187D01*
X328164Y220638D01*
X328238Y220585D01*
X328307Y220525D01*
X328337Y220513D01*
X328364Y220494D01*
X328451Y220467D01*
X328536Y220433D01*
X328576Y220429D01*
X328599Y220422D01*
X328631Y220423D01*
X328702Y220415D01*
X332072Y220415D01*
X335900Y218829D01*
X337778Y216951D01*
X337836Y216909D01*
X337888Y216860D01*
X337935Y216838D01*
X337977Y216807D01*
X338046Y216786D01*
X338111Y216756D01*
X338163Y216750D01*
X338213Y216735D01*
X338284Y216737D01*
X338355Y216729D01*
X338406Y216740D01*
G37*
%LPC*%
G36*
X208823Y319209D02*
X208823Y319209D01*
X208823Y328477D01*
X218091Y328477D01*
X218091Y321416D01*
X217918Y320769D01*
X217583Y320190D01*
X217110Y319717D01*
X216531Y319382D01*
X215884Y319209D01*
X208823Y319209D01*
G37*
%LPD*%
%LPC*%
G36*
X198716Y319209D02*
X198716Y319209D01*
X198069Y319382D01*
X197490Y319717D01*
X197017Y320190D01*
X196682Y320769D01*
X196509Y321416D01*
X196509Y328477D01*
X205777Y328477D01*
X205777Y319209D01*
X198716Y319209D01*
G37*
%LPD*%
%LPC*%
G36*
X317423Y43703D02*
X317423Y43703D01*
X317423Y54383D01*
X318778Y54168D01*
X320618Y53570D01*
X322342Y52692D01*
X323907Y51555D01*
X325275Y50187D01*
X326412Y48622D01*
X327290Y46898D01*
X327888Y45058D01*
X328103Y43703D01*
X317423Y43703D01*
G37*
%LPD*%
%LPC*%
G36*
X303697Y43703D02*
X303697Y43703D01*
X303912Y45058D01*
X304510Y46898D01*
X305388Y48622D01*
X306525Y50187D01*
X307893Y51555D01*
X309458Y52692D01*
X311182Y53570D01*
X313022Y54168D01*
X314377Y54383D01*
X314377Y43703D01*
X303697Y43703D01*
G37*
%LPD*%
%LPC*%
G36*
X317423Y40657D02*
X317423Y40657D01*
X328103Y40657D01*
X327888Y39302D01*
X327290Y37462D01*
X326412Y35738D01*
X325275Y34173D01*
X323907Y32805D01*
X322342Y31668D01*
X320618Y30790D01*
X318778Y30192D01*
X317423Y29977D01*
X317423Y40657D01*
G37*
%LPD*%
%LPC*%
G36*
X313022Y30192D02*
X313022Y30192D01*
X311182Y30790D01*
X309458Y31668D01*
X307893Y32805D01*
X306525Y34173D01*
X305388Y35738D01*
X304510Y37462D01*
X303912Y39302D01*
X303697Y40657D01*
X314377Y40657D01*
X314377Y29977D01*
X313022Y30192D01*
G37*
%LPD*%
%LPC*%
G36*
X154223Y311523D02*
X154223Y311523D01*
X154223Y320923D01*
X157224Y320923D01*
X163623Y314524D01*
X163623Y311523D01*
X154223Y311523D01*
G37*
%LPD*%
%LPC*%
G36*
X141777Y311523D02*
X141777Y311523D01*
X141777Y314524D01*
X148176Y320923D01*
X151177Y320923D01*
X151177Y311523D01*
X141777Y311523D01*
G37*
%LPD*%
%LPC*%
G36*
X154223Y299077D02*
X154223Y299077D01*
X154223Y308477D01*
X163623Y308477D01*
X163623Y305476D01*
X157224Y299077D01*
X154223Y299077D01*
G37*
%LPD*%
%LPC*%
G36*
X148176Y299077D02*
X148176Y299077D01*
X141777Y305476D01*
X141777Y308477D01*
X151177Y308477D01*
X151177Y299077D01*
X148176Y299077D01*
G37*
%LPD*%
%LPC*%
G36*
X21523Y236923D02*
X21523Y236923D01*
X21523Y246218D01*
X22558Y246054D01*
X24193Y245522D01*
X25725Y244742D01*
X27116Y243731D01*
X28331Y242516D01*
X29342Y241125D01*
X30122Y239593D01*
X30654Y237958D01*
X30818Y236923D01*
X21523Y236923D01*
G37*
%LPD*%
%LPC*%
G36*
X21523Y233877D02*
X21523Y233877D01*
X30818Y233877D01*
X30654Y232842D01*
X30122Y231207D01*
X29342Y229675D01*
X28331Y228284D01*
X27116Y227069D01*
X25725Y226058D01*
X24193Y225278D01*
X22558Y224746D01*
X21523Y224582D01*
X21523Y233877D01*
G37*
%LPD*%
G36*
X66491Y128997D02*
X66491Y128997D01*
X66582Y129005D01*
X66611Y129017D01*
X66643Y129022D01*
X66724Y129065D01*
X66808Y129101D01*
X66840Y129127D01*
X66861Y129138D01*
X66883Y129161D01*
X66939Y129206D01*
X78204Y140471D01*
X78257Y140545D01*
X78317Y140615D01*
X78329Y140645D01*
X78348Y140671D01*
X78375Y140758D01*
X78409Y140843D01*
X78413Y140884D01*
X78420Y140906D01*
X78419Y140938D01*
X78427Y141009D01*
X78427Y148055D01*
X78423Y148079D01*
X78426Y148103D01*
X78404Y148200D01*
X78388Y148298D01*
X78376Y148319D01*
X78371Y148343D01*
X78319Y148428D01*
X78272Y148515D01*
X78255Y148532D01*
X78242Y148552D01*
X78166Y148616D01*
X78094Y148685D01*
X78072Y148695D01*
X78054Y148710D01*
X77961Y148746D01*
X77871Y148788D01*
X77847Y148791D01*
X77825Y148800D01*
X77725Y148804D01*
X77627Y148815D01*
X77603Y148810D01*
X77579Y148811D01*
X77483Y148784D01*
X77386Y148763D01*
X77366Y148751D01*
X77342Y148744D01*
X77260Y148688D01*
X77175Y148637D01*
X77159Y148619D01*
X77140Y148605D01*
X77080Y148526D01*
X77015Y148450D01*
X77006Y148428D01*
X76992Y148408D01*
X76931Y148252D01*
X75627Y143385D01*
X72006Y137114D01*
X66886Y131994D01*
X64131Y130403D01*
X64094Y130373D01*
X64051Y130350D01*
X63999Y130296D01*
X63940Y130247D01*
X63915Y130207D01*
X63882Y130172D01*
X63850Y130103D01*
X63810Y130039D01*
X63798Y129992D01*
X63778Y129949D01*
X63770Y129874D01*
X63752Y129800D01*
X63756Y129752D01*
X63751Y129705D01*
X63767Y129630D01*
X63774Y129555D01*
X63793Y129511D01*
X63803Y129464D01*
X63842Y129399D01*
X63873Y129330D01*
X63905Y129294D01*
X63930Y129253D01*
X63987Y129204D01*
X64038Y129148D01*
X64080Y129124D01*
X64116Y129093D01*
X64187Y129065D01*
X64253Y129028D01*
X64300Y129019D01*
X64345Y129001D01*
X64473Y128987D01*
X64495Y128983D01*
X64501Y128984D01*
X64511Y128983D01*
X66401Y128983D01*
X66491Y128997D01*
G37*
%LPC*%
G36*
X141523Y74799D02*
X141523Y74799D01*
X141523Y83317D01*
X150041Y83317D01*
X150041Y80681D01*
X144159Y74799D01*
X141523Y74799D01*
G37*
%LPD*%
%LPC*%
G36*
X205841Y74799D02*
X205841Y74799D01*
X199959Y80681D01*
X199959Y83317D01*
X208477Y83317D01*
X208477Y74799D01*
X205841Y74799D01*
G37*
%LPD*%
%LPC*%
G36*
X135841Y74799D02*
X135841Y74799D01*
X129959Y80681D01*
X129959Y83317D01*
X138477Y83317D01*
X138477Y74799D01*
X135841Y74799D01*
G37*
%LPD*%
%LPC*%
G36*
X51523Y322323D02*
X51523Y322323D01*
X51523Y330491D01*
X54014Y330491D01*
X59691Y324814D01*
X59691Y322323D01*
X51523Y322323D01*
G37*
%LPD*%
%LPC*%
G36*
X40309Y322323D02*
X40309Y322323D01*
X40309Y324814D01*
X45986Y330491D01*
X48477Y330491D01*
X48477Y322323D01*
X40309Y322323D01*
G37*
%LPD*%
%LPC*%
G36*
X51523Y311109D02*
X51523Y311109D01*
X51523Y319277D01*
X59691Y319277D01*
X59691Y316786D01*
X54014Y311109D01*
X51523Y311109D01*
G37*
%LPD*%
%LPC*%
G36*
X45986Y311109D02*
X45986Y311109D01*
X40309Y316786D01*
X40309Y319277D01*
X48477Y319277D01*
X48477Y311109D01*
X45986Y311109D01*
G37*
%LPD*%
G36*
X74054Y119742D02*
X74054Y119742D01*
X74125Y119748D01*
X74173Y119768D01*
X74224Y119779D01*
X74285Y119816D01*
X74351Y119844D01*
X74407Y119889D01*
X74435Y119906D01*
X74450Y119923D01*
X74482Y119949D01*
X84300Y129767D01*
X84353Y129841D01*
X84413Y129911D01*
X84425Y129941D01*
X84444Y129967D01*
X84471Y130054D01*
X84505Y130139D01*
X84509Y130180D01*
X84516Y130202D01*
X84515Y130234D01*
X84523Y130305D01*
X84523Y132019D01*
X84512Y132089D01*
X84510Y132161D01*
X84492Y132210D01*
X84484Y132261D01*
X84450Y132325D01*
X84425Y132392D01*
X84393Y132433D01*
X84368Y132479D01*
X84316Y132528D01*
X84272Y132584D01*
X84228Y132612D01*
X84190Y132648D01*
X84125Y132678D01*
X84065Y132717D01*
X84014Y132730D01*
X83967Y132752D01*
X83896Y132760D01*
X83826Y132777D01*
X83774Y132773D01*
X83723Y132779D01*
X83652Y132764D01*
X83581Y132758D01*
X83533Y132738D01*
X83482Y132727D01*
X83421Y132690D01*
X83355Y132662D01*
X83299Y132617D01*
X83271Y132600D01*
X83256Y132583D01*
X83224Y132557D01*
X73406Y122739D01*
X73353Y122665D01*
X73293Y122595D01*
X73281Y122565D01*
X73262Y122539D01*
X73235Y122452D01*
X73201Y122367D01*
X73197Y122326D01*
X73190Y122304D01*
X73191Y122272D01*
X73183Y122201D01*
X73183Y120487D01*
X73194Y120417D01*
X73196Y120345D01*
X73214Y120296D01*
X73222Y120245D01*
X73256Y120181D01*
X73281Y120114D01*
X73313Y120073D01*
X73338Y120027D01*
X73390Y119978D01*
X73434Y119922D01*
X73478Y119894D01*
X73516Y119858D01*
X73581Y119828D01*
X73641Y119789D01*
X73692Y119776D01*
X73739Y119754D01*
X73810Y119746D01*
X73880Y119729D01*
X73932Y119733D01*
X73983Y119727D01*
X74054Y119742D01*
G37*
G36*
X56524Y10934D02*
X56524Y10934D01*
X56596Y10936D01*
X56645Y10954D01*
X56696Y10962D01*
X56759Y10996D01*
X56827Y11021D01*
X56867Y11053D01*
X56913Y11078D01*
X56963Y11130D01*
X57019Y11174D01*
X57047Y11218D01*
X57083Y11256D01*
X57113Y11321D01*
X57152Y11381D01*
X57164Y11432D01*
X57186Y11479D01*
X57194Y11550D01*
X57212Y11620D01*
X57208Y11672D01*
X57213Y11723D01*
X57198Y11794D01*
X57193Y11865D01*
X57172Y11913D01*
X57161Y11964D01*
X57124Y12025D01*
X57096Y12091D01*
X57051Y12147D01*
X57035Y12175D01*
X57017Y12190D01*
X56991Y12222D01*
X55809Y13404D01*
X55735Y13457D01*
X55666Y13517D01*
X55636Y13529D01*
X55610Y13548D01*
X55523Y13575D01*
X55438Y13609D01*
X55397Y13613D01*
X55375Y13620D01*
X55342Y13619D01*
X55271Y13627D01*
X44729Y13627D01*
X44639Y13613D01*
X44548Y13605D01*
X44518Y13593D01*
X44486Y13588D01*
X44406Y13545D01*
X44322Y13509D01*
X44289Y13483D01*
X44269Y13472D01*
X44247Y13449D01*
X44191Y13404D01*
X43009Y12222D01*
X42967Y12164D01*
X42917Y12112D01*
X42895Y12065D01*
X42865Y12023D01*
X42844Y11954D01*
X42814Y11889D01*
X42808Y11837D01*
X42793Y11787D01*
X42795Y11716D01*
X42787Y11645D01*
X42798Y11594D01*
X42799Y11542D01*
X42824Y11474D01*
X42839Y11404D01*
X42866Y11359D01*
X42883Y11311D01*
X42928Y11255D01*
X42965Y11193D01*
X43005Y11159D01*
X43037Y11119D01*
X43097Y11080D01*
X43152Y11033D01*
X43200Y11014D01*
X43244Y10986D01*
X43314Y10968D01*
X43380Y10941D01*
X43451Y10933D01*
X43483Y10925D01*
X43506Y10927D01*
X43547Y10923D01*
X56453Y10923D01*
X56524Y10934D01*
G37*
G36*
X77682Y159187D02*
X77682Y159187D01*
X77705Y159185D01*
X77803Y159206D01*
X77901Y159221D01*
X77922Y159232D01*
X77946Y159237D01*
X78031Y159288D01*
X78120Y159333D01*
X78136Y159351D01*
X78157Y159363D01*
X78222Y159439D01*
X78291Y159510D01*
X78301Y159532D01*
X78317Y159550D01*
X78354Y159643D01*
X78397Y159732D01*
X78400Y159756D01*
X78409Y159778D01*
X78427Y159945D01*
X78427Y164791D01*
X78413Y164881D01*
X78405Y164972D01*
X78393Y165001D01*
X78388Y165033D01*
X78345Y165114D01*
X78309Y165198D01*
X78283Y165230D01*
X78272Y165251D01*
X78249Y165273D01*
X78204Y165329D01*
X75219Y168314D01*
X75199Y168328D01*
X75184Y168347D01*
X75100Y168400D01*
X75019Y168458D01*
X74996Y168465D01*
X74976Y168478D01*
X74879Y168501D01*
X74784Y168530D01*
X74760Y168530D01*
X74736Y168535D01*
X74637Y168527D01*
X74538Y168524D01*
X74515Y168516D01*
X74491Y168514D01*
X74401Y168474D01*
X74307Y168440D01*
X74288Y168424D01*
X74266Y168415D01*
X74193Y168348D01*
X74115Y168286D01*
X74102Y168266D01*
X74084Y168249D01*
X74036Y168163D01*
X73982Y168079D01*
X73976Y168055D01*
X73964Y168034D01*
X73946Y167937D01*
X73922Y167840D01*
X73924Y167816D01*
X73919Y167793D01*
X73933Y167694D01*
X73941Y167595D01*
X73950Y167573D01*
X73954Y167549D01*
X74021Y167396D01*
X75627Y164615D01*
X76931Y159748D01*
X76941Y159726D01*
X76945Y159702D01*
X76991Y159614D01*
X77032Y159524D01*
X77048Y159506D01*
X77060Y159485D01*
X77132Y159416D01*
X77199Y159343D01*
X77220Y159332D01*
X77238Y159315D01*
X77328Y159274D01*
X77415Y159226D01*
X77439Y159222D01*
X77461Y159212D01*
X77560Y159201D01*
X77658Y159184D01*
X77682Y159187D01*
G37*
G36*
X63895Y177932D02*
X63895Y177932D01*
X63919Y177933D01*
X64012Y177967D01*
X64107Y177995D01*
X64127Y178009D01*
X64150Y178017D01*
X64227Y178079D01*
X64309Y178136D01*
X64323Y178156D01*
X64342Y178171D01*
X64395Y178255D01*
X64454Y178335D01*
X64462Y178357D01*
X64475Y178378D01*
X64499Y178474D01*
X64529Y178569D01*
X64529Y178593D01*
X64535Y178616D01*
X64527Y178715D01*
X64525Y178815D01*
X64517Y178837D01*
X64516Y178861D01*
X64477Y178953D01*
X64444Y179047D01*
X64429Y179066D01*
X64419Y179088D01*
X64314Y179219D01*
X62329Y181204D01*
X62255Y181257D01*
X62185Y181317D01*
X62155Y181329D01*
X62129Y181348D01*
X62042Y181375D01*
X61957Y181409D01*
X61916Y181413D01*
X61894Y181420D01*
X61862Y181419D01*
X61791Y181427D01*
X59677Y181427D01*
X59653Y181423D01*
X59629Y181426D01*
X59532Y181404D01*
X59434Y181388D01*
X59413Y181376D01*
X59389Y181371D01*
X59304Y181319D01*
X59217Y181272D01*
X59200Y181255D01*
X59180Y181242D01*
X59116Y181166D01*
X59047Y181094D01*
X59037Y181072D01*
X59022Y181054D01*
X58986Y180961D01*
X58944Y180871D01*
X58941Y180847D01*
X58932Y180825D01*
X58928Y180725D01*
X58917Y180627D01*
X58922Y180603D01*
X58921Y180579D01*
X58948Y180483D01*
X58969Y180386D01*
X58981Y180366D01*
X58988Y180342D01*
X59044Y180260D01*
X59095Y180175D01*
X59113Y180159D01*
X59127Y180140D01*
X59206Y180080D01*
X59282Y180015D01*
X59304Y180006D01*
X59324Y179992D01*
X59480Y179931D01*
X60615Y179627D01*
X63396Y178021D01*
X63418Y178013D01*
X63438Y177999D01*
X63532Y177969D01*
X63626Y177934D01*
X63650Y177933D01*
X63673Y177926D01*
X63772Y177929D01*
X63871Y177925D01*
X63895Y177932D01*
G37*
%LPC*%
G36*
X152699Y309999D02*
X152699Y309999D01*
X152699Y310001D01*
X152701Y310001D01*
X152701Y309999D01*
X152699Y309999D01*
G37*
%LPD*%
%LPC*%
G36*
X49999Y320799D02*
X49999Y320799D01*
X49999Y320801D01*
X50001Y320801D01*
X50001Y320799D01*
X49999Y320799D01*
G37*
%LPD*%
%LPC*%
G36*
X299999Y321999D02*
X299999Y321999D01*
X299999Y322001D01*
X300001Y322001D01*
X300001Y321999D01*
X299999Y321999D01*
G37*
%LPD*%
%LPC*%
G36*
X315899Y42179D02*
X315899Y42179D01*
X315899Y42181D01*
X315901Y42181D01*
X315901Y42179D01*
X315899Y42179D01*
G37*
%LPD*%
D10*
X140000Y84840D03*
D11*
X140000Y105160D03*
D10*
X210000Y84840D03*
D11*
X210000Y105160D03*
D12*
X272800Y228000D03*
X171200Y228000D03*
D13*
X149600Y177220D02*
X149600Y161980D01*
X175000Y161980D02*
X175000Y177220D01*
X200400Y177220D02*
X200400Y161980D01*
D14*
X315900Y42180D03*
X280900Y42180D03*
D15*
X239300Y20400D03*
D16*
X213900Y20400D03*
D15*
X137700Y20400D03*
D16*
X112300Y20400D03*
D17*
X36000Y18200D03*
X36000Y119800D03*
D18*
X64000Y119800D03*
X64000Y18200D03*
D19*
X291000Y322000D02*
X309000Y322000D01*
X309000Y264000D02*
X291000Y264000D01*
X252000Y285000D02*
X252000Y303000D01*
D20*
X104600Y260000D03*
X155400Y260000D03*
D15*
X207300Y330000D03*
D16*
X232700Y330000D03*
D21*
X330000Y210000D03*
X330000Y235400D03*
X330000Y184600D03*
X20000Y210000D03*
X20000Y184600D03*
X20000Y235400D03*
D18*
X50000Y320800D03*
X50000Y219200D03*
X80000Y320800D03*
X80000Y219200D03*
D22*
X127300Y310000D03*
X152700Y310000D03*
D12*
X124200Y55000D03*
X225800Y55000D03*
D23*
X280000Y70000D03*
X300000Y70000D03*
X320000Y70000D03*
X90000Y110000D03*
X64000Y49000D03*
X64000Y87000D03*
X36000Y87000D03*
X36000Y48000D03*
X50000Y250000D03*
X50000Y290000D03*
X50000Y270000D03*
X80000Y270000D03*
X80000Y250000D03*
X80000Y290000D03*
X300000Y290000D03*
X330000Y290000D03*
X330000Y320000D03*
X100000Y80000D03*
X190000Y290000D03*
X210000Y290000D03*
X130000Y330000D03*
X150000Y330000D03*
X160000Y20000D03*
X190000Y20000D03*
X190000Y110000D03*
X160000Y110000D03*
X330000Y140000D03*
X240000Y160000D03*
X240000Y180000D03*
X240000Y200000D03*
X220000Y200000D03*
X110000Y170000D03*
X110000Y150000D03*
X110000Y116000D03*
X240000Y116000D03*
D24*
X300000Y264000D02*
X270000Y294000D01*
X270000Y320000D02*
X260000Y330000D01*
X232700Y330000D01*
X270000Y320000D02*
X270000Y294000D01*
X300000Y240000D02*
X330000Y210000D01*
X300000Y240000D02*
X300000Y264000D01*
X286600Y228000D02*
X330000Y184600D01*
X286600Y228000D02*
X272800Y228000D01*
X136600Y228000D02*
X104600Y260000D01*
X136600Y228000D02*
X171200Y228000D01*
X200400Y169600D02*
X200400Y114760D01*
X210000Y105160D01*
X225800Y89360D01*
X225800Y55000D01*
X200400Y169600D02*
X200400Y230600D01*
X171000Y260000D02*
X155400Y260000D01*
X171000Y260000D02*
X200400Y230600D01*
D25*
X149600Y169600D02*
X120000Y140000D01*
X120000Y74200D01*
X64000Y18200D02*
X36000Y18200D01*
X64000Y18200D02*
X120000Y74200D01*
D24*
X175000Y153000D02*
X175000Y169600D01*
X175000Y153000D02*
X175000Y60000D01*
X273593Y34873D02*
X280900Y42180D01*
D25*
X138000Y182300D02*
X97700Y182300D01*
X80000Y200000D02*
X80000Y219200D01*
X80000Y200000D02*
X97700Y182300D01*
D24*
X175000Y60000D02*
X170000Y55000D01*
X124200Y55000D01*
X175000Y60000D02*
X175000Y45000D01*
X210000Y34873D02*
X273593Y34873D01*
X210000Y34873D02*
X185127Y34873D01*
X175000Y45000D01*
X213900Y30973D02*
X213900Y20400D01*
X213900Y30973D02*
X210000Y34873D01*
D25*
X47800Y108000D02*
X36000Y119800D01*
X89096Y173696D02*
X97700Y182300D01*
X69000Y108000D02*
X47800Y108000D01*
X69000Y108000D02*
X89096Y128096D01*
X89096Y173696D01*
X154600Y190000D02*
X175000Y169600D01*
X145700Y190000D02*
X138000Y182300D01*
X145700Y190000D02*
X154600Y190000D01*
D24*
X140000Y118000D02*
X140000Y105160D01*
X140000Y118000D02*
X175000Y153000D01*
D25*
X50000Y204000D02*
X50000Y219200D01*
X50000Y204000D02*
X50000Y193000D01*
X44000Y210000D02*
X20000Y210000D01*
X44000Y210000D02*
X50000Y204000D01*
X83000Y138800D02*
X64000Y119800D01*
X57000Y186000D02*
X50000Y193000D01*
X83000Y167000D02*
X83000Y138800D01*
X83000Y167000D02*
X64000Y186000D01*
X57000Y186000D01*
X90800Y310000D02*
X127300Y310000D01*
X90800Y310000D02*
X80000Y320800D01*
M02*
